<svg version="1.1" id="Layer_1" xmlns="http://www.w3.org/2000/svg" x="0" y="0" viewBox="0 0 450 300" xml:space="preserve">
  <style>
    .st0{fill:#f1eef7}.st1{fill:#f5a120}.st2{fill:#ffce52}.st3{fill:#9696c9}.st4{fill:gray}.st8{fill:#fff}.st9{fill:#ffaa81}.st10{fill:#393768}.st11{fill:#bc9371}.st13{fill:#42210b}.st15{fill:#292951}.st18{fill:#656baf}.st19{fill:#2a425b}
  </style>
  <path class="st0" d="M137.3 188c-14.3-8.4-56.9 26.9-94 27.7-37 .8-47.7-27.5-14.9-53.9S7.7 116.2 22.6 83c14.9-33.3 53.7-10 90.8-21.4 37-11.4 49.9-5.1 58.8 15.4 8.9 20.5-13.3 44.1 31 55.5 44.3 11.4 61.7 46.5 55.7 63.4-6 16.6-32.3 44.6-121.6-7.9z"/>
  <path class="st0" d="M187.1 63.3c-11.3 11-9.3 42.9.6 51.2 9.9 8.3 55.9 5.2 64.8 27.7 8.9 22.5 46.8-18.1 13.2-36.2-27.5-14.8-35.6-3.5-39.6-27.7-4.4-26.1-25.1-28.6-39-15z"/>
  <path class="st0" d="M301.9 150.3c-14.3-8.4-56.9 26.9-94 27.7-37 .8-47.7-27.5-14.9-53.9s-20.7-45.6-5.8-78.9c14.9-33.3 53.7-10 90.8-21.4 37-11.4 49.9-5.1 58.8 15.4 8.9 20.5-13.3 44.1 31 55.5 44.3 11.4 61.7 46.5 55.7 63.4-5.9 16.6-32.2 44.7-121.6-7.8z"/>
  <path class="st0" d="M351.8 25.5c-11.3 11-9.3 42.9.6 51.2 9.9 8.3 55.9 5.2 64.8 27.7 8.9 22.5 46.8-18.1 13.2-36.2-27.5-14.8-35.6-3.5-39.6-27.7-4.4-26-25.1-28.5-39-15z"/>
  <path class="st1" d="M165.4 263.2h106.2v2.1H165.4z"/>
  <path class="st2" d="M246.9 232.9h-56.8s.9 27.4-10.1 30.3h76.8c-10.8-2.9-9.9-30.3-9.9-30.3z"/>
  <path class="st1" d="M347.1 233.1H89.9c-10.8 0-19.7-8.9-19.7-19.7V48.6c0-10.8 8.9-19.7 19.7-19.7H347c10.8 0 19.7 8.9 19.7 19.7v164.8c.1 10.8-8.8 19.7-19.6 19.7z"/>
  <path class="st2" d="M72 205.6v20.1c0 4.1 3.3 7.4 7.4 7.4h278.3c4.1 0 7.4-3.3 7.4-7.4v-20.1H72z"/>
  <path class="st1" d="M365.1 205.6v20.1c0 4.1-3.3 7.4-7.4 7.4H79.3c-4.1 0-7.4-3.3-7.4-7.4v-20.1h293.2m1.7-1.7H70.3v21.8c0 5 4.1 9.1 9.1 9.1h278.3c5 0 9.1-4.1 9.1-9.1v-21.8z"/>
  <path class="st3" d="M82.5 41.3h271.9v151.6H82.5z"/>
  <path class="st4" d="M220.2 35.7c-.6 0-1-.5-1-1 0-.6.5-1 1-1 .6 0 1 .5 1 1s-.5 1-1 1zm0-1.9c-.5 0-.8.4-.8.8 0 .5.4.8.8.8.5 0 .8-.4.8-.8s-.4-.8-.8-.8zM217.1 34.7c0 .4-.3.7-.7.7-.4 0-.7-.3-.7-.7 0-.4.3-.7.7-.7.4 0 .7.3.7.7z"/>
  <path d="M354 265.3c-3.6 0-233.2 0-239.6.1-6.5.1-45.1-.3-45.4 3.8-.3 4.1 22.9 7.6 22.9 7.6.1-.6.3-1.1.7-1.5 1.4-1.5 3.7-1 4.6.9 3.4 7.6 40.2 14.4 74.2 15.3 36.8 1.1 59.3-2.6 70.7-4.9 11.3-2.4 24-3.4 24-3.4-6-.7-10.3-2.8-10.3-2.8s17.5 3.8 52.8 3.2c34.3-.6 58.8-3.1 63.8-5.5 6.1-2.9 5-3.8 15.7-5.4 9.5-2-.3-4.8-.3-4.8s2.9.1 8.2.2c1-.6 13.9-1.8 15-2.4l-57-.4z" fill="#e4d8eb"/>
  <path class="st0" d="M295.3 136.8h-11.7c-.4 0-.8-.4-.8-.9s.3-.9.8-.9h11.7c.4 0 .8.4.8.9s-.3.9-.8.9zM326 136.8h-22.1c-.4 0-.8-.4-.8-.9s.3-.9.8-.9H326c.4 0 .8.4.8.9s-.4.9-.8.9zM336.1 132.8h-11.7c-.4 0-.8-.4-.8-.9s.3-.9.8-.9h11.7c.4 0 .8.4.8.9s-.3.9-.8.9zM336.5 141.7h-22.1c-.4 0-.8-.4-.8-.9s.3-.9.8-.9h22.1c.4 0 .8.4.8.9s-.4.9-.8.9zM268.2 162.6h-11.7c-.4 0-.8-.4-.8-.9s.3-.9.8-.9h11.7c.4 0 .8.4.8.9s-.3.9-.8.9z"/>
  <path class="st0" d="M278.6 162.6h-22.1c-.4 0-.8-.4-.8-.9s.3-.9.8-.9h22.1c.4 0 .8.4.8.9-.1.5-.4.9-.8.9z"/>
  <path class="st0" d="M278.6 162.6h-22.1c-.4 0-.8-.4-.8-.9s.3-.9.8-.9h22.1c.4 0 .8.4.8.9-.1.5-.4.9-.8.9zM306.5 118.1h-50c-.4 0-.8-.4-.8-.9s.3-.9.8-.9h50c.4 0 .8.4.8.9-.1.5-.4.9-.8.9zM286.1 122.4h-29.6c-.4 0-.8-.4-.8-.9s.3-.9.8-.9h29.6c.4 0 .8.4.8.9s-.4.9-.8.9zM286.1 142.6h-29.6c-.4 0-.8-.4-.8-.9s.3-.9.8-.9h29.6c.4 0 .8.4.8.9s-.4.9-.8.9zM319.4 127.2h-62.9c-.4 0-.8-.4-.8-.9s.3-.9.8-.9h62.9c.4 0 .8.4.8.9s-.4.9-.8.9zM306.7 151.6h-50.2c-.4 0-.8-.4-.8-.9s.3-.9.8-.9h50.2c.4 0 .8.4.8.9s-.4.9-.8.9zM306.7 157.7h-50.2c-.4 0-.8-.4-.8-.9s.3-.9.8-.9h50.2c.4 0 .8.4.8.9 0 .4-.4.9-.8.9zM310.1 131.9h-53.6c-.4 0-.8-.4-.8-.9s.3-.9.8-.9h53.6c.4 0 .8.4.8.9s-.4.9-.8.9zM279.2 136.9h-22.8c-.4 0-.8-.4-.8-.9s.3-.9.8-.9h22.8c.4 0 .8.4.8.9s-.3.9-.8.9zM335.3 122.6h-30.4c-.4 0-.8-.4-.8-.9s.3-.9.8-.9h30.4c.4 0 .8.4.8.9s-.3.9-.8.9z"/>
  <g>
    <path class="st0" d="M302.6 60h-47.9c-.4 0-.7-.4-.7-.8 0-.5.3-.8.7-.8h47.9c.4 0 .7.4.7.8.1.4-.2.8-.7.8zM330.9 72.5h-13.5c-.4 0-.7-.4-.7-.8 0-.5.3-.8.7-.8h13.5c.4 0 .7.4.7.8.1.5-.3.8-.7.8zM283.1 64h-28.4c-.4 0-.7-.4-.7-.8 0-.5.3-.8.7-.8h28.4c.4 0 .7.4.7.8.1.4-.3.8-.7.8zM266 87.2h-11.3c-.4 0-.7-.4-.7-.8 0-.5.3-.8.7-.8H266c.4 0 .7.4.7.8s-.3.8-.7.8zM307.5 87.2h-21.2c-.4 0-.7-.4-.7-.8 0-.5.3-.8.7-.8h21.2c.4 0 .7.4.7.8s-.3.8-.7.8zM330.9 96.8h-76.2c-.4 0-.7-.4-.7-.8s.3-.8.7-.8h76.2c.4 0 .7.4.7.8s-.3.8-.7.8zM315 68.3h-60.3c-.4 0-.7-.4-.7-.8 0-.5.3-.8.7-.8H315c.4 0 .7.4.7.8.1.4-.3.8-.7.8zM306.1 72.5h-51.4c-.4 0-.7-.4-.7-.8 0-.5.3-.8.7-.8h51.4c.4 0 .7.4.7.8 0 .5-.3.8-.7.8zM276.6 77.1h-21.8c-.4 0-.7-.4-.7-.8 0-.5.3-.8.7-.8h21.8c.4 0 .7.4.7.8s-.3.8-.7.8zM315 83.1h-60.3c-.4 0-.7-.4-.7-.8 0-.5.3-.8.7-.8H315c.4 0 .7.4.7.8.1.4-.3.8-.7.8zM330.9 77.1h-29.1c-.4 0-.7-.4-.7-.8 0-.5.3-.8.7-.8h29.1c.4 0 .7.4.7.8.1.4-.3.8-.7.8zM263.4 91.4h-8.7c-.4 0-.7-.4-.7-.8 0-.5.3-.8.7-.8h8.7c.4 0 .7.4.7.8s-.3.8-.7.8zM284.5 91.4h-16.3c-.4 0-.7-.4-.7-.8 0-.5.3-.8.7-.8h16.3c.4 0 .7.4.7.8s-.3.8-.7.8zM307.1 91.4h-18.7c-.4 0-.7-.4-.7-.8 0-.5.3-.8.7-.8h18.7c.4 0 .7.4.7.8.1.4-.2.8-.7.8zM330.2 91.4h-18.7c-.4 0-.7-.4-.7-.8 0-.5.3-.8.7-.8h18.7c.4 0 .7.4.7.8s-.3.8-.7.8z"/>
  </g>
  <g>
    <path class="st0" d="M151.1 60h-47.9c-.4 0-.7-.4-.7-.8 0-.5.3-.8.7-.8h47.9c.4 0 .7.4.7.8s-.3.8-.7.8zM179.3 72.5h-13.5c-.4 0-.7-.4-.7-.8 0-.5.3-.8.7-.8h13.5c.4 0 .7.4.7.8.1.5-.3.8-.7.8zM131.5 64h-28.4c-.4 0-.7-.4-.7-.8 0-.5.3-.8.7-.8h28.4c.4 0 .7.4.7.8.1.4-.2.8-.7.8zM114.4 87.2h-11.3c-.4 0-.7-.4-.7-.8 0-.5.3-.8.7-.8h11.3c.4 0 .7.4.7.8s-.3.8-.7.8zM155.9 87.2h-21.2c-.4 0-.7-.4-.7-.8 0-.5.3-.8.7-.8h21.2c.4 0 .7.4.7.8s-.3.8-.7.8zM179.3 96.8h-76.2c-.4 0-.7-.4-.7-.8s.3-.8.7-.8h76.2c.4 0 .7.4.7.8s-.3.8-.7.8zM163.4 68.3h-60.3c-.4 0-.7-.4-.7-.8 0-.5.3-.8.7-.8h60.3c.4 0 .7.4.7.8.1.4-.3.8-.7.8zM154.5 72.5h-51.4c-.4 0-.7-.4-.7-.8 0-.5.3-.8.7-.8h51.4c.4 0 .7.4.7.8.1.5-.3.8-.7.8zM125 77.1h-21.8c-.4 0-.7-.4-.7-.8 0-.5.3-.8.7-.8H125c.4 0 .7.4.7.8s-.3.8-.7.8zM163.4 83.1h-60.3c-.4 0-.7-.4-.7-.8 0-.5.3-.8.7-.8h60.3c.4 0 .7.4.7.8.1.4-.3.8-.7.8zM179.3 77.1h-29.1c-.4 0-.7-.4-.7-.8 0-.5.3-.8.7-.8h29.1c.4 0 .7.4.7.8.1.4-.3.8-.7.8zM111.8 91.4h-8.7c-.4 0-.7-.4-.7-.8 0-.5.3-.8.7-.8h8.7c.4 0 .7.4.7.8s-.3.8-.7.8zM132.9 91.4h-16.3c-.4 0-.7-.4-.7-.8 0-.5.3-.8.7-.8h16.3c.4 0 .7.4.7.8s-.3.8-.7.8zM155.6 91.4h-18.7c-.4 0-.7-.4-.7-.8 0-.5.3-.8.7-.8h18.7c.4 0 .7.4.7.8s-.3.8-.7.8zM178.6 91.4h-18.7c-.4 0-.7-.4-.7-.8 0-.5.3-.8.7-.8h18.7c.4 0 .7.4.7.8.1.4-.3.8-.7.8z"/>
  </g>
  <g>
    <path d="M306.7 15.3c0-5.2-4.2-9.5-9.5-9.5h-.7c-5.2 0-9.5 4.2-9.5 9.5v13.3h19.6V15.3z" fill="#b3b3b3"/>
    <path class="st0" d="M296.5 5.8H147c-5.2 0-9.5 4.2-9.5 9.5 0 0 1.4 202.4 1.4 203.5h139.2c8.3 0 10.2-7.1 10.2-9.2L287 15.3c0-5.2 4.3-9.5 9.5-9.5z"/>
    <path d="M270.2 211.8H125.6c1.1 4 4.8 7 9.1 7h144.6c-4.3 0-8-3-9.1-7z" fill="#ccc"/>
  </g>
  <g>
    <path class="st3" d="M263.9 48.1h-57.8c-.5 0-.9-.4-.9-.9v-1.6c0-.5.4-.9.9-.9h57.8c.5 0 .9.4.9.9v1.6c0 .5-.4.9-.9.9zM263.9 56.9h-57.8c-.5 0-.9-.4-.9-.9v-1.6c0-.5.4-.9.9-.9h57.8c.5 0 .9.4.9.9V56c0 .4-.4.9-.9.9zM263.9 65.6h-57.8c-.5 0-.9-.4-.9-.9v-1.6c0-.5.4-.9.9-.9h57.8c.5 0 .9.4.9.9v1.6c0 .5-.4.9-.9.9zM263.9 74.4h-57.8c-.5 0-.9-.4-.9-.9v-1.6c0-.5.4-.9.9-.9h57.8c.5 0 .9.4.9.9v1.6c0 .5-.4.9-.9.9zM263.9 83.2h-57.8c-.5 0-.9-.4-.9-.9v-1.6c0-.5.4-.9.9-.9h57.8c.5 0 .9.4.9.9v1.6c0 .5-.4.9-.9.9zM263.9 92H163.4c-.5 0-.9-.4-.9-.9v-1.6c0-.5.4-.9.9-.9h100.4c.5 0 .9.4.9.9V91c.1.5-.3 1-.8 1zM207.3 100.7h-43.8c-.6 0-1.1-.5-1.1-1.1v-1.3c0-.6.5-1.1 1.1-1.1h43.8c.6 0 1.1.5 1.1 1.1v1.3c0 .7-.5 1.1-1.1 1.1zM207.3 109.5h-43.8c-.6 0-1.1-.5-1.1-1.1v-1.3c0-.6.5-1.1 1.1-1.1h43.8c.6 0 1.1.5 1.1 1.1v1.3c0 .6-.5 1.1-1.1 1.1zM186.2 117.9h-22.6c-.6 0-1.1-.5-1.1-1.1v-1.3c0-.6.5-1.1 1.1-1.1h22.6c.6 0 1.1.5 1.1 1.1v1.3c0 .6-.5 1.1-1.1 1.1z"/>
    <g>
      <path class="st3" d="M179.8 79.2v-2.3l3.3-.4-1.9-6.9h-10.9l-1.9 6.9 3.2.4v2.3H162v-2.3l1.7-.5c.5-.1.8-.3 1-.8l8.8-27.8h5.4l8.8 27.9c.2.5.5.6.9.7l1.8.5v2.3h-10.6zm-3.9-27.8h-.1l-4.4 15h8.9l-4.4-15z"/>
    </g>
    <g>
      <path class="st3" d="M194.2 73.1v-1.5l2-.2-1.2-4.3h-6.7l-1.2 4.3 2 .2v1.5h-6v-1.5l1-.3c.3-.1.5-.2.6-.5l5.5-17.3h3.3l5.5 17.4c.1.3.3.4.6.5l1.1.3v1.5h-6.5zm-2.5-17.3l-2.8 9.3h5.5l-2.7-9.3z"/>
    </g>
    <g>
      <path class="st1" d="M216.1 97.7h47.6v29h-47.6z"/>
      <path class="st8" d="M218.9 100.5h41.7v23.4h-41.7z"/>
      <path class="st1" d="M256.5 121.4c-.7-1.2-6.2-9.4-6.9-10.4-.7-1-1.4-2.1-1.9-1.3s-.6 1.1-1.5.2c-3.4-5.5-4.7-3.4-8.1 1.6-3.4 5-4.7 4.6-5.4 3.8-4-7.3-9.1 3.9-10.1 6.2h33.9zM234.3 106.7c0 1.9-1.6 3.4-3.7 3.4-2 0-3.7-1.5-3.7-3.4s1.6-3.4 3.7-3.4 3.7 1.5 3.7 3.4z"/>
    </g>
  </g>
  <g>
    <path class="st9" d="M179.1 150.4s10.8-6 12.7-7.6c1.9-1.5 2.6-2.7 1.9-7.9-.7-5.2-1.6-10.8-2.1-11.5-.5-.7-1.7-1.1-3.1-1.7-1.4-.6-3.5-1.7-2.7-1.9.8-.2 2.3.1 2.6.3.3.2 1.7.6 1.7.6s.5-1.2-.1-1.7c-.5-.5-3.5-.6-3.8-.6-.3-.1-.7-.8 1-1.1 1.7-.3 2.1-.3 2.9 0 .7.3 2.6 1.5 3 2 .4.5.3 2.6.6 3.4.2.8 3.5 9.2 4.3 12.1.8 3 3.5 6-1 11.1s-18.7 18.2-18.7 18.2-3.8-3.1-4-6.8c-.3-3.7 4.8-6.9 4.8-6.9z"/>
    <path class="st10" d="M192.3 150.3l-.2-.2c-.2-.3-.5-.6-.7-.8-.5-.6-1.1-1.2-1.7-1.7l-.2-.2s-.1-.1-.2-.1c-.3-.2-.6-.4-.9-.5-.1-.1-.6-.3-.6-.3-.2-.1-.4-.1-.6-.2-.2 0-.3-.1-.5-.2-3.6 2.1-7.5 4.3-7.5 4.3s-5.2 3.2-4.9 6.9c.2 3.7 4 6.8 4 6.8s8.3-7.7 14.2-13.6l-.2-.2z"/>
    <path class="st11" d="M164.3 275.1c-.3 2.4-.6 5.8-.5 8.4 0 0 .2.1.5.2-.2 1.7-.3 3.4-.4 5.1-1.7-.3-3.1-.7-3.1-.7-.8-1.8-1.1-7.8-1.2-12.6 1.5.4 3.2-.3 4.7-.4zM176 274.2c-.5 2.4-1.2 6.6-1.3 9.2 0 0 5.7 2.8 6.3 3.9.7 1.1-.1 1.6-3 1.8-2.9.2-6.6-1.3-6.6-1.3-.6-1.9-.5-7.8-.2-12.6 1.5.4 3.3-1 4.8-1z"/>
    <path class="st3" d="M175.3 190.2c-1.7 0-3 .6-4 1.5-.9-.8-2.1-1.4-3.7-1.4-7.6-.3-10.3 5.1-10.1 10.9 0 .6.4 45.3 1.9 74.6 1.2 0 3.7-.1 4.8-.1.5-8.6 3.4-34.6 6-53.5.6 19 .7 44.8.9 53.4 1.2.1 3.3.2 4.5.3 4.9-26.4 9.3-73.6 9.3-74.3.5-5.9-2-11.4-9.6-11.4z"/>
    <path class="st9" d="M169.7 193.4s-3.2-.4-6.7-1.5c.3 1.2.5 2.4.5 3.7 1.4.1 2.7.2 3.5.2 3.2.2 6.7.3 7.7.3-.9-1-1.8-2.4-2.6-3.5-1 .2-2.4.8-2.4.8z"/>
    <path class="st9" d="M165.8 195.7c-.1-1.1-.4-2.3-.9-3.3-4.5-1.1-10.8-3.5-11.5-7.9-.7-4.5 4-18.3 6-24.3-.8-.2-1.6-.4-2.5-.5-1.8-.3-3.8-.3-5.6-.8-1.4 3.7-6.6 18.6-4.9 26.9 1.9 8.9 14.4 9.6 19.4 9.9zM162.1 145.6c0-.1 0-.3.1-.4l-.3-.6c-.9-1.9-.8-4.3.4-6 1.3-2.1 5.1-4 7.1-1.8 2.1 2.3 2.8 6.8 1.6 9.6-.2.5-.5 1-.9 1.4-.4.4-1 .6-1.6.7-.1 1.3-.4 2.6-.5 3.8-.1 1.4-.2 3-.9 3.8-.6.6-1.2.4-1.8.1-1.3-.7-2.8-1.5-3.6-3.5-.2-.5-.3-1-.3-1.6 0-.7.1-1.4.2-2.1.1-1.2.3-2.3.5-3.4z"/>
    <path class="st10" d="M181.1 165.1c-.3-1.1-.7-2.3-1.1-3.4.5-.1-1.5-6.9-2.4-10.4-2.9-.3-5.6-.6-6.9-.6h-.1-.3c.1-.6 0-1.1-1.4-1.3-2.5-.3-6.7.2-8 .5-.7.2-.6.6-.4 1.2 0 0 0-.1-.1-.1-.1.1-.2.1-.2.1s-9.6-.4-12.2 18.3c1 2.4 6.2 3.2 7.4 3.3.2-.3.4-1.2.6-2 .7 4.6 1 5.8 1.8 14.4-.5 6.5-.7 11.5-.3 11.8 1 .7 21.4.5 25.8-1.3.1 0 .3 0 .4-.1 2.3-.3.8-3.7.6-4.2-1.5-8.6-1-17.7-3.2-26.2z"/>
    <path class="st10" d="M184.1 194.3c-6.7-.2-13.5-2.8-18.1-7.6-4.3-4.5-6.9-10.6-9.1-16.4-.5-1.4-1-2.8-1.4-4.3l-.1.1c.7 4.6 1.8 10.5 2.5 19-.5 6.5-.7 11.5-.3 11.8 1 .7 21.4.5 25.8-1.3.1 0 .3 0 .4-.1.8-.1 1.1-.6 1.2-1.2h-.9z"/>
    <path d="M170.3 150.6c.1-.6 0-1.1-1.4-1.3-2.5-.3-6.7.2-8 .5-.6.1-.6.5-.5 1.1 3.3.8 10-.3 9.9-.3z" fill="#45446c"/>
    <path class="st13" d="M166 286.4c-.2-.8-.6-1.5-1-2.2-.4-.7-.7-1.3-1.3-1.9v-2c-1.4.2-2.7.2-4 .1.1 1 .1 1.9 0 2.8-.2.8-.3 1.7-.4 2.5-.1 1-.3 2.2.5 2.9.5.6 1.4.7 2.2.6.8-.1 2.9-.1 3.2-.2.2-.1.3-.2.4-.4.5-.6.6-1.5.4-2.2zM181 287.3c-.5-.8-3.5-2.5-5.2-3.3-.3-.6-.7-1.1-1.1-1.6.1-.8.1-1.5.2-2.2-1.4.1-2.7 0-4-.3v2.6c0 .1 0 .1-.1.2-.3 1-.4 2.1-.5 3.1-.1 1-.3 2.2.5 2.9.5.6 1.4.7 2.2.6.8-.1 2.9-.1 3.2-.2h.1c.6.1 1.1.1 1.6.1 3-.3 3.7-.7 3.1-1.9z"/>
    <g>
      <path class="st8" d="M181.7 117.6l-1.1-1.4 1.8-.2z"/>
      <path fill="#092140" d="M180.9 116.6l-.3-.4.4-.1z"/>
      <path class="st15" d="M195.5 121.5l-.4 1c-.1.2 0 .4.2.5l2 .8c.2.1.4 0 .5-.2l.4-1c.1-.2 0-.4-.2-.5l-2-.8c-.2-.1-.4 0-.5.2z"/>
      <path class="st15" d="M181.9 117l13.8 5.4-.2.5-13.8-5.3z"/>
      <path class="st15" d="M182.1 116.5l13.8 5.4-.2.5-13.8-5.4zM182.4 116l13.7 5.3-.2.6-13.8-5.4z"/>
      <path transform="rotate(-68.777 195.72078362 122.10154468)" fill="#f2f2f2" d="M194.9 121.9h1.7v.3h-1.7z"/>
    </g>
    <path class="st9" d="M189.9 119h.1c1 .5 2.1.8 3.2 1.2-.1-.5-.1-.8-.3-1-.4-.5-2.3-1.7-3-2-.7-.3-1.2-.3-2.9 0s-1.3 1.1-1 1.1c.4.1 3.4.1 3.9.7zM193.5 122.3c-.4-.2-.7-.4-1.1-.6-.4-.2-.9-.6-1.4-.7h-.1c-.5-.1-.9-.2-.9-.2s-1.4-.3-1.7-.6c-.3-.2-1.8-.6-2.6-.3-.8.2 1.3 1.4 2.7 1.9 1.4.6 2.6 1 3.1 1.7.1.2.3.6.4 1.3.7-.1 1.4-.2 2.1-.4-.3-.9-.6-1.5-.6-1.7.2-.2.1-.3.1-.4z"/>
    <path d="M172.7 137.5c-.3-.6-.8-1.1-1-1.8-.3-.6-.2-1-.2-1.7 0-.8-.1-1.5-.3-2-.2-.3-.5-.5-.9-.5l-1.8.3c-.6-.6-1.4-1.1-2.3-1.4-2.9-.8-6 .9-7.4 4-.3.3-.6.6-.8 1-.1.2-.2.4-.2.7 0 .2-.1.4-.2.5-.3.3-.5.6-.6 1-.5 2.1 2.4 3.9 2.8 6 .1.5 0 1 .1 1.5.3 1.8 2.5 3.3 4.9 3.4 2.4.1 4.7-1.2 5.1-2.9.1-.3.1-.5-.1-.8-.2-.4-.6-.6-.9-.9-1-1-.4-2.5 1-2.9.5-.1 1.2-.2 1.7-.2.3 0 .5-.2.6-.4.7-.8.9-1.7.5-2.9z" fill="#28306e"/>
  </g>
  <g>
    <path class="st10" d="M263.9 162.2h-47.7v-26.4h47.7v26.4zm-47.1-.7h46.3v-25h-46.3v25z"/>
    <path class="st10" d="M238.8 154.6c-3.8 0-6.9-3.1-6.9-6.9 0-3.8 3.1-6.9 6.9-6.9 3.8 0 6.9 3.1 6.9 6.9 0 3.8-3.1 6.9-6.9 6.9zm0-13.1c-3.4 0-6.2 2.8-6.2 6.2 0 3.4 2.8 6.2 6.2 6.2 3.4 0 6.2-2.8 6.2-6.2 0-3.4-2.8-6.2-6.2-6.2z"/>
    <path class="st10" d="M237 143.3l6.1 4.5-5.9 4.4zM219.2 157.8h42.1v.7h-42.1z"/>
    <path class="st8" d="M221.6 155.4l3.6 2.7-3.5 2.6z"/>
    <path class="st1" d="M222.1 156.2l2.4 1.8-2.4 1.8z"/>
  </g>
  <path class="st1" d="M282.5 255.7s4.9-2.9 6.1-6.8c.3-1.1.1-3.9-4.8-3.1-3.5.6-.6-3.7-3.4-5.8-2.7-1.9-4.1-.2-6.4-1.6-3.2-1.9-6.8-6.3-7.5-5.7-.7.6 4.7 6.6 5.3 8.6.5 1.8-.5 4.9 1.5 6.5 2.1 1.6 3.5-1 5.2 1 1.3 1.6-.9 8.2 4 6.9z"/>
  <path class="st2" d="M325.4 248.2s5 4.1 9.6 3.7c1.3-.1 4.2-1.5 1.3-6.3-2-3.5 3.7-2.1 4.7-5.9 1-3.6-1.3-4.4-.8-7.3.7-4.1 4-9.6 3-10.1-.9-.5-5 7.5-7 8.9-1.7 1.2-5.3 1.4-6.2 4.2-.9 2.8 2.4 3.3 1 5.8-1 2.1-8.9 2.4-5.6 7z"/>
  <path class="st18" d="M300.5 251.8s6.4.4 9.9-2.6c1-.9 2.5-3.6-2.6-5.9-3.7-1.6 1.8-3.8.4-7.5-1.3-3.5-3.6-2.8-4.9-5.5-1.8-3.8-2.4-10.1-3.4-10-1 .2.3 9-.5 11.3-.7 1.9-3.5 4.2-2.6 7 .9 2.8 3.9 1.2 4.2 4.1.3 2.4-5.9 7.2-.5 9.1z"/>
  <g>
    <path class="st19" d="M309.3 259.7c-.2.1-.5.1-.6-.1-.9-1.5-3.8-6.7-3.9-11.6-.1-4.6-1.2-8.8-1.6-10.1-.1-.2.1-.5.3-.5.2-.1.5.1.6.3.4 1.4 1.5 5.7 1.7 10.4.1 4.6 2.9 9.8 3.8 11.1 0 .1-.1.4-.3.5z"/>
  </g>
  <g>
    <path class="st19" d="M328 259.8c-.3 0-.4-.2-.4-.5.1-1.7.8-7.6 3.6-11.7 2.6-3.8 4.1-7.9 4.6-9.2.1-.2.3-.3.6-.3.2.1.4.3.3.6-.5 1.3-2.1 5.6-4.7 9.4-2.6 3.8-3.3 9.6-3.4 11.3-.1.3-.3.4-.6.4z"/>
  </g>
  <g>
    <path class="st19" d="M295.3 259.7c-.2.2-.4.2-.6.1-1.5-1.2-7.2-6-9.8-7-2.6-1-4.3-4-4.9-5.2-.1-.2 0-.5.2-.6.2-.1.5 0 .6.2.5 1 2 3.8 4.4 4.7 2.8 1.1 8.5 5.9 10 7.1.2.3.2.5.1.7z"/>
  </g>
  <path class="st10" d="M297.9 272.8s-16.6-17.2-6.7-22.8c9.9-5.6 8.7 13.3 15.6 8.8 7-4.5 3.1-24.1 14.1-24.2 10.9-.1 1.7 26.4 4.4 26.5 2.7.1 3.1-16.8 8.2-16s-5.7 26.3-5.7 26.3-6 5.8-29.9 1.4z"/>
  <g>
    <path class="st1" d="M151.6 262.6s-5.1-3-6.2-7c-.3-1.2-.1-4 5-3.2 3.6.6.6-3.8 3.5-5.9 2.7-2 4.2-.3 6.5-1.7 3.3-1.9 7-6.5 7.7-5.9.7.6-4.8 6.7-5.4 8.9-.5 1.8.5 5-1.6 6.7-2.1 1.6-3.6-1-5.3 1-1.4 1.5.9 8.4-4.2 7.1z"/>
    <path class="st2" d="M107.6 254.9s-5.1 4.2-9.8 3.8c-1.4-.1-4.3-1.5-1.4-6.5 2.1-3.6-3.8-2.2-4.8-6-1-3.7 1.4-4.5.9-7.5-.7-4.2-4.1-9.9-3.1-10.4 1-.5 5.2 7.7 7.2 9.2 1.7 1.2 5.5 1.4 6.4 4.3.9 2.9-2.5 3.4-1.1 6 1 2 9 2.3 5.7 7.1z"/>
    <path class="st18" d="M133.2 258.5s-6.6.4-10.2-2.6c-1.1-.9-2.6-3.7 2.6-6.1 3.8-1.7-1.8-4-.4-7.7 1.3-3.6 3.7-2.8 5.1-5.6 1.9-3.9 2.4-10.4 3.5-10.2s-.3 9.3.5 11.6c.7 2 3.6 4.4 2.7 7.2-1 2.9-4 1.3-4.4 4.3-.3 2.2 6.1 7.2.6 9.1z"/>
    <path class="st19" d="M124.1 266.6c.2.1.5.1.6-.2.9-1.5 3.9-6.9 4-11.9.1-4.7 1.3-9.1 1.7-10.4.1-.2-.1-.5-.3-.6-.2-.1-.5.1-.6.3-.4 1.4-1.6 5.9-1.7 10.6-.1 4.8-3 10-3.9 11.4-.1.4 0 .7.2.8zM104.9 266.8c.3 0 .5-.2.4-.5-.1-1.7-.8-7.8-3.7-12-2.6-3.9-4.2-8.1-4.7-9.4-.1-.2-.3-.4-.6-.3-.2.1-.4.3-.3.6.5 1.4 2.1 5.7 4.8 9.6 2.7 3.9 3.4 9.9 3.5 11.6.1.2.3.4.6.4zM138.5 266.7c.2.2.5.2.6.1 1.5-1.3 7.4-6.1 10-7.2 2.7-1.1 4.4-4.2 5-5.3.1-.2 0-.5-.2-.6-.2-.1-.5 0-.6.2-.5 1.1-2.1 3.9-4.5 4.9-2.8 1.1-8.8 6-10.3 7.3-.1.1-.1.4 0 .6z"/>
    <path class="st10" d="M135.8 280.1s17.1-17.6 6.9-23.4c-10.2-5.8-8.9 13.6-16 9s-3.2-24.7-14.4-24.8c-11.2-.1-1.7 27.1-4.5 27.2-2.8.1-3.2-17.2-8.4-16.4-5.2.8 5.9 27 5.9 27s6 5.9 30.5 1.4z"/>
  </g>
</svg>