<svg version="1.1" id="Layer_1" xmlns="http://www.w3.org/2000/svg" x="0" y="0" viewBox="0 0 450 300" xml:space="preserve">
  <style>
    .st0{fill:#f1eef7}.st2{fill:#acaad5}.st3{fill:#393768}.st5{fill:#9696c9}.st6{fill:#e5e8f5}.st8{fill:#f59f17}.st9{fill:#edb6a3}.st11{fill:#ffce52}.st12{fill:#8296cc}.st13{fill:#a28fc3}.st14{fill:#a7ceee}.st15{fill:#dfa393}.st16{opacity:5.000000e-02;enable-background:new}
  </style>
  <path class="st0" d="M167.2 227.5c33.3 31.2 55.6 16.2 66.5 1.3 26.6-36.3 7.9-44.4 53.6-55.6 45.7-11.3 46-75.8 8.9-101.6s-51.9-3.7-61.6-44.4c-12.6-53-87.7 35.4-68.5 77.8 19.3 42.3-36.3 87.4 1.1 122.5z"/>
  <circle class="st0" cx="263.8" cy="29.5" r="18"/>
  <circle class="st0" cx="290.8" cy="58.5" r="5.5"/>
  <path class="st0" d="M277.5 7.4c0 1.2-1 2.2-2.2 2.2s-2.2-1-2.2-2.2 1-2.2 2.2-2.2 2.2 1 2.2 2.2z"/>
  <circle class="st0" cx="286.7" cy="10.8" r="4"/>
  <path class="st0" d="M290.9 22.5c.6.6.6 1.6 0 2.2s-1.6.6-2.2 0-.6-1.6 0-2.2 1.6-.6 2.2 0z"/>
  <ellipse cx="227.9" cy="286.5" rx="155.6" ry="10.9" fill="#e4d8eb"/>
  <path class="st2" d="M94.8 276.5l-2.7.3c-4-37.3.4-51.2 3.4-60.4 2.3-7.3 3.8-11.8-.5-23.4-9.9-27.1-8.6-41.4-8.5-42l2.7.3c0 .1-1.3 14.3 8.4 40.8 4.6 12.5 3 17.6.6 25.2-3 8.9-7.4 22.5-3.4 59.2z"/>
  <path class="st3" d="M95.2 142c-.2 4.9-8.1 10.7-8.1 10.7s-7.3-6.6-7-11.5c.2-4.9 3.8-8.7 8-8.5 4.1.3 7.3 4.4 7.1 9.3z"/>
  <path class="st2" d="M91.8 139.2c-.1-.1-.3-.2-.5 0l-3.4 2.8.2-4.9c0-.2-.1-.3-.3-.3-.2 0-.3.1-.3.3l-.4 8.8-4.5-2.7c-.2-.1-.4 0-.5.1-.1.2 0 .4.1.5l4.8 2.9-.3 6.1c0 .2.1.3.3.3.2 0 .3-.1.3-.3l.5-9.8 3.9-3.2c.2-.2.2-.4.1-.6z"/>
  <path class="st3" d="M105.1 169.8c-2.8 4.1-12.5 5-12.5 5s-2.8-9.4-.1-13.5c2.8-4.1 7.8-5.5 11.3-3.1 3.5 2.4 4.1 7.6 1.3 11.6z"/>
  <path class="st2" d="M103.7 165.7c0-.2-.2-.3-.4-.3l-4.4.6 2.8-4.1c.1-.2.1-.4-.1-.5s-.4-.1-.5.1l-4.9 7.3-2.4-4.7c-.1-.2-.3-.2-.4-.1-.2.1-.2.3-.1.4l2.6 5-4 5.8c-.1.2-.1.4.1.5s.4.1.5-.1l6-8.8 5-.7c.1 0 .2-.2.2-.4z"/>
  <path class="st3" d="M75.3 175c4.5 2 13.2-2.5 13.2-2.5s-2.6-9.4-7.1-11.4-9.5-.4-11.2 3.4c-1.7 3.9.6 8.6 5.1 10.5z"/>
  <path class="st2" d="M74.3 170.8c-.1-.2 0-.4.2-.4l4.1-1.8-4.5-2c-.2-.1-.2-.3-.2-.4.1-.2.3-.2.4-.2l8 3.5-.4-5.2c0-.2.1-.3.3-.4.2 0 .3.1.4.3l.5 5.6 6.4 2.8c.2.1.2.3.2.4-.1.2-.3.2-.4.2l-9.8-4.2-4.6 2.1c-.3-.1-.5-.2-.6-.3z"/>
  <path class="st3" d="M108.3 235.3c-4.2 2.6-13.5-.5-13.5-.5s1.2-9.7 5.3-12.4c4.2-2.6 9.3-1.9 11.6 1.7s.7 8.6-3.4 11.2z"/>
  <path class="st2" d="M108.6 231c.1-.2-.1-.4-.2-.4l-4.3-1.2 4.2-2.6c.2-.1.2-.3.1-.5s-.3-.2-.5-.1l-7.4 4.7-.3-5.2c0-.2-.2-.3-.4-.3s-.3.2-.3.4l.4 5.6-5.9 3.7c-.2.1-.2.3-.1.5s.3.2.5.1l9.1-5.7 4.9 1.3c0-.1.2-.2.2-.3z"/>
  <path class="st3" d="M77.7 241.8c4.3 2.3 13.4-1.4 13.4-1.4s-1.9-9.6-6.2-12c-4.3-2.3-9.4-1.2-11.4 2.5-2.1 3.7-.2 8.6 4.2 10.9z"/>
  <path class="st2" d="M77 237.5c-.1-.2 0-.4.2-.4l4.2-1.5-4.3-2.3c-.2-.1-.2-.3-.1-.5s.3-.2.5-.1l7.7 4.2v-5.3c0-.2.1-.3.3-.3.2 0 .3.1.3.3v5.6l6.2 3.3c.2.1.2.3.1.5s-.3.2-.5.1l-9.5-5-4.8 1.7s-.2-.1-.3-.3z"/>
  <path class="st3" d="M114.1 208c-3.9 2.9-13.5.6-13.5.6s.4-9.8 4.4-12.7 9.2-2.6 11.7.8c2.5 3.3 1.3 8.4-2.6 11.3z"/>
  <path class="st2" d="M114.1 203.6c0-.2-.1-.4-.3-.4l-4.4-.8 3.9-2.9c.1-.1.2-.3.1-.5s-.3-.2-.5-.1l-7 5.2-.7-5.2c0-.2-.2-.3-.4-.3s-.3.2-.3.4l.8 5.6-5.6 4.1c-.1.1-.2.3-.1.5.1.1.3.2.5.1l8.6-6.4 5 1c.2 0 .4-.1.4-.3z"/>
  <path class="st3" d="M83.8 204.5c4.1 2.7 13.5-.2 13.5-.2s-1-9.8-5.1-12.5-9.3-2-11.6 1.5c-2.4 3.5-.9 8.5 3.2 11.2z"/>
  <path class="st2" d="M83.5 200.2c0-.2.1-.4.2-.4l4.3-1.1-4-2.7c-.2-.1-.2-.3-.1-.5s.3-.2.5-.1l7.3 4.8.4-5.2c0-.2.2-.3.4-.3s.3.2.3.4l-.5 5.6 5.9 3.8c.2.1.2.3.1.5s-.3.2-.5.1l-9-5.8-4.9 1.2c-.2-.1-.3-.2-.4-.3zM124.1 219.8c-3.9 12.4-4.6 16.6-4.4 32.8.1 16.3 2.6 11.7-6 14.2s-15.7 18-15.7 18-2.7.8-5.4 1.2c-.4.1-.8.1-1.2.1-2 .2-3.9-.1-4.3-1.3-1-3.1-3.8-9.8-9.9-14.6-6.2-4.8.5-12-5.1-22.3s-9.1-17.1.7-17.3c.3 0 .5 0 .8.1 1.5.2 3 1 4.5 2.2.6.5 1.3 1.1 1.8 1.8.3.3.6.7.9 1 .1.2.3.4.5.6 1.4 1.7 2.7 3.7 4 5.8 2.1 3.6 4 7.3 5.3 10.2 1.4 3.2 2.3 5.4 2.3 5.4s.2-.4.5-1.1c.8-2 2-6.4 0-11.2-.2-.5-.5-1.1-.8-1.6-.7-1.2-1.2-2.2-1.6-3.1v-.2c-.2-.3-.3-.6-.4-.9-.6-1.5-.8-2.6-.5-3.6.2-.7.8-1.3 1.6-1.9.7-.5 1.7-.9 2.9-1.3l.9-.3c.1 0 .2-.1.3-.1 1.5-.5 2.8-1.9 4.1-4 .2-.3.4-.7.6-1.1 1-1.7 2-3.9 3-6.1 1.7-3.7 3.7-7.8 6.2-11.8 1.3-1.9 2.7-3.8 4.3-5.5l.3-.3c1.2-1.3 2.5-2.4 3.9-3.5 1.2-.9 2.4-1.7 3.7-2.4 16.7-9.1 6.1 9.7 2.2 22.1z"/>
  <path d="M123 210c-4.4 4.8-7.5 10.6-10.4 16.5-.2.3-.3.7-.5 1-1.2 2.5-2.2 4.9-3.3 7.4-1.6 3.9-3.1 7.8-4.5 11.7-2.3 6.5-4.4 13.1-6.4 19.7-2 6.5-3.8 13.1-5.4 19.7-.4.1-.8.1-1.2.1-.6-3.3-1.3-6.7-2-10-.7-3.4-1.5-6.7-2.5-10-.9-3.3-1.9-6.6-3.2-9.8-1.2-3.2-2.6-6.4-4.7-9.1 2.3 2.6 3.8 5.8 5.1 8.9 1.3 3.2 2.5 6.4 3.5 9.7 1.7 5.8 3.2 11.6 4.4 17.5.6-2.3 1.1-4.5 1.7-6.8.2-1 .5-1.9.8-2.8.7-2.6 1.4-5.3 2.2-7.9 2-6.6 4.2-13.2 6.6-19.7 1.3-3.5 2.7-7 4.2-10.5 1.3-2.9 2.6-5.8 4-8.6.3-.6.6-1.2.9-1.7 1.3-2.5 2.7-4.9 4.2-7.3 1.9-2.8 4-5.6 6.5-8z" fill="#fff"/>
  <path class="st5" d="M366.8 190.2s9.7-6.6 9.3-13.9c-.3-7.3-1.2-23.9 10.6-17.4 11.7 6.5 6.4 16.8 5.7 30.2-.7 13.4 1.7 17.4 4.9 26.6 3.2 9.2-21.5 8-27.8 23.3-6.5 15.3-21.8-43.5-2.7-48.8z"/>
  <path class="st2" d="M348 247.8c19.9 0 29.6-6.1 23.7-16.3s-5.6-7.7-.3-19.1c5.4-11.5 8.2-12.2-1.8-20.7-9.9-8.4-8.7-19.1-7.5-34.4 1.1-15.3-20-22.4-23.9-7.9-3.8 14.5-13.5 16.1-9.2 28.1s13.5 18.4 9.7 28.3c-3.8 9.9-17.9 16.1-10.5 28.3 7.5 12.1 19.8 13.7 19.8 13.7z"/>
  <path class="st6" d="M365.5 229.2l-.7-1.4-12.8 7.6v-35.6l9.8-8.3-1-1.1-8.8 7.4v-30.1h-1.5v13l-11.7-8.1-.9 1.2 12.6 8.7V226l-12.6-8.8-.9 1.3 13.5 9.3v51.5h1.5v-42.1z"/>
  <path d="M310.7 282c18.9 1.4 38 1.4 57.4 0 0 0 9.8-4.8 6.7-7.5-3.1-2.7-12.4 1.9-16.5 1.4s0-6.4 4.9-7.1 10.9-14 2.7-12.4c-8.2 1.6-17.3 9.1-15.8 2.9 1.5-6.3 15.1-6.4 15.1-12.4s-10.7-14.3-13.7-8.3-10.1 18.2-13.5 14-15.5-11.8-17-7.8 2.9 7.9 2.9 10.1-6.1-2.2-7.9-5.7-6.7-1.5-6.1 2.9c.5 4.4 9.4 12.5 9 15.9-.4 3.4-5.4 8.4-10.3 3.4-5-5.1-11.5 7.7 2.1 10.6z" fill="#c7bfe0"/>
  <path class="st6" d="M201 78.7l.9 4.8c0 .2.2.4.4.4l4.8.9-4.8.9c-.2 0-.4.2-.4.4l-.9 4.8-.9-4.8c0-.2-.2-.4-.4-.4l-4.8-.9 4.8-.9c.2 0 .4-.2.4-.4l.9-4.8zM224 61.8l.9 4.8c0 .2.2.4.4.4l4.8.9-4.8.9c-.2 0-.4.2-.4.4L224 74l-.9-4.8c0-.2-.2-.4-.4-.4l-4.8-.9 4.8-.9c.2 0 .4-.2.4-.4l.9-4.8zM202.5 41.7l1.5 8.2c.1.3.3.6.7.7l8.2 1.5-8.2 1.5c-.3.1-.6.3-.7.7l-1.5 8.2-1.5-8.2c-.1-.3-.3-.6-.7-.7l-8.2-1.5 8.2-1.5c.3-.1.6-.3.7-.7l1.5-8.2z"/>
  <g>
    <path class="st8" d="M344.7 31v16.7c0 1.6-1.3 2.8-2.8 2.8h-59.7l-9.8 6.7c-.7.5-1.7 0-1.7-.9V31c0-1.6 1.3-2.8 2.8-2.8h68.3c1.6-.1 2.9 1.2 2.9 2.8z"/>
  </g>
  <path class="st9" d="M314.3 119.2l-3.6-2.7-16-16.5-4.6 3.1 14.4 20c.8.9 1.9 2 3.2 3.2 1.4-3 4.6-5.7 6.6-7.1zM186.6 120.2l-24.8 11.9-6.3-1.2c-.1 2.3-.2 6.3-1.7 9.4 2.6.4 5 .3 7.3-.1 3.5-.5 16.6-9.3 26.2-15l-.7-5z"/>
  <g>
    <path d="M305.9 117.8L211.7 212c-2.3 2.3-6 2.3-8.3 0l-47.5-47.5c-2.3-2.3-2.3-6 0-8.3L250.1 62c.4-.4.8-.7 1.3-1-.5-.8-1.1-1.8-1.1-1.8l4.9 1.2c1.1.2 2.2.7 3.1 1.6l47.5 47.5c2.4 2.3 2.4 6 .1 8.3z" fill="#6c6eb1"/>
    <path class="st2" d="M198.9 210.8l-47.5-47.5c-2.3-2.3-2.3-6 0-8.3l94.2-94.2c2.3-2.3 6-2.3 8.3 0l47.5 47.5c2.3 2.3 2.3 6 0 8.3l-94.2 94.2c-2.3 2.3-6 2.3-8.3 0z"/>
    <path class="st6" d="M206.3 199.4l-43.5-43.5c-1.2-1.2-1.2-3.2 0-4.5l80.3-80.3c1.2-1.2 3.2-1.2 4.5 0l43.5 43.5c1.2 1.2 1.2 3.2 0 4.5l-80.3 80.3c-1.2 1.2-3.2 1.2-4.5 0z"/>
    <path class="st3" d="M286.8 134.2l-.1-.1c-.3-.2-.3-.7 0-1.1l5.7-5.7c.3-.3.9-.4 1.2-.2l.1.1c.3.2.3.7 0 1.1L288 134c-.3.4-.9.5-1.2.2zM272.8 148.1c-.4-.3-.4-.8 0-1.2l9.5-9.5c.4-.4 1-.5 1.3-.2.4.3.4.8 0 1.2l-9.5 9.5c-.3.4-.9.5-1.3.2z"/>
    <circle class="st3" cx="179.5" cy="182.6" r="4.8"/>
    <path class="st3" d="M277.5 93.8l-9.1-9.1c-.5-.5-.5-1.2 0-1.7s1.2-.5 1.7 0l9.1 9.1c.5.5.5 1.2 0 1.7-.5.4-1.3.4-1.7 0z"/>
    <path class="st5" d="M227.5 113.1l-6.9-6.9c-1.2-1.2-1.2-3.1 0-4.3l6.9-6.9c1.2-1.2 3.1-1.2 4.3 0l6.9 6.9c1.2 1.2 1.2 3.1 0 4.3l-6.9 6.9c-1.2 1.2-3.1 1.2-4.3 0zM217.8 112.3l-3-3c-.5-.5-.5-1.2 0-1.7s1.2-.5 1.7 0l3 3c.5.5.5 1.2 0 1.7-.4.5-1.2.5-1.7 0zM222.9 113.2l-.6 1.1v.1l.9.9c.1.1 0 .2-.1.2l-1.2-.2h-.1l-.6 1.1c0 .1-.2.1-.2 0l-.2-1.2s0-.1-.1-.1l-1.2-.2c-.1 0-.1-.1 0-.2l1.1-.6s.1-.1 0-.1l-.2-1.2c0-.1.1-.1.2-.1l.9.9h.1l1.1-.6.2.2zM242.3 127.9l-6.9-6.9c-1.2-1.2-1.2-3.1 0-4.3l6.9-6.9c1.2-1.2 3.1-1.2 4.3 0l6.9 6.9c1.2 1.2 1.2 3.1 0 4.3l-6.9 6.9c-1.2 1.2-3.1 1.2-4.3 0zM232.6 127.1l-3-3c-.5-.5-.5-1.2 0-1.7s1.2-.5 1.7 0l3 3c.5.5.5 1.2 0 1.7-.4.5-1.2.5-1.7 0zM237.7 128l-.6 1.1v.1l.9.9c.1.1 0 .2-.1.2l-1.2-.2h-.1l-.6 1.1c0 .1-.2.1-.2 0l-.2-1.2s0-.1-.1-.1l-1.2-.2c-.1 0-.1-.1 0-.2l1.1-.6s.1-.1 0-.1l-.2-1.2c0-.1.1-.1.2-.1l.9.9h.1l1.1-.6.2.2z"/>
    <g>
      <path class="st5" d="M257.1 142.7l-6.9-6.9c-1.2-1.2-1.2-3.1 0-4.3l6.9-6.9c1.2-1.2 3.1-1.2 4.3 0l6.9 6.9c1.2 1.2 1.2 3.1 0 4.3l-6.9 6.9c-1.2 1.2-3.1 1.2-4.3 0zM247.4 141.9l-3-3c-.5-.5-.5-1.2 0-1.7s1.2-.5 1.7 0l3 3c.5.5.5 1.2 0 1.7-.4.5-1.2.5-1.7 0zM252.5 142.8l-.6 1.1v.1l.9.9c.1.1 0 .2-.1.2l-1.2-.2h-.1l-.6 1.1c0 .1-.2.1-.2 0l-.2-1.2s0-.1-.1-.1l-1.2-.2c-.1 0-.1-.1 0-.2l1.1-.6s.1-.1 0-.1l-.2-1.2c0-.1.1-.1.2-.1l.9.9h.1l1.1-.6.2.2z"/>
    </g>
    <path class="st8" d="M210.1 131l-6.7-6.7c-1-1-1-2.7 0-3.8l1.2-1.2c1-1 2.7-1 3.8 0l6.7 6.7c1 1 1 2.7 0 3.8l-1.2 1.2c-1.1 1.1-2.8 1.1-3.8 0z"/>
    <path class="st11" d="M212.3 183l-33.1-33.1c-1.4-1.4-1.4-3.7 0-5.1l14.7-14.7c1.4-1.4 3.7-1.4 5.1 0l33.1 33.1c1.4 1.4 1.4 3.7 0 5.1L217.4 183c-1.4 1.4-3.7 1.4-5.1 0z"/>
    <path class="st3" d="M283 119.7l-2.5 2.5c-.9.9-2.3.9-3.2 0L240 84.8c-.9-.9-.9-2.3 0-3.2l2.5-2.5c.9-.9 2.3-.9 3.2 0l37.3 37.3c.8 1 .8 2.4 0 3.3z"/>
    <path class="st8" d="M283 119.7l-2.5 2.5c-.9.9-2.3.9-3.2 0l-4.5-4.5c-.9-.9-.9-2.3 0-3.2l2.5-2.5c.9-.9 2.3-.9 3.2 0l4.5 4.5c.8.9.8 2.3 0 3.2z"/>
    <path class="st3" d="M278.4 114.1c-1.4 0-2.5 1.1-2.5 2.5 0 1.2.9 2.2 2 2.5v2.5h1v-2.5c1.2-.2 2-1.3 2-2.5 0-1.4-1.1-2.5-2.5-2.5zm0 4.1c-.9 0-1.5-.7-1.5-1.5 0-.9.7-1.5 1.5-1.5s1.5.7 1.5 1.5c.1.8-.6 1.5-1.5 1.5z"/>
  </g>
  <path class="st12" d="M143.2 127.6c-1.2 4.1-1 6.3-.7 11 4.1.5 10.4 2 13.9 2.6 1.5-3 1.7-8 1.9-10.3-4.9-1.3-13.2-3.8-15.1-3.3z"/>
  <g>
    <path class="st9" d="M118.8 275.9s-.9 2.9-.4 4.1c.6 1.2-7.9-.9-7.9-.9s3.5-3.8 3-6 5.3 2.8 5.3 2.8z"/>
    <path class="st13" d="M125.6 288.8l-16.1-5.4c-.6-2.1.1-3.8 1.8-5.3 2.6 1.1 5.2 1.7 7.7 1.3 1.5 2.4 4.2 4.9 7.4 7.3.9.8.4 1.5-.8 2.1z"/>
    <path transform="matrix(.3184 -.948 .948 .3184 -191.578 306.4801)" class="st14" d="M117 277.9h.7V295h-.7z"/>
  </g>
  <g>
    <path class="st9" d="M152.5 277.4s-.3 3 .5 4.1c.8 1-7.9.8-7.9.8s2.6-4.4 1.7-6.5c-1-2 5.7 1.6 5.7 1.6z"/>
    <path class="st13" d="M161.8 288.6l-16.9-2c-1-1.9-.7-3.8.6-5.5 2.8.5 5.4.5 7.8-.3 2 2.1 5.1 3.9 8.8 5.6 1.1.7.8 1.4-.3 2.2z"/>
    <path transform="rotate(-83.42 153.27054121 288.08419286)" class="st14" d="M152.9 279.5h.7v17.1h-.7z"/>
  </g>
  <path class="st11" d="M141.8 193.5l-.5 3.4-3.4 21.5-2.3 14.9-15.8 43.7-1.2-.2-5.8-.8-.5-.1L122 235l-2.4-35.3-.1-1.9v-.5l5.6-1 5-.8z"/>
  <path class="st11" d="M146 278.4l7.5.6 2.4-47-3.9-38.8-22.8-.4 13.5 39.6z"/>
  <path class="st3" d="M154.3 193.3c.1.5-.7 1-2.1 1.4-2.4.8-6.4 1.6-10.9 2.2-3.4.5-7 .9-10.3 1.1-.9.1-1.8.1-2.6.2-4.2.2-7.5.1-8.8-.4-.4-.2-.6-.3-.6-.6 1-20.3-2.7-35-3.7-45.2-.3-3.2-.4-5.9-.1-8.2.1-.4.1-.7.2-1 .2-.7.4-1.3.6-1.9.3-.6.6-1.2.9-1.7 2.6-2.5 5.5-4.5 8.8-6.1 3.4-1.8 7.2-3.1 11.4-4.2 1.5-.4 3.1-.8 4.7-1.2.6-.1 1.3-.2 1.9-.1 1.9.2 3.7 1.3 4.7 3.1 1.7 3 2.8 6.3 3.5 9.8.6 2.6.9 5.4 1 8.2.1 1.5.1 3 .1 4.5v2.7c-.1 2.9-.2 5.9-.4 8.8-.6 10.8-1.5 21.1 1.7 28.6z"/>
  <path class="st15" d="M125.5 133.6c2.2 3.5 14.8-1 12.4-4.3-2-1.1-3.4-3.8-4.7-6.6l-8.6.6c1.4 3.2 2.8 7.4.9 10.3z"/>
  <path class="st9" d="M126.7 125.1c-.5 1.3 8.1 2.3 8.4 1.7 2.4-1.6 2.6-13.6 1-17.7l-14-.5-2.1 9.9 6.7 6.6zM169 147.1c.2-1.8 1.4-3.7 3.4-4.8 1-.2 1 .1.9.9-.2.7-.2.5-.7 1.2 1.2 0 2.6-.5 4.1-.8.8-.1.5 2.7.3 3.5-.5 1.2-.5 2.2-1.9 3.1-2 .7-3.9.9-5.6.5l-.5-3.6z"/>
  <path class="st3" d="M126.6 114.8s8.5.4 11.4-3.2 1.3-7.4-2-7.1-3.1 3-6.6 1.5-10.2 3.8-10 7.6c.3 7.8 2.4 11.6 7.9 12.5 1.5.3-.6-4.3-2.5-5.3-1.4-.8-1-4.3.3-3.1 1.4 1.2.8 2.8 1.4 1.6.6-1.1.1-4.5.1-4.5z"/>
  <path class="st9" d="M169 146.8l-34.5 3.9-3.6-2.1c-.4 2.5-1.2 5.9-2.5 8.7 4.2 1.5 8.1 2.6 8.2 2.2 8.9-1.2 20.9-4.8 33-8.9l-.6-3.8z"/>
  <path class="st12" d="M132.1 148.2c-.1.3-.1.7-.2 1.1-.6 2.5-3.2 8.5-3.2 8.6-.4.3-12.9-4.7-13.4-5.8-.1 0-.1-.1-.1-.1-.4-3.1-.4-5.9.1-8.1.1-.4.1-.7.2-1 .2-.7.4-1.3.6-1.9.3-.6.6-1.2.9-1.7 3.3 1.4 9.9 5.3 15.1 8.9z"/>
  <g>
    <path class="st9" d="M305.9 274.8s.3 2.9-.5 3.9 7.7.7 7.7.7-2.6-4.3-1.6-6.3c.9-1.9-5.6 1.7-5.6 1.7z"/>
    <path class="st6" d="M296.9 285.6l16.4-1.9c1-1.8.7-3.6-.6-5.4-2.7.5-5.2.5-7.5-.3-1.9 2-5 3.8-8.5 5.4-1.1.7-.8 1.4.2 2.2z"/>
    <path transform="rotate(-6.586 305.11232537 284.989017)" class="st14" d="M296.9 284.6h16.5v.7h-16.5z"/>
  </g>
  <g>
    <path class="st9" d="M340.2 273.7s.7 2.9 0 4c-.6 1.1 7.7-.3 7.7-.3s-3.1-3.9-2.4-6c.7-2.1-5.3 2.3-5.3 2.3z"/>
    <path class="st6" d="M332.7 285.5l16-4c.7-2 .2-3.7-1.3-5.2-2.6.8-5.1 1.2-7.5.7-1.7 2.2-4.4 4.4-7.7 6.4-1 .8-.7 1.5.5 2.1z"/>
    <path transform="rotate(-13.904 340.74701677 283.85637783)" class="st14" d="M332.5 283.5H349v.7h-16.5z"/>
  </g>
  <path class="st3" d="M328.8 190.6c-.3.7-.5 1.3-.8 1.9-2.1 4.9-4.2 9.7-6.3 14.2-4 8.8-8.1 16.7-12.3 22.9l2.8 45.7-.9.1-5.4.5-1 .1-9.2-47.2 9.8-40.1.5-2.2.8-3.4 3.8 1.3L324 189l4.8 1.6z"/>
  <path class="st3" d="M339.1 274.8l8.2-1-12.3-45.7c3.3-14.2 5.8-27.6 5.1-37.3l-18.5-2.1v42.8l17.5 43.3z"/>
  <path class="st8" d="M341.5 193h-1.3c-4.2-.1-8.2-.1-12.3-.5-2.1-.2-4.2-.4-6.3-.8-4.1-.7-8.3-1.9-12.8-3.9-.9-.4-1.9-.8-2.9-1.3-.4-.1-.7-.3-1.1-.5 8.6-13.4 8.3-24.1 10.8-40.7.4-2.7.9-5.6 1.5-8.7.1-.7.3-1.4.4-2.1.7-3.4 1.6-7 2.7-10.8 2.8.8 5.5 1.5 8 2.2 3 .9 5.9 1.8 8.4 3 3.3 1.5 6.1 3.5 8.3 6.3 7.2 21.1-3 31.8-3.4 57.8z"/>
  <path class="st9" d="M334.7 147c-2.2.1-3.9.2-5.3.3h-.3c-3.9.2-5.5.2-10-.7-.4-.1-.9-.2-1.3-.3-.7-.3-1.3-.6-2-1l-1.2-.6c-5.9-3.4-12.8-9.2-19.8-15.7-.3-.2-.6-.5-.9-.8-.4-.3-.8-.7-1.2-1-.3-.3-.7-.6-1-.9-.5-.5-1-.9-1.5-1.4l3.7-4.3 2 1.4 3.4 2.3 18 12.3 4.2 2.9 10.7-1.5c.1 3.4.9 6.3 2.5 9z"/>
  <path class="st15" d="M328.9 120l9.2 2.8c-1.8 2.9-1.9 3.9-1.1 7.4-2.1 3.2-12.7-.9-8.8-3.9 1.3-2.9 1.1-3.3.7-6.3z"/>
  <path class="st15" d="M325.7 122.7c.6 1.3 6.6 1.8 12.9 1.5l5.4-14.9-12.8-4.8c-6 5.7-7.2 16.3-5.5 18.2z"/>
  <path class="st9" d="M293.9 120.6c.3-1.8-.2-3.4-.6-5-.9-.7-1.1-.5-1.9 0 0 1 0 1.5-.8 2.1-1.6-.7-2.7-4-3-3.9-1 .5-1.7 2.2-2.2 4-.3 1.9-.2 3 .5 4.9 1.2 1 2.6 1.8 4.3 2.1l3.7-4.2z"/>
  <path class="st3" d="M327.4 104.1c-2.2.6-1.3 4.1-.6 6.5 2.9 1 4.7 1.1 7.7.4-.2 2.1-.3 5.2-1.5 5.9 0 0 .9 1.2 2.2 1.3.4-1.2 1.1-2.2 2.2-2.4.7-.1.8 0 1.4.6.7.9 0 1.8-1 2.2-2.4.8-.7 3.7-.5 5.5 1.8.1 3.7-.6 4.4-1.6 2.5-2.9 4.4-5.6 3.1-10.3.2-3.9-2.9-8.7-7.3-8.6-5.9 2.5-6.2-.5-10.1.5z"/>
  <path class="st6" d="M320.4 123.7l-6.1-4.6c-2.1 1.5-5.3 4.1-6.6 7.2 3.1 2.8 7.4 6.2 11.6 9.5l1.1-12.1z"/>
  <path class="st16" d="M341.8 145.4c-.1.3-5.7 3.5-8.4 4.8-2.8 1.4-12-4.4-16.3-.6-4.6 4 0 22.1-2.8 28.4-1.6 3.6-3 5.1-3.6 6.3l-1.6 3.2c0 .1-.1.2-.1.2-.7 1.2-2.1 1.2-3.4.9l.5-2.2c-.4-.1-.7-.3-1.1-.5 8.6-13.4 8.3-24.1 10.8-40.7l-1.2-.6c.3.1.7.4 1.2.6.5.3 1.2.6 2 1 .5.1.9.2 1.3.3 3.9.7 7 .8 10 .7h.3c1.7-.1 3.5-.2 5.3-.3 5-.3 6.9-1.4 7.1-1.5zM153.2 155.9s-.9.7-3.3 1.6c-.1 0-.1.1-.2.1-2.6 1-15.1 4.1-18.7 2.8-3.6-1.2-10.5-1.6-12-2.2-1.5-.6 2.1 8.4 2.6 11.9.4 3.5-.9 6.7-1.3 11s3.1 11.8 4.3 14.3l.6.9c1.1 1.3 2.6 1.7 3.3 1.9h.3s-.3 1.1-2.7.8c-.9-.1-3.5.2-6.3.7l-.1-1.9c-.4-.2-.6-.3-.6-.6 1-20.3-2.7-35-3.7-45.2.9.8 4.4 2.4 5 2.7 3.4 1.5 6.8 2.7 8 3 .3.1.4.1.4.1l.1-.3h.1c.2.1.6.2 1.1.4s1.1.4 1.7.6c.3.1.7.2 1 .3h.2c.6.2 1.1.3 1.6.5.4.1.8.2 1.1.3.2 0 .3.1.5.1h.3c1.8 0 7.2-1.3 11.3-2.3.9-.2 1.7-.5 2.5-.7.5-.1.9-.2 1.3-.4.9-.2 1.6-.4 1.6-.4z"/>
</svg>