<svg xmlns="http://www.w3.org/2000/svg" viewBox="0 0 48 48">
  <linearGradient id="a" gradientUnits="userSpaceOnUse" x1="42.5587" y1="23.921" x2="5.5333" y2="23.921">
    <stop offset="0" stop-color="#7475d4"/>
    <stop offset="1" stop-color="#303096"/>
  </linearGradient>
  <path d="M31.8 29.8c0 .4-.3.7-.7.7H10.2c-.4 0-.7-.3-.7-.7 0-.4.3-.7.7-.7H31c.5 0 .8.3.8.7zm-.8 3.3H10.2c-.4 0-.7.3-.7.7 0 .4.3.7.7.7H31c.4 0 .7-.3.7-.7.1-.3-.2-.7-.7-.7zm0 4.1H10.2c-.4 0-.7.3-.7.7s.3.7.7.7H31c.4 0 .7-.3.7-.7s-.2-.7-.7-.7zM42.6 3.8v33.6c0 1.6-1.3 2.9-2.9 2.9h-.5v.4c0 1.6-1.3 2.9-2.9 2.9h-.5v.4c0 1.6-1.3 2.9-2.9 2.9H8.4c-1.6 0-2.9-1.3-2.9-2.9V10.5c0-1.6 1.3-2.9 2.9-2.9H9v-.5c0-1.6 1.3-2.9 2.9-2.9h.5v-.4c0-1.6 1.3-2.9 2.9-2.9h24.3c1.7 0 3 1.3 3 2.9zm-8.4 39.1V10.5c0-.8-.6-1.4-1.4-1.4H8.4C7.7 9 7 9.7 7 10.5v33.6c0 .8.6 1.4 1.4 1.4h24.3c.8 0 1.4-.6 1.4-1.4v-1.2zm3.4-3.4V7.1c0-.8-.6-1.4-1.4-1.4H11.9c-.8 0-1.4.6-1.4 1.4v.4h22.3c1.6 0 2.9 1.3 2.9 2.9v31.7h.5c.8 0 1.4-.6 1.4-1.4v-1.2zm3.5-35.7c0-.8-.6-1.4-1.4-1.4H15.3c-.8 0-1.4.6-1.4 1.4v.4h22.3c1.6 0 2.9 1.3 2.9 2.9v31.7h.5c.8 0 1.4-.6 1.4-1.4V3.8zm-31 14.4H31c.4 0 .7-.3.7-.7 0-.4-.3-.7-.7-.7H10.1c-.4 0-.7.3-.7.7 0 .4.3.7.7.7zm0 4H31c.4 0 .7-.3.7-.7 0-.4-.3-.7-.7-.7H10.1c-.4 0-.7.3-.7.7 0 .4.3.7.7.7zm0 4H31c.4 0 .7-.3.7-.7s-.3-.7-.7-.7H10.1c-.4 0-.7.3-.7.7s.3.7.7.7z" fill="url(#a)"/>
</svg>