<svg xmlns="http://www.w3.org/2000/svg" viewBox="0 0 48 48">
  <linearGradient id="a" gradientUnits="userSpaceOnUse" x1="47.6553" y1="24.046" x2=".4055" y2="24.046">
    <stop offset="0" stop-color="#7475d4"/>
    <stop offset="1" stop-color="#303096"/>
  </linearGradient>
  <path d="M28.7 47.7h-9.3c-.4 0-.8-.3-.8-.8V42c-1.2-.4-2.3-.8-3.4-1.4L11.7 44c-.3.3-.8.3-1.1 0L4 37.5c-.1-.1-.2-.3-.2-.6 0-.2.1-.4.2-.6l3.5-3.5c-.6-1.1-1.1-2.2-1.4-3.4H1.2c-.4 0-.8-.3-.8-.8v-9.3c0-.4.3-.8.8-.8h4.9c.4-1.2.8-2.3 1.4-3.4L4 11.7c-.1-.1-.2-.3-.2-.6s.1-.4.2-.6l6.6-6.6c.1-.1.3-.2.6-.2s.4.1.6.2l3.5 3.5c1.1-.6 2.2-1.1 3.4-1.4V1.2c0-.4.3-.8.8-.8h9.3c.4 0 .8.3.8.8v4.9c1.2.4 2.3.8 3.4 1.4L36.5 4c.1-.1.3-.2.6-.2.2 0 .4.1.6.2l6.6 6.6c.3.3.3.8 0 1.1l-3.5 3.5c.6 1.1 1.1 2.2 1.4 3.4h4.9c.4 0 .8.3.8.8v9.3c0 .4-.3.8-.8.8H42c-.4 1.2-.8 2.3-1.4 3.4l3.5 3.5c.3.3.3.8 0 1.1L37.5 44c-.3.3-.8.3-1.1 0l-3.5-3.5c-1.1.6-2.2 1.1-3.4 1.4v4.9c-.1.5-.4.9-.8.9zm-8.5-1.6h7.7v-4.7c0-.4.2-.7.6-.8 1.4-.4 2.8-1 4.2-1.7.3-.2.7-.1.9.1l3.3 3.3 5.5-5.5-3.4-3.2c-.2-.2-.3-.6-.1-.9.8-1.3 1.3-2.7 1.7-4.2.1-.3.4-.6.8-.6h4.7v-7.7h-4.7c-.4 0-.7-.2-.8-.6-.4-1.4-1-2.8-1.7-4.2-.2-.3-.1-.7.1-.9l3.3-3.3-5.5-5.5L33.6 9c-.2.2-.6.3-.9.1-1.3-.8-2.7-1.3-4.2-1.7-.3-.1-.6-.4-.6-.8V2h-7.7v4.7c0 .4-.2.7-.6.8-1.5.4-2.8 1-4.2 1.7-.3.2-.7.1-.9-.1l-3.3-3.3-5.5 5.5L9 14.5c.2.2.3.6.1.9-.8 1.3-1.3 2.7-1.7 4.2-.1.3-.4.6-.8.6H2v7.7h4.7c.4 0 .7.2.8.6.4 1.4 1 2.8 1.7 4.2.2.3.1.7-.1.9l-3.3 3.3 5.5 5.5 3.3-3.3c.2-.2.6-.3.9-.1 1.3.8 2.7 1.3 4.2 1.7.3.1.6.4.6.8v4.6zM38.5 24c0-3.9-1.5-7.5-4.2-10.2-.3-.3-.8-.3-1.1 0-.3.3-.3.8 0 1.1 2.4 2.4 3.8 5.7 3.8 9.1 0 7.2-5.8 13-13 13-7.1 0-12.9-5.8-12.9-12.9 0-7.1 5.8-12.9 12.9-12.9.4 0 .8-.3.8-.8 0-.4-.3-.8-.8-.8-8 0-14.4 6.5-14.4 14.4 0 8 6.5 14.5 14.5 14.5S38.5 32 38.5 24zm-13.7-7.1v-3.2c0-.4-.3-.8-.8-.8-.4 0-.8.3-.8.8v3.2c0 .4.3.8.8.8s.8-.4.8-.8zm5.3 2.1l1.8-1.8c.3-.3.3-.8 0-1.1-.3-.3-.8-.3-1.1 0L29 17.9c-.3.3-.3.8 0 1.1.2.2.4.2.6.2.2.1.4 0 .5-.2zm5.1 5c0-.4-.3-.8-.8-.8h-3.2c-.4 0-.8.3-.8.8 0 .4.3.8.8.8h3.2c.4 0 .8-.3.8-.8zm-3.3 7.9c.3-.3.3-.8 0-1.1L30.1 29c-.3-.3-.8-.3-1.1 0-.3.3-.3.8 0 1.1l1.8 1.8c.2.2.4.2.6.2.2.1.4 0 .5-.2zm-7.1 2.5v-3.2c0-.4-.3-.8-.8-.8-.4 0-.8.3-.8.8v3.2c0 .4.3.8.8.8s.8-.4.8-.8zm-7.5-2.5l1.8-1.8c.3-.3.3-.8 0-1.1-.3-.3-.8-.3-1.1 0l-1.8 1.8c-.3.3-.3.8 0 1.1.2.2.4.2.6.2.1.1.3 0 .5-.2zm.4-7.9c0-.4-.3-.8-.8-.8h-3.2c-.4 0-.8.3-.8.8 0 .4.3.8.8.8h3.2c.4 0 .8-.3.8-.8zm1.3-5c.3-.3.3-.8 0-1.1l-1.8-1.8c-.3-.3-.8-.3-1.1 0-.3.3-.3.8 0 1.1l1.8 1.8c.2.2.4.2.6.2.2.1.4 0 .5-.2zm7.9 5c0-.4-.3-.8-.8-.8h-1.3V21c0-.4-.3-.8-.8-.8-.4 0-.8.3-.8.8v3c0 .4.3.8.8.8h2.1c.4 0 .8-.3.8-.8z" fill="url(#a)"/>
</svg>