<svg xmlns="http://www.w3.org/2000/svg" viewBox="0 0 48 48">
  <linearGradient id="a" gradientUnits="userSpaceOnUse" x1="47.6266" y1="24.2335" x2=".664" y2="24.2335">
    <stop offset="0" stop-color="#7475d4"/>
    <stop offset="1" stop-color="#303096"/>
  </linearGradient>
  <path d="M36.6 17.3v-7H5.8v18h26.1c.4 0 .8.3.8.8 0 .4-.3.8-.8.8H5.1c-.4 0-.8-.3-.8-.8V9.6c0-.4.3-.8.8-.8h32.3c.4 0 .8.3.8.8v7.7c0 .4-.3.8-.8.8s-.8-.4-.8-.8zm-23.4 6c0-1.6 1.3-2.9 2.9-2.9h10.2c1.6 0 2.9 1.3 2.9 2.9 0 1.6-1.3 2.9-2.9 2.9H16.1c-1.6 0-2.9-1.3-2.9-2.9zm1.5 0c0 .8.6 1.4 1.4 1.4h10.2c.8 0 1.4-.6 1.4-1.4 0-.8-.6-1.4-1.4-1.4H16.1c-.8 0-1.4.6-1.4 1.4zm7.8-4.2c.4 0 .8-.3.8-.8v-5.9c0-.4-.3-.8-.8-.8h-9.8c-.4 0-.8.3-.8.8v7.1c0 .4.3.8.8.8.4 0 .8-.3.8-.8v-6.3h8.3v5.1c0 .5.3.8.7.8zm7.6 1.2c.4 0 .8-.3.8-.8v-7.1c0-.4-.3-.8-.8-.8h-4.9c-.4 0-.8.3-.8.8 0 .4.3.8.8.8h4.2v6.3c0 .5.3.8.7.8zm-3.2-1.2c.4 0 .8-.3.8-.8V15c0-.4-.3-.8-.8-.8-.4 0-.8.3-.8.8v3.3c.1.4.4.8.8.8zM15.3 15v3.3c0 .4.3.8.8.8.4 0 .8-.3.8-.8V15c0-.4-.3-.8-.8-.8s-.8.4-.8.8zm2.7 0v3.3c0 .4.3.8.8.8.4 0 .8-.3.8-.8V15c0-.4-.3-.8-.8-.8-.4 0-.8.4-.8.8zm24.3 27.4c0 .4-.3.8-.8.8H3.9c-.4 0-.8-.3-.8-.8 0-.4.3-.8.8-.8h3.2c-.3-.5-.5-1-.5-1.7 0-1.7 1.4-3.2 3.2-3.2H11v-3.4H3.8c-1.7 0-3.2-1.4-3.2-3.2V8.4C.6 6.7 2 5.2 3.8 5.2h34.7c1.7 0 3.2 1.4 3.2 3.2v6.7c0 .4-.3.8-.8.8-.4 0-.8-.3-.8-.8V8.4c0-.9-.7-1.7-1.7-1.7H3.8c-.9 0-1.7.7-1.7 1.7v21.8c0 .9.7 1.7 1.7 1.7H33.5c.4 0 .8.3.8.8s-.3.8-.8.8h-2.2v3.4h1.2c1.7 0 3.2 1.4 3.2 3.2 0 .6-.2 1.2-.5 1.7h6.3c.5-.1.8.2.8.6zm-29.8-5.5h17.4v-3.4H12.5v3.4zm20.1 4.8c.9 0 1.7-.7 1.7-1.7 0-.9-.7-1.7-1.7-1.7H9.8c-.9 0-1.7.7-1.7 1.7 0 .9.7 1.7 1.7 1.7h22.8zm14.3-16l-2.1 1.5c-.1 0-.1.1-.1.2l.8 2.4c.3.8 0 1.6-.7 2.1-.3.2-.7.4-1.1.4-.4 0-.8-.1-1.1-.4l-2.1-1.5h-.2l-2.1 1.5c-.7.5-1.5.5-2.2 0-.7-.5-.9-1.3-.7-2.1l.8-2.4c0-.1 0-.2-.1-.2l-2.1-1.5c-.7-.5-.9-1.3-.7-2.1.3-.8.9-1.3 1.8-1.3h2.5c.1 0 .2-.1.2-.1l.8-2.4c.3-.8.9-1.3 1.8-1.3.8 0 1.5.5 1.8 1.3l.8 2.4c0 .1.1.1.2.1h2.5c.8 0 1.5.5 1.8 1.3.4.8.1 1.6-.5 2.1zm-.9-1.5c0-.1-.1-.1-.2-.1h-2.5c-.8 0-1.5-.5-1.8-1.3l-.8-2.4s0-.1-.2-.1c-.1 0-.2.1-.2.1l-.8 2.4c-.2.8-1 1.3-1.8 1.3h-2.5s-.1 0-.2.1c0 .1 0 .2.1.2l2.1 1.5c.6.5.9 1.3.7 2.1l-.8 2.4s0 .1.1.2.2 0 .2 0l2.1-1.5c.3-.2.7-.4 1.1-.4.4 0 .8.1 1.1.4l2.1 1.5s.1.1.2 0 .1-.2.1-.2l-.8-2.4c-.2-.8 0-1.6.7-2.1l2.1-1.5c-.2 0-.1-.1-.1-.2z" fill="url(#a)"/>
</svg>