<svg version="1.1" id="Layer_1" xmlns="http://www.w3.org/2000/svg" x="0" y="0" viewBox="0 0 450 300" xml:space="preserve">
  <style>
    .st1{fill:#494c9a}.st2{fill:#f59f17}.st3{fill:#9696c9}.st4{fill:#acaad5}.st5{fill:#ffc6bb}.st6{fill:#192b59}.st9{fill:#110239}.st11{fill:#ffce52}
  </style>
  <path d="M86.6 266.2c38.5 11.3 50.4-63.7 102.9-73.9 61.1-11.8 87.1 81.8 128.8 60.6 46.8-23.8 79.9-175.1 53.7-230.7-32.1-68.1-124.9 66.9-293.2 62.2-18-.5-45.6-2.8-54.6 23.2-14.3 41.2 20.1 146.1 62.4 158.6z" fill="#f1eef7"/>
  <path class="st1" d="M56.7 241.3c2.1.5 9.9.2 8.4-3.6-1.7-4.3-6.1-.5-8 1.8.7-3.8.8-7.6.8-9.7 1.4-1.7 4.4-12.4-1.5-11.9-7.6.7-.9 10.8.9 12 0 2.5-.2 7.4-1.3 11.6-.2-2.7-2.9-10.4-6.5-7.7-5.2 3.9 4.7 8.7 6.2 8.6-.5 1.5-1.1 3-1.9 4.1-.6.8-1.2 1.8-1.9 2.8-.3-2.8-3-10.1-6.5-7.5-4.8 3.7 3.5 8 5.8 8.5-1.5 2.4-3 5.1-4.1 7.7-.2-2.6-5.2-7.8-7.2-4.8-1.1 1.7 4.8 7.1 6.7 5.9-1.1 2.7-1.8 5.2-1.5 7.1.1.7.2 1.5.4 2.4-1.4-1.5-6.4-6.6-7.8-2.7-1.2 3.3 2.9 5.2 4.6 5.2 1.4 0 2.8-1.3 3.3-1.8.1.5.2 1 .2 1.5.7 4 1.5 8.9 1.3 11.8-1.2-2.3-6.4-11.8-9.5-5.7-1.6 3.1 2.9 5.8 4.6 6.3 1.4.5 4 0 4.8-.1 0 .3-.1.6-.2.9-1.1 3.4-3.4 6.8-3.4 6.8-.1.1-.1.3.1.4h.2c.1 0 .2 0 .2-.1 0 0 1.7-2.6 2.9-5.5 1.4-.2 6.6-.9 8.1-1.9 1.7-1.2 4.8-4.9 2.3-6.3-3.9-2.2-8 3.6-9.8 6.6.7-2.2.1-6.7-.6-10.9 1.4.4 5.9-.4 7.5-1.4 1.7-1.2 4.7-4.1 2.9-5.8-4.6-4.1-9.4 4.5-10.5 6.6-.1-.7-.2-1.3-.3-1.9-.3-1.7-.6-3.3-.7-4.4-.2-1.7.4-4.2 1.6-7 .9.3 4 1.1 7.4.7 4-.6 6.1-3.7 4.6-5.2-2.5-2.5-9.9 2.7-11.8 4.1 1.2-2.7 2.8-5.7 4.6-8.6 2.3.5 11.7.3 10.4-3.4-1.3-3.7-6.1-1.2-8.9 1 .2-.3.5-.7.7-1 1.2-1.4 1.9-3.4 2.4-5.5z"/>
  <path class="st2" d="M40.1 277c-4.8-1.9-6 5.5-6.3 7.9-1.1-3.5-1.5-7.8-1-11.3.7 0 3.6-.2 5.6-1.1 2.3-1.2 3.7-5.8 1.7-6.3-3.4-1-6.3 4.9-7.2 6.8.1-.4.2-.9.3-1.3.7-2.7 1.3-6.2 1.5-9.6.9 0 3.4-.1 4.8-.6 1.7-.6 4.7-5.1 2.3-5.8-3.2-.9-6.1 3.7-7.1 5.6.2-3.6 0-7-.6-9.3.3-1 .8-3.2.8-4.9 0-2.3-2.7-6.8-5.2-4.6-4.6 4.1 2.3 8.8 3.9 9.9.6 2.3.7 5.6.5 9.1-1-2.6-5.2-11.9-10.2-7.4-1.9 1.7 2.3 5.8 5.2 6.9 2.3.9 4.2 1.1 4.9 1.2-.2 3.4-.8 6.8-1.5 9.4l-.3 1.5c-1.1-2.2-6.2-11.6-11.8-7.5-2.3 1.7 2.3 5.8 4.6 6.9 2 1 6 1 7.1 1-.5 3.5 0 7.8 1 11.3-1.7-2.6-6.6-9.1-10.4-4.9-2.2 2.5 3.5 4.6 5.2 5.2 1.4.5 4.5.6 5.5.7.8 2.5 1.9 4.5 3.2 5.6.1 0 .1.1.2.1s.2 0 .2-.1c.1-.1.1-.3 0-.4-1.2-1-2.3-3-3.1-5.4.7-.3 2.9-1.3 4.3-2.2 1.9-1.2 4.5-5.3 1.9-6.4z"/>
  <path class="st1" d="M52.5 291.4H26.3c-.2 0-.3-.1-.3-.3 0-.2.1-.3.3-.3h26.2c.2 0 .3.1.3.3-.1.1-.2.3-.3.3zM61.7 291.4h-6c-.2 0-.3-.1-.3-.3 0-.2.1-.3.3-.3h6c.2 0 .3.1.3.3-.1.1-.2.3-.3.3z"/>
  <g>
    <path class="st1" d="M397.1 233c-2.4.6-11.5.3-9.8-4.2 1.9-5 7.1-.6 9.3 2.1-.8-4.4-1-8.9-.9-11.3-1.6-2-5.1-14.5 1.7-13.8 8.9.8 1 12.6-1 14 0 2.9.2 8.6 1.5 13.5.3-3.1 3.4-12.1 7.6-8.9 6 4.6-5.5 10.1-7.3 10 .6 1.8 1.3 3.5 2.2 4.8.7 1 1.4 2.1 2.2 3.3.4-3.3 3.5-11.8 7.6-8.7 5.6 4.3-4.1 9.4-6.8 10 1.7 2.8 3.5 5.9 4.8 9 .2-3 6.1-9.1 8.4-5.6 1.3 2-5.6 8.3-7.8 6.9 1.3 3.2 2.1 6.1 1.8 8.3-.1.8-.2 1.7-.4 2.7 1.6-1.8 7.4-7.7 9.1-3.1 1.4 3.8-3.4 6-5.4 6-1.6 0-3.2-1.5-3.9-2.1-.1.5-.2 1.1-.3 1.7-.8 4.7-1.8 10.4-1.5 13.8 1.4-2.7 7.5-13.7 11.1-6.6 1.8 3.7-3.4 6.7-5.4 7.4-1.7.6-4.6.1-5.6-.1.1.4.1.7.2 1 1.3 3.9 4 7.9 4 8 .1.2.1.4-.1.5-.1 0-.1.1-.2.1s-.2-.1-.3-.1c0 0-2-3-3.4-6.4-1.6-.2-7.7-1-9.4-2.2-2-1.3-5.6-5.8-2.7-7.4 4.5-2.5 9.3 4.2 11.4 7.7-.8-2.6-.1-7.8.7-12.7-1.6.5-6.9-.5-8.8-1.7-2-1.3-5.5-4.8-3.4-6.7 5.3-4.7 11 5.3 12.2 7.7.1-.8.3-1.5.4-2.2.3-2 .7-3.8.8-5.2.3-2-.5-4.9-1.8-8.1-1.1.3-4.6 1.3-8.6.8-4.7-.7-7.1-4.3-5.4-6 2.9-2.9 11.5 3.1 13.7 4.8-1.4-3.2-3.3-6.7-5.3-10-2.7.6-13.7.4-12.2-3.9s7.1-1.4 10.3 1.1c-.3-.4-.5-.8-.8-1.2-1-2.2-1.9-4.5-2.5-7z"/>
    <path class="st2" d="M416.5 274.6c5.6-2.3 7 6.4 7.3 9.2 1.2-4.1 1.8-9.1 1.2-13.2-.9 0-4.2-.2-6.5-1.3-2.7-1.3-4.3-6.7-2-7.4 3.9-1.1 7.4 5.7 8.4 8l-.3-1.5c-.9-3.1-1.5-7.2-1.7-11.2-1.1 0-4-.1-5.7-.7-2-.7-5.4-5.9-2.7-6.7 3.8-1.1 7.1 4.3 8.3 6.5-.2-4.2-.1-8.1.7-10.9-.3-1.2-.9-3.7-.9-5.7 0-2.7 3.1-8 6-5.4 5.3 4.8-2.7 10.3-4.6 11.5-.6 2.7-.8 6.6-.6 10.6 1.2-3 6-13.9 11.9-8.7 2.2 2-2.7 6.7-6 8.1-2.7 1.1-4.9 1.3-5.8 1.3.3 3.9.9 7.9 1.7 11 .2.6.3 1.2.4 1.8 1.3-2.6 7.2-13.5 13.7-8.7 2.7 2-2.7 6.7-5.4 8.1-2.3 1.2-7 1.2-8.3 1.2.6 4.1.1 9.1-1.2 13.2 2-3 7.7-10.6 12.1-5.7 2.6 2.9-4.1 5.4-6 6-1.7.6-5.3.7-6.4.8-1 2.9-2.3 5.3-3.8 6.5-.1.1-.1.1-.2.1s-.2 0-.3-.1c-.1-.1-.1-.4 0-.5 1.4-1.2 2.7-3.5 3.6-6.2-.9-.4-3.4-1.5-5.1-2.6-1.8-1.4-4.9-6.2-1.8-7.4z"/>
    <path class="st1" d="M402.1 291.4h30.6c.2 0 .3-.2.3-.3s-.2-.3-.3-.3h-30.6c-.2 0-.3.2-.3.3s.1.3.3.3zM391.4 291.4h7.1c.2 0 .3-.2.3-.3s-.2-.3-.3-.3h-7.1c-.2 0-.3.2-.3.3s.1.3.3.3z"/>
  </g>
  <g>
    <path class="st3" d="M81.4 241.6c-.9 1.1-2.4 2.8-3.6 3.8-1.2.9-3 1.9-3.1 2.5-.1.6.3 1.1.8 1.1s2.2-1.7 3.4-2.2c1.1-.5 2.4-.6 2.7-1.1.3-.5-.2-4.1-.2-4.1zM112.7 291.8h1.7s.3-4 .6-5.1c.3-1.1-3-6.9-2.9-6.3.3 1.3.4 8.8.6 11.4z"/>
    <path class="st4" d="M115.6 268.7c-1.4 1.5-4.7 5.8-4.4 8 .3 2.2 1.6 5.5 2.3 6.6.7 1.1 1.5 3.6 1.9 5 .4 1.4-.4 6 1.1 7.2 1.5 1.2 8.3.9 9.6.6 1.3-.3 1.8-1.1 1.8-1.9 0-.8-1.2-5.6-2.1-6.8-.9-1.1-1.2-1.6-1.8-2.4-.7-.8-8.4-16.3-8.4-16.3z"/>
    <path class="st3" d="M90.8 239.3c-.8-.9-2.6-1.7-5.1-1.2-2.4.5-4.4 1.4-4.6 3.2-.2 1.8-.2 6.7-1.6 9-1.4 2.3-5.4 6.1-4.8 9.1.6 3 5.4 11.7 8 12.7 2.6 1 4.2-2.2 4-4.3-.2-2.1 0-6 0-7.7 0-1.9 4.1-20.8 4.1-20.8z"/>
    <path class="st5" d="M115.6 232.4c.3 2.8.4 19.2.4 21.3 0 2.1-.5 12.6-.5 13.7s-.7 3-.7 3.8-.3 9 0 10.2c.3 1.2.2 6.7 2.3 7.7 2 1 5.9 1.1 6.8.9.9-.2 1.9-1 1.9-1.3 0-.3-1.6-3.2-1.5-4.4.1-1.3-.5-7-.1-10.2.4-3.1 1.6-13 2.3-15.8.7-2.8 4.6-19.2 4.9-25.1.3-5.9.3-10.2-.6-11.3-.8-1.1-15.2 10.5-15.2 10.5z"/>
    <path class="st5" d="M114 210.9c.7 1.4 2.9 5 2.5 5.7-.4.7-9.3 3-11.1 4.9-1.8 1.9-12.2 14.1-13.1 15.5-.9 1.5-1.3 1.8-1.9 1.7-.6 0-4 1.8-4.6 3.8s-3.3 6.9-4.6 8.8c-1.4 1.9-2.5 6.3-.9 8.4 1.6 2.1 3.9 4.2 5.1 3.6 1.3-.6 1.3-2.6 2.1-3.7.7-1.1 7.2-12.5 9.8-14.6 2.5-2.1 13.9-8.4 16.3-9.6 2.4-1.2 17.1-8.4 19-12 1.9-3.6.4-9.3 0-10.9-.4-1.5-.6-4.3-1.3-4.5-.7 0-17.3 2.9-17.3 2.9z"/>
    <path class="st6" d="M99.5 140.3c-1.4 4.6-6.6 16.8-5.7 29.9.9 13 7.4 39.9 9.1 40.8s18.7 1.3 25.3-.5 10.5-2.4 11.9-6.7c1.5-4.2 2.5-15.1 2.9-22.7s3.9-22.7.7-28.9c-3.2-6.2-6.1-16.8-9.5-19.1-3.4-2.2-34.7 7.2-34.7 7.2z"/>
    <path class="st4" d="M122.8 83.3c2.1 0 4.7.4 5.8 1.3 1 .9 2.7 4.9 3.3 5.1.6.2 18.2 7.3 23 14.8 4.8 7.5-.6 12.4-1.9 12.4-1.3-.1-14.2-6.1-15-4.7-.8 1.4-4.2 5.2-3.7 11.5.4 6.4 6.2 16.7 4.6 17-1.6.2-26.2-1.4-30.2-.8-4 .6-9.1 2.2-9.6 1.4-.5-.7-11.4-49.4-9.5-51.1 1.9-1.7 10.8-4.6 13.2-5.2 2.2-.6 20-1.7 20-1.7z"/>
    <path class="st2" d="M324.6 81.9l-90.2-21.7-90.2 21.7s-9.4 89.4 10.7 129.6c20.1 40.3 67.5 81.6 79.4 81.6s59.3-41.3 79.4-81.6c20.3-40.2 10.9-129.6 10.9-129.6z"/>
    <path d="M234.4 279.8c-2.9 0-7.5-2.2-13.7-6.5-5.9-4.1-12.6-9.8-19.4-16.4-16.1-15.6-29.8-33.5-37.6-49.2-7.4-14.8-11.2-38.5-11.4-70.4-.1-23.7 1.9-43.3 1.9-43.5.1-.7.6-1.2 1.2-1.4L234 73.5c.2-.1.5-.1.7 0l78.6 18.9c.7.2 1.1.7 1.2 1.4 0 .2 2.1 19.8 1.9 43.5-.2 31.9-4 55.6-11.4 70.4-7.8 15.7-21.5 33.6-37.6 49.2-6.8 6.6-13.5 12.3-19.4 16.4-6 4.3-10.6 6.5-13.6 6.5zM157.3 95.3c-.4 4.5-1.9 21.8-1.8 42.1.2 31 4 54.8 11.1 68.9 7.7 15.3 21.2 33 37 48.3 14.9 14.4 26.8 22 30.8 22 4.1 0 16-7.5 30.8-22 15.8-15.3 29.3-33 37-48.3 7.1-14.1 10.9-38 11.1-68.9.1-20.3-1.4-37.6-1.8-42.1l-77.1-18.6-77.1 18.6z" opacity=".37" fill="#fff"/>
    <path d="M248.1 200.3h-27.3c-1.2 0-2.4-.5-3.1-1.5-.8-.9-1.1-2.1-.9-3.3l5.5-31.5c-7.9-4.4-12.9-12.7-12.9-21.9 0-13.8 11.3-25.1 25.1-25.1s25.1 11.3 25.1 25.1c0 9.3-5 17.5-12.9 21.9l5.5 31.5c.2 1.2-.1 2.4-.9 3.3-.9.9-2 1.5-3.2 1.5zm-22.4-8.2h17.5l-5.2-29.8c-.3-1.9.7-3.8 2.5-4.5 6.5-2.5 10.8-8.7 10.8-15.7 0-9.3-7.6-16.9-16.9-16.9-9.3 0-16.9 7.6-16.9 16.9 0 7 4.2 13.2 10.8 15.7 1.8.7 2.9 2.6 2.5 4.5l-5.1 29.8z" fill="#fff"/>
    <path class="st5" d="M133.4 135.6c1.1.4 2.7-.3 3.5-.5.8-.2 5.6.1 7 .5 1.4.4 5.3.5 6.2 1.6.9 1.1.6 2.3-.2 2.3s-2.9-.2-3.5-.5c-.6-.3-.8-.4-.9-.2 0 .2 3.2 1.2 4 1.2.8 0 6.2 1.5 7.5 2.1 1.3.6 2.5 1.6 1.9 2.2-.6.7-2-.1-1.8.1.2.1.3 1.2-.2 1.2s-4.9-.3-4.7 0c.2.3.3.8-.5.9-.8.1-8.8-1-10.6-1.5-1.8-.5-4.9-1.8-6.2-2-1.3-.2-2.8.1-3.6-.8-.8-1 2.1-6.6 2.1-6.6z"/>
    <path class="st4" d="M133.9 135.4c.9 1-.1 6.8-1.3 7.5-1.2.7-2 1.3-5 0-2.9-1.3-17.8-2.4-23.5-4.2-5.7-1.9-11.3-4.4-12.9-10.1-1.6-5.6-10.9-33.6-1.8-38.4 4.6-2.4 10.7 23.6 11.2 28.1s.6 8.5 6.6 9.6c5.9 1.2 24.7 5.5 26.7 7.5z"/>
    <path class="st9" d="M108.9 48.6c-2.3.3-8.4 2.2-9.8 8.6-1.3 6.5-2.1 12.8-2.3 15.6-.1 2.8-2.1 13.1-1.8 15.9.3 2.7-2.7 17.2-1.4 23.6 1.3 6.5 7.9 18.1 15.2 15.6 7.3-2.5.8-24.2 1-30.9.1-6.6.6-14 2-15.4 1.4-1.4 8.6.2 10.4 1.4 1.8 1.2 3.9.3 5 1 2.2 1.5 4 5.1 4 5.1.1-2.1-.2-5.7-.3-8.3-.2-4.1-1.2-19.1-6.2-26.2-5-7.1-8.8-7.6-11-7.7-2-.1-3.3 1.5-4.8 1.7z"/>
    <path class="st5" d="M123.6 79.7c0 1.1-.2 3.6 0 4.4.2.8 1.4 3.3 1.2 4.7-.3 1.4-4.1 12.6-4.4 12.6-.4-.1-4.7-10.3-5.7-11.3-1.1-1-1.9-2.5-2-3.6-.1-1.1-2-.7-2.1-1.3-.1-.6-1-9.8-.4-12.6.5-2.8 13.4 7.1 13.4 7.1z"/>
    <path class="st5" d="M110 73.5c.4 1.1 7.1 8.3 13.6 7 5-1.1 2.9-6.3 4.5-11.7.6-2-.1-5.2-1.7-7.9-1.6-2.7-5.2-9.9-9.1-9.9-1.7 0-1 5.5-2.7 10.1-1.7 4.6-5.7 9.6-4.6 12.4zM154.8 77.4c-.9.1-2.7.3-3 1.1-.3.8.5 1.7.8 1.7.2 0 2.6-.6 2.6-.6s0 2 .2 2.9c.2.9.7 1.4 1.3 1.3.5-.1.8-.6 1-.7.2 0 .1 1.2 1 1.2s1.2-.8 1.3-.8c.1 0 1.3-.1 1.6-.9.3-.9.4-1.3.6-1.4.2-.1 1.3-1.2 1.5-2.1.2-.9.7-1.7.9-1.8.2-.1 2.4-.6 2.4-.6s-.7-1.1-.9-1.6c-.2-.5-1-.8-1.7-.8-.7.1-1.2-.9-1.7-1-.5-.1-1.7.6-2.2.4-.4-.2-.5-.6-1.2-.4-.7.2-.6.7-1.2.9-.5.1-2.3.2-2.6.8-.5.6-.7 2.4-.7 2.4z"/>
    <g>
      <path class="st4" d="M368.1 246c.9-.2 2.2-.3 3 0 .8.3.7.6 1.4.7.7.1 2.2.1 2.8 1.8.6 1.7-1 9.6-1.5 9.6s-1.5-.4-1.6 0c-.1.4-.6 5.1-.1 7 .5 1.9.9 6.7 0 9.6-.9 2.9-3.3 10.1-5.4 9.7s-2.8-.6-3.1-2.7c-.3-2.1 0-7.7-.1-9.1-.2-1.4-1.3-5.6-1.3-6.6 0-6 5.9-20 5.9-20zM346.8 277.8c-.9 2.3-2.7 11-2.8 11.9-.1 1-.9 3.9.3 5.8s10.7.2 11.8-.7c1.2-.9 2.2-2.4 2.2-4.3s-.3-6-1-7.7c-.7-1.6-.6-3-1.4-4.1-.8-1.1-3.2-2-5-1.9-1.7 0-4.1 1-4.1 1z"/>
      <linearGradient id="SVGID_1_" gradientUnits="userSpaceOnUse" x1="374.1555" y1="265.0865" x2="348.8881" y2="204.0104">
        <stop offset="0" stop-color="#1d0633"/>
        <stop offset=".5307" stop-color="#1b1845"/>
        <stop offset="1" stop-color="#192b59"/>
      </linearGradient>
      <path d="M329.7 157.8c-.7 3-3.2 12.6-2.6 18.4.6 5.8-1.6 28.3.2 38.1 1.8 9.7 5.9 17.3 8.5 19.8 2.6 2.5 16.5 15.6 17.9 16.2 1.4.5 10.8 10.3 12.5 8.5 1.7-1.7 3.8-5.9 3.8-7.4s.8-4.3-.5-5.3-20.4-22.2-22-25.8c-1.6-3.6-1.9-9.5-.4-12.5 1.6-3.1 6.5-19.3 6.8-22.4.3-3.1 2.7-27 2.5-29.3-.4-2.4-26.7 1.7-26.7 1.7z" fill="url(#SVGID_1_)"/>
      <path class="st6" d="M370.6 153.7c1.6 6.2 4.2 19.8 3.7 25.7s-4.6 44.7-4.9 49.8c-.3 5.1-4.7 29.5-6.4 36.5s-3.9 16.2-5.4 15.7c-1.5-.5-3.1-3.4-6.1-3.5-3-.1-4.8 1.8-5.4.1-.7-1.7-.1-13.3 1.2-18.2 1.3-4.9 6.1-37.4 5.8-41-.3-3.6-1.2-15.2-2.5-21.8-1.4-6.5-6.8-36.7-6.2-39.8.5-3.2 26.2-3.5 26.2-3.5z"/>
      <path class="st5" d="M322.8 149.6c-.2 1.2 0 4 0 5.5s-1 4.7-.6 7c.4 2.4 4.1 9 4.7 9s3-1.8 3.7-2.4 1.6-1.8 1.7-1.7c.2.1 2 2.4 2.5 2.7.5.3 1.2.6 1.9 0s.4-1.1.3-1.5c-.1-.3-3.7-4.8-4.1-5.4-.4-.6-1.9-2.3-2.5-2.6-.6-.3-2-1.2-1.9-1.7.1-.6 2.1-7.9 2.1-8.5 0-.6-1.5-2.6-3.1-2.6-1.5-.3-4.4.1-4.7 2.2z"/>
      <path class="st11" d="M337.3 87.6c-3.6 1.1-5.8 10-6.4 13.2-.6 3.1-2.1 17.2-3.3 20-1.2 2.7-3.2 12.4-4 16.7-.8 4.3-1.4 13.1-.9 13.3.5.2.7-3.3 3.9-2.5 3.2.8 3.6 2.7 4.5 2.1s5.6-19.7 7.2-25.6c1.5-6.2 4.3-38.9-1-37.2z"/>
      <path class="st11" d="M354.5 82c-1.3-.9-3.4.5-4.2 1.2-.8.8-5.7 2.3-7.2 2.1-1.4-.2-6.5 1.6-7.7 4.5s-1.2 10.9-.4 13.6c.8 2.6 2.4 9.4 1.5 13.6-.9 4.2-2.1 17.9-3.5 21.5-1.3 3.6-3.9 16.2-4 18.1-.1 1.1-.3 1.9-.1 2.5 0 .1.4.4.8.6.3.1.9.6 1.1.7 1.3.8 3.7.1 4.5.3 1.2.3 9 1.1 14.9.9 6-.2 15.6-1.2 19.1-2.9 3.5-1.7 4.8-4.6 4.8-6.5 0-2 2.5-5 2.8-8.1.3-3.1 1.5-14.4 4-20.8 2.5-6.5 7.4-27 5.8-30.6-1.6-3.6-13.6-10-16.7-10.3-2.9-.1-15.5-.4-15.5-.4z"/>
      <path class="st9" d="M352.8 53.9c.2-1.2.8-3.2 1.3-3.9.5-.7-.8-1.5-.8-2.2s3.1-4 6.9-5.1c3.8-1.1 10-2 14.3 1.2 4.3 3.1 3.2 5.8 3.8 6.8.7 1 2 8.9.5 11.5-1.5 2.6-6 6.9-6.5 8.7-.6 1.8-1.3 3.4-1.9 3.4-.6 0-8.1-1.3-10.3-4.4-2.3-3.3-7.3-16-7.3-16z"/>
      <path class="st5" d="M354 78.5c0 .5 0 2.9-.2 3.2-.2.4-1.8.8-1.9 2.4-.1 1.6-.2 5.6 1.1 7.2 1.3 1.6 2.4 3.4 3 3.4.7 0 8.7-6.3 11.2-8.1 2.4-1.9 4.9-3.3 4.8-3.6 0-.4-2-1.6-2-2.8 0-1.2.2-6.1.7-7.4.5-1.3 1.7-2.7 1.9-3.1.1-.4-5-.3-6.4.6S354 78.5 354 78.5z"/>
      <path class="st5" d="M355.1 50.6c-1.6 1.2-3 3.9-3.1 4.7-.1.8-1.5 1.6-1.4 2.2 0 .6.7 2.7 0 3.8-.7 1.1-1.4 2.9-1.1 5.1.3 2.2.9 6 .9 7.4 0 1.4-.3 4.1 1.5 4.7 1.8.6 5.8 2.4 8 1.8 2.2-.6 7.7-9.4 8.6-9.4.9 0 4.1-.3 5.3-2.1 1.2-1.8 1.4-3.6 1-4.8-.4-1.2-1.5-1-2.3-.5-.8.5-2.3.7-2.6 1.4-.3.6-1.7 3.5-1.7 3.8 0 .3-.9.3-.9-.2s1.4-3.7 1.4-4.9c0-1.2 0-3.3-1.1-4-1-.6-2.4-1.8-1.1-2.9 1.3-1.1 1.5-2.2.3-2.9-1.2-.8-9.3-5-11.7-3.2zM373.4 152.2c-1.2 1.4-4.6 4.7-6.1 6-1.5 1.3-3.7 3.9-4.3 3.9-.6.1-2.4.3-4.3.5s-3.3 1-4.3 1.4c-1 .4-4 1.4-4.7 1.4-.7 0-1.4 0-1.6.9-.2 1 1.8 1.8 3 1.8s2.7-.9 3.4-.9c.6 0 1.5-.3 1.6.1.1.4-.6.9-.5 1.5 0 .6 1.8 3.2 5.8 3.8 3.9.6 6.2-.1 7.1-1.3.9-1.3 1.7-4.5 3-5.6 1.4-1.1 8.5-6 8.8-6.7.3-.6.2-5.5-1.4-6.1-1.6-.5-5.5-.7-5.5-.7z"/>
      <path class="st11" d="M386.9 92.8c-2.7-.6-4 3.1-5.4 5.2-1.3 2.2-4.4 18.7-3.5 22.4.9 3.7 3.2 15.1 3.3 16 .1.9.7 3.2-.1 4.9-.8 1.7-6.6 8.2-7.5 9.3-.9 1.1-.9 2.1-.7 2 .2 0 2.9 0 4.8 2.3 1.9 2.4 1.8 5 2.1 4.8.3-.2 12.4-9.9 14.1-15.8 1.7-5.9 1.3-15 1-19.7-.2-4.6-1.1-15.3-2.1-19.8-1-4.2-3.3-11-6-11.6z"/>
    </g>
  </g>
</svg>