<svg version="1.1" id="Layer_1" xmlns="http://www.w3.org/2000/svg" xmlns:xlink="http://www.w3.org/1999/xlink" x="0" y="0" viewBox="0 0 450 300" xml:space="preserve">
  <style>
    .st0{fill:#f1eef7}.st1{fill:#110239}.st2{fill:#fefefe}.st4{fill:#fca700}.st5{fill:#fff}.st7{fill:#ffc6bb}.st8{fill:#e5e6ed}.st10{fill:#d0d1de}
  </style>
  <path class="st0" d="M180.9 115.7c-43.8 3.1-94.9 47-133.9 24.2S32.7 48.1 81.1 60.2 151.2-3.3 199.4 4.6c48.2 7.9 29.8 54.8 58.2 64.5s73.5 38 54.4 77.2c-18.9 39.1-77.3-34.4-131.1-30.6zM328.1 168.8c0 15.4 1.5 32.6 42 45.3s53.3-15.1 31.2-30.2c-22-15.1-2.4-40.9-23.8-51.2-21.4-10.3-49.4 13.5-49.4 36.1z"/>
  <path class="st1" d="M349 266.8H106c-7.7 0-14-6.3-14-14V99.1c0-7.7 6.3-14 14-14h243c7.7 0 14 6.3 14 14v153.7c0 7.7-6.3 14-14 14z"/>
  <path class="st2" d="M104.5 97.2h246v155.7h-246z"/>
  <path class="st2" d="M104.5 97.2h246v155.7h-246z"/>
  <path fill="#494c9a" d="M232.1 176.6l-22.2 9.9-28.1-28.1-77.3 58.9v35.6h246v-183L247.7 194.3z"/>
  <path class="st2" d="M153 205.3h7.9v6H153zM164.1 205.3h7.9v6h-7.9z"/>
  <path class="st4" d="M175.2 205.3h7.9v6h-7.9z"/>
  <path class="st2" d="M186.3 205.3h7.9v6h-7.9zM197.3 205.3h7.9v6h-7.9z"/>
  <path class="st4" d="M208.4 205.3h7.9v6h-7.9z"/>
  <path class="st2" d="M153 215.5h7.9v6H153zM164.1 215.5h7.9v6h-7.9zM175.2 215.5h7.9v6h-7.9zM186.3 215.5h7.9v6h-7.9z"/>
  <path class="st4" d="M197.3 215.5h7.9v6h-7.9z"/>
  <path class="st2" d="M208.4 215.5h7.9v6h-7.9zM153 225.7h7.9v6H153z"/>
  <path class="st4" d="M164.1 225.7h7.9v6h-7.9z"/>
  <path class="st2" d="M175.2 225.7h7.9v6h-7.9zM186.3 225.7h7.9v6h-7.9zM197.3 225.7h7.9v6h-7.9zM208.4 225.7h7.9v6h-7.9zM153 235.8h7.9v6H153zM164.1 235.8h7.9v6h-7.9z"/>
  <path class="st4" d="M175.2 235.8h7.9v6h-7.9z"/>
  <path class="st2" d="M186.3 235.8h7.9v6h-7.9z"/>
  <g>
    <path class="st5" d="M234.7 188.5l-.7-.8-1 .4-.7-1.5 2-.8 1.5 1.5zM216.9 194.9l-.6-1.5 2.7-1.1.6 1.5-2.7 1.1zm5.3-2.2l-.6-1.5 2.7-1.1.6 1.5-2.7 1.1zm5.4-2.3l-.6-1.5 2.7-1.1.6 1.5-2.7 1.1zM212.2 196.9l-1.6-1.5 1-1.2.9.7 1-.4.7 1.6zM208.2 193.4l-2.4-2.1 1-1.3 2.4 2.1-1 1.3zm-4.7-4.2l-2.4-2.1 1-1.3 2.4 2.1-1 1.3zm-4.8-4.1l-2.4-2.1 1-1.3 2.4 2.1-1 1.3zm-4.8-4.2l-2.4-2.1 1-1.3 2.4 2.1-1 1.3zm-4.7-4.2l-2.4-2.1 1-1.3 2.4 2.1-1 1.3zM184.4 172.6l-.8-.7-.8.6-.9-1.4 1.8-1.3 1.7 1.5zM110.1 223.6l-1-1.4 2.9-2 1 1.4-2.9 2zm5.7-4l-1-1.4 2.8-2 1 1.4-2.8 2zm5.7-4.1l-1-1.4 2.8-2 1 1.4-2.8 2zm5.7-3.9l-1-1.4 2.8-2 1 1.4-2.8 2zm5.6-4l-1-1.4 2.8-2 1 1.4-2.8 2zm5.7-4l-1-1.4 2.8-2 1 1.4-2.8 2zm5.6-3.9l-.9-1.4 2.8-2 .9 1.4-2.8 2zm5.6-3.9l-.9-1.4 2.8-2 .9 1.4-2.8 2zm5.5-4l-.9-1.4 2.8-2 .9 1.4-2.8 2zm5.6-3.9l-.9-1.4 2.8-1.9.9 1.4-2.8 1.9zm5.5-3.8l-.9-1.4 2.8-1.9.9 1.4-2.8 1.9zm5.5-3.9l-.9-1.4 2.8-1.9.9 1.4-2.8 1.9zm5.5-3.9l-.9-1.4 2.7-1.9.9 1.4-2.7 1.9zM253.8 199.4l-1.2-1.1 2.1-2.5 1.2 1.1-2.1 2.5zm4.3-5l-1.2-1.1 2.1-2.4 1.2 1.1-2.1 2.4zm4.2-4.8l-1.2-1.1 2.1-2.4 1.2 1.1-2.1 2.4zm4.1-4.9l-1.2-1.1 2.1-2.4 1.2 1.1-2.1 2.4zm4.2-4.9l-1.2-1.1 2.1-2.4 1.2 1.1-2.1 2.4zm4.2-4.8l-1.2-1.1 2.1-2.4 1.2 1.1-2.1 2.4zm4.1-4.8l-1.2-1.1 2.1-2.4 1.2 1.1-2.1 2.4zm4.1-4.8l-1.2-1.1 2.1-2.4 1.2 1.1-2.1 2.4zm4.1-4.8l-1.2-1.1 2.1-2.4 1.2 1.1-2.1 2.4zm4.1-4.8l-1.2-1.1 2-2.4 1.2 1.1-2 2.4zm4.1-4.8l-1.2-1.1 2-2.4 1.2 1.1-2 2.4zm4.1-4.7l-1.2-1.1 2-2.4 1.2 1.1-2 2.4zm4-4.7l-1.2-1.1 2-2.4 1.2 1.1-2 2.4zm4.1-4.7l-1.2-1.1 2-2.3 1.2 1.1-2 2.3zm4-4.7l-1.2-1.1 2-2.3 1.2 1.1-2 2.3zm4-4.7l-1.2-1.1 2-2.3 1.2 1.1-2 2.3zm4-4.7l-1.2-1.1 2-2.3 1.2 1.1-2 2.3zm4-4.6l-1.2-1.1 2-2.3 1.2 1.1-2 2.3zm4-4.6l-1.2-1.1 2-2.3 1.2 1.1-2 2.3zm3.9-4.6l-1.2-1.1 2-2.3 1.2 1.1-2 2.3zm4-4.6l-1.2-1.1 2-2.3 1.2 1.1-2 2.3zm3.9-4.6l-1.2-1.1 2-2.3 1.2 1.1-2 2.3zm3.7-4.4l-1.2-1.1 2-2.3 1.2 1.1-2 2.3zm3.6-4.3l-1.2-1.1 2-2.3 1.2 1.1-2 2.3zM250.1 203.7l-1.7-1.8 1-1.2.6.6.5-.6 1.2 1.1zM245.6 199.2l-2.7-2.7 1.1-1.2 2.7 2.7-1.1 1.2zm-5.4-5.3l-2.7-2.7 1.1-1.2 2.7 2.7-1.1 1.2z"/>
  </g>
  <g>
    <path class="st4" d="M344 51.8l-95.9 121.5-15.5-18.7-22.7 10.8-28.9-30.8-76.5 62.2v7.5l76.2-61.9 28.4 30.3 22.6-10.7 16.4 19.8 99.5-126.1c-1.2-1.3-2.5-2.6-3.6-3.9z"/>
    <path class="st4" d="M358.8 40.8l-22.6 7.6 15 15z"/>
  </g>
  <g>
    <path class="st1" d="M264.1 288.3s.4 6.9-.7 8c-1 1-14.7 2.5-16 1.4-1.3-1.2-.8-3.3 2.1-4.4 3.1-1.1 4.7-.4 6.6-1.4 1.9-1 1.1-4.1 1.1-4.1l6.9.5zM309 288.3s-.4 6.9.7 8c1 1 14.7 2.5 16 1.4 1.3-1.2.8-3.3-2.1-4.4-3.1-1.1-4.7-.4-6.6-1.4-1.9-1-1.1-4.1-1.1-4.1l-6.9.5z"/>
    <path d="M309.8 248.2c-1.5-7.5-9.5-28.1-12.5-35.3-1.2-.4-2.5-.8-3.8-1.2.3-1.6.6-3 .8-4.2-2.3.6-4.8.9-7.3 1.7-.3.1-.7.2-1.1.3-.4-.1-.8-.2-1.1-.3-2.5-.8-5-1.1-7.3-1.7.3 1.2.5 2.6.8 4.2-1.3.4-2.6.8-3.8 1.2-3 7.1-11 27.7-12.5 35.3-2.1 10.4-5.5 41.4-5.5 41.4l8.8 1.2s8.9-41.6 10.1-43.9c2.3-4.1 4.7-7.8 6.8-11 1.8-2.7 5.7-2.7 7.5 0 2.1 3.2 4.5 6.9 6.8 11 1.3 2.3 10.1 43.9 10.1 43.9l8.8-1.2c-.1 0-3.5-30.9-5.6-41.4z" fill="#ffd549"/>
    <path class="st7" d="M312.2 119.6c-.5-3.6-1.1-4.1-2.3-4.8-.6-.3-1.1-.6-1.5-1.1-.4-.5-1.1-1-1.6-1.5-.5-.4-1.2-.9-1.4-1.6-.3-.9.8-.6 1.6-.4.8.3 2.3 2.5 3.1 2.2.8-.3-1.1-2.8-1.5-3.3-.9-1.2-2.1-1-3.3-1.6-.7-.3-1-.7-.2-1.2.6-.4 1.3-.1 1.9.1 1.2.4 2.5 1.1 3.4 2.1-.6-.8-2-1.8-3-2.3-.6-.3-3.6-1.2-3.2-2.3.8-2.1 6.6 1.9 7.2 3-.7-1-1.8-1.8-2.8-2.5-.6-.4-2.1-1.4-.8-1.9 1.8-.7 4.1 2.7 5.3 4-.5-1.1-1.3-1.8-2.1-2.9-1-1.2.2-1.5 1.5-.5.5.5 1.4 1.5 1.6 1.8 2 2.5 2.1 4.2 2.4 7.3.1 1.1.2 2.9.5 6.1.3 1.9-3.2 1-4.8 1.3zM226.4 169.7c-3.4-1.3-3.8-2.6-4.2-4-.2-.6-.4-1.2-.8-1.7s-.8-1.2-1.1-1.9c-.3-.6-.6-1.4-1.3-1.7-.8-.5-.8.7-.7 1.5.1.8 1.9 2.8 1.4 3.5-.5.8-2.5-1.7-2.9-2.2-1-1.2-.6-2.2-.8-3.6-.2-.8-.5-1.1-1.1-.4-.5.5-.3 1.3-.3 1.9.1 1.3.6 2.7 1.3 3.8-.7-.8-1.3-2.4-1.6-3.4-.2-.7-.4-3.8-1.5-3.6-2.2.4.4 6.8 1.4 7.7-.9-.9-1.3-2.1-1.8-3.3-.3-.7-.9-2.3-1.7-1.2-1.1 1.6 1.7 4.5 2.8 6.1-1-.8-1.5-1.6-2.4-2.7-1-1.3-1.6-.1-.8 1.4.3.6 1.2 1.7 1.4 2 2 2.5 3.7 2.9 6.6 3.9 1.1.4 2.2.4 5.6 2.1 1.7.6 1.8-2.8 2.5-4.2zM290.2 162.9c-1.9.4-3.9.4-5.8.3-.7-.1-1.4-.2-2-.4.1 2.4.1 8-1.6 10.3 0 0 .6 2.7 5.5 2.8 4.9.1 5.5-2.8 5.5-2.8s-1.8-4.1-1.6-10.2z"/>
    <path class="st8" d="M309.1 176.5c-1.3-1.7-7.7-5.5-12-6.2-7-1.1-14.1-1.1-21.1 0-4.3.7-8.6 1.8-9.9 3.5-1.7 2.1 3.3 14.2 4.2 25.2.7 9.1 1.9 16.2 1.9 16.2 2.8 5.1 24.3 5.2 27.1.1 0 0 .5-7.8 2-16.3 1.9-11.1 9.5-20.3 7.8-22.5z"/>
    <path d="M274.5 196.5c.1-3 1.1-8.3 0-11-1.6-3.9-5.1-5.3-8.4-7.1 1 5 3.5 13 4.1 20.7.7 9.1 1.9 16.2 1.9 16.2.5.9 1.7 1.7 3.3 2.3-3-6-1.2-15.3-.9-21.1z" fill="#abadc4"/>
    <path class="st7" d="M296.8 149.6s-10.2-6-11.7-4.5-4 6.5-5.1 7.2c-1.2.8-3 1.5-2.8 2.4.2.9.8 1 .7 1.9 0 .9-2.1 5.2-1 6.5 1.1 1.3 8.5 4.1 13 1.1 4.4-2.9 11.9-12 6.9-14.6z"/>
    <path class="st1" d="M299.1 151.8l-8.6.1s-1.6 4.2-5.3 7c0 0 .2 1.3 1.1 1 .9-.3 1.5-.4 2.1-1.3.6-1 2.5-3.5 3.7-1.3 1.3 2.2-1.4 2.9-2.6 2.9 0 0-3.9 4.7-.9 5.6 0 0 3.4-.5 8.5-6 5.3-5.4 4.3-8.5 2-8z"/>
    <path class="st1" d="M282.9 141.7s-4.2 2.5.7 7.6c4.8 5.1 16.2 2.4 16.2 2.4s1.2-3.3-2.9-6.8c-3.1-2.6-6.4-3.9-9.1-2.7-4.7 2.2-4.9-.5-4.9-.5z"/>
    <path class="st8" d="M225.2 168l-3.6 5.8s9.4 9 20.2 16.2c6.3 4.2 27.8-2.5 31.1-3.5 4.7-1.4 8.3-11.5.4-15.2-4.6-2.2-23.2 12-27.8 9.6-5.8-3-20.3-12.9-20.3-12.9zM310.7 118.1l7.2-1.2s4.8 20.9 4.5 28.4c-.3 7.5-12.3 34.9-15 37-3.3 2.6-12.4-4.9-5.8-12.9 6.6-8 10.9-24.5 11-25.2.2-.6-1.9-26.1-1.9-26.1z"/>
  </g>
  <path class="st10" d="M176.4 111.4h-53.1c-1.4 0-2.6-1.2-2.6-2.6 0-1.4 1.2-2.6 2.6-2.6h53.1c1.4 0 2.6 1.2 2.6 2.6 0 1.4-1.2 2.6-2.6 2.6zM176.4 119.7h-53.1c-1.4 0-2.6-1.2-2.6-2.6 0-1.4 1.2-2.6 2.6-2.6h53.1c1.4 0 2.6 1.2 2.6 2.6 0 1.4-1.2 2.6-2.6 2.6zM162.2 128h-38.9c-1.4 0-2.6-1.2-2.6-2.6 0-1.4 1.2-2.6 2.6-2.6h38.9c1.4 0 2.6 1.2 2.6 2.6 0 1.4-1.2 2.6-2.6 2.6z"/>
  <g>
    <ellipse cx="352.4" cy="297.3" rx="18.3" ry="1.8" fill="#afccd3"/>
    <path d="M360.9 264.3c.4-3.2 1.4-8.8 5-12.8 10.4-11.3 23.5-3.3 25-8.6.7-2.5-3.6-6.8-8.4-8.2-12.1-3.6-12.2 5.3-15.5 2.6-4-3.3 12.8-19.6 5.6-34.2-3.7-7.5-14.3-12.5-19.8-9.6-4.4 2.3-5.2 9.7-5.3 11.1-.6 7.4 5.9 15.6 2.8 20.1-5.7 8.5-4.5-12.6-19.8-9-7.9 1.9-8.7 7.2-7.8 9.2 1.5 3.3 7.1.2 14.3 4.7 5.1 3.2 7.9 8.9 6.7 10.5-1.4 1.8-7.7-3.7-14-1.1-3.6 1.5-6.2 5.7-5.4 7.5.5 1.3 2.6.9 6.3 1.6 2.1.4 11.9 2.2 14.1 7.9.4 1 1.1 3.7-1.1 8.1h17.3z" fill="#009894"/>
    <defs>
      <path id="SVGID_1_" d="M360.9 264.3c.4-3.2 1.4-8.8 5-12.8 10.4-11.3 23.5-3.3 25-8.6.7-2.5-3.6-6.8-8.4-8.2-12.1-3.6-12.2 5.3-15.5 2.6-4-3.3 12.8-19.6 5.6-34.2-3.7-7.5-14.3-12.5-19.8-9.6-4.4 2.3-5.2 9.7-5.3 11.1-.6 7.4 5.9 15.6 2.8 20.1-5.7 8.5-4.5-12.6-19.8-9-7.9 1.9-8.7 7.2-7.8 9.2 1.5 3.3 7.1.2 14.3 4.7 5.1 3.2 7.9 8.9 6.7 10.5-1.4 1.8-7.7-3.7-14-1.1-3.6 1.5-6.2 5.7-5.4 7.5.5 1.3 2.6.9 6.3 1.6 2.1.4 11.9 2.2 14.1 7.9.4 1 1.1 3.7-1.1 8.1h17.3z"/>
    </defs>
    <use xlink:href="#SVGID_1_" overflow="visible" fill="#f59f17"/>
    <clipPath id="SVGID_2_">
      <use xlink:href="#SVGID_1_" overflow="visible"/>
    </clipPath>
    <path d="M385.7 331.7c.8-7.4 3.2-20.4 11.7-29.7 24.2-26.3 54.6-7.6 57.9-19.9 1.6-5.8-8.3-15.8-19.4-19.1-28-8.3-28.3 12.3-36 6.1-9.4-7.6 29.7-45.5 13-79.4-8.5-17.4-33.1-29.1-45.8-22.3-10.2 5.4-12.1 22.4-12.3 25.9-1.4 17.2 13.7 36.2 6.6 46.7-13.2 19.7-10.5-29.3-45.9-20.8-18.4 4.4-20.2 16.7-18.1 21.3 3.6 7.6 16.5.5 33.3 11 11.7 7.3 18.4 20.7 15.6 24.4-3.3 4.3-17.9-8.6-32.4-2.5-8.4 3.5-14.4 13.3-12.6 17.5 1.3 3 6.1 2.2 14.7 3.8 4.8.9 27.6 5.2 32.6 18.2.9 2.4 2.6 8.6-2.6 18.8h39.7z" clip-path="url(#SVGID_2_)" fill="#f59f17"/>
    <path d="M374.9 274.8c0 12.5-10.3 22.7-22.9 22.5-12.4-.2-22-10.8-22-23.2v-12.8c0-3 2.4-5.4 5.4-5.4h34.1c3 0 5.4 2.4 5.4 5.4v13.5z" fill="#9696c9"/>
  </g>
</svg>