<svg version="1.1" id="Layer_1" xmlns="http://www.w3.org/2000/svg" x="0" y="0" viewBox="0 0 450 300" xml:space="preserve">
  <style>
    .st0{fill:#f1eef7}.st1{fill:#fff}.st2{fill:#494c9a}.st3{fill:#acaad5}.st4{fill:#f59f17}.st5{fill:#28264a}.st6{fill:#f7a290}.st7{fill:#f8ccb7}.st8{fill:#000446}.st9{fill:#f6ae16}.st11{fill:#f6cec4}.st12{fill:#ffce52}.st13{fill:#ffc4bd}.st14{fill:#161f29}.st16{fill:#efbab6}.st17{fill:#03053f}
  </style>
  <path class="st0" d="M91 248.6s14.4-20.5-19.5-33.2c-34-12.7-36.9-38.2-28.2-49.6 23.2-30.4 61.5 9.5 92-1.6s52.1-47.7 98.7-34.2c46.6 13.4 63.9 58.8 95.4 54.9 31.5-3.9 76.9-25.6 94.5 23.1 17.6 48.7-87.3 41.9-121.5 79s-85.7-31.8-135.2-32c-49.7-.4-69.7 6.8-76.2-6.4z"/>
  <path class="st0" d="M35.3 106.4c-.9 13.6 12.7 39.2 57.2 26 44.5-13.2 51.4 15.1 72.6 2.5 21.2-12.6 18.3-38.2-19.6-32.4-27.4 4.2-38.2-24.6-68-25.4-22-.5-40.8 10.1-42.2 29.3zM352.1 145.6c-6.8 15.8-37 36.5-79.3-4.1-42.2-40.7-66.4-13-82.9-39.3-16.5-26.4 1.7-53.5 40.8-25 28.3 20.6 57.2-5.4 91 11.1 25.2 12.1 40.1 34.9 30.4 57.3z"/>
  <path class="st1" d="M87.3 98.2h290.1v164.7H87.3z"/>
  <path class="st2" d="M87.3 98.2h290.1v22.4H87.3z"/>
  <path class="st1" d="M102.2 107.4h232.2v7.4H102.2zM338.5 107.4h31.2v7.4h-31.2z"/>
  <path class="st3" d="M93.9 139.8h275.7v115.7H93.9z"/>
  <path class="st4" d="M93.9 125.8h25.2v8H93.9zM124.1 127.9h23v4.4h-23zM149.8 127.9h23v4.4h-23z"/>
  <g>
    <path class="st4" d="M293.8 127.9h23v4.4h-23zM319.5 127.9h23v4.4h-23zM345.2 127.9h23v4.4h-23z"/>
  </g>
  <g>
    <path class="st5" d="M173.5 35c-4.4-2.7-3.4-10.1-3.4-10.1l-9 .8-9-.8s1.1 7.3-3.4 10.1c-3.6 2.2 7.4 3 11.6 3.2v.1h1.6v-.1c4.2-.2 15.2-1 11.6-3.2z"/>
    <path class="st5" d="M165.6 11.4c-1.6 0-3.2.4-4.5 1.2-1.3-.8-2.9-1.2-4.5-1.2-5 0-9 4-9 9s4 9 9 9c1.6 0 3.2-.4 4.5-1.2 1.3.8 2.9 1.2 4.5 1.2 5 0 9-4 9-9 .1-5-4-9-9-9z"/>
    <path class="st6" d="M152.7 26.2c0 1.2-1 2.2-2.2 2.2-1.2 0-2.2-1-2.2-2.2s1-2.2 2.2-2.2c1.2 0 2.2 1 2.2 2.2zM174.2 26.2c0 1.2-1 2.2-2.2 2.2-1.2 0-2.2-1-2.2-2.2s1-2.2 2.2-2.2c1.2 0 2.2 1 2.2 2.2z"/>
    <path class="st7" d="M167 46.5h-11.7l.5-4.2.5-4.5 4.9.7 4.9-.7.4 3.8z"/>
    <path class="st6" d="M166.5 38.8c-1.6 1.3-3.6 3.5-5.7 3.5-1.8 0-3.5-2-5-3.1l.5-1.5 4.9.5 4.9-.5.4 1.1z"/>
    <path class="st7" d="M172.1 18.5v11.2c0 6-4.9 10.9-10.9 10.9s-10.9-4.9-10.9-10.9V18.5c0-3.8 3.1-7 7-7h7.9c3.7 0 6.8 3.1 6.9 7 0-.1 0-.1 0 0z"/>
    <path class="st6" d="M172.1 17.7c-.3.1-2.3 1.2-3.7-.8-.9.9-2.2 1.5-3.6 1.5-1 0-1.9-.3-2.6-.8-1.7 2.2-4.3 3.5-7.3 3.5-1.7 0-3.3-1.1-4.7-2v-.8c0-3.8 3.1-7 7-7h7.9c3.8.2 6.9 2.6 7 6.4z"/>
    <path class="st8" d="M171.3 10.8c-.6 0-1.3.2-1.8.5-.7-2-2.5-3.4-4.7-3.4-.4 0-.9.1-1.3.2-1.3-3.5-4.7-5.9-8.6-5.9-5.1 0-9.2 4.1-9.2 9.2s4.1 9.2 9.2 9.2c3 0 5.6-1.4 7.3-3.5.8.5 1.7.8 2.6.8 1.4 0 2.7-.6 3.6-1.5.6.9 1.7 1.5 2.9 1.5 1.9 0 3.5-1.6 3.5-3.5 0-2-1.6-3.6-3.5-3.6z"/>
    <path class="st6" d="M161.6 25.8l-1.1 1.9c-.5.9 0 2.1 1.1 2.3 1.1-.2 1.6-1.4 1.1-2.3l-1.1-1.9z"/>
  </g>
  <g>
    <path class="st7" d="M182.7 52.2l-7.1 12.1 9.3 16.4h-9.3v9.5s13.1 3.6 16.6 0c3.5-3.6 1.8-24-9.5-38zM138.6 52.2l7.1 12.1-9.3 16.4h9.3v9.5s-13.1 3.6-16.6 0c-3.4-3.6-1.8-24 9.5-38z"/>
    <path class="st9" d="M156 40.3s1.9 5 5.3 5.2c3.4.2 4.6-2 5.1-5.2 0 0 20.5 1.4 20.3 12.8L176 69h-33.5L136 52.9s9.3-14.2 20-12.6z"/>
    <path class="st5" d="M180.7 103.3c-2.1 6.7-10.5 8.3-21.3 8.6-15 .4-16.6-3.6-16.6-3.6-2.1-.3-2.7-3-2.6-6 .1-4.2 1.4-9.1 1.4-9.1h38.6c1.2 4.2 1.3 7.5.5 10.1z"/>
    <path class="st1" d="M181.1 92.3c0 .4-.4.8-.8.8h-39.2c-.4 0-.8-.4-.8-.8V65.2c0-.4.4-.8.8-.8h39.2c.4 0 .8.4.8.8v27.1z"/>
    <path class="st3" d="M164 77.3c0 1.9-1.5 3.4-3.4 3.4s-3.4-1.5-3.4-3.4 1.5-3.4 3.4-3.4c1.8 0 3.4 1.5 3.4 3.4z"/>
    <path d="M180.7 103.3c-2.1 6.7-10.5 8.3-21.3 8.6-15 .4-16.6-3.6-16.6-3.6-2.1-.3-2.7-3-2.6-6 2.9-3.1 10.7-5.3 19.8-5.3 10.2-.1 18.7 2.7 20.7 6.3z" fill="#2c3d4f"/>
    <path class="st11" d="M159.3 106.2s-1.9-7.7-5.6-7.4c-3.7.3-10.3.7-7.7 10.4 2.6 9.7 18.9 46.4 18.9 46.4l-3.1 12.5s1.9 2.7 4.6-.7c2.7-3.4 1.9-5.5 3.6-7.1 1.7-1.6 4.4-2.7 2.2-6.1-2.4-3.4-12.2-45.7-12.9-48z"/>
    <path class="st11" d="M163.8 108.4s-1.1-8.8 2.8-9.2c3.9-.4 8.6-2 9.3 5.3.7 7.3-9 49.2-9 49.2s-3.8 20.5-7.5 19.7c-3.8-.8-4.3 0-4.3 0s-2.3 0-1.1-2.7c1.3-2.7 2.6-8.7 3.8-12.4 1.2-3.9 6-49.9 6-49.9z"/>
  </g>
  <g>
    <path class="st0" d="M163.3 197.9c0 12.2-9.9 22.2-22.2 22.2-12.2 0-22.2-9.9-22.2-22.2 0-12.2 9.9-22.2 22.2-22.2 12.2.1 22.2 10 22.2 22.2zM169.3 186.3h41.2v4.4h-41.2zM169.3 197.2h58.8v2h-58.8zM169.3 200.8h58.8v2h-58.8zM169.3 204.4h58.8v2h-58.8zM169.3 208h58.8v2h-58.8zM284.9 186.3h41.2v4.4h-41.2zM284.9 197.2h58.8v2h-58.8zM284.9 200.8h58.8v2h-58.8zM284.9 204.4h58.8v2h-58.8zM284.9 208h58.8v2h-58.8z"/>
    <g>
      <path class="st1" d="M278.8 197.9c0 12.2-9.9 22.2-22.2 22.2-12.2 0-22.2-9.9-22.2-22.2 0-12.2 9.9-22.2 22.2-22.2 12.3.1 22.2 10 22.2 22.2z"/>
    </g>
  </g>
  <path class="st12" d="M348.6 123.3l5.7 10.1 9.2 2.5 7.5-14.3c-.1-.1-12 1.4-22.4 1.7z"/>
  <g>
    <path class="st13" d="M368.1 262.4l-.7 7.2H361l.4-8.4z"/>
    <path class="st5" d="M357.4 272.6l3.1-4.8h8.1s.6 3.6-.8 6-4.8 2.3-4.8 2.3l-5.6-3.5z"/>
    <path class="st14" d="M363 276.1s-.2-4.7-5.6-4.7c-5.4 0-4.5 4.7-4.5 4.7H363z"/>
    <path class="st13" d="M400.2 262.4l-.7 7.2h-6.4l.4-8.4z"/>
    <path class="st5" d="M389.5 272.6l3.1-4.8h8.1s.6 3.6-.8 6-4.8 2.3-4.8 2.3l-5.6-3.5z"/>
    <path class="st14" d="M395.1 276.1s-.2-4.7-5.6-4.7c-5.4 0-4.5 4.7-4.5 4.7h10.1z"/>
    <path class="st5" d="M362.6 182.5l-1.8 81.5s5 3.3 7.9 1.4c2.9-1.9 7.9-61 7.9-61l15.2 59.3s5.7 5.2 8.6 1.4c2.9-3.8-10.4-89.8-10.4-89.8l-27.4 7.2z"/>
    <path class="st14" d="M381.6 181.8l-.8-4.4 9.3-2.8 9.3 68.9z"/>
    <path d="M391.1 169.5c-1.3.6-2.4 1.1-3.2 1.4-3.2 1.2-2.5-3.6-2.5-3.6s2.3-2.4 4.5-4.8c.4 2.3.9 4.7 1.2 7z" fill="#4d73b9"/>
    <path class="st12" d="M398.9 145.8c-1.1 1.2-7.1 4.6-7.1 4.6s-3.9-6.5-4.9-3.8c-.5 1.3 1.4 8.3 2.9 15.8-2.2 2.4-4.5 4.8-4.5 4.8s-.7 4.9 2.5 3.6c.8-.3 1.9-.8 3.2-1.4.8 6 .7 11.3-1.6 13.3-4.4 3.8-14.5 6.1-21.3 5.7-2.8-.2-5-.9-6-2.1-3.7-4.2-4.1-29.7-4.1-36.5 0-6.8 3.3-20.4 5.3-25.1 1-2.4 10.8-4 10.8-4 10.7-2.9 25.1 24.9 24.8 25.1z"/>
    <path class="st13" d="M401.7 160.3c-.3 3.5-6.4 7.1-10.6 9.2-1.3.6-2.4 1.1-3.2 1.4-3.2 1.2-2.5-3.6-2.5-3.6s2.3-2.4 4.5-4.8c1.8-1.9 3.6-3.8 4.1-4.5.9-1.1-.7-5.6-1.8-8.3 1.2-.6 4-2 5.7-4.4 1.5 4.2 4 11.7 3.8 15z"/>
    <path class="st1" d="M386.8 163.1c1.2 1.7-1.9 5.1.3 8.4 2.2 3.3.5 4.1-.3 3.7-2.2-1.1-2.3-4.6-2.4-9.7 0-1.3 1.1-2.4 2.4-2.4z"/>
    <path class="st13" d="M364.9 125.6l1.2-6.4 6.9-.7 1 4.5c0 .1-1.2 4.1-9.1 2.6z"/>
    <path class="st8" d="M364.1 103.7s-3.4 2.3-5.4 1c-2-1.3-2.9-5.4-2.9-5.4s.8.7 2.3.8c0 0-1 .3-1.4-1.9-.4-2.2 2.6 2.1 4.2 2.3 0 0-2.1-1.5-2-2.7.1-1.2 1.5.9 2.4.8.9-.1 2.2-1.4 5.9-1.2 3.7.3 6.1 5.6 8.3 3.8 2.2-1.8 1.3 3.5 1.2 5.4-.1 1.9.8 11.2-2.9 9.7s-5.4-8.8-5.4-8.8l-4.3-3.8z"/>
    <path class="st13" d="M366.4 122s-4.7.7-5.5-5.8c-.8-6.4-2.9-9.6-2-12.2.9-2.6 4.2-3 8.6-1.5 4.3 1.5 6.7 3.4 6.2 5.6 0 0 4.4 1.7.6 4.7 0 0 .4 7.7-3.1 8.8-3.7 1.1-4.8.4-4.8.4z"/>
    <path class="st8" d="M358.4 102.6s.4 2.2 3.5 1.5c3.1-.7 2.5-.7 5.6-.4 3.1.3 3.4 4.3 3.9 6.9.5 2.6.2-2.1 2.4-2.4 2.1-.3.3-3.4.3-3.4l-4.9-3.7c.1 0-5.5-2.1-10.8 1.5z"/>
    <path class="st16" d="M360.6 111.6s-1.7 4.7-.2 4.6c1.5-.1 1.7-.3 1.7-.3l-1.5-4.3zM365.6 121.9s3.4-.3 4.6-.7l-5.2 3.7.6-3z"/>
    <path class="st12" d="M387 146.7s4.4 4.4 5.2 4c.8-.4 7-4.4 7-4.4l-3.4-6.2c.1 0-9.4 1.9-8.8 6.6z"/>
    <g>
      <path class="st13" d="M349.3 124.6l-2.8.8s-14.3 3.2-16.4 10.4c-2.1 7.1 23.4 3.8 23.4 3.8s3.7.2 3.8 3.1c.1 2.9 0-.8 1.4-2.3 1.4-1.6.7-5.3-1-6-1.7-.7-14.3-.6-14.3-.6l10.9-.8-5-8.4z"/>
      <path class="st13" d="M357 139.6v11.1s2.6 1.8 2.4-2.7c-.2-4.6 1.4-5.3.7-7.8s-1.4-4.7-1.4-4.7l-1.7 4.1z"/>
    </g>
  </g>
  <g>
    <path class="st5" d="M71.2 192.8l7.2-4.3h65.4l-4.4 4.3z"/>
    <path class="st12" d="M139.4 276.4l3.9-4.6 3.9-1.2-3.4-82.1-4.4 4.3z"/>
    <path class="st9" d="M147.2 270.6l-3.9 1.2-2.2-80.6 2.7-2.7zM71.2 192.8h68.2v83.6H71.2z"/>
    <g>
      <path class="st1" d="M92.5 204.7c0 1.2-1 2.2-2.2 2.2-1.2 0-2.2-1-2.2-2.2 0-1.2 1-2.2 2.2-2.2 1.3 0 2.2 1 2.2 2.2zM122.6 204.7c0 1.2-1 2.2-2.2 2.2-1.2 0-2.2-1-2.2-2.2 0-1.2 1-2.2 2.2-2.2 1.2 0 2.2 1 2.2 2.2z"/>
    </g>
    <path class="st1" d="M105.3 228.2c-9.1 0-16.5-7.4-16.5-16.5 0-.7.6-1.2 1.2-1.2.7 0 1.2.6 1.2 1.2 0 7.7 6.3 14.1 14.1 14.1s14.1-6.3 14.1-14.1c0-.7.6-1.2 1.2-1.2.7 0 1.2.6 1.2 1.2.1 9-7.3 16.5-16.5 16.5z"/>
    <g>
      <path class="st5" d="M172.5 174.5l8.7-5.2h79.7l-5.3 5.2z"/>
      <path class="st3" d="M255.6 276.4l4.8-5.6 4.7-1.5-4.2-100-5.3 5.2z"/>
      <path class="st5" d="M265.1 269.3l-4.7 1.5-2.8-98.3 3.3-3.2z"/>
      <path class="st2" d="M172.5 174.5h83.1v101.9h-83.1z"/>
      <g>
        <path class="st1" d="M198.5 189.1c0 1.5-1.2 2.7-2.7 2.7-1.5 0-2.7-1.2-2.7-2.7 0-1.5 1.2-2.7 2.7-2.7 1.5 0 2.7 1.2 2.7 2.7zM235.1 189.1c0 1.5-1.2 2.7-2.7 2.7-1.5 0-2.7-1.2-2.7-2.7 0-1.5 1.2-2.7 2.7-2.7 1.5 0 2.7 1.2 2.7 2.7z"/>
      </g>
      <path class="st1" d="M214.1 217.6c-11.1 0-20.2-9-20.2-20.2 0-.8.7-1.5 1.5-1.5s1.5.7 1.5 1.5c0 9.4 7.7 17.1 17.1 17.1 9.4 0 17.1-7.7 17.1-17.1 0-.8.7-1.5 1.5-1.5s1.5.7 1.5 1.5c.1 11.2-8.9 20.2-20 20.2z"/>
    </g>
    <g>
      <path class="st5" d="M134.2 207.8l5.8-3.4h53.6l-3.5 3.4z"/>
      <path class="st0" d="M190.1 276.4l3.2-3.7 3.2-1.1-2.9-67.2-3.5 3.4z"/>
      <path class="st1" d="M196.5 271.6l-3.2 1.1-1.9-66.2 2.2-2.1zM134.2 207.8h55.9v68.5h-55.9z"/>
      <g>
        <path class="st2" d="M151.6 217.7c0 1-.8 1.8-1.8 1.8s-1.8-.8-1.8-1.8.8-1.8 1.8-1.8c1-.1 1.8.8 1.8 1.8zM176.2 217.7c0 1-.8 1.8-1.8 1.8s-1.8-.8-1.8-1.8.8-1.8 1.8-1.8c1-.1 1.8.8 1.8 1.8z"/>
      </g>
      <path class="st2" d="M162.1 236.9c-7.5 0-13.6-6.1-13.6-13.6 0-.6.5-1 1-1 .6 0 1 .5 1 1 0 6.4 5.2 11.5 11.5 11.5 6.4 0 11.5-5.2 11.5-11.5 0-.6.5-1 1-1 .6 0 1 .5 1 1 .2 7.5-5.9 13.6-13.4 13.6z"/>
    </g>
  </g>
  <g>
    <circle transform="matrix(.9965 -.08367 .08367 .9965 -19.2418 25.0261)" class="st5" cx="289" cy="242.1" r="52.6"/>
    <circle transform="matrix(.9952 -.09816 .09816 .9952 -22.3681 29.5346)" class="st0" cx="289" cy="242.1" r="43.7"/>
    <path class="st9" d="M266.6 211.3c.6.7.4 1.7-.3 2.3-.7.6-1.7.4-2.3-.3-.6-.7-.4-1.7.3-2.3.7-.5 1.7-.4 2.3.3zM254.2 226.7c.8.3 1.2 1.3.9 2.1-.3.8-1.3 1.2-2.1.9-.8-.3-1.2-1.3-.9-2.1.3-.9 1.3-1.3 2.1-.9zM251.1 246.1c.9-.1 1.7.5 1.8 1.4.1.9-.5 1.7-1.4 1.8-.9.1-1.7-.5-1.8-1.4-.1-.8.5-1.7 1.4-1.8zM258.2 264.5c.7-.6 1.7-.4 2.3.3.6.7.4 1.7-.3 2.3-.7.6-1.7.4-2.3-.3-.5-.7-.4-1.7.3-2.3zM273.5 276.9c.3-.8 1.3-1.2 2.1-.9.8.3 1.2 1.3.9 2.1-.3.8-1.3 1.2-2.1.9-.8-.4-1.2-1.3-.9-2.1zM293 279.9c-.1-.9.5-1.7 1.4-1.8.9-.1 1.7.5 1.8 1.4.1.9-.5 1.7-1.4 1.8-.9.1-1.7-.5-1.8-1.4zM311.4 272.8c-.6-.7-.4-1.7.3-2.3.7-.6 1.7-.4 2.3.3.6.7.4 1.7-.3 2.3-.8.6-1.8.4-2.3-.3zM323.8 257.5c-.8-.3-1.2-1.3-.9-2.1.3-.8 1.3-1.2 2.1-.9.8.3 1.2 1.3.9 2.1-.4.8-1.3 1.2-2.1.9zM326.8 238.1c-.9.1-1.7-.5-1.8-1.4-.1-.9.5-1.7 1.4-1.8.9-.1 1.7.5 1.8 1.4.1.8-.5 1.6-1.4 1.8zM319.7 219.7c-.7.6-1.7.4-2.3-.3-.6-.7-.4-1.7.3-2.3.7-.6 1.7-.4 2.3.3.5.7.4 1.7-.3 2.3zM304.4 207.3c-.3.8-1.3 1.2-2.1.9-.8-.3-1.2-1.3-.9-2.1.3-.8 1.3-1.2 2.1-.9s1.2 1.3.9 2.1zM284.9 204.2c.1.9-.5 1.7-1.4 1.8-.9.1-1.7-.5-1.8-1.4-.1-.9.5-1.7 1.4-1.8.9 0 1.7.6 1.8 1.4z"/>
    <path class="st17" d="M287.7 241.3l.1.9c.1.7-.4 1.3-1 1.4l-17.4 2.6c-.7.1-1.3-.4-1.4-1l-.1-.9c-.1-.7.4-1.3 1-1.4l17.4-2.6c.6-.2 1.3.3 1.4 1zM288.9 241.1c-.6-.3-.9-1-.7-1.6l10.7-25.6c.3-.6 1-.9 1.6-.7.6.3.9 1 .7 1.6l-10.7 25.6c-.2.7-.9 1-1.6.7z"/>
    <path class="st9" d="M295 237.3c2.6 3.3 2.1 8.1-1.2 10.8-3.3 2.6-8.1 2.1-10.8-1.2-2.6-3.3-2.1-8.1 1.2-10.8 3.3-2.6 8.1-2.1 10.8 1.2z"/>
  </g>
</svg>