<svg xmlns="http://www.w3.org/2000/svg" viewBox="0 0 55.7 55.7">
  <linearGradient id="a" gradientUnits="userSpaceOnUse" x1="0" y1="27.851" x2="55.702" y2="27.851">
    <stop offset="0" stop-color="#ffa200"/>
    <stop offset="1" stop-color="#fe7930"/>
  </linearGradient>
  <path d="M27.9 0C12.5 0 0 12.5 0 27.9s12.5 27.9 27.9 27.9 27.9-12.5 27.9-27.9C55.7 12.5 43.2 0 27.9 0zm0 51.2C15 51.2 4.5 40.7 4.5 27.9 4.5 15 15 4.5 27.9 4.5S51.2 15 51.2 27.9 40.7 51.2 27.9 51.2z" fill="url(#a)"/>
  <linearGradient id="b" gradientUnits="userSpaceOnUse" x1="15.1412" y1="27.851" x2="40.56" y2="27.851">
    <stop offset="0" stop-color="#ffa200"/>
    <stop offset="1" stop-color="#fe7930"/>
  </linearGradient>
  <path d="M36.7 19l-13 13-4.7-4.8c-.9-.9-2.3-.9-3.2 0-.9.9-.9 2.3 0 3.2l6.3 6.3c.4.4 1 .7 1.6.7s1.1-.2 1.6-.7l14.6-14.6c.9-.9.9-2.3 0-3.2-.9-.8-2.3-.8-3.2.1z" fill="url(#b)"/>
</svg>