<svg version="1.1" id="Layer_1" xmlns="http://www.w3.org/2000/svg" x="0" y="0" viewBox="0 0 450 300" xml:space="preserve">
  <style>
    .st0{fill:#e4d8eb}.st1{fill:#f1eef7}.st2{fill:#9696c9}.st3{fill:#f18e2a}.st4{fill:#25356c}.st5{fill:#faba48}.st6{fill:#fff}.st7{fill:#f59f17}.st8{fill:#e8e7e7}.st9{fill:#b1b1b1}.st10{fill:#1e3c90}.st11{fill:#8c8c8c}.st12{fill:#ffd549}.st14{fill:#28306e}.st15{fill:#edb6a3}.st16{fill:#40539f}.st18{fill:#fab947}.st19{fill:#252959}.st22{fill:#f6bbb6}
  </style>
  <path class="st0" d="M225.9 265.4s181.8 1.9 169.9 4.6c-11.9 2.7-44.2 2-45 8.6S175.4 301 184.3 292.1c8.9-8.9-140.9-10.2-117.8-17.2 26.7-7.9 159.4-9.5 159.4-9.5z"/>
  <path class="st1" d="M132.9 269.4c77.9 2.4 156 .4 233.8 3.6 2.2-2 4.2-4.3 5.8-6.9 1.8-2.9 3.4-6.3 6.4-8 3.4-1.9 8.1-1.2 10.8-4.1 3.1-3.3.8-9.1-3-11.6s-8.5-3-12.7-4.7c-1.9-.7-3.8-1.9-4.4-3.8-.8-2.5 1-5 2.5-7.1 5-7.3 6.8-16.7 5-25.4-1.2-5.5-3.7-11.4-1.5-16.6 2.8-6.5 11.8-8.7 14.5-15.3 3.1-7.4-3.6-15.2-10.4-19.6-6.8-4.4-14.9-8.7-16.7-16.6-3.2-14.5 12.3-27 8.1-41.1-3.7-12.6-20.1-13.3-27.1-23.3-8.9-12.8 2-33.5-8.8-44.8-6.7-7.1-18.3-6.1-27.2-2.3-8.9 3.8-16.9 10-26.4 12.1-15.1 3.3-30.3-4.2-43.4-12.3-13.1-8.1-26.6-17.4-42-18.1-5.7-.3-11.8.9-16 4.7-4.2 3.8-5.8 9.6-9.4 14-6 7.4-17.7 9.4-25.9 4.4-5.5-3.4-11.5-9.6-17.1-6.5-3.6 2-4.3 7-3 10.9 1.3 3.9 4.1 7.1 6.3 10.6 2.9 4.6 4.7 10.5 2.5 15.5-2.6 6.1-10.1 8.5-16.7 8.5s-13.3-1.6-19.8-.5C73.9 69 71.4 99 85.3 113.8c8.8 9.3 19 9.4 29.3 15.5 4.7 2.8 8.6 7.6 8.7 13.1.1 7.7-7 13.6-14.2 16.3-7.2 2.8-15.1 3.7-21.6 7.8-6.5 4.1-11 13.2-6.6 19.6 2.9 4.3 8.6 5.6 13.4 7.5 4.8 1.9 10 6 9.1 11.2-.8 4.7-5.9 7.1-9.8 9.8-7.7 5.3-12.5 14.5-12.4 23.8.5 30.5 31.3 26 51.6 30.9 0 .1.1.1.1.1z"/>
  <path class="st2" d="M112.1 245.2s-.8 15.2 15.2 15.2 14.6-15.2 14.6-15.2l-1.3-3-28.5 3z"/>
  <path class="st3" d="M111.2 239.7h31.4c1.3 0 2.3 1 2.3 2.3v.9c0 1.3-1 2.3-2.3 2.3h-31.4c-1.3 0-2.3-1-2.3-2.3v-.9c0-1.3 1.1-2.3 2.3-2.3zM110.2 222.7l21.4-2.7s.8-7.3-3-8.2c-3.8-.9-5.2-5.4-2.1-8.4s-1.3-8.9-6-8.7c-4.7.1.5-15.8-4.9-16.2-5.4-.3-.1 17.5-3.8 16.9-3.6-.5-10.9 1.9-6.7 7.2 4.2 5.3 8.3 4.8 5.9 8.6-2.5 3.9-3.8 4.3-.8 11.5z"/>
  <path class="st4" d="M123.2 241.4l-4.2-29.8-1.3-15.1 6.3 44.7z"/>
  <path class="st5" d="M121.7 208.4l5.4 9.7s5.8-1.6 4.7-7.7 4.8-6.1 7.4-3.5c2.6 2.6 6.5.1 5.1-3.7-1.4-3.9 1.7-7.2 1.7-7.2l-24.3 12.4z"/>
  <path class="st4" d="M125.4 241.3l-3.7-32.9 15.2-7.8.4.8-14.6 7.5 3.6 32.4z"/>
  <path class="st5" d="M120.3 235.2s-5.8 2.5-6.5-2.2c-.7-4.7-5 1.8-8.4.7-3.4-1.1-3.3-7.3-3.3-7.3l16.6 2.1 1.6 6.7z"/>
  <path class="st4" d="M121.8 241.4l-3.8-12.1-12.7-1.6.2-.8 13.2 1.6 3.9 12.7z"/>
  <path class="st3" d="M129.6 230.2s6.9 3.5 8.2-1.2c1.3-4.7 2.7-5.6 4.6-3.5 1.9 2 5.3-3.7 4.4-7.4l-16 4.4-1.2 7.7z"/>
  <path class="st4" d="M128.6 241.4l-.8-.2 2.7-19.1 14.4-3.5.2.9-13.9 3.3z"/>
  <path class="st6" d="M148.3 17.1h186.3V257H148.3z"/>
  <path class="st0" d="M225.4 90.1h-51.9c-8 0-14.4-6.5-14.4-14.4V60c0-8 6.5-14.4 14.4-14.4h51.9c8 0 14.4 6.5 14.4 14.4v15.6c0 8-6.4 14.5-14.4 14.5z"/>
  <path class="st3" d="M183.1 178.6h-20.3c-3.5 0-6.3-2.8-6.3-6.3v-55.4h1.3v55.4c0 2.8 2.2 5 5 5h20.3v1.3z"/>
  <path class="st2" d="M189 162.8h67.9c3.3 0 6 2.7 6 6V203c0 3.3-2.7 6-6 6H189c-3.3 0-6-2.7-6-6v-34.2c.1-3.3 2.7-6 6-6z"/>
  <path class="st1" d="M234.6 122.9h-65.2c-2.9 0-5.2-2.3-5.2-5.2v-3.4c0-2.9 2.3-5.2 5.2-5.2h65.2c2.9 0 5.2 2.3 5.2 5.2v3.4c0 2.9-2.3 5.2-5.2 5.2z"/>
  <path class="st0" d="M296.6 154.1h-122c-5.7 0-10.3-4.6-10.3-10.3V137c0-5.7 4.6-10.3 10.3-10.3h122.1c5.7 0 10.3 4.6 10.3 10.3v6.8c0 5.7-4.7 10.3-10.4 10.3z"/>
  <path class="st6" d="M167.8 54.8H231v1.3h-63.2zM167.8 62.5H231v1.3h-63.2zM167.8 70.6H231v1.3h-63.2zM167.8 78.7H231V80h-63.2zM190.5 169.9h63.2v1.3h-63.2zM190.5 177.6h63.2v1.3h-63.2zM190.5 185.7h63.2v1.3h-63.2zM190.5 193.8h63.2v1.3h-63.2zM190.5 202h63.2v1.3h-63.2z"/>
  <path class="st7" d="M272.7 112.4h-40c-7.4 0-13.4-6-13.4-13.4V86.4c0-7.4 6-13.4 13.4-13.4h40c7.4 0 13.4 6 13.4 13.4v12.7c0 7.3-6 13.3-13.4 13.3z"/>
  <path class="st6" d="M226.3 84.5h52.6v1.3h-52.6zM226.3 92.7h52.6V94h-52.6zM226.3 100.8h52.6v1.3h-52.6z"/>
  <path class="st3" d="M313.7 160.6h-31.1v4.2H347v10.3h-64.4v3.9H347s6.7-.5 6.7-9.1-8-9.1-8-9.1h-32z"/>
  <path class="st8" d="M284.9 164.8h62v10.3h-62z"/>
  <path class="st9" d="M284.9 166.5H305l-20.1 1zM284.9 168.7h13.8l-13.8.5z"/>
  <path class="st10" d="M304.4 191.3v77.2l54.9 12.7v-89.9z"/>
  <path class="st11" d="M324.2 178.9h-37.4v4.2h77.4v10.3h-77.4v3.9h77.4s8.1-.5 8.1-9.1-9.6-9.1-9.6-9.1h-38.5z"/>
  <path class="st9" d="M284.9 170h24.7l-24.7.9zM284.9 171.9h16.9l-16.9 1z"/>
  <path class="st8" d="M289.6 183.1h74.5v10.3h-74.5z"/>
  <path class="st9" d="M289.6 184.8h24.2l-24.2 1zM289.6 187h16.6l-16.6.5zM289.6 188.2h29.7l-29.7 1zM289.6 190.2H310l-20.4 1zM364.2 184.9h-24.1l24.1.9zM364.2 187h-16.6l16.6.5zM364.2 188.3h-29.7l29.7 1zM364.2 190.2h-20.3l20.3 1.1z"/>
  <path class="st5" d="M245.8 251.8h-25.5v9h25z"/>
  <path class="st12" d="M243.6 250.5h59v11.6h-59z"/>
  <path class="st3" d="M278 245.5h14.4c.9 0 1.6.7 1.6 1.6v3.3h3.1v-8.2H278c-.9 0-1.6.7-1.6 1.6-.1 1 .7 1.7 1.6 1.7z"/>
  <path class="st10" d="M335.8 169.8h8v17.7l-4-3.7-3.9 3.8z"/>
  <path fill="#494c9a" d="M296.3 197.2v77.3l54.9 12.7v-90z"/>
  <path class="st14" d="M351.2 287.2l1.7-1.3v-88.7h-1.7zM359.3 281.2l1.8-1.3v-82.7h-1.8z"/>
  <path class="st6" d="M352.9 283.3l6.4-4.5v-78.9h-6.4zM308.1 212.5h31V235l-31-4.3z"/>
  <path transform="rotate(-88.6021875 323.25678202 217.44648679)" class="st3" d="M322.6 205.7h1.3v23.4h-1.3z"/>
  <path transform="matrix(.03961 -.9992 .9992 .03961 88.2963 536.5269)" class="st3" d="M322.6 210.6h1.3V234h-1.3z"/>
  <path transform="matrix(.1151 -.9934 .9934 .1151 59.6374 522.8033)" class="st3" d="M322.6 216.2h1.3v23.5h-1.3z"/>
  <path class="st9" d="M355.2 281.8v-23.4l.9 22.7zM356.8 280.6l.5-22.2.4 21.5z"/>
  <path class="st2" d="M220.3 251.8l-7.4 2.3v4.4l7.4 2.3z"/>
  <path class="st11" d="M212.9 254.1l-9.5 2.5 9.5 1.9z"/>
  <path class="st10" d="M221.7 253.1h19.6v.9h-19.6zM221.7 256.1h19.6v.9h-19.6zM221.7 258.7h19.6v.9h-19.6zM255.1 250.5h26.4v3h-26.4z"/>
  <path class="st3" d="M261.4 249h11.8v1.5h-11.8z"/>
  <path class="st14" d="M180.3 164.3s-.1-4.6 2-5.6 3.4-7.7 2.8-11.1c-.6-3.4-3.6-11.9-10.9-11.5-7.3.4-8.9 6.8-8.9 10s-10.8 10.1-9.8 17.9c1.1 7.8 5.4 4.2 5.1 16.5-.4 12.3 5.5 16.5 5.5 16.5s1.8-6.1 8.7-12.7c7-6.7.1-18.8 5.5-20z"/>
  <path class="st3" d="M196.1 171l10.1.4 2.9-20.5-.4-.3-10.7 1.5z"/>
  <path class="st12" d="M195 172.4l10.8-1 2.9-20.8-11 .9z"/>
  <path class="st15" d="M192.1 172.8s1.4-3 3.4-3.5.2 1-.2 1.5c-.4.6-.2 1.6-.2 1.6l4.5-.4s-1.3 3.7-2.6 4.6c-1.4.9-4 1.6-4 1.6l-2.4-4 1.5-1.4zM181.5 155.2v1.7s-1.2-.2-2 2.9c-.1.3-.1.5-.2.7-.7 1.8-1.4-1.1-1.4-1.1s.3-3.1-.1-4.6c-.1-.5.1-.6.6-.6 1.1 0 3.1 1 3.1 1z"/>
  <path class="st15" d="M181.5 155.2v1.7s-1.2-.2-2 2.9c-.1.3-.1.5-.2.7-.2-.1-.3-.4-.1-1 .6-1.9-1.1-4.1-1.1-4.1l.2-1.2c1.2 0 3.2 1 3.2 1z"/>
  <path class="st15" d="M184.3 152.8l-.3.3s-.8 3.7-1.6 4.1c-.8.4-1.8 0-1.8 0s-2.5-1.5-2.7-2.4c0-.2-.1-.4-.2-.6-.4-1-.9-2.6 1.3-4.2 2.6-1.9 4.1-3.8 4.1-5.1s1.1 3.8.9 6.1l.5.9c.1.2 0 .6-.2.9z"/>
  <path class="st16" d="M179.3 150.6c-1.6.6-1.6 3.3-1.6 3.5-.4-1-.9-2.6 1.3-4.2 2.6-1.9 4.1-3.8 4.1-5.1 0 .5-1.1 4.7-3.8 5.8z"/>
  <path d="M197.7 152.4l10.8-.9s-4 17.7-10.4 17.7l-8.8-4s6.3-.1 8.4-12.8z" fill="#d6d4eb"/>
  <path class="st6" d="M178.1 158.8s1.4.1 1.7.5c.3.4 0 3.8 0 3.8l-3.6-.6c0-.1 1.7-2.2 1.9-3.7z"/>
  <path class="st14" d="M200.6 151.2l.5 1.6 3.2-.2 1-1.7z"/>
  <path class="st7" d="M187 192.1c-.1.3-1.5.6-3.5.8-5.3.6-14.8.7-15.6 0 0 0 .3-7.6 4.4-11.5.2-.2.4-.4.6-.7 3.5-4.7 3.3-18.2 3.3-18.2l7.7.7s.9.3.9 2.1c0 .5.2 1.9.4 3.8.6 5.3 1.8 14.3 1.6 15.1-.3 1.1-1.5 3.5-1 4.8.6 1.2 1.6 2 1.2 3.1z"/>
  <path class="st15" d="M202 172.7s2-1.3 2.3-2.2c.3-.9.2-2.6.9-2.5.6 0 .5 1.1.7 2.3.2 1.2-.3 2.2-.3 2.2s.1-1 .3-1c.1-.1.7-1.8.7-1.8l.4-3.2s.3.3.5 1.3c.2.9-.1 5.2-.9 6.3-.5.8-3.4 2-3.4 2l-1.2-3.4z"/>
  <path class="st12" d="M200.1 173.3l2.1-1.2 1.4 4.8-2.5 1.6z"/>
  <path class="st7" d="M187 192.1c-.1.3-1.5.6-3.5.8l-.5-.5c2.4-3-1.1-8.4-3.2-17.1-2.1-8.8 1.6-11.2 1.6-11.2l3.8 5c.6 5.3 1.8 14.3 1.6 15.1-.3 1.1-1.5 3.5-1 4.8.6 1.2 1.6 2 1.2 3.1z"/>
  <path class="st6" d="M200.1 173.3s-6.8 4.6-7.4 4.1c-.8-.6-6.2-11.4-6.2-11.5-.1-.1-1.2-2.7-2.5-2.7-2 0-4.6 1.7-3.7 5.3s5.8 18 8.2 18.4c2.4.4 12.6-8.4 12.6-8.4l-1-5.2z"/>
  <path class="st18" d="M169.8 192.9H168s.3-7.6 4.4-11.5c.2-.2.4-.4.6-.7-3.4 5.6-3.2 12.2-3.2 12.2z"/>
  <path class="st14" d="M162.8 262.9s-1.2 3.4-1.4 5.4c-.1 2 1.1 2.9 2.9 2.9 1.9 0 2.9-1 4.9-2.1 2-1.1 5.5-1.1 5.5-2.7-.1-1.6-4.7-1.5-5.5-3.9-.8-2.3-6.4.4-6.4.4zM182.8 267.8s-.3 2.4-.6 4.6c-.4 2.1.5 3.1 2.4 3.4 1.9.3 6.7-4 7.8-4.4 1.1-.4.4-1.8 0-2.1-.4-.3-3.3-2-3.3-2l-6.3.5z"/>
  <path class="st15" d="M167.1 238.7s-2.9 21.4-3.8 22.5c-.9 1.1-.9 2.3-.5 2.6.4.4 5.1 1.8 6.1.4s-.2-2.1.5-4.2c.6-2.1 7.1-20.8 7.1-20.8l-9.4-.5zM182.8 267.8s-.8-1.2-.4-2.1c.4-.9-.1-19.5-.5-21-.4-1.4 8.9-1.9 9-1.6.1.2-2.8 22.1-2.6 22.7.2.6 1.1 1.4.7 2-.4.6-4.6.8-6.2 0z"/>
  <path class="st14" d="M193.8 229.4l2.4 7.2c-.5 1-1.1 1.8-1.7 2.3-.6.5-1 .8-1 .8l.6 3.1c-13.2 9.6-19.1 1.5-19.1 1.5l-.3-2.1c-.9-.3-1.6-.4-2.2-.4-2.8-.1-4.1 1.8-4.1 1.8l.1-2.7c-.9.1-1.7.1-2.4 0-2.5-.4-3.6-2-3.6-2l1-6.6c-.8 0-1.5-.2-2-.4-1.9-.7-2.1-2.1-2.1-2.1s2.4-10.3 3.2-13.4c.8-3 2.5-14.3 2.8-16.7.3-2.5 1.5-4.5 1.5-4.5h11.9l7.4.6c1.9 7.8 9.9 29.9 9.9 29.9-.1 1.1-.6 2-1.1 2.7-.6.6-1.2 1-1.2 1z"/>
  <path class="st6" d="M186.8 192.3s.6 1.1.3 2.2-.9 1.2-.9 1.2-13 2.3-19.3-.6c0 0-.9-2.1 1.1-2.2 2-.1 18.8-.6 18.8-.6z"/>
  <path class="st19" d="M166.7 215.5l-3.2 16.8c-.8 0-1.5-.2-2-.4 1.7-1.6 4.9-15.6 5.2-16.4zM166.2 240.8c2.2-2.7 3-17.9 3.1-20.2l-.7 20.2c-1 .1-1.8.1-2.4 0z"/>
  <path d="M169.3 220.2v0z" fill="none" stroke="#fdea18" stroke-width=".25" stroke-miterlimit="10"/>
  <path class="st19" d="M172.5 241.7c0-4.5.5-30.2.5-30.2l1.7 30.6c-.8-.2-1.6-.4-2.2-.4zM195 238.3c-.6.5-1.5 1.4-1.5 1.4l-5.1-24.3c.1.7 5.9 21.9 6.6 22.9zM195 228.2c-.6.8-1.2 1.2-1.2 1.2-.3-1.1-4.3-16.1-4.5-17 .2.9 4.4 13.6 5.7 15.8z"/>
  <path d="M313.9 111l-7.3 3.2-.4-1-1.2-2.8c.2-.5.9-1 1.9-1.5 2.1-1.1 5.3-2 5.3-2l1.7 4.1z" fill="#5d6bb0"/>
  <path class="st16" d="M306.1 113v.2l-1.2-2.8c.2-.5.9-1 1.9-1.5l.3.8c0-.1-1.4 1.1-1 3.3z"/>
  <path class="st22" d="M300.3 101.2s.3 6.2 2.7 10c.3.4.8.5 1.2.3l4.3-2.7 1.3-6.9-5.2-3.5s-4.6-.2-4.3 2.8z"/>
  <path class="st16" d="M300.3 101.2s.5 1 1.9.5 3.4-.6 3.7 1.8l1.2-6h-5.6l-1.2 3.7z"/>
  <path d="M306 103.5s.8-1.8 2.1-.8c1.4 1-1.1 3.6-1.1 3.6l1.5 2.5-1.1.7s4.3-.9 5.5-.6c0 0 4.8-6.3 4.3-8.5s-1.3-2.1-1.8-3c-.4-.9.1-5.7-3.3-6.2-3.3-.5-11.6 3.4-11.9-1.1 0 0-7.4 5 0 11.2 0 0 1.1.4 2.6-.5 1.5-1.1 2.5-.1 3.2 2.7z" fill="#393768"/>
  <path class="st10" d="M261.8 149s-3.3 1.4-4.3 1.3c-1-.1-9.1-2.4-10.1-3.5s-1.9-2-2.2-1.4c-.3.6.8 6.2.8 6.2s11.1 9.4 11.7 9.1c.6-.3 6.8-7.1 6.8-7.1l-2.7-4.6z"/>
  <path class="st3" d="M306.6 114.6l-.9-1.8s6.2-3.8 8.8-3.4l.4 2.6-8.3 2.6z"/>
  <path class="st10" d="M303.7 140.9s-14.2-5.1-17.4-5.1c-3.3 0-24.7 12.3-24.7 12.3s-1 5.3 2.9 7.3c0 0 14-5.8 16.5-6.3s26-1.8 26-2.5c0-.5-3.3-5.7-3.3-5.7z"/>
  <path class="st7" d="M327 138.4c.1.7-1.6 1.7-1.6 1.7-5.7-2.2-19.1 0-22 .5-.3.1-.5.1-.5.1s-2.2-2.2-.8-3.4c1.4-1.2 1.1-3.2.4-5.8-.3-1.3.4-5.4 1.2-9.2.8-3.7 1.6-7.1 1.6-7.1l5.9-2.4s5.5-1.4 6.7-1.6c1.2-.1 1.6.2 2.2 1.3.6 1.1 6.1 19.7 5.8 21.9-.3 2.1 1.1 3.2 1.1 4z"/>
  <path class="st14" d="M269 186.7c-.3.6-8.8 5.3-8.8 5.3s-5.9-.1-7.3-.5-2-1.7-1.8-1.7c.2 0 1.9-.7 2.4-1.4s3-3.2 4.3-4.1c1.3-.9 6.2-6.8 6.2-6.8s5.5.3 4.7 1.1c-.8.9.6 7.5.3 8.1z"/>
  <path class="st14" d="M304.6 142.4s.1 2.9-1.1 2.7c-1.2-.2-20.5-1.7-22.8-1-2.4.7-3 2-4.1 4.4-1 2.4-13.7 29.4-13.7 29.4s2 4 6.7 2.7c0 0 15-25.8 17.4-25.8 2.4.1 22.8 6.3 26.6 5.9 3.7-.4 4.1-1.7 5.3-1.7 1.2.1 4.9-2.1 5.5-7.7.6-5.6 0-8.2 0-8.2s-8.1-2.1-11.2-1.7-8.6 1-8.6 1z"/>
  <path class="st3" d="M302.9 140.6s-1.7 1.1-.5 2.5c1.1 1.4 1.9.8 2.6.6 10.4-2.6 19.7-.7 19.7-.7s1.4-1.1.8-3c0 0-3.5-3.6-14-1.9-7.3 1.3-8.6 2.5-8.6 2.5z"/>
  <path d="M269 186.7c-.3.6-8.8 5.3-8.8 5.3s-5.9-.1-7.3-.5c0 0 2.2-.6 3.5-.9 1.3-.3 8-6.6 9.4-6.6 1.3.1 3.2 2.7 3.2 2.7z" fill="#21244d"/>
  <path class="st22" d="M269.1 121.7s-1-1.1-1.4-2c-.4-.9-2.4-3.8-2.4-3.8s-.7.2-.1 2.1c.6 1.9.9 3.1.9 3.1l-4.6-2.1s-.4 1.9.6 3.1c1 1.2 4.1 3.1 4.1 3.1h2.1l.8-3.5z"/>
  <path class="st18" d="M307 131.4c-3.9 3.6-2.5 8.4-2.5 8.4l-1 .7c-.3.1-.5.1-.5.1s-2.2-2.2-.8-3.4c1.4-1.2 1.1-3.2.4-5.8-.3-1.3.4-5.4 1.2-9.2l4.1-4.5c-.1.1 3 10.1-.9 13.7z"/>
  <path class="st3" d="M265.7 127.2s-1.3-1.5.9-3.6c2.2-2.2 3.5-2.9 4.7-2.1 1.2.8.4 2.6-.8 3.7-1.2 1-2.9 3.3-4.8 2z"/>
  <path class="st7" d="M267.8 127.4s12.3 12.7 15.5 14c3.1 1.3 20.6-10.4 22.4-11.9 1.7-1.5 4.5-13.8-.4-14.4-1.9-.2-13.6 16.4-19.7 16.4s-12-8.1-13.7-8.3c0 0-4 2.6-4.1 4.2z"/>
</svg>