<svg version="1.1" id="Layer_1" xmlns="http://www.w3.org/2000/svg" xmlns:xlink="http://www.w3.org/1999/xlink" x="0" y="0" viewBox="0 0 450 300" xml:space="preserve">
  <style>
    .st0,.st1,.st2,.st3,.st4{fill-rule:evenodd;clip-rule:evenodd;fill:#f1eef7}.st1,.st2,.st3,.st4{fill:#393768}.st2,.st3,.st4{fill:#494c9a}.st3,.st4{fill:#acaad5}.st4{fill:#fff}.st6{fill:#f1eef7}.st7{fill:#393768}.st11,.st12,.st14,.st15,.st9{fill-rule:evenodd;clip-rule:evenodd;fill:#102b6e}.st11,.st12,.st14,.st15{fill:#f59f17}.st12,.st14,.st15{fill:#1e2187}.st14,.st15{fill:#ffd549}.st15{fill:#fca700}.st17{fill:#630}.st18{fill:#000446}.st19,.st25{fill-rule:evenodd;clip-rule:evenodd;fill:#f7cccf}.st25{fill:#000446}
  </style>
  <path class="st0" d="M70 202.7H47c-19.6 0-35.6 16.2-35.6 36.1 0 19.8 16 36.1 35.6 36.1h335.6c31.7 0 57.6-26.3 57.6-58.4 0-32.1-25.9-58.4-57.6-58.4-13.4 0-25.5-11.1-25.5-24.7s11-24.7 24.4-24.7h13.8c13.9 0 25.3-11.6 25.3-25.7s-11.4-25.7-25.3-25.7H356c-5.4 0-9.9-4.5-9.9-10s4.4-10 9.9-10h6.5c3.7 0 6.8-3.1 6.8-6.9 0-3.8-3.1-6.9-6.8-6.9H338h-16.2c-9 0-10 10.8-32.9 10.8h-49.1c-4.9 0-8.9 4.1-8.9 9 0 5 4 9 8.9 9h8.5c7.1 0 12.9 5.9 12.9 13 0 7.2-5.8 13-12.9 13h-12.8c-34.7 0-39.6 9.2-45.6 27.5-6.1 18.3-67.6 19.7-67.6 19.7H85.4c-10.7 0-19.4 8.8-19.4 19.7 0 7 2.2 15.2 16.5 21.4 6.5 2.8 12 9.3 12 16.9.1 10.4-14.2 19.2-24.5 19.2zM381.6 37.2c-3.8 0-6.8-3.1-6.8-6.9 0-3.8 3-6.9 6.8-6.9s6.8 3.1 6.8 6.9c0 3.8-3 6.9-6.8 6.9z"/>
  <path class="st1" d="M8.7 271.6h433.9c.9 0 1.6.7 1.6 1.6 0 .9-.7 1.6-1.6 1.6H8.7c-.9 0-1.6-.7-1.6-1.6 0-.9.7-1.6 1.6-1.6"/>
  <path class="st2" d="M406.4 105.3h25.9v166.4h-25.9z"/>
  <path class="st3" d="M427 105.3h6.2v166.4H427z"/>
  <path class="st4" d="M418.4 112.7c2.6 0 4.8 2.1 4.8 4.8 0 2.6-2.1 4.8-4.8 4.8-2.6 0-4.8-2.1-4.8-4.8.1-2.7 2.2-4.8 4.8-4.8M422.2 131.6h10.1v2.7h-10.1zM422.2 166.4h10.1v2.7h-10.1zM422.2 200.8h10.1v2.7h-10.1zM422.2 235.2h10.1v2.7h-10.1zM427.2 140.2h5.1v2.7h-5.1zM427.2 148.9h5.1v2.7h-5.1zM427.2 157.7h5.1v2.7h-5.1zM427.2 175h5.1v2.7h-5.1zM427.2 209.3h5.1v2.7h-5.1zM427.2 183.8h5.1v2.7h-5.1zM427.2 218h5.1v2.7h-5.1zM427.2 192.5h5.1v2.7h-5.1zM427.2 226.8h5.1v2.7h-5.1zM427.2 244.6h5.1v2.7h-5.1zM427.2 253.3h5.1v2.7h-5.1zM427.2 262.1h5.1v2.7h-5.1zM352.7 69.8l33.9 35.5v166.4H231.7V69.8z"/>
  <path class="st3" d="M386.6 105.3l-33.9-35.5v35.5z"/>
  <path d="M96.7 271.7s5.2-5.8 3.9-12.1c-1.3-6.4-14.5-4-13.6-9.1 1-5 5.8-12.9 1.1-18.6-4.7-5.7-12.5-2.3-13.5-11.1-.8-7.1-4.1-12.2-10.5-10.7-5.9 1.4-10.3 5.9-10.4 16.8-.1 11.6-8.3 8.3-8.4 16.8-.1 8.6 6.7 8.6 9.4 14.3 1.3 2.7-2 12.3 7.7 13.6h34.3z" fill="#acaad5"/>
  <path class="st6" d="M64.3 215.1s0 .2-.1.6c-.1 1.1-.3 3.9-.3 7.8 0 11.3 3.9 31.6 15.2 48.1.2.2.1.5-.1.7-.2.2-.5.1-.7-.1-11.4-16.8-15.4-37.3-15.4-48.7 0-5.2.4-8.5.4-8.5 0-.3.3-.5.5-.4.3 0 .5.2.5.5"/>
  <path class="st7" d="M77.3 271.7s1.4-7.9-3.9-11.1c-5.3-3.2-10.8-5.7-10.2-10.8.6-5.2-.9-11.2-9.4-11.4-5.3-.1-3.3-5.6-8.7-6.7-3.3-.7-5.4 2.7-5.8 6.1-.5 3.8 1.7 7.6-.8 10.7-3.2 4-4.5 11.5 2.4 13.6 6.9 2.1.8 8.7 10.1 9.6h26.3z"/>
  <path class="st6" d="M44.4 236c.2 5 2.4 12.1 6.2 18.9 3.8 6.8 10.3 12.7 16.7 16.6.2.1.3.4.2.7-.1.2-.4.3-.7.2-6.6-4-13.2-10-17-16.9-3.9-6.9-6.1-14.1-6.3-19.4 0-.3.2-.5.5-.5.2-.1.4.1.4.4"/>
  <path class="st2" d="M71.8 147.5h157.5c3.9 0 6 3.3 7 7l29.5 107.4c1 3.7-3.2 7-7 7H96c-3.9 0-6.2-3.3-7-7L64.8 154.5c-.9-3.8 3.1-7 7-7"/>
  <path class="st1" d="M76.4 147.5h157.5c3.9 0 6 3.3 7 7l29.5 107.4c1 3.7-3.2 7-7 7H100.6c-3.9 0-6.2-3.3-7-7L69.4 154.5c-.8-3.8 3.2-7 7-7"/>
  <defs>
    <path id="SVGID_1_" d="M78.2 153.1h154.4c1.1 0 1.7 1 2 2l27.5 96.4c.3 1.1-.9 2-2 2H100.6c-1.1 0-1.8-.9-2-2l-22.3-96.4c-.3-1 .8-2 1.9-2"/>
  </defs>
  <clipPath id="SVGID_2_">
    <use xlink:href="#SVGID_1_" overflow="visible"/>
  </clipPath>
  <path clip-path="url(#SVGID_2_)" fill="#f1eef7" d="M76 153.1h186.5v100.5H76z"/>
  <path class="st1" d="M93.3 260.5h211.6v5.6c0 3.1-2.5 5.6-5.6 5.6H98.9c-3.1 0-5.6-2.5-5.6-5.6v-5.6z"/>
  <path class="st2" d="M212.5 260.5h157v5.6c0 3.1-2.5 5.6-5.6 5.6H218.1c-3.1 0-5.6-2.5-5.6-5.6v-5.6z"/>
  <path class="st3" d="M275.8 264.8h48.1c.6 0 1.1.5 1.1 1.1 0 .6-.5 1.1-1.1 1.1h-48.1c-.6 0-1.1-.5-1.1-1.1 0-.6.5-1.1 1.1-1.1M98.4 262.6c1.3 0 2.3 1.3 2.3 2.9 0 1.6-1 2.9-2.3 2.9-1.3 0-2.3-1.3-2.3-2.9 0-1.6 1-2.9 2.3-2.9M141.9 264.5h25.7c.9 0 1.6.7 1.6 1.6 0 .9-.7 1.6-1.6 1.6h-25.7c-.9 0-1.6-.7-1.6-1.6 0-.9.7-1.6 1.6-1.6zM173.6 264.5h4.2c.9 0 1.6.7 1.6 1.6 0 .9-.7 1.6-1.6 1.6h-4.2c-.9 0-1.6-.7-1.6-1.6 0-.9.7-1.6 1.6-1.6zM183.5 264.5h4.2c.9 0 1.6.7 1.6 1.6 0 .9-.7 1.6-1.6 1.6h-4.2c-.9 0-1.6-.7-1.6-1.6.1-.9.8-1.6 1.6-1.6zM108.9 264.5h1.5v7.2h-1.5zM111.9 264.5h1.5v7.2h-1.5zM115 264.5h1.5v7.2H115zM118 264.5h1.5v7.2H118zM121 264.5h1.5v7.2H121zM124.1 264.5h1.5v7.2h-1.5z"/>
  <path class="st9" d="M127.1 264.5h1.5v7.2h-1.5z"/>
  <path class="st3" d="M127.1 264.5h1.5v7.2h-1.5z"/>
  <path class="st9" d="M130.2 264.5h1.5v7.2h-1.5z"/>
  <path class="st3" d="M130.2 264.5h1.5v7.2h-1.5zM133.2 264.5h1.5v7.2h-1.5zM89 169.7h101.8c.7 0 1.1.6 1.3 1.3l18.2 63.6c.2.7-.6 1.3-1.3 1.3H103.7c-.7 0-1.2-.6-1.3-1.3L87.7 171c-.2-.7.5-1.3 1.3-1.3M198.7 169.6h29.8c.2 0 .2.1.3.3l9.5 31.2c0 .2-.1.3-.3.3h-29.8c-.2 0-.2-.1-.3-.3l-9.5-31.2c0-.2.1-.3.3-.3"/>
  <path class="st7" d="M87 157.4h113.5c4.6 0 6.5 7.3.7 7.3H87c-1 0-1.9-.4-2.6-1.1-.7-.7-1.1-1.6-1.1-2.6s.4-1.9 1.1-2.6c.7-.6 1.6-1 2.6-1m113.6.2H87c-.9 0-1.8.4-2.4 1-.6.6-1 1.5-1 2.4 0 .9.4 1.8 1 2.4.6.6 1.5 1 2.4 1h114.2c5.5 0 3.7-6.8-.6-6.8z"/>
  <path class="st1" d="M200.2 157.5h-9.8l1.6 7h9.8c4.1 0 4.6-7-1.6-7z"/>
  <path d="M200.2 157.5h-9.8l1.6 7h9.8c4.1 0 4.6-7-1.6-7z" fill="none"/>
  <path class="st1" d="M225.4 158.3H214c-.2 0-.4.2-.4.4s.2.4.4.4h11.4c.2 0 .4-.2.4-.4s-.2-.4-.4-.4M225.8 160.3h-11.4c-.2 0-.4.2-.4.4s.2.4.4.4h11.4c.2 0 .4-.2.4-.4s-.2-.4-.4-.4M226.2 162.3h-11.4c-.2 0-.4.2-.4.4s.2.4.4.4h11.4c.2 0 .4-.2.4-.4.1-.2-.1-.4-.4-.4"/>
  <path class="st11" d="M304.9 170.1h13.9l2.1 71.5c.1 5-4.1 9.1-9.1 9.1s-9.3-4.1-9.1-9.1l2.2-71.5z"/>
  <path class="st12" d="M304.5 163.2h15.4c1.9 0 3.4 1.5 3.4 3.4s-1.5 3.4-3.4 3.4h-15.4c-1.9 0-3.4-1.5-3.4-3.4 0-1.8 1.5-3.4 3.4-3.4"/>
  <path fill-rule="evenodd" clip-rule="evenodd" fill="#c8c8c9" d="M304.5 163.2h14.6l7.5-17.1-13.9-24.7h-.9l-14.5 24.7z"/>
  <path class="st12" d="M314.2 124.1l-1.5-2.7h-.9l-1.5 2.5-.1 17.5c-1.7.8-3.1 2.3-3.1 4.7 0 2.4 2.3 5 5 5 2.8 0 5-2.3 5-5 0-2-1.2-3.8-2.9-4.6v-17.4z"/>
  <path class="st12" d="M265 143.6h3.6v-18.1c-1.1-.4-1.9-1.5-1.9-2.7 0-1.6 1.3-2.9 2.9-2.9 1.6 0 2.9 1.3 2.9 2.9 0 1.2-.8 2.3-1.9 2.7v9.6c2.1-6.7 5.9-12.6 10.7-17.5 4.8-4.8 10.8-8.6 17.5-10.7h-7.7c-.4 1.1-1.5 1.9-2.7 1.9-1.6 0-2.9-1.3-2.9-2.9 0-1.6 1.3-2.9 2.9-2.9 1.2 0 2.3.8 2.7 1.9h16.3v-3.6h9.3v3.6h17.1c.4-1.1 1.5-1.9 2.7-1.9 1.6 0 2.9 1.3 2.9 2.9 0 1.6-1.3 2.9-2.9 2.9-1.2 0-2.3-.8-2.7-1.9h-8.5c6.7 2.1 12.6 5.9 17.5 10.7 4.8 4.8 8.6 10.8 10.7 17.5v-9.6c-1.1-.4-1.9-1.5-1.9-2.7 0-1.6 1.3-2.9 2.9-2.9 1.6 0 2.9 1.3 2.9 2.9 0 1.2-.8 2.3-1.9 2.7v18.1h3.6v9.3H350v-9.3h3.4c-1.1-9.5-5.4-18.1-11.9-24.6s-15.1-10.9-24.7-11.9v3.4h-9.3v-3.4c-9.5 1.1-18.1 5.4-24.6 11.9s-10.8 15-11.9 24.6h3.4v9.3H265v-9.3z"/>
  <path class="st11" d="M137.2 176.7c11.9 0 21.6 9.7 21.6 21.6 0 11.9-9.7 21.6-21.6 21.6-11.9 0-21.6-9.7-21.6-21.6 0-11.9 9.7-21.6 21.6-21.6"/>
  <path class="st3" d="M147.6 217.3c6.7-3.7 11.2-10.8 11.2-19 0-2.1-.3-4.1-.8-6-7.1 2.3-12.3 9-12.3 16.9 0 3 .7 5.7 1.9 8.1"/>
  <path class="st14" d="M163.5 227.1c9.8 0 17.8-8 17.8-17.8s-8-17.8-17.8-17.8c-1.9 0-3.8.3-5.5.9.5 1.9.8 3.9.8 6 0 8.2-4.5 15.3-11.2 19 2.9 5.7 9 9.7 15.9 9.7"/>
  <path class="st3" d="M209.4 204.8h29.8c.2 0 .2.1.3.3l5.1 17.1c0 .2-.1.3-.3.3h-29.8c-.2 0-.2-.1-.3-.3l-5.1-17.1c0-.2.1-.3.3-.3M215.8 226.3h29.8c.2 0 .2.1.3.3l6.4 21.5c0 .2-.1.3-.3.3h-29.8c-.2 0-.2-.1-.3-.3l-6.4-21.5c0-.2.2-.3.3-.3"/>
  <path class="st15" d="M137.3 240h73.2c.6 0 1.1.5 1.1 1.1 0 .6-.5 1.1-1.1 1.1h-73.2c-.6 0-1.1-.5-1.1-1.1 0-.6.5-1.1 1.1-1.1M197.1 94.3c5.3 6.6 10.7 15.5 12.7 21.9.2.6.6.9 1.1 1.2l17.2-.5c.8-.4 1.3-.9 1.5-1.6 1.6-6.2 13.6-25.6 13.5-25.6 2.3-4.2 3.6-9 3.5-14.1-.4-15.3-13.3-27.4-28.8-27-15.5.4-27.7 13.2-27.3 28.5.1 5.1 1.7 9.8 4.2 13.9.9 1.2 1.5 2.2 2.4 3.3"/>
  <path class="st4" d="M213.5 91.3c-.5-4.2-3.5-4.2-3.8-1.2-.1.7.1 1.4.3 2 .2.7 1.6 1.2 3.6 1.5l-.1-2.3zm10.9-.3c.3-4.2 3.2-4.4 3.7-1.4.1.7 0 1.4-.2 2-.2.7-1.6 1.3-3.5 1.7V91zm-5 5.1h-.6c-1.1 0-2.2 0-3.2-.1v.7l.6 20.7-1.9.1-.6-20.7v-1c-2.7-.5-4.9-1.4-5.3-2.9-.3-.9-.5-2-.4-3 .1-.9.4-1.7.9-2.5.4-.6 1-1.2 1.7-1.5 3-.8 5.1 2.3 5 5.3l.1 2.6c1.1.1 2.4.1 3.6.1 1.2 0 2.4-.1 3.6-.3l-.1-2.6c-.3-3 1.7-6.2 4.7-5.5.7.3 1.3.8 1.8 1.4.5.7.9 1.5 1 2.4.2 1 0 2-.2 3-.4 1.5-2.5 2.5-5.2 3.2v1l.6 20.7-1.9.1-.6-20.7v-.7c-1.4 0-2.5.1-3.6.2z"/>
  <path class="st2" d="M212.6 117.4l13.5-.4c1.9-.1 3.5 1.5 3.5 3.4s-1.5 3.5-3.4 3.5h-.5c-.2 0-.3.2-.3.4s.1.3.3.4c1.2 0 1.8.9 1.8 2.1 0 1.2-.9 2.2-2.1 2.2h-1.2c-.2 0-.3.2-.3.4s.1.3.3.4c.7.3 1.2 1 1.3 2 0 1.1-.9 2.1-2 2.1l-7.9.2c-1.1 0-2.1-.9-2.1-2 0-1 .7-1.9 1.7-2.1.2-.1.3-.2.3-.4s-.1-.3-.3-.4h-1.6c-1.2 0-2.2-.9-2.2-2.1 0-1.2.9-2.2 2.1-2.2.2-.1.3-.2.3-.4s-.1-.3-.3-.4h-.9c-1.9.1-3.5-1.5-3.5-3.4.1-1.6 1.6-3.2 3.5-3.3"/>
  <path d="M226.1 55.1c-1.4-.6-3 .1-3.6 1.4-.6 1.4.1 3 1.4 3.6 3.4 1.5 6.4 4.1 8.7 7.3 2.3 3.3 3.9 7.2 4.2 11 .1 1.5 1.4 2.6 2.9 2.5 1.5-.1 2.6-1.4 2.5-2.9-.4-4.7-2.3-9.6-5.2-13.7-2.6-4-6.5-7.3-10.9-9.2" fill="#ffcf74"/>
  <path class="st17" d="M372.5 272.3H386c.6 0 1.2-.5 1.2-1.1v-.3l-.5-7.1s-.6-.3-1.4-.4c-.5-.1-.9-.5-1-.9v-.1c-.3-1.4-2.3-1.8-2.6-.5 0 .2-.1.3-.1.5v.1c-.1.3-.1.6-.1.8-.1.6-.1 1-.1 1-.2.2-.4.5-.5.7-.1.1-.2.2-.2.3-.2.2-.4.5-.5.7-.1.1-.2.2-.2.3-.2.2-.4.5-.6.7l-.3.3c-.7.7-1.4 1.2-2.2 1.4-1.5.2-3.9.4-5 2.5 0 0 0 .1-.1.1-.3.4.1 1 .7 1"/>
  <path class="st18" d="M372.5 272.3H386c.6 0 1.2-.5 1.2-1.1h-15.6c-.1.5.3 1.1.9 1.1"/>
  <path class="st11" d="M382.6 188.6c-1.9 4.2-4.3 8.2-9.7 9-4.4.7-19.1-4.9-19.7-8.9-.6-4 2.1-4.6 2.1-4.6s14.4 5.2 15.6 4.8c.9-.3 5.2-4.4 7.9-6.8.6-.6 4.7 4.7 3.8 6.5"/>
  <path class="st11" d="M384.1 180h10.3c2.5 0 6.1 1.3 7.6 3 2.2 2.5 1.3 31 .7 34.9l-.8.5c0 15.8 2.3 32.6 1.5 47.7l-6.3.1-8-39.3-3.8-8.3-6.5-.5-1.8-.2 1.7-35.9c1.6-1.2 3.4-2 5.4-2"/>
  <path class="st11" d="M395.7 189.3c-1-2.1-.2-6.3 1.9-7.2.6-.2 1.8-.8 2.9-.2 5.9 3.3 4.4 21.4 8.9 24.2 6.6 4.1 13.4 5.2 15 8.4 1.3 2.6-.2 5.7-6.8 3.4-2.3-.8-6.6-1.9-10.2-3.4-6.5-2.8-10.7-23.1-11.7-25.2"/>
  <path class="st4" d="M385.1 180c-.7 5.1 1.8 20.2 2.4 25.8.2-.4 5-21.9 5.5-25.8h-4.7c-1.1 0-2.3-.1-3.2 0"/>
  <path class="st19" d="M382.4 174.9c-.4 2.4 2.4 4.2 4.3 4.1v1.1l-.1.1c-.7 1.7 1.2 2.8 1.8 3.4.6-.4 3.6-1.2 3.6-3.6h-.1v-4.1c.1 0 .3-.1.4-.2.4-.3.6-.9.5-1.5-.1-.6-1-.2-1-.2.8-1.9 1.7-3.5-.2-4.6-2-1-6-1-6-1l-2.4-.2c.6 1-.6 5.1-.8 6.7"/>
  <path d="M390.2 177.1c-.8 2.2-1.6 3.1-3.5 3.3V179c.7-.1 2.4-.7 3.5-1.9" fill-rule="evenodd" clip-rule="evenodd" fill="#ed8082"/>
  <path class="st11" d="M378 218h12.4l-2.2 48.4-7.9.2z"/>
  <path class="st17" d="M394.9 271.5c.1 2 7.1 1.3 8.2.7.4-.2.6-.7.6-1.2.1-.9-.3-1.9-.5-2.8-.4-1.4-.4-1.4-.7-2.3 0 0 .1-1.5-2.2-2.1-2.3-.6-3.1 3.3-3.5 4-.4.7-1.8 1.6-1.9 3.3v.4"/>
  <path class="st18" d="M395 272.2c.1 1.3 7 1.2 8.1.6.4-.2.6-1.1.6-1.6-.7.4-2 .8-4 .9-2.4 0-4.1-.4-4.9-.8.1 0 .2.7.2.9"/>
  <path class="st4" d="M360.4 184.3c.2 1.1-1.1 2.8-2 3.4-.1-.2-1.5-1.9-1.5-1.9.2-1.2 1.2-2.4 1.9-2.7l1.6 1.2z"/>
  <path d="M358.2 182.7c-.1-.5-.5-2.6-.8-3-.2-.2-.2-.1-.3 0-.1.1-.2.4-.1.5 0 .4 0 .7.1 1-1.1-.7-2.1-2.2-2.9-3.2-.3-.4-1-.1-.7.6.1.2 1.4 2 1.4 2.2 0 1-3.2 2.5 2.7 5.3.3-.2 1.2-1.2 1.4-2.4l-.8-1z" fill-rule="evenodd" clip-rule="evenodd" fill="#f4b1b1"/>
  <defs>
    <path id="SVGID_3_" transform="matrix(.4869 -.8735 .8735 .4869 25.7302 426.6332)" d="M369.1 151.2h13.7v80.5h-13.7z"/>
  </defs>
  <use xlink:href="#SVGID_3_" overflow="visible" fill-rule="evenodd" clip-rule="evenodd" fill="#494c9a"/>
  <clipPath id="SVGID_4_">
    <use xlink:href="#SVGID_3_" overflow="visible"/>
  </clipPath>
  <path clip-path="url(#SVGID_4_)" fill="#494c9a" d="M337.5 165.8h77v51.1h-77z"/>
  <defs>
    <path id="SVGID_5_" transform="rotate(-60.87 375.95982214 191.42321777)" d="M372.9 151.2h6.1v80.5h-6.1z"/>
  </defs>
  <use xlink:href="#SVGID_5_" overflow="visible" fill-rule="evenodd" clip-rule="evenodd" fill="#acaad5"/>
  <clipPath id="SVGID_6_">
    <use xlink:href="#SVGID_5_" overflow="visible"/>
  </clipPath>
  <path clip-path="url(#SVGID_6_)" fill="#acaad5" d="M339.3 169.1h73.3v44.5h-73.3z"/>
  <path class="st0" d="M407.8 217l6.7-12 7.3 4.1c3.3 1.8 4.5 6 2.6 9.3-1.8 3.3-6 4.5-9.3 2.6l-7.3-4z"/>
  <path class="st0" d="M424.4 218.5c-1.8 3.2-5.5 4.7-8.1 3.2l-6.7-3.7 3.8-2.2s4.3 2.9 7.1 3.4c1.5.3 2.8-.1 3.9-.7"/>
  <path fill-rule="evenodd" clip-rule="evenodd" fill="#fff2df" d="M337.5 177.8l-6.5-11.7 13.2-.3z"/>
  <path class="st25" d="M333.5 170.5l-2.5-4.4 4.9-.1z"/>
  <path fill-rule="evenodd" clip-rule="evenodd" fill="#e4d7c6" d="M331 166.1l8.3 8.4-1.8 3.3z"/>
  <path class="st25" d="M331 166.1l3.1 3.2-.6 1.2z"/>
  <defs>
    <path id="SVGID_7_" transform="rotate(-60.856 378.40202747 187.08648969)" d="M376.5 146.9h3.8v80.5h-3.8z"/>
  </defs>
  <use xlink:href="#SVGID_7_" overflow="visible" fill-rule="evenodd" clip-rule="evenodd" fill="#494c9a"/>
  <clipPath id="SVGID_8_">
    <use xlink:href="#SVGID_7_" overflow="visible"/>
  </clipPath>
  <path clip-path="url(#SVGID_8_)" fill="#494c9a" d="M342.3 165.8h72.1v42.5h-72.1z"/>
  <path class="st19" d="M409.7 215.7c-.1-.2-.4-.4-.5-.4-.1 0-1.2.1-1.2.1l.2-2.5s-.6-.2-.8.4c-.2.6-.9 1.6-.9 1.6l.3-2.2s-.4-.2-.6.2c-.2.3-.8 1.6-.8 1.6l-.1-2.1s-.5.6-.6 1.2c-.1.6-.3.9-.3.9l-.4-1.7-.4 1.7c0 1.8.9 2.9 2.5 2.9.8 0 3.8-1.5 3.6-1.7"/>
  <path class="st25" d="M380.5 164.2c-.5 2.6.5 4.9 3.1 5.3 1.9.3 5.2-.1 6.6 1.3.7.7.7 1.6.2 3.3-.2.5-.4.9.4.4.4-.2 1-.5 1.2-.4.5.3.4 1.2 0 1.5-.2.1-.5.3-.5.3s1 .3 1.9-.5c.9-.7 3.6-3 3.1-6.3-.8-4.7-2.7-4.6-6.9-6-2.4-.8-2.6-1.5-4.1-2.2-1.9-.7-4.6 1.3-5 3.3"/>
  <path class="st19" d="M353.5 184c.3 0 .5.2.5.3 0 .1.4 1.1.4 1.1l2.2-1.1s.4.5-.1.9c-.4.4-1.2 1.4-1.2 1.4l1.9-1.1s.3.3.1.6c-.2.3-1.2 1.4-1.2 1.4l1.9-.7s-.4.7-.9 1c-.5.3-.7.6-.7.6l1.7-.3s-1.4 1-1.5 1c-1.7.7-3 .3-3.7-1.2.1-.7.3-3.9.6-3.9"/>
  <path class="st15" d="M77.4 110.1h17.7c1.7 0 3.1 1.4 3.1 3.1v18.5c0 1.7-1.4 3.1-3.1 3.1H77.4c-1.7 0-3.1-1.4-3.1-3.1v-18.5c-.1-1.6 1.4-3.1 3.1-3.1M106.8 110.1h17.7c1.7 0 3.1 1.4 3.1 3.1v18.5c0 1.7-1.4 3.1-3.1 3.1h-17.7c-1.7 0-3.1-1.4-3.1-3.1v-18.5c-.1-1.6 1.3-3.1 3.1-3.1M136.1 110.1h17.7c1.7 0 3.1 1.4 3.1 3.1v18.5c0 1.7-1.4 3.1-3.1 3.1h-17.7c-1.7 0-3.1-1.4-3.1-3.1v-18.5c0-1.6 1.4-3.1 3.1-3.1M165.5 110.1h17.7c1.7 0 3.1 1.4 3.1 3.1v18.5c0 1.7-1.4 3.1-3.1 3.1h-17.7c-1.7 0-3.1-1.4-3.1-3.1v-18.5c0-1.6 1.4-3.1 3.1-3.1"/>
  <path class="st4" d="M86.4 115.5l6.9 13.7H79.5zM115.8 117.2c3.1 0 5.5 2.5 5.5 5.5 0 3.1-2.5 5.5-5.5 5.5s-5.5-2.5-5.5-5.5c0-3.1 2.5-5.5 5.5-5.5M145.1 116.8l1.8 3.6 4.1.7-2.9 2.8.6 4.1-3.6-1.9-3.7 1.9.7-4.1-2.9-2.8 4-.7z"/>
  <path transform="rotate(-45 174.37405523 122.54286632)" class="st4" d="M170.1 118.2h8.6v8.6h-8.6z"/>
  <path class="st14" d="M312.1 189.4c1.1 0 2 .9 2 2v43.3c0 1.1-.9 2-2 2s-2-.9-2-2v-43.3c0-1.1.9-2 2-2M312.1 180.6c1.1 0 2 .9 2 2v1.6c0 1.1-.9 2-2 2s-2-.9-2-2v-1.6c0-1 .9-2 2-2"/>
</svg>