<svg version="1.1" id="Layer_1" xmlns="http://www.w3.org/2000/svg" xmlns:xlink="http://www.w3.org/1999/xlink" x="0" y="0" viewBox="0 0 450 300" xml:space="preserve">
  <style>
    .st2{fill:#fff}.st3{fill:#c2c2c2}.st5{fill:#535373}.st6{fill:#333745}.st7{fill:#f59f17}.st8{fill:#52586e}.st9{fill:#ffc6bb}.st11{clip-path:url(#SVGID_4_)}.st12{fill:#110239}.st13{fill:#9696c9}.st14{fill:#db8912}.st15{fill:#3c57ab}.st16{fill:#393768}.st17{fill:#ffb700}.st18{fill:#494c9a}.st23{fill:none;stroke:#fff;stroke-width:1.8841;stroke-linecap:round;stroke-linejoin:round;stroke-miterlimit:10}
  </style>
  <path d="M91.4 203.9c107.2 1.5 214.6.2 321.8 2.2 3.1-1.2 5.8-2.6 8-4.3 2.5-1.8 4.6-3.9 8.8-4.9 4.7-1.2 11.2-.8 14.8-2.5 4.2-2.1 1.1-5.6-4.1-7.1-5.2-1.5-11.7-1.9-17.5-2.9-2.6-.5-5.2-1.2-6-2.3-1.1-1.5 1.4-3.1 3.5-4.4 6.8-4.5 9.3-10.3 6.8-15.6-1.6-3.4-5.1-7-2.1-10.2 3.8-4 16.2-5.3 19.9-9.4 4.3-4.6-5-9.4-14.3-12.1-9.3-2.7-20.5-5.4-22.9-10.2-4.4-8.9 16.9-16.6 11.2-25.3-5.2-7.8-27.7-8.2-37.4-14.4-12.3-7.9 2.7-20.6-12.1-27.6-9.2-4.3-25.2-3.8-37.5-1.4s-23.3 6.1-36.4 7.4c-20.7 2.1-41.7-2.6-59.7-7.6-18.1-5-36.6-10.7-57.8-11.1-7.9-.2-16.2.5-22 2.9-5.7 2.3-8 5.9-12.9 8.6-8.3 4.6-24.4 5.8-35.6 2.7-7.6-2.1-15.8-5.9-23.6-4-4.9 1.2-6 4.3-4.2 6.7 1.8 2.4 5.6 4.4 8.6 6.5 4 2.8 6.4 6.4 3.5 9.5-3.6 3.7-13.9 5.2-23 5.2-4.2 0-8.3-.2-12.5-.3-2.1-.1-4.1-.1-6.2-.2-2.9 0-5.7 0-8.5.2-32 2.4-35.4 20.9-16.2 29.9 12.2 5.7 26.2 5.8 40.4 9.5 6.5 1.7 11.9 4.7 12 8.1.1 4.7-9.7 8.3-19.6 10.1-9.9 1.7-20.8 2.3-29.8 4.8-8.9 2.5-15.1 8.1-9.1 12 4.1 2.6 11.8 3.4 18.5 4.6 6.7 1.2 13.7 3.7 12.6 6.9-1 2.9-8.1 4.4-13.5 6-10.6 3.2-17.2 8.9-17 14.7.7 18.8 43 16 71 19 0 .3 0 .3.1.3z" fill="#f1eef7"/>
  <path d="M333.2 246.6H104.7V101.3c0-3.6 2.9-6.6 6.6-6.6h215.4c3.6 0 6.6 2.9 6.6 6.6v145.3z" fill="#595959"/>
  <path class="st2" d="M111 237.6v-134c0-1.5 1.2-2.7 2.7-2.7h210.6c1.5 0 2.7 1.2 2.7 2.7v134c0 1.5-1.2 2.7-2.7 2.7H113.6c-1.4 0-2.6-1.2-2.6-2.7z"/>
  <path class="st3" d="M202.4 141.3h-75.5c-4.8 0-8.6-3.9-8.6-8.6 0-4.8 3.9-8.6 8.6-8.6h75.5c4.8 0 8.6 3.9 8.6 8.6 0 4.8-3.9 8.6-8.6 8.6z"/>
  <path d="M323.3 101H114.6c-2 0-3.7 1.6-3.7 3.7v5.8h216v-5.8c.1-2.1-1.6-3.7-3.6-3.7z" fill="#acaad5"/>
  <path class="st2" d="M119.4 105.7c0 1.1-.9 2-2 2s-2-.9-2-2 .9-2 2-2 2 .9 2 2zM128.7 105.7c0 1.1-.9 2-2 2s-2-.9-2-2 .9-2 2-2 2 .9 2 2zM138.1 105.7c0 1.1-.9 2-2 2s-2-.9-2-2 .9-2 2-2 2 .9 2 2z"/>
  <path class="st5" d="M185.3 156.2h-65.6c-.9 0-1.5-.7-1.5-1.5 0-.9.7-1.5 1.5-1.5h65.6c.9 0 1.5.7 1.5 1.5.1.8-.6 1.5-1.5 1.5zM185.3 165.1h-65.6c-.9 0-1.5-.7-1.5-1.5 0-.9.7-1.5 1.5-1.5h65.6c.9 0 1.5.7 1.5 1.5.1.8-.6 1.5-1.5 1.5zM185.3 174.1h-65.6c-.9 0-1.5-.7-1.5-1.5 0-.9.7-1.5 1.5-1.5h65.6c.9 0 1.5.7 1.5 1.5.1.8-.6 1.5-1.5 1.5zM145.2 183h-25.5c-.9 0-1.5-.7-1.5-1.5 0-.9.7-1.5 1.5-1.5h25.5c.9 0 1.5.7 1.5 1.5.1.9-.6 1.5-1.5 1.5z"/>
  <path class="st3" d="M342.2 258H95.7c-2.9 0-5.2-2.3-5.2-5.2v-6.2h257v6.2c-.1 2.9-2.4 5.2-5.3 5.2zM221.3 124.1h38.9V163h-38.9zM221.3 174.8h38.9v38.9h-38.9z"/>
  <path class="st6" d="M3 257.6h424.1v1.3H3z"/>
  <path class="st7" d="M46.8 251.9l3-8.8h-14l-6 15.2h5.3l.4-1.3c.2-.7 1-1.1 1.7-.9.7.2 1.1 1 .9 1.7l-.2.5h21.7c.7-4.1-12.8-6.4-12.8-6.4zM96.6 251.9v-8.8h-14l-3 15.2h5.3l.4-1.3c.2-.7 1-1.1 1.7-.9.7.2 1.1 1 .9 1.7l-.2.5h21.7c.6-4.1-12.8-6.4-12.8-6.4z"/>
  <path class="st8" d="M90 148.6l8 39.5c1.3 6.4 1.8 12.9 1.6 19.4l-1.4 41.8H79.3s2.1-5.3 2.1-10.9c0-5.6-1.3-12.2.4-17.8 2.2-7.4-.3-11.7 2.5-20.5 0 0-6.5-21.5-9-35.2L67 201.1c-.2 1.1-.6 2.2-.9 3.2l-16 44.9H30.3s4.1-4.3 4.7-9.9c1-9.5 5.5-12.3 7-17.3 1.8-6.3 4-15.8 7.9-21.2 0 0 5.9-30.5 6.4-34.9.6-5-1.2-13.4 4.1-18.9l29.6 1.6z"/>
  <path class="st6" d="M60.3 147.1c-3.5 3.6-3.9 8.5-3.9 12.9 7.7-2 9.5-9.3 9.9-12.6l-6-.3z"/>
  <path class="st9" d="M110.7 109.6l7.9 2.3 34 .7s5.1-1.8 10.3 2.8l-53.5.1 1.3-5.9z"/>
  <defs>
    <path id="SVGID_1_" d="M126.3 112l-7.6-.1-7.9-2.3-1.3 5.8h14.9c.5-1.2 1.2-2.3 1.9-3.4z"/>
  </defs>
  <use xlink:href="#SVGID_1_" overflow="visible" fill="#f59f17"/>
  <clipPath id="SVGID_2_">
    <use xlink:href="#SVGID_1_" overflow="visible"/>
  </clipPath>
  <g clip-path="url(#SVGID_2_)">
    <path class="st7" d="M109.4 109.6h16.9v5.8h-16.9z"/>
  </g>
  <path class="st7" d="M98.1 105.4l18.8 5.1-2.8 12-19.9-2.6z"/>
  <defs>
    <path id="SVGID_3_" d="M98.1 105.4l-1.8 6.9-.2 7.8 8.7-12.9z"/>
  </defs>
  <use xlink:href="#SVGID_3_" overflow="visible" fill="#f59f17"/>
  <clipPath id="SVGID_4_">
    <use xlink:href="#SVGID_3_" overflow="visible"/>
  </clipPath>
  <g class="st11">
    <path class="st7" d="M96.1 105.4v14.7-14.7z"/>
  </g>
  <g class="st11">
    <path class="st7" d="M96.1 105.4h8.7v14.7h-8.7z"/>
  </g>
  <g class="st11">
    <path class="st7" d="M104.8 120.1v-14.7 14.7z"/>
  </g>
  <path class="st7" d="M68.4 105.4h29.7s-3.4 20.5-4 40.5c-.1 2.1-1.8 3.7-3.9 3.7H62.4c-5 0-6.9-3.5-4.6-8.1 3.3-6.8 1.9-8.3 2.5-11.5 1.4-7.5 8.1-18 8.1-24.6z"/>
  <path class="st9" d="M97.4 86.4s-1.5 5.7-1 8l-1.5-.5s-.8 3.3-1.1 4.4c-.4 1.6-2.4 2.5-4.5.8 0 0-1.4 4.2-2 6.4-4.6 2-8.4 0-8.4 0s2.4-6.5 3-9c0 0-2.1-11.9 2-14 4.1-2.1 13.5 3.9 13.5 3.9z"/>
  <path class="st12" d="M81.8 96.6c-6.9-13.7 2.6-17.1 2.6-17.1 6.9-9 20.4.2 18.5 5.2-2 5.4-14.4-.2-14.4-.2l-2.2 4.9s0-3.3-1.8-2.7c-2 .6-2.2 4.2.2 5.8-1 2.2-2.9 4.1-2.9 4.1z"/>
  <path class="st13" d="M171 132.7H95.5c-4.8 0-8.6-3.9-8.6-8.6 0-4.8 3.9-8.6 8.6-8.6H171c4.8 0 8.6 3.9 8.6 8.6 0 4.7-3.8 8.6-8.6 8.6z"/>
  <path class="st9" d="M69.9 129.9l2.6 5.3c1.4 2.8 4.3 4.5 7.4 4.2l32.7-3.1c1.3-.1 2.5-.4 3.7-.8l8.6-2.8h-8c-.5 0-.8-.7-.3-1 1.4-1 3.4-2.4 3-2.6-.5-.4-4.4 1.8-8 3.3-.6.2-1.3.4-1.9.4h-27c-1.3 0-2.5-.8-3-2.1L77 123l-7.1 6.9z"/>
  <path class="st7" d="M71 105.4l9.8 25.3h-12s-5.1-9.6-6.8-12.7c-1.6-3-3.6-13.4 9-12.6z"/>
  <path class="st14" d="M79.6 130.6l-6-15.3.3-.1 6 15.3z"/>
  <path class="st2" d="M168.4 126.7c-1 0-1.9-.4-2.7-1.1-1.5-1.5-1.5-3.9 0-5.3 1.5-1.5 3.9-1.5 5.3 0 1.5 1.5 1.5 3.9 0 5.3-.7.8-1.6 1.1-2.6 1.1zm0-6.2c-.7 0-1.3.3-1.7.7-.5.5-.7 1.1-.7 1.7 0 .7.3 1.3.7 1.7.9.9 2.6.9 3.5 0 .5-.5.7-1.1.7-1.7 0-.7-.3-1.3-.7-1.7-.5-.4-1.1-.7-1.8-.7z"/>
  <path transform="rotate(-45 172.12380607 126.70691953)" class="st2" d="M171.5 124.5h1.3v4.3h-1.3z"/>
  <path class="st14" d="M67 127.6l-3.2-6 .3-.2 3.2 6z"/>
  <path class="st15" d="M160.5 224.4h-45.7v-17.8c0-1.5 1.2-2.7 2.7-2.7h40.2c1.5 0 2.7 1.2 2.7 2.7v17.8z"/>
  <path class="st16" d="M156.7 224.4h-38.2v-16c0-.6.5-1.1 1.1-1.1h36c.6 0 1.1.5 1.1 1.1v16z"/>
  <path class="st17" d="M140.7 226.8h2.3V222h-2.3c-1.6 0-2.4-1.9-1.3-3.1l1.6-1.6-3.4-3.4-1.6 1.6c-1.1 1.1-3.1.3-3.1-1.3V212h-4.8v2.3c0 1.6-1.9 2.4-3.1 1.3l-1.6-1.6-3.4 3.4 1.6 1.6c1.1 1.1.3 3.1-1.3 3.1H118v4.8h2.3c1.6 0 2.4 1.9 1.3 3.1l-1.6 1.6 3.4 3.4 1.6-1.6c1.1-1.1 3.1-.3 3.1 1.3v2.3h4.8v-2.3c0-1.6 1.9-2.4 3.1-1.3l1.6 1.6 3.4-3.4-1.6-1.6c-1.1-1.3-.3-3.2 1.3-3.2zm-10.1 1.5c-2.1 0-3.9-1.7-3.9-3.9 0-2.1 1.7-3.9 3.9-3.9 2.1 0 3.9 1.7 3.9 3.9s-1.8 3.9-3.9 3.9z"/>
  <path class="st17" d="M143.9 232.7l11.6-11.6c.7-.7 1.7-1.1 2.7-1.1 1.3.1 2.6-.4 3.6-1.4 1.1-1.1 1.5-2.5 1.4-3.9 0-.3-.5-.5-.7-.2l-2.6 2.6c-.4.4-1 .5-1.5.4l-.8-.2c-.5-.1-1-.6-1.1-1.1l-.2-.8c-.1-.5 0-1.1.4-1.5l2.6-2.6c.2-.2.1-.6-.2-.7-1.6-.2-3.3.4-4.4 1.9-.7.9-1 2-.9 3 .1 1-.4 2-1.1 2.7l-11.5 11.5c-.7.7-1.7 1.2-2.7 1.1-1.1-.1-2.2.2-3 .9-1.5 1.1-2.1 2.8-1.9 4.4 0 .3.5.5.7.2l2.6-2.6c.4-.4 1-.5 1.5-.4l.8.2c.5.1 1 .6 1.1 1.1l.2.8c.1.5 0 1.1-.4 1.5l-2.6 2.6c-.2.2-.1.6.2.7 1.4.2 2.8-.3 3.9-1.4 1-1 1.4-2.3 1.4-3.6-.2-.8.2-1.8.9-2.5z"/>
  <path class="st18" d="M159 246.5h-42.8c-1.4 0-2.5-1.1-2.5-2.5v-19.6h47.8V244c0 1.3-1.1 2.5-2.5 2.5z"/>
  <path class="st18" d="M123.6 234.8c-1.1 0-2-.9-2-2v-8.3h4.1v8.3c-.1 1.1-1 2-2.1 2zM151.6 234.8c-1.1 0-2-.9-2-2v-8.3h4.1v8.3c-.1 1.1-1 2-2.1 2z"/>
  <path class="st16" d="M114.7 222h45.7v2.4h-45.7z"/>
  <path class="st18" d="M338.2 258.4h-97c-8.4 0-15.3-6.8-15.3-15.3V49.6c0-8.4 6.8-15.3 15.3-15.3h97c8.4 0 15.3 6.8 15.3 15.3v193.5c-.1 8.4-6.9 15.3-15.3 15.3z"/>
  <path class="st2" d="M332.5 39.3h-18.7c-1.8 0-3.4 1.2-3.9 3l-.6 2.2c-.5 1.9-2.2 3.2-4.2 3.2h-31c-2 0-3.7-1.3-4.2-3.2l-.6-2.2c-.5-1.8-2.1-3-3.9-3h-18.7c-8.8 0-16 7.2-16 16v182.2c0 8.8 7.2 16 16 16h85.6c8.8 0 16-7.2 16-16V55.2c.2-8.8-7-15.9-15.8-15.9z"/>
  <path d="M298.5 44h-17.6c-.5 0-.8-.4-.8-.8 0-.5.4-.8.8-.8h17.6c.5 0 .8.4.8.8s-.4.8-.8.8zM277.3 43.2c0 .7-.6 1.3-1.3 1.3-.7 0-1.3-.6-1.3-1.3 0-.7.6-1.3 1.3-1.3.7 0 1.3.5 1.3 1.3z"/>
  <path class="st8" d="M316.2 42.2h7.8v3.6h-7.8zM331 45.8l-3.2-3.6h6.4z"/>
  <path class="st3" d="M265.1 92.4h-22.3c-1.8 0-3.3-1.5-3.3-3.3V66.7c0-1.8 1.5-3.3 3.3-3.3h22.3c1.8 0 3.3 1.5 3.3 3.3V89c0 1.9-1.4 3.4-3.3 3.4zM300.8 92.4h-22.3c-1.8 0-3.3-1.5-3.3-3.3V66.7c0-1.8 1.5-3.3 3.3-3.3h22.3c1.8 0 3.3 1.5 3.3 3.3V89c0 1.9-1.4 3.4-3.3 3.4zM336.6 92.4h-22.3c-1.8 0-3.3-1.5-3.3-3.3V66.7c0-1.8 1.5-3.3 3.3-3.3h22.3c1.8 0 3.3 1.5 3.3 3.3V89c0 1.9-1.5 3.4-3.3 3.4z"/>
  <path class="st13" d="M337.5 123.8h-95.6c-1.3 0-2.4-1.1-2.4-2.4V106c0-1.3 1.1-2.4 2.4-2.4h95.6c1.3 0 2.4 1.1 2.4 2.4v15.4c0 1.3-1.1 2.4-2.4 2.4z"/>
  <path class="st18" d="M336.6 103.6h-16.4v20.2h16.4c1.8 0 3.3-1.5 3.3-3.3v-13.6c0-1.9-1.5-3.3-3.3-3.3z"/>
  <path class="st2" d="M302.3 109.9h-55.6c-.6 0-1.1-.5-1.1-1.1 0-.6.5-1.1 1.1-1.1h55.6c.6 0 1.1.5 1.1 1.1.1.6-.4 1.1-1.1 1.1zM302.3 114.8h-55.6c-.6 0-1.1-.5-1.1-1.1 0-.6.5-1.1 1.1-1.1h55.6c.6 0 1.1.5 1.1 1.1.1.6-.4 1.1-1.1 1.1zM269.7 119.6h-22.9c-.6 0-1.1-.5-1.1-1.1 0-.6.5-1.1 1.1-1.1h22.9c.6 0 1.1.5 1.1 1.1 0 .6-.5 1.1-1.1 1.1z"/>
  <circle class="st2" cx="330" cy="113.7" r="3.7"/>
  <path class="st3" d="M337.5 158.5h-95.6c-1.3 0-2.4-1.1-2.4-2.4v-15.4c0-1.3 1.1-2.4 2.4-2.4h95.6c1.3 0 2.4 1.1 2.4 2.4v15.4c0 1.3-1.1 2.4-2.4 2.4z"/>
  <path class="st13" d="M337.5 193.2h-95.6c-1.3 0-2.4-1.1-2.4-2.4v-15.4c0-1.3 1.1-2.4 2.4-2.4h95.6c1.3 0 2.4 1.1 2.4 2.4v15.4c0 1.4-1.1 2.4-2.4 2.4z"/>
  <path class="st18" d="M336.6 173.1h-16.4v20.2h16.4c1.8 0 3.3-1.5 3.3-3.3v-13.6c0-1.9-1.5-3.3-3.3-3.3z"/>
  <path class="st2" d="M302.3 179.4h-55.6c-.6 0-1.1-.5-1.1-1.1 0-.6.5-1.1 1.1-1.1h55.6c.6 0 1.1.5 1.1 1.1.1.6-.4 1.1-1.1 1.1zM302.3 184.3h-55.6c-.6 0-1.1-.5-1.1-1.1 0-.6.5-1.1 1.1-1.1h55.6c.6 0 1.1.5 1.1 1.1.1.6-.4 1.1-1.1 1.1zM269.7 189.1h-22.9c-.6 0-1.1-.5-1.1-1.1 0-.6.5-1.1 1.1-1.1h22.9c.6 0 1.1.5 1.1 1.1 0 .6-.5 1.1-1.1 1.1z"/>
  <circle class="st2" cx="330" cy="183.1" r="3.7"/>
  <circle class="st2" cx="175.6" cy="208" r="1.8"/>
  <circle class="st2" cx="184.1" cy="208" r="1.8"/>
  <path class="st16" d="M262.8 267.9h74.6l4-48.3c.3-3.6-2.5-6.6-6.1-6.6h-62.4c-3.2 0-5.8 2.4-6.1 5.6l-4 49.3z"/>
  <path class="st17" d="M346.9 267.9h-74.6l-4.7-50.7c-.2-2.3 1.6-4.2 3.8-4.2h66.9c2 0 3.7 1.5 3.8 3.5l4.8 51.4z"/>
  <path d="M285 218c.6 6.2 6 11.2 12.2 11.2 6.2 0 10.7-5 10.2-11.2-.2-1.8-.8-3.5-1.6-5h-20c-.7 1.5-1 3.2-.8 5z" fill="#ffdb82"/>
  <path class="st15" d="M280.1 237.7l-9.6 10.5 1.8 19.7h50.2L289 237.3c-2.5-2.4-6.6-2.2-8.9.4z"/>
  <path class="st13" d="M289.6 267.9h57.3l-3.4-37.3-6.4-5.8c-2.5-2.3-6.5-2.1-8.8.4l-38.7 42.7z"/>
  <path class="st15" d="M363.1 249.6h5.1v18.3h-5.1zM400.1 249.6h5.1v18.3h-5.1z"/>
  <defs>
    <path id="SVGID_5_" d="M363.1 249.6h5.1v7.9h-5.1z"/>
  </defs>
  <clipPath id="SVGID_6_">
    <use xlink:href="#SVGID_5_" overflow="visible"/>
  </clipPath>
  <g clip-path="url(#SVGID_6_)">
    <path d="M363.1 249.6h5.1v7.9h-5.1z"/>
  </g>
  <defs>
    <path id="SVGID_7_" d="M400.1 249.6h5.1v7.9h-5.1z"/>
  </defs>
  <clipPath id="SVGID_8_">
    <use xlink:href="#SVGID_7_" overflow="visible"/>
  </clipPath>
  <g clip-path="url(#SVGID_8_)">
    <path d="M400.1 249.6h5.1v7.9h-5.1z"/>
  </g>
  <path class="st15" d="M407.7 250.9h-47.1c-1.5 0-2.7-1.2-2.7-2.7 0-1.5 1.2-2.7 2.7-2.7h47.1c1.5 0 2.7 1.2 2.7 2.7 0 1.5-1.2 2.7-2.7 2.7z"/>
  <path class="st9" d="M377.7 232.3l-1.4 9.6s1.8 3 1.2 4.3c-.6 1.2-16.3 1.4-16.6.3-.4-1.8 9.7-5 9.7-5v-9.2h7.1z"/>
  <path class="st3" d="M377.6 246.2c.3-.8-.2-2.2-.7-3.2-4.9.9-6.9-.2-7.8-1-2.8 1-8.5 3.2-8.1 4.5.3 1.1 16 1 16.6-.3z"/>
  <path class="st9" d="M402.9 229.1l2.9 9.6s2.5 2.5 2.3 3.8c-.2 1.3-15.4 5.6-15.9 4.6-.9-1.6 8-7.4 8-7.4l-4.1-8.8 6.8-1.8z"/>
  <path class="st3" d="M408.1 242.5c.1-.8-.8-2.1-1.5-2.9-4.5 2.1-6.8 1.6-7.8 1.1-2.4 1.7-7.3 5.3-6.7 6.5.6.9 15.8-3.4 16-4.7z"/>
  <path class="st12" d="M376.9 135.7s-13.8 54.6-10 97.8h12s4.9-22.3 2.9-44.3l8.3-53.3-13.2-.2z"/>
  <path class="st12" d="M382.8 135.7s-6.6 52.1 11.8 97.8h11.8s-.1-32.9-7.7-45.7c0 0 3.6-41.3-4.1-51.9l-11.8-.2zM380.4 83.5c-1.4 3.6-2.2 9-1 14.1 1.2 5.1 2.5 11.3 3 17.3.5 6.1 2.1 18.5 14.9 20.9 5 1 7.7-3.2 9.3-6.3 1.6-3.1-8.3-25.7-8.3-25.7l-7.7-23.1-10.2 2.8z"/>
  <g>
    <path class="st9" d="M391.7 104.9l-22.4 2.3L351.4 95s-1.8-5.5-5.8-5.9l-.6 6.3 18.5 16.3c2.4 2.1 5.5 3.1 8.7 2.8l20.1-2-.6-7.6z"/>
  </g>
  <g>
    <path class="st7" d="M341.8 102.9l-22-3.8c-1.8-.3-3-2-2.7-3.8l3.8-22c.3-1.8 2-3 3.8-2.7l22 3.8c1.8.3 3 2 2.7 3.8l-3.8 22c-.3 1.8-2 3-3.8 2.7z"/>
  </g>
  <g>
    <path class="st2" d="M334.7 80.2l1.1 4.4c0 .1.1.3.3.3l4.3 1.2c.4.1.4.6.1.8l-3.8 2.4c-.1.1-.2.2-.2.4l.2 4.5c0 .4-.4.6-.7.3l-3.4-2.9c-.1-.1-.3-.1-.4-.1L328 93c-.3.1-.7-.2-.5-.5l1.7-4.2c.1-.1 0-.3-.1-.4l-2.8-3.5c-.2-.3 0-.7.4-.7l4.5.3c.2 0 .3-.1.4-.2L334 80c.2-.3.6-.2.7.2z"/>
  </g>
  <g>
    <path class="st9" d="M347.9 89.9s-5.6.2-5.6.8c0 .6 3.5.7 3.5.7s1.2 4.1 5.6 3.6c0-.1-1.1-3.7-3.5-5.1z"/>
  </g>
  <g>
    <path d="M363.1 151.6l-89.6 12.7c-1.2.2-2.4-.7-2.6-1.9l-2-14.4c-.2-1.2.7-2.4 1.9-2.6l89.6-12.7c1.2-.2 2.4.7 2.6 1.9l2 14.4c.2 1.3-.7 2.5-1.9 2.6z" fill="#a1b8ff"/>
  </g>
  <g>
    <path class="st13" d="M363.1 151.6l-89.6 12.7c-1.2.2-2.4-.7-2.6-1.9l-2-14.4c-.2-1.2.7-2.4 1.9-2.6l89.6-12.7c1.2-.2 2.4.7 2.6 1.9l2 14.4c.2 1.3-.7 2.5-1.9 2.6z"/>
  </g>
  <g>
    <path class="st18" d="M359.5 132.8l-15.4 2.2 2.7 18.9 15.4-2.2c1.7-.2 2.9-1.8 2.6-3.5l-1.8-12.8c-.2-1.6-1.8-2.8-3.5-2.6z"/>
  </g>
  <g>
    <path class="st2" d="M328.3 143.3l-52.1 7.4c-.6.1-1.1-.3-1.2-.9-.1-.6.3-1.1.9-1.2l52.1-7.4c.6-.1 1.1.3 1.2.9.1.6-.3 1.1-.9 1.2zM329 147.9l-52.1 7.4c-.6.1-1.1-.3-1.2-.9-.1-.6.3-1.1.9-1.2l52.1-7.4c.6-.1 1.1.3 1.2.9 0 .6-.4 1.1-.9 1.2zM299 156.8l-21.5 3c-.6.1-1.1-.3-1.2-.9-.1-.6.3-1.1.9-1.2l21.5-3c.6-.1 1.1.3 1.2.9 0 .6-.4 1.1-.9 1.2z"/>
  </g>
  <g>
    <path class="st2" d="M358.2 142.7c.3 1.9-1.1 3.7-3 4-1.9.3-3.7-1.1-4-3-.3-1.9 1.1-3.7 3-4 2-.3 3.7 1.1 4 3z"/>
  </g>
  <g>
    <path class="st9" d="M383.9 82.2s-1.7 4-3.5 5.6l1.3.5-.8 3.8c-.3 1.3.6 2.5 1.8 2.7l2 .3c.9.1 1.6.8 1.8 1.7l1.4 6.9h9l-1-21.1-12-.4z"/>
  </g>
  <g>
    <path class="st18" d="M389.1 101.4c-2.9.2-5.5 1.6-7.2 3.8-1.4 1.9-3.3 4.4-4.9 6.6-2 2.7-1.7 6.3.5 8.7.9 1 1.3 2.3 1 3.6l-3.9 16.7s5 1.4 11.1 1.5c1 0 1.9-.6 2.3-1.6l.9-2.7 1 2.4c.4 1 1.5 1.6 2.6 1.4 1.3-.2 4.3-1 5.6-1.5 0 0-2.9-16.4.5-38.2-4-.7-7.1-.8-9.5-.7z"/>
  </g>
  <g>
    <path class="st9" d="M392.2 107.1c-1.9-1.4-4.6-.8-6.1 1.1L371 127.8l-24.8 5.2-4.5-.7c-1.8-.3-3.6.1-5.1 1.2l-4.4 3.1 1.1 1.9c.7 1.2 2.1 1.7 3.4 1.4l4.9-1.3 4.9-1.2 25.3-2.1c2.4-.2 4.6-1.4 6.1-3.2l15.3-18.7c1.4-2 1.1-4.9-1-6.3z"/>
  </g>
  <g>
    <path class="st12" d="M380.4 83.5L388 85c1.8.4 3.1 2 3 3.9-.5 8.7-.4 32.7 15.7 40.6 0 0 2.6-4.1 1.5-12.4-1.4-10.3-8.1-10.2-7.2-20.1.8-8.3 2.1-18.4-7.1-20.7-6.5-1.6-11.9 1.7-13.5 7.2z"/>
  </g>
  <g>
    <path class="st6" d="M146.8 267.3h264.5v1.3H146.8z"/>
  </g>
</svg>