<svg xmlns="http://www.w3.org/2000/svg" viewBox="0 0 48 48">
  <linearGradient id="a" gradientUnits="userSpaceOnUse" x1="44.5195" y1="24.2703" x2="3.5302" y2="24.2703">
    <stop offset="0" stop-color="#7475d4"/>
    <stop offset="1" stop-color="#303096"/>
  </linearGradient>
  <path d="M24 42.4v-1.1c0-.4.3-.8.8-.8.4 0 .8.3.8.8v1.1c0 .4-.3.8-.8.8s-.8-.4-.8-.8zm13.9-25.1l1.1 1.1c2.5-3 2.5-7.4 0-10.4l-1.1 1c1.9 2.5 1.9 5.9 0 8.3zM26.1 40.7h1.1c.4 0 .8-.3.8-.8 0-.4-.3-.8-.8-.8h-1.1c-.4 0-.8.3-.8.8s.4.8.8.8zm-1.4-1.3c.4 0 .8-.3.8-.8v-1.1c0-.4-.3-.8-.8-.8-.4 0-.8.3-.8.8v1.1c.1.4.4.8.8.8zm13.2-22.1L35.6 15c-.3-.3-.8-.3-1.1 0-.3.3-.3.8 0 1.1l2.2 2.2c.2-.2.4-.3.6-.5.3-.1.4-.3.6-.5zM32.7 6.5c1.5 0 2.9.5 4.1 1.4l1.1-1.1c-3-2.5-7.4-2.5-10.4 0L28.6 8c1.2-1 2.6-1.5 4.1-1.5zm2.7 26.7h1.1c.4 0 .8-.3.8-.8 0-.4-.3-.8-.8-.8h-1.1c-.4 0-.8.3-.8.8.1.4.4.8.8.8zm-12 6h-1.1c-.4 0-.8.3-.8.8 0 .4.3.8.8.8h1.1c.4 0 .8-.3.8-.8s-.4-.8-.8-.8zm2.6-26c0-1.5.5-3 1.4-4.1l-1-1.1c-1.2 1.5-1.9 3.3-1.9 5.2 0 1.9.7 3.8 1.9 5.2l1.1-1.1c-1-1.2-1.5-2.6-1.5-4.1zM8.1 9.5c0-2.6 2-4.7 4.5-4.7C15 4.8 17 6.9 17 9.5s-2 4.7-4.5 4.7c-2.4 0-4.4-2.1-4.4-4.7zm1.5 0c0 1.7 1.3 3.2 3 3.2 1.6 0 3-1.4 3-3.2s-1.3-3.2-3-3.2-3 1.4-3 3.2zm3.7 36.9V32.7c0-.4-.3-.8-.8-.8-.4 0-.8.3-.8.8v13.7c0 .4.3.8.8.8s.8-.3.8-.8zM24.9 4.3l-.5-.5c-.3-.3-.8-.3-1.1 0-.3.3-.3.8 0 1.1l.5.5c.2-.2.3-.4.5-.6.2-.2.4-.4.6-.5zM30.8 15c-.3-.3-.8-.3-1.1 0l-2.2 2.2c.2.2.3.4.5.6.2.2.4.3.6.5l2.2-2.2c.3-.3.3-.8 0-1.1zM5.3 46.4c0 .4.3.8.8.8h2.3c-.4 0-.8-.3-.8-.8v-.8H6.1c-.4.1-.8.4-.8.8zm25-34.9c.2 0 .4-.1.5-.2.3-.3.3-.8 0-1.1L28.6 8c-.2.2-.4.3-.6.5-.2.2-.3.4-.5.6l2.2 2.2c.2.1.4.2.6.2zm4.3-.2c.1.1.3.2.5.2s.4-.1.5-.2L37.9 9c-.2-.2-.3-.4-.5-.6-.2-.1-.4-.3-.6-.4l-2.2 2.2c-.3.3-.3.8 0 1.1zm-.5 20.5c.4 0 .8-.3.8-.8v-1c0-.4-.3-.8-.8-.8-.4 0-.8.3-.8.8v1.1c0 .4.4.7.8.7zm3.8-12.3l-1.1-1.1c-1.2.9-2.6 1.4-4.1 1.4-1.5 0-3-.5-4.1-1.4l-1.1 1.1c1.5 1.2 3.3 1.9 5.2 1.9 1.9-.1 3.7-.7 5.2-1.9zm2.6 2.6l.5.5c.1.1.3.2.5.2s.4-.1.5-.2c.3-.3.3-.8 0-1.1l-.4-.5c-.2.2-.3.4-.5.6-.2.1-.4.3-.6.5zm-7.8 1.4c-2.5 0-4.9-.9-6.7-2.5l-1.1 1.1c2.2 1.9 4.9 3 7.8 3 2.9 0 5.6-1.1 7.8-3L39.4 21c-1.9 1.6-4.2 2.5-6.7 2.5zM23.8 21l-.5.5c-.3.3-.3.8 0 1.1.1.1.3.2.5.2s.4-.1.5-.2l.5-.5c-.2-.2-.4-.3-.6-.5-.1-.2-.2-.4-.4-.6zM41.6 5.4l.5-.5c.3-.3.3-.8 0-1.1-.3-.3-.8-.3-1.1 0l-.5.5c.2.2.4.3.6.5.1.2.3.4.5.6zM26 21l1.5-1.5c-.2-.2-.4-.3-.6-.5-.2-.2-.4-.4-.5-.6l-1.5 1.5c.2.2.3.4.5.6.2.1.4.3.6.5zm17-7.8c0 2.5-.9 4.9-2.5 6.7l1.1 1.1c1.9-2.2 3-4.9 3-7.8s-1.1-5.6-3-7.8l-1.1 1.1c1.6 1.8 2.5 4.2 2.5 6.7zM32.7 2.9c2.5 0 4.9.9 6.7 2.5l1.1-1.1c-2.2-1.9-4.9-3-7.8-3-2.9 0-5.6 1.1-7.8 3L26 5.4c1.8-1.7 4.2-2.5 6.7-2.5zm-9.9 16.8c.3.4.6.8 1 1.2l1.1-1.1c-.4-.5-.8-1-1.1-1.5-.8-1.4-1.3-2.9-1.4-4.5v-.7c0-2.5.9-4.9 2.5-6.7l-1.1-1.1c-1.9 2.2-3 4.9-3 7.8v.3c-2.1 1.4-3.8 2.1-4.3 2.2H8.4c-2.7 0-4.9 2.2-4.9 4.9v9.2c0 1.6 1.3 2.8 2.8 2.8.5 0 .9-.1 1.3-.3v13.3h1.5V29.8c0 .4-.3.8-.8.8-.4 0-.8-.3-.8-.8 0 .7-.6 1.3-1.3 1.3-.7 0-1.3-.6-1.3-1.3v-9.2c0-1.8 1.5-3.3 3.3-3.3h8.5c.1 0 1.8-.6 4.1-2 .2 1.1.5 2.2 1 3.2-1.7.9-3.5 1.5-5.5 1.8-.4.1-.6.4-.6.8v24.7h1.5v-24c2.2-.5 3.9-1.2 5.6-2.1zm15.7-.7c-.2.2-.4.4-.6.5l1.5 1.5c.2-.2.4-.3.6-.5.2-.2.3-.4.5-.6L39 18.4c-.2.2-.4.4-.5.6zM8.4 29.1c.4 0 .8.3.8.8v-7c0-.4-.3-.8-.8-.8-.4 0-.8.3-.8.8v7c0-.5.4-.8.8-.8zm25.7 6.5c.4 0 .8-.3.8-.8v-1.1c0-.4-.3-.8-.8-.8-.4 0-.8.3-.8.8v1.1c0 .5.4.8.8.8zM26.9 7.4c.2-.2.4-.4.6-.5L26 5.4c-.2.2-.4.3-.6.5-.2.2-.3.4-.5.6L26.4 8c.1-.2.3-.4.5-.6zm14.9 38.3H17.5v.8c0 .4-.3.8-.8.8h25.1c.4 0 .8-.3.8-.8s-.4-.8-.8-.8zM38.5 7.4c.1.2.3.4.5.6l1.5-1.5c-.2-.2-.3-.4-.5-.6-.2-.2-.4-.3-.6-.5l-1.5 1.5c.2.1.4.3.6.5zm-5.8 24.2h-1.1c-.4 0-.8.3-.8.8 0 .4.3.8.8.8h1.1c.4 0 .8-.3.8-.8 0-.4-.3-.8-.8-.8z" fill="url(#a)"/>
</svg>