<svg xmlns="http://www.w3.org/2000/svg" viewBox="0 0 512 512">
  <linearGradient id="a" gradientUnits="userSpaceOnUse" x1="511.975" y1="255.9873" x2=".00099984" y2="255.9873">
    <stop offset="0" stop-color="#7373b5"/>
    <stop offset="1" stop-color="#323491"/>
  </linearGradient>
  <path d="M511.9 195.7c-.1-.6-.2-1.2-.4-1.7-.1-.5-.3-1-.5-1.5s-.5-.9-.9-1.3c-.3-.5-.7-.9-1.1-1.3-.1-.1-.2-.3-.3-.4l-82.1-63.7V59.7c0-14.1-11.5-25.6-25.6-25.6h-92.5l-37-28.7c-9.1-7.1-22-7.1-31.1 0l-37 28.7h-92.5c-14.1 0-25.6 11.5-25.6 25.6v66.1l-82 63.7c-.1.1-.2.3-.3.4-.4.4-.8.8-1.1 1.3-.3.4-.6.8-.9 1.3-.2.5-.4 1-.5 1.5-.2.6-.3 1.1-.3 1.7 0 .2-.1.3-.1.5v290.2c0 5.4 1.8 10.7 5 15.1.1.1.1.2.1.2.1.1.2.1.3.2 4.8 6.3 12.3 10 20.2 10.1h460.8c8 0 15.4-3.8 20.2-10.1.1-.1.2-.1.2-.2.1-.1.1-.2.1-.2 3.2-4.4 5-9.6 5-15.1V196.2c0-.1-.1-.3-.1-.5zm-261-176.9c3-2.4 7.2-2.4 10.2 0l19.7 15.3h-49.5l19.6-15.3zM27.7 494.9l223.1-173.3c3-2.4 7.2-2.4 10.2 0l223.2 173.3H27.7zm467.2-13.3L271.5 308.1c-9.1-7.1-22-7.1-31.1 0L17 481.6V209.2l139.8 108.6c3.7 2.9 9.1 2.2 12-1.5s2.2-9.1-1.5-12L25.3 194l60-46.7v65.9c0 4.7 3.8 8.5 8.5 8.5s8.5-3.8 8.5-8.5V59.7c0-4.7 3.8-8.5 8.5-8.5H401c4.7 0 8.5 3.8 8.5 8.5v153.6c0 4.7 3.8 8.5 8.5 8.5s8.5-3.8 8.5-8.5v-65.9l60 46.7-142.1 110.4c-2.4 1.9-3.7 4.9-3.3 7.9s2.4 5.6 5.3 6.8c2.8 1.1 6.1.7 8.5-1.2L495 209.2l-.1 272.4zM358.4 204.8v-34.1c0-56.6-45.8-102.4-102.4-102.4s-102.4 45.8-102.4 102.4S199.4 273 256 273c4.7 0 8.5-3.8 8.5-8.5s-3.8-8.5-8.5-8.5c-47.1 0-85.3-38.2-85.3-85.3s38.2-85.3 85.3-85.3 85.3 38.2 85.3 85.3v34.1c0 9.4-7.6 17.1-17.1 17.1s-17.1-7.6-17.1-17.1v-34.1c0-4.7-3.8-8.5-8.5-8.5s-8.5 3.8-8.5 8.5c0 18.9-15.3 34.1-34.1 34.1s-34.1-15.3-34.1-34.1 15.3-34.1 34.1-34.1c4.7 0 8.5-3.8 8.5-8.5s-3.8-8.5-8.5-8.5c-22.9-.1-43.1 15.1-49.4 37.2s2.8 45.6 22.3 57.6 44.6 9.6 61.5-5.8c1.9 18 17.5 31.5 35.7 30.5 18.1-1.2 32.3-16.2 32.3-34.3z" fill="url(#a)"/>
</svg>