<svg version="1.1" id="Layer_1" xmlns="http://www.w3.org/2000/svg" x="0" y="0" viewBox="0 0 450 300" xml:space="preserve">
  <style>
    .st1{fill:#ffce52}.st2{fill:#f59f17}.st4{fill:none;stroke:#fff;stroke-miterlimit:10}.st5{fill:#ffc6bb}.st6{fill:#efa49a}.st9{fill:#fff}.st11{fill:#e6e6e6}
  </style>
  <path d="M206.2 259.8s-10.8-22.9-50.9-31.2c-40.1-8.2-59.1-45.3-42.5-77.1 16.5-31.8 47.9-37.7 63.3-90.6 15.4-53 86.3-63.5 137.8-45.3s58.9 57.1 46.1 85.9c-12.7 28.8-40.1 51.2-27.4 85.3 12.7 34.1 15.4 81.2-23.4 95.3-38.8 14.2-81.6 8.3-103-22.3z" fill="#f1eef7"/>
  <path class="st1" d="M102.7 131.1l-4.1 55.4s53.4 26.1 88.5 11.7l-.4-47.6c0 .1-42.7 21.7-84-19.5z"/>
  <ellipse transform="rotate(-37.936 141.96487397 177.08421905)" class="st2" cx="142" cy="177.1" rx="14.3" ry="15.4"/>
  <path class="st2" d="M114 168c-.5-.3-.9-.5-1.3-.8-.4-.3-.7-.5-.9-.8-.2-.3-.4-.7-.5-1-.1-.4-.1-.8 0-1.3.2-.8.5-1.4 1.1-1.8.6-.4 1.3-.7 2.3-.7l.3-1.4h.5c.2 0 .4 0 .7.1.4.1.8.2 1 .4.2.2.3.6.2 1.1v.2c.7.2 1.2.5 1.6.9.4.4.5.8.4 1.2-.1.3-.2.5-.4.7-.2.2-.4.3-.6.4-.2-.2-.5-.4-.9-.6-.4-.2-.8-.4-1.3-.5-.5-.1-.9-.1-1.2 0-.3.1-.4.2-.5.5 0 .2 0 .3.1.5.1.1.3.3.6.4l.8.5c1 .6 1.7 1.2 2.2 1.8.5.6.6 1.4.4 2.3-.2.8-.5 1.4-1.1 1.8-.6.4-1.4.7-2.4.7l-.3 1.4h-.5c-.2 0-.4 0-.7-.1-.4-.1-.8-.2-1-.4-.2-.2-.3-.6-.2-1.1v-.2c-.4-.1-.8-.3-1.1-.4-.3-.2-.6-.4-.8-.6-.2-.2-.4-.4-.5-.7-.1-.2-.1-.5-.1-.8.1-.3.2-.6.5-.8.2-.2.5-.3.7-.4.3.3.6.6 1 .9.4.3.9.5 1.4.6.6.1 1 .1 1.2 0 .3-.1.4-.3.5-.5 0-.2 0-.4-.2-.6s-.4-.3-.7-.5l-.3-.4z"/>
  <path d="M169.9 178.4c-.5-.2-.9-.4-1.3-.6-.4-.2-.7-.4-1-.7-.3-.3-.5-.6-.6-1-.1-.4-.2-.8-.2-1.3.1-.8.3-1.4.9-1.9.5-.5 1.2-.8 2.1-1l.1-1.4c.1 0 .3 0 .5-.1h.7c.4 0 .8.1 1 .3.2.2.3.5.3 1v.2c.7.1 1.3.4 1.7.7.4.3.6.7.6 1.2 0 .3-.1.6-.3.8-.2.2-.3.4-.5.5-.2-.2-.6-.3-1-.5-.4-.1-.9-.2-1.4-.3-.5 0-.9 0-1.2.1-.3.1-.4.3-.4.5s.1.3.2.4c.1.1.4.2.7.3l.9.4c1.1.4 1.9.9 2.4 1.5s.8 1.3.7 2.2c-.1.8-.3 1.4-.9 1.9-.5.5-1.3.8-2.3 1l-.1 1.4c-.1 0-.3 0-.5.1h-.7c-.4 0-.8-.1-1-.3-.2-.2-.3-.5-.3-1v-.2c-.4-.1-.8-.2-1.1-.3-.3-.1-.6-.3-.9-.5-.2-.2-.4-.4-.5-.6-.1-.2-.2-.5-.2-.8 0-.3.1-.6.4-.8.2-.2.4-.4.7-.5.3.3.7.5 1.1.7.5.2 1 .3 1.5.4.6 0 1 0 1.2-.2.2-.2.4-.4.4-.6 0-.2-.1-.4-.2-.5-.2-.1-.4-.3-.8-.4l-.7-.1z" fill="#5e5ed7"/>
  <path class="st4" d="M105.2 136.8l-3.5 47.9s47.7 22.9 81.7 12.4l-.4-41.8s-40.5 16.5-77.8-18.5z"/>
  <path class="st4" d="M150 187.5c-5.3 4.1-13.2 2.8-17.7-2.9-4.5-5.7-3.8-13.7 1.5-17.8 5.3-4.1 13.2-2.8 17.7 2.9 4.5 5.6 3.8 13.6-1.5 17.8z"/>
  <g>
    <path class="st1" d="M113 111.6l56.6 51.2S243 127 257 76.9l-52-39.8s-12.6 64.5-92 74.5z"/>
    <ellipse class="st2" cx="195.9" cy="107.8" rx="21.2" ry="19.6"/>
    <path class="st2" d="M162.4 130.4c-.7.3-1.3.5-1.9.7-.6.2-1.2.3-1.7.3s-1.1-.1-1.5-.3c-.5-.2-1-.6-1.4-1.1-.7-.8-1-1.7-1-2.7 0-1 .4-2 1.2-3l-1.3-1.5c.1-.1.2-.3.4-.5s.4-.5.7-.7c.5-.4.9-.6 1.3-.7.4-.1.8.2 1.3.7l.2.2c.8-.5 1.6-.9 2.3-1 .7-.1 1.3.1 1.7.6.3.3.4.6.5 1v1c-.4.1-.9.2-1.4.5-.6.3-1.1.6-1.6 1.1-.5.5-.9.9-1 1.2-.1.4-.1.7.1.9.2.2.4.3.6.2.3 0 .6-.1 1-.3l1.2-.5c1.4-.6 2.7-.9 3.8-.9 1.1 0 2 .5 2.9 1.5.7.8 1 1.7 1 2.8 0 1-.4 2.1-1.3 3.1l1.2 1.4c-.1.1-.2.3-.4.5s-.4.5-.7.7c-.5.4-.9.6-1.3.7-.4.1-.8-.2-1.3-.7l-.2-.2c-.5.3-.9.6-1.4.8-.4.2-.9.3-1.3.4-.4.1-.8 0-1.1-.1-.3-.1-.6-.3-.9-.6-.3-.3-.5-.7-.5-1.2 0-.4.1-.8.2-1.1.6 0 1.2-.2 1.8-.4.7-.2 1.3-.6 1.8-1.1.6-.5.9-1 1-1.3.1-.4 0-.7-.2-.9-.2-.2-.5-.3-.8-.3-.3 0-.7.1-1.1.3l-.9.5zM220.9 78.7c-.6.4-1.2.7-1.8.9-.6.3-1.1.4-1.6.5-.5.1-1.1 0-1.6-.1-.5-.2-1-.5-1.6-.9-.8-.7-1.3-1.6-1.4-2.6-.1-1 .2-2 .8-3.1l-1.4-1.3c.1-.1.2-.3.4-.6s.4-.5.6-.7c.4-.5.8-.8 1.2-.9.4-.1.9.1 1.4.5l.2.2c.7-.7 1.5-1.1 2.1-1.3.7-.2 1.3-.1 1.8.4.3.3.5.6.6.9.1.3.1.7.1 1-.4.1-.9.3-1.4.7-.5.3-1 .8-1.5 1.3s-.8 1-.8 1.4c-.1.4 0 .7.2.9.2.2.4.2.6.2.3-.1.6-.2.9-.4l1.1-.7c1.3-.8 2.6-1.2 3.6-1.4 1.1-.1 2.1.3 3 1.1.8.7 1.3 1.6 1.4 2.6.1 1-.2 2.1-.9 3.3l1.4 1.3c-.1.1-.2.3-.4.6s-.4.5-.6.7c-.4.5-.8.8-1.2.9-.4.1-.8-.1-1.4-.5l-.2-.2c-.4.4-.9.7-1.3 1-.4.3-.8.4-1.2.5-.4.1-.8.1-1.1.1-.4-.1-.7-.2-1-.5-.3-.3-.5-.7-.6-1.1-.1-.4-.1-.8 0-1.2.6-.1 1.1-.3 1.8-.6.6-.3 1.2-.7 1.7-1.3.5-.6.8-1.1.8-1.5 0-.4-.1-.7-.3-.9-.2-.2-.5-.3-.8-.2-.3.1-.7.2-1.1.5l-.5.5z"/>
    <path class="st4" d="M121.2 113.6l49 44.3s65.1-32.3 82.4-78L207 45c-.1-.1-16.4 57.8-85.8 68.6z"/>
    <ellipse class="st4" cx="195.9" cy="107.8" rx="18.1" ry="16.7"/>
  </g>
  <g>
    <path class="st5" d="M339.9 133.4c-1.7-6.6-4.6-6.8-4.6-6.8s25.8-33.8 25.3-40.9c-.5-7.1-5.8-7.5-11.2-2.9 0 0-1.7-4.1-6.3-3-4.6 1.1-27 17.9-27 17.9s-46.7 25.6-77.1 37.2c-30.4 11.7-33.1 13.6-33.2 13.6-1.4 5.5-2.4 9.7-2.4 9.7s10.7 30.2 10.3 48.2c-.4 18-12 88.1-13 90.1 0 0 8.5-1 17-4.9 0 0 11.7-48.7 21.4-53.5 9.7-4.9 56-25.3 74.5-41.4 18.5-16.1 23.4-19 16.1-35.5 0-.1 13.2-19.1 10.2-27.8z"/>
    <path class="st6" d="M213.8 199.1s59.5 15.5 75.1 1.7c15.6-13.8 27.3-37.1 25.8-57.6s-2.5-36.5-2.5-36.5l-98.4 92.4z"/>
    <path d="M267.6 214.9l-75.8-22.3c-4.9-1.4-7.7-6.5-6.2-11.4l46.4-158c1.4-4.9 6.5-7.7 11.4-6.2l75.8 22.3c4.9 1.4 7.7 6.5 6.2 11.4l-46.4 158c-1.4 4.8-6.5 7.6-11.4 6.2z" fill="#3b4369"/>
    <path d="M321.2 39.8l-3-.9c5.4 1.6 8.5 7.3 6.9 12.7l-45.8 156.1c-1.6 5.4-7.3 8.5-12.7 6.9l3 .9c5.4 1.6 11.1-1.5 12.7-6.9l45.8-156.1c1.6-5.4-1.5-11.1-6.9-12.7z" fill="#141930"/>
    <path class="st9" d="M265.8 211l-70.4-20.7c-4.5-1.3-7-6-5.7-10.5l45-153.1c1.3-4.5 6-7 10.5-5.7l70.4 20.7c4.5 1.3 7 6 5.7 10.5l-45 153.1c-1.3 4.4-6 7-10.5 5.7z"/>
    <path d="M282.4 148L215 128.2c-3-.9-4.7-4-3.8-7l11-37.5c.9-3 4-4.7 7-3.8l67.5 19.8c3 .9 4.7 4 3.8 7l-11 37.5c-.9 3-4.1 4.7-7.1 3.8z" fill="#acaad5"/>
    <path class="st11" d="M277.1 164.3l-66.4-19.5c-3.3-1-5.2-4.4-4.2-7.7s4.4-5.2 7.7-4.2l66.4 19.5c3.3 1 5.2 4.4 4.2 7.7s-4.5 5.2-7.7 4.2zM297.5 94.8l-66.4-19.5c-3.3-1-5.2-4.4-4.2-7.7s4.4-5.2 7.7-4.2L301 82.9c3.3 1 5.2 4.4 4.2 7.7s-4.4 5.1-7.7 4.2zM303.3 74.9l-41.9-12.3c-3.3-1-5.2-4.4-4.2-7.7s4.4-5.2 7.7-4.2L306.8 63c3.3 1 5.2 4.4 4.2 7.7-.9 3.2-4.4 5.1-7.7 4.2zM272.2 180.7l-66.4-19.5c-3.3-1-5.2-4.4-4.2-7.7s4.4-5.2 7.7-4.2l66.4 19.5c3.3 1 5.2 4.4 4.2 7.7-.9 3.3-4.4 5.2-7.7 4.2zM252.4 53.5c-1.5 5.1-6.9 8-12 6.5s-8-6.9-6.5-12 6.9-8 12-6.5 8 6.8 6.5 12z"/>
    <path class="st5" d="M135 271.6s14.6-57.9 18.5-71.1c3.9-13.1 31.2-57 36.5-69.6 5.4-12.7 11.7-28.2 18-27.3 6.3 1 7.3 17.5 3.4 26.8-3.9 9.2-8 27.7-8 27.7s10.7 30.2 10.3 48.2c-.4 18-12 88.1-13 90.1-1 1.9-23.9 1.9-37 0-13.1-1.9-34.5-2-28.7-24.8z"/>
    <path class="st9" d="M273.9 129.4l-55.4-16.3c-.8-.2-1.2-1-1-1.8l.5-1.9c.2-.8 1-1.2 1.8-1l55.4 16.3c.8.2 1.2 1 1 1.8l-.5 1.9c-.2.8-1 1.2-1.8 1zM231.4 123.6l-14.7-4.3c-.8-.2-1.2-1-1-1.8l.5-1.9c.2-.8 1-1.2 1.8-1l14.7 4.3c.8.2 1.2 1 1 1.8l-.5 1.9c-.3.8-1.1 1.2-1.8 1zM239.7 97.7L225 93.4c-.8-.2-1.2-1-1-1.8l1.7-5.7c.2-.8 1-1.2 1.8-1l14.7 4.3c.8.2 1.2 1 1 1.8l-1.7 5.7c-.2.8-1 1.2-1.8 1zM251.7 129.6l-14.7-4.3c-.8-.2-1.2-1-1-1.8l.5-1.9c.2-.8 1-1.2 1.8-1l14.7 4.3c.8.2 1.2 1 1 1.8l-.5 1.9c-.2.8-1 1.2-1.8 1z"/>
    <path class="st5" d="M319.4 124.4s-28.9-6.1-40.4-5.6-11.9 4.4-9.7 8c2.2 3.7 19.5 10 33.3 11.2l-2.7 10.2s-7.8 1.7-19.5 5.4-19.5 6.3-16.1 14.1c3.4 7.8 33.6-1 33.6-1s3.9-.7 6.1 1.7c2.2 2.4 5.4 10 5.4 10s11.9-4.1 10-18.3c0 .1 13.1-24 0-35.7z"/>
    <path class="st6" d="M302.6 138s8.5 3 11 6.1c2.5 3.1 3.5 6.1 3.5 6.1s-7.7-4.4-17.2-1.9l2.7-10.3zM349.4 82.8L313.2 122l.1 1.2 1.2.2zM236.1 240.8s-23.3 17.1-51.4 19.3c0 0 23 10.8 33.1 31.5 0 0 9.9-38.6 18.3-50.8z"/>
  </g>
  <g>
    <path class="st1" d="M189 25.3c.9 3.4-7.3 8.4-18.2 11.2-10.9 2.8-20.5 2.3-21.4-1.1-.9-3.4 7.3-8.4 18.2-11.2 11-2.8 20.6-2.3 21.4 1.1z"/>
    <path class="st2" d="M170.8 36.5c-10.9 2.8-20.5 2.3-21.4-1.1l1.3 5c.9 3.4 10.4 3.9 21.4 1.1 10.9-2.8 19.1-7.8 18.2-11.2l-1.3-5c.9 3.4-7.3 8.4-18.2 11.2z"/>
    <path class="st1" d="M183.5 26.7c.6 2.4-5.2 6-13.1 8.1-7.9 2-14.7 1.7-15.4-.8-.6-2.4 5.2-6 13.1-8.1 7.9-2 14.7-1.7 15.4.8z"/>
    <path class="st2" d="M168.4 27c7.2-1.8 13.6-1.7 15.1.3v-.6c-.6-2.4-7.5-2.8-15.4-.8S154.4 31.5 155 34c0 .2.2.4.3.5.3-2.4 5.9-5.6 13.1-7.5z"/>
  </g>
  <g>
    <ellipse transform="matrix(.2293 -.9734 .9734 .2293 232.6155 318.9244)" class="st1" cx="317.7" cy="12.6" rx="6.3" ry="20.4"/>
    <path class="st2" d="M316.2 18.7c-11-2.6-19.2-7.4-18.4-10.9l-1.2 5c-.8 3.4 7.4 8.3 18.4 10.9 11 2.6 20.5 1.9 21.3-1.5l1.2-5c-.7 3.5-10.3 4.1-21.3 1.5z"/>
    <path class="st1" d="M332 15.9c-.6 2.5-7.4 2.9-15.3 1.1-7.9-1.9-13.8-5.4-13.2-7.8.6-2.5 7.4-2.9 15.3-1.1 7.8 1.9 13.8 5.4 13.2 7.8z"/>
    <path class="st2" d="M318.5 9.3c7.3 1.7 12.9 4.8 13.2 7.2.1-.2.2-.3.3-.5.6-2.5-5.4-5.9-13.2-7.8-7.9-1.9-14.8-1.4-15.3 1.1v.6c1.3-2.1 7.7-2.3 15-.6z"/>
  </g>
  <g>
    <path class="st1" d="M337.5 247.5c-.8 3.4-10.4 4.1-21.3 1.5-11-2.6-19.2-7.4-18.4-10.9.8-3.4 10.4-4.1 21.3-1.5 11 2.6 19.2 7.5 18.4 10.9z"/>
    <path class="st2" d="M316.2 249c-11-2.6-19.2-7.4-18.4-10.9l-1.2 5c-.8 3.4 7.4 8.3 18.4 10.9 11 2.6 20.5 1.9 21.3-1.5l1.2-5c-.8 3.4-10.3 4.1-21.3 1.5z"/>
    <path class="st1" d="M332 246.2c-.6 2.5-7.4 2.9-15.3 1.1-7.9-1.9-13.8-5.4-13.2-7.8.6-2.5 7.4-2.9 15.3-1.1 7.8 1.8 13.7 5.3 13.2 7.8z"/>
    <path class="st2" d="M318.4 239.5c7.3 1.7 12.9 4.8 13.2 7.2.1-.2.2-.3.3-.5.6-2.5-5.4-5.9-13.2-7.8-7.9-1.9-14.8-1.4-15.3 1.1v.6c1.4-2 7.8-2.3 15-.6z"/>
  </g>
</svg>