<svg xmlns="http://www.w3.org/2000/svg" viewBox="0 0 48 48">
  <linearGradient id="a" gradientUnits="userSpaceOnUse" x1="47.1866" y1="24.0611" x2=".4955" y2="24.0611">
    <stop offset="0" stop-color="#7475d4"/>
    <stop offset="1" stop-color="#303096"/>
  </linearGradient>
  <path d="M.5 31.1V27c0 .4.3.8.8.8H2v2.6h-.7c-.5 0-.8.3-.8.7zm46.7-6c0 1.6-1 3.1-1.6 3.8L44 30.5c-.2.1-.3.3-.5.4-.5.5-1 .9-1.5 1.2l-9.3 6.7c-1.2.9-2.6 1.3-4.1 1.3H7c0 1.8-1.5 3.2-3.2 3.2C2 43.3.6 41.8.6 40.1v-.6c0 .4.3.8.8.8H2c.1.9.8 1.6 1.7 1.6.9 0 1.7-.8 1.7-1.7V26.4c0-.9-.8-1.7-1.7-1.7-.9 0-1.6.7-1.7 1.6h-.7c-.4 0-.8.3-.8.8v-.6c0-1.8 1.5-3.2 3.2-3.2 1.8 0 3.2 1.5 3.2 3.2v.1l1.8-.9c3.6-1.8 7.6-2.4 11.6-1.9-.9-2-1.3-4.2-1.1-6.4.5-6.7 5.9-12 12.6-12.4 3.8-.2 7.3 1 10.1 3.6 2.7 2.5 4.2 6.1 4.2 9.8 0 1.5-.3 3-.8 4.5.8.2 1.9.9 1.9 2.2zm-25-1.2l6.5 1c1.3.2 2.2 1 2.6 2.2.1.4.2.8.2 1.3v.4c0 .3 0 .6.1.8l.1.4h2.1c.2 0 .3 0 .5-.1h.2c.2 0 .3-.1.5-.1h.3c.2 0 .4-.1.6-.1H36.2c.1 0 .3-.1.4-.1.1 0 .2-.1.3-.1.2-.1.4-.2.6-.2 0 0 .1 0 .1-.1h.1c.2-.1.3-.2.5-.2 0 0 .1 0 .1-.1h.1c.1 0 .1-.1.2-.1.2-.1.3-.2.5-.3l.1-.1c.2-.1.3-.2.5-.3l.1-.1c.2-.1.4-.3.6-.4.2-.2.4-.3.6-.5h.1l.5-.5.1-.1c.3-.4.7-.8 1-1.2v-.1s0-.1.1-.1c.1-.2.2-.3.3-.5.2-.2.3-.5.4-.7l.5-1.1c.6-1.4.9-3 .9-4.5 0-3.3-1.3-6.4-3.8-8.7-2.4-2.3-5.6-3.4-8.9-3.2-5.9.4-10.7 5.1-11.1 11-.5 2.2 0 4.5 1.1 6.5zm23.4 1.2c0-.4-.4-.7-.9-1l-.2.4v.1c-.1.3-.3.5-.4.7-.1.2-.2.4-.4.6l-.1.1c-1 1.5-2.3 2.7-3.8 3.6 0 0-.1 0-.1.1l-.6.3-.1.1c-.2.1-.4.2-.5.3-.1 0-.1.1-.2.1h-.1c-.2.1-.3.1-.5.2-.1 0-.2.1-.3.1h-.1c-.1 0-.3.1-.4.1-.1 0-.2.1-.3.1h-.1c-.1 0-.2.1-.3.1-.1 0-.3.1-.4.1l-.2.1c-.1 0-.2 0-.3.1-.2 0-.3.1-.5.1s-.3 0-.5.1H32c-.3 0-.5 0-.8-.1h-.1c-.1 0-.2 0-.2-.1h-.1l-.1-.1-.1-.1-.1-.1V31s0-.1-.1-.1L30 30v-.1c-.1-.3-.1-.6-.1-.9v-.5c0-1.7-1.1-1.9-1.5-2l-6.8-1.1-1.1-.2c-3.8-.6-7.6 0-11.1 1.7L7 28.2v10.5h21.6c1.1 0 2.2-.4 3.2-1l9.3-6.7c.4-.3.9-.7 1.4-1.1.2-.2.3-.3.5-.4.5-.5 1-.9 1.4-1.4.8-1.1 1.2-2.1 1.2-3zM2 27.7h1.1c.4 0 .8-.3.8-.8 0-.4-.3-.8-.8-.8H2v1.6zm1.9 7.6c0-.4-.3-.8-.8-.8H2V36h1.1c.4.1.8-.3.8-.7zm0-4.2c0-.4-.3-.8-.8-.8H2v1.5h1.1c.4.1.8-.2.8-.7zm0 8.4c0-.4-.3-.8-.8-.8H2v1.5h1.1c.4 0 .8-.3.8-.7zm28-15.5v-5.1c-2-.3-3.6-2-3.6-4s1.5-3.7 3.6-4v-.6c0-.4.3-.8.8-.8.4 0 .8.3.8.8v.6c2 .3 3.6 2 3.6 4 0 .4-.3.8-.8.8-.4 0-.8-.3-.8-.8 0-1.2-.9-2.1-2-2.4v5.1c2 .3 3.6 2 3.6 4s-1.5 3.7-3.6 4v.6c0 .4-.3.8-.8.8-.4 0-.8-.3-.8-.8v-.6c-2-.3-3.6-2-3.6-4 0-.4.3-.8.8-.8.4 0 .8.3.8.8-.1 1.1.8 2.1 2 2.4zm1.5-4.9V24c1.2-.3 2-1.3 2-2.4s-.8-2.2-2-2.5zm-1.5-1.8v-4.9c-1.2.3-2 1.3-2 2.4-.1 1.3.8 2.2 2 2.5zm-8.3 5.1c.1 0 .2 0 .3-.1.4-.2.6-.6.4-1-.4-1-.6-2.1-.6-3.2 0-3 1.5-5.7 4-7.4.4-.2.5-.7.2-1.1-.2-.4-.7-.5-1.1-.2-2.9 1.9-4.7 5.2-4.7 8.7 0 1.3.2 2.5.7 3.7.2.4.5.6.8.6zm13.9 3.2c-.4.2-.5.7-.2 1.1.1.2.4.3.6.3.1 0 .3 0 .4-.1 2.9-1.9 4.7-5.2 4.7-8.7 0-3.5-1.7-6.7-4.7-8.7-.4-.2-.8-.1-1.1.2-.2.4-.1.8.2 1.1 2.5 1.6 4 4.4 4 7.4.1 3-1.4 5.8-3.9 7.4zM1.3 34.5H2v-2.6h-.7c-.4 0-.8-.3-.8-.8v4.2c0-.4.3-.8.8-.8zm0 4.2H2v-2.6h-.7c-.4 0-.8-.3-.8-.8v4.2c0-.5.3-.8.8-.8zM20 35.5H9.5c-.4 0-.8.3-.8.8 0 .4.3.8.8.8H20c.4 0 .8-.3.8-.8-.1-.4-.4-.8-.8-.8zm1.8-4.7c0 .4.3.8.8.8H30.8c-.1 0-.2 0-.2-.1h-.1l-.1-.1-.1-.1-.1-.1v-.1-.1l-.2-1h-7.4c-.4 0-.8.4-.8.8z" fill="url(#a)"/>
</svg>