<svg version="1.1" id="Layer_1" xmlns="http://www.w3.org/2000/svg" xmlns:xlink="http://www.w3.org/1999/xlink" x="0" y="0" viewBox="0 0 450 300" xml:space="preserve">
  <style>
    .st0{fill:#f1eef7}.st1{fill:#f59f17}.st2{fill:#ffd549}.st4{fill:#28264a}.st6{fill:#ffc6bb}.st7{fill:#9696c9}.st9{fill:#110239}.st13{fill:#fff}.st14{fill:#ffce52}.st15{fill:#f18e2a}.st16{fill:#25356c}.st17{fill:#faba48}
  </style>
  <path class="st0" d="M73.4 206.3s16-22.8-21.7-37c-37.8-14.1-41-42.5-31.3-55.2 25.8-33.8 68.4 10.6 102.3-1.8 33.9-12.4 57.9-53 109.7-38.1 51.8 14.9 71.1 65.4 106.1 61.1 35-4.3 85.5-28.5 105.1 25.7 19.6 54.2-97.1 46.6-135.2 87.8-38.1 41.3-95.3-35.3-150.4-35.6-55.1-.3-77.3 7.8-84.6-6.9zM31.7 40.2c-1 13.9 13 40.1 58.5 26.6s52.6 15.4 74.3 2.6c21.7-12.8 18.7-39.1-20.1-33.2-28 4.3-39.1-25.2-69.6-26-22.5-.6-41.8 10.3-43.1 30z"/>
  <path class="st1" d="M307.3 282.5c-1.5.1-3.4.1-5.5.1-19.8-.2-63.4-3.9-63.4-3.9-3.1-.8-1.6-1.6-1.6-1.6s19.3 0 41.6-2.1c22.4-2.1 9.6-32.5 9.6-32.5l-.3-2.5H333l5.7 26.5c2.9 18.2-16.2 15.2-31.4 16z"/>
  <path class="st2" d="M304.3 282.5c-.8 0-1.7.1-2.6.1-19.8-.2-63.4-3.9-63.4-3.9-3.1-.8-1.6-1.6-1.6-1.6s19.3 0 41.6-2.1c22.4-2.1 9.6-32.5 9.6-32.5l-.3-2.5H330l5.7 26.5c3 18.2-16.1 15.2-31.4 16z"/>
  <path d="M400.9 63.3l4-7.6 3 1.3s4.2 5.5 3.4 11.7l-21.3 163s-.7 19.1-10.1 18.9l21-187.3z" fill="#8ba2fc"/>
  <path class="st4" d="M406.3 60.2l-18.1 165.1-192.8 5.9 19.3-121.4c.8-5 5.6-5.7 5.6-5.7L401 54.5c5.6-1 5.3 5.7 5.3 5.7z"/>
  <defs>
    <path id="SVGID_1_" d="M219 111.9l-17.1 107.9s-1.9 4.4 4.7 4.4l168.2-7.4s5.6.8 7-8L400.6 66s.3-5.3-5-4.5l-171.2 45.9s-4.7.6-5.4 4.5z"/>
  </defs>
  <clipPath id="SVGID_2_">
    <use xlink:href="#SVGID_1_" overflow="visible"/>
  </clipPath>
  <g clip-path="url(#SVGID_2_)">
    <path class="st0" d="M163.5 244.1l268.7 1.1c6.7 0 13.1-6 14.4-13.5L476 61.2c1-5.8-2.4-10.5-7.5-10.5l-274.2-1.1c-5.2 0-10.1 4.6-11.1 10.4l-29.3 170.6c-1.4 7.4 3 13.5 9.6 13.5z"/>
  </g>
  <path class="st1" d="M388.1 225.3l-1.7 15.1c-1.5 11-7.4 10.1-7.4 10.1H204c-13.5-.4-10.5-7.8-10.5-7.8l1.8-11.5 192.8-5.9z"/>
  <path class="st6" d="M276.8 101.7s6.8-3.7 10.4-.8c3.6 2.9 6.6 15.5 2.3 23.1-4.2 7.6-15 32.1-55.5 42.4l-2.4-9.6s18.7-7.5 26.5-23.6c7.7-16.1 15.9-25.6 15.9-25.6s.3-6 2.8-5.9z"/>
  <path class="st6" d="M232.8 158l-.2-.2c-1-1-2.3-1.8-3.7-2.2-1.7-.5-3.9-1.1-5.3-1.2-2.4-.2-5.7.4-4.7 1.2 1 .7 3.2 1.8 3 2.8-.2.9-10.3 6.9-13.1 7.6-1.4.4-1.2 1.2-.6 2 .7.9 1.8 1.5 2.9 1.6 3.1.2 10.7.6 15.6-.6 6.3-1.6 7.6-2.9 7.6-2.9l-1.5-8.1zM242.1 76.1s2.3 5.4 1.9 7.4c-.4 2-2.3 4.6-.5 4.9 1.7.3 2 8.4 4.6 9.4 2.5 1 17.6-3.6 17.6-3.6l3 8.9s8-1 7.7-2c-.2-1-2.2-8.8-2.2-8.8l1.3-16s.2-6.8-9.9-6.3c-10.3.6-23.5 6.1-23.5 6.1z"/>
  <path class="st4" d="M323.5 219l-62.5 3c.2-5.7 1.7-17.5 2.1-19 3.5-12.2 50.3-15.7 50.3-15.7s4.7 15.7 10.1 31.7z"/>
  <path class="st7" d="M179.7 180.1l44.4-11-15.7-63.3c-.3-1.3-1.6-2.1-2.9-1.7l-39.7 9.8c-1.3.3-2.1 1.6-1.8 2.9l15.7 63.3z"/>
  <path d="M256.8 204.3c4.2 7.4 29.4 4.5 46.2-2 4.6-1.8 8.5-3.8 11.2-6 2.5-2 4-4 4-6.1.3-12.9-17.8-89.7-28.6-88.3-10.8 1.3-21.3 3.3-21.3 3.3s-4 19.5-7.5 41.4c-1.1 7-2.2 14.1-3.1 21-2.2 17.2-3.3 32.4-.9 36.7z" fill="#e6e7e8"/>
  <path class="st9" d="M259.3 75.2s-18.2 6.1-20.9 1.7c-2.7-4.4-6.7-14.1-4-16 2.7-1.9 3.1 3.4 3.1 3.4s3.8-4.4 10-6c6.2-1.6 27.5-8 35.3 7.9 7.8 15.9-8.4 28-8.4 28s-3.8-4.2-2.3-7.6c1.5-3.4.3-14.2-3.8-11.7-4.1 2.6-1.9 8.5-3.7 7-2-1.4-5.3-6.7-5.3-6.7z"/>
  <path class="st7" d="M282.7 66.3l-44.1-3.1-22.2-1.6s-1.5-.9 3.8-1c5.4-.1 17.9-.9 17.9-.9s8.6-19.3 27.5-16.6c18.8 2.7 17.1 23.2 17.1 23.2zM278.6 96.8l-15.5 3.9s4.5 5 4.8 6.2c.3 1.2 12.4-6 12.4-6s1-4.2-1.7-4.1zM272.9 179.6s9.4 18.6 18.1 19l-4.2 2.8s-14.8-14.9-16.9-21l3-.8z"/>
  <path d="M257.7 167.5c.9-6.9 2-14 3.1-21 2.4-2.5 4.3-5.2 5.8-8.1 5.3-10.6 7.3-17.9 8.2-22.1-1.4-.9-2.4-1.6-2.3-2.4.1-1.1 1.7-3.2 3.4-5.2.4-1.7 1.3-3.6 2.8-3.6 0 0 .3-.2.9-.4l.9-.9s10-9.9 15.6 4.2c9.4 24-10.3 42.9-10.3 42.9l-1.4-6.3c-5.5 7.3-13.8 15.7-26.7 22.9z" opacity=".25" fill="#a4b7fc"/>
  <path class="st7" d="M303 202.3c4.6-1.8 8.5-3.8 11.2-6 3.3-17.1-20.5-76.6-20.5-76.6s-15.5-2.1-5.3 6.2c9.4 7.8 13.9 66.6 14.6 76.4z"/>
  <path d="M270.4 89.6s-1.8 3.5-4.8 4.7l1.8 5.4c.1 0 3.5-5.1 3-10.1z" fill="#ce8484"/>
  <path class="st6" d="M260.9 144.4l1.2-5.4s-25.7 23.6-41.1 23.5c-15.4-.1 2.1 4.9 2.1 4.9s32.1-11.3 37.8-23z"/>
  <path class="st6" d="M277.3 102s7.9-4.3 12.1-1c4.2 3.3 7.5 17.6 2.6 26.2-5 8.6-17.7 36.6-64.7 48.5l-2.8-10.9s31.7-11.2 40.8-29.5c9.1-18.3 8.7-26.7 8.7-26.7s.4-6.6 3.3-6.6z"/>
  <path class="st6" d="M225.9 166.3l-.2-.2c-1.2-1.1-2.7-2-4.3-2.4-1.9-.5-4.5-1.2-6.1-1.3-2.8-.2-6.6.5-5.5 1.4 1.1.9 3.6 2.1 3.4 3.1-.2 1.1-12 7.9-15.2 8.7-1.6.4-1.4 1.4-.7 2.2.8 1.1 2.1 1.7 3.4 1.8 3.7.3 12.4.7 18.1-.8 7.3-1.8 8.9-3.4 8.9-3.4l-1.8-9.1z"/>
  <path class="st7" d="M266.4 127.3l19.4 15.2s16-20.4 10.3-34.5c-5.7-14.1-16.8-9.1-16.8-9.1s-7.7 7.5-8 10.1c-.3 2.6-1.7 12.8-4.9 18.3z"/>
  <g>
    <path class="st6" d="M90 268.7s-.2 4.8.5 5.4c.7.6 2.5 1.6 2.5 1.6s-9 4.6-10.8 2.2c-1.8-2.4-1.2-8.4-1.2-8.4s7.4-2.4 9-.8z"/>
    <path class="st4" d="M104.2 279.5s6.1.3 6.4 3.1c.3 2.7 0 1.6 0 1.6H80.2s-1 0-.9-2.2l.4-7.2s.9-.6 2.6.9c1.6 1.5 5.5 2.4 9.6-2 0 0 .6-.5 3.2 1.6 2.5 2.1 1.9 4.2 9.1 4.2zM105.5 157.2s2.3 4.6 2 9.2c-.3 4.6-6.6 103.5-6.6 103.5s-19.2-.9-22.6 1.9c-3.4 2.8 1.3-52-2.2-74.8-3.4-22.9-9.4-21.3-6.6-37.6 2.8-16.3 36-2.2 36-2.2z"/>
    <path class="st6" d="M83.7 71.4l1 12.1 9.7 2.5 2.5-7.2.3-.9c.8.3 2.2.7 4.4 1.3 6.1 1.7 7.4-1.9 7.6-4.3.1-1 0-1.8 0-1.8s-.9-2.1.5-1.8c1.5.2 1.2-.8.8-2.5-.3-1.7.1-4.9.5-9 .4-4.2-2.7-7.4-2.7-7.4-7.8-6-11 .9-21 2.7-10 1.6-3.6 16.3-3.6 16.3z"/>
    <path class="st9" d="M99.5 63.3s-1.8-4.7-4.5-4.1c-2.7.6-4.3 6-5.8 8s-4.5 4.5-6.2 4.5c-1.7 0-3.3-6.6-2.7-11.4.6-4.8-2.4-22.5 28.3-15.1 0 0 .8.1 1.9-1.8 1.1-1.9.2 3.1.2 3.1s2.6-1.5 2.2-3.9c0 0 3.8 4.8 1.5 7.5 0 0 2.9.2 2.6-4 0 0 2.3 12.3-6.4 11.8 0 0-1.4-3.2-4.5-3.2s-5.2 8.5-6.6 8.6z"/>
    <path class="st6" d="M95.8 77.5s.3.5 1.1 1.2l.3-.9c.8.3 2.2.7 4.4 1.3 6.1 1.7 7.4-1.9 7.6-4.3-.4-.3-.9-.7-1.6-1.1-4.3-2.3-8.9-4.7-8.9-7.4.1-2.7-2.9 11.2-2.9 11.2zM122.7 164.7c-.6-.4-1.2-.9-1.8-1.4-.5-.4-1.1-.9-1.7-1.4 0 0-.1-.7-3.5-4.6-3.4-3.9-9.9-4.2-9.9-4.2s-1.4-4 1.3-6.9l11.4 6.7s1.5.1 3.4.6c1.7.4 3.9 1.2 5.7 2.4 3.9 2.7 1.3 2.6 1.3 2.6l-5.4-2s-1.5 2.4 4.1 6.2c.1.1.2.1.3.2-2 1.6-3.6 2.4-5.2 1.8z"/>
    <path class="st1" d="M99.9 100.1s2.4-6.8-3.1-11-12.2.3-12.2.3-6.5 34.9-6.8 35.3c-.3.4-3.9 7.9 7.8 18.3 11.7 10.5 24.5 13.3 24.5 13.3s4.8-1.7 5.2-6.7c.4-5-16.3-15.4-16.3-15.4s-7-3.6-2.8-9.6c4.1-5.9 3.7-24.5 3.7-24.5z"/>
    <path class="st6" d="M117.3 133.5l13.2-1.6s4.4-2.9 9.1-3.1c4.7-.2 2.6 1.3 2.6 1.3l-5.5 1.7s.2 2.8 7 2.5c6.8-.3 8.5 1.1 6.1 2-2.4.8-.5 3-13.3 2.5 0 0-.5-.5-5.5-1.6-5-1-10.4 2.6-10.4 2.6s-3.7-2.3-3.3-6.3z"/>
    <path class="st2" d="M84.5 80.7c4.3-.3 12.3 2.3 13.3 3.7 1.6 2.4 8.8 15.9 9.4 33.4.6 17.5 0 41.5 0 41.5s-34.4-4.2-38.2 4.5c-3.8 8.8 0-24.1 0-24.1s-.3-26.8-.6-35.1 5.7-13.2 9.2-18c1.1-1.4 2.4-5.6 6.9-5.9z"/>
    <path class="st1" d="M93.1 103.3s-2.2-6.9-9.1-6.9c-6.9 0-9.6 7.7-9.6 7.7s3.8 31.3 3.8 31.8 1.9 9.7 17.5 11c15.6 1.3 31.5 1.1 31.5 1.1s-1.4-10.6-4.1-14.9c-2.7-4.2-22.3-2.3-22.3-2.3s-7.8 1.4-8.1-6c-.2-7.4.4-21.5.4-21.5z"/>
    <path class="st6" d="M122.7 164.7c-.6-.2-1.2-.7-1.8-1.4-2.8-3.1.1-9.2.1-9.2s.4-.3 1-.6c1-.5 2.7-1 4.1-.1 2.3 1.4 7.6 4.8 3.7 8-.6.5-1.3 1.1-1.8 1.5-2.1 1.6-3.7 2.4-5.3 1.8z"/>
    <path fill="#161f29" d="M98.1 166.2l-5.6 9.6 2.8.7 5.6-10.3z"/>
  </g>
  <g>
    <path class="st1" d="M131.9 122.3c0 4-3.3 7.3-7.3 7.3s-7.3-3.3-7.3-7.3 3.3-7.3 7.3-7.3 7.3 3.3 7.3 7.3z"/>
    <path class="st1" d="M130.5 122.3c0 3.3-2.7 5.9-5.9 5.9-3.3 0-5.9-2.7-5.9-5.9 0-3.3 2.7-5.9 5.9-5.9 3.3 0 5.9 2.6 5.9 5.9z"/>
    <path class="st13" d="M124.6 128.6c-3.5 0-6.3-2.8-6.3-6.3s2.8-6.3 6.3-6.3 6.3 2.8 6.3 6.3-2.8 6.3-6.3 6.3zm0-11.9c-3.1 0-5.6 2.5-5.6 5.6 0 3.1 2.5 5.6 5.6 5.6 3.1 0 5.6-2.5 5.6-5.6 0-3.1-2.5-5.6-5.6-5.6z"/>
    <g>
      <path class="st13" d="M124.1 125.7v-.8c-.6 0-1.1-.2-1.4-.4l.3-1c.4.2.9.4 1.4.4.5 0 .8-.2.8-.5s-.3-.5-.9-.7c-.9-.3-1.5-.7-1.5-1.5 0-.7.5-1.3 1.4-1.5v-.8h.8v.7c.6 0 .9.1 1.2.3l-.2 1c-.2-.1-.6-.3-1.2-.3-.5 0-.7.2-.7.5s.3.5 1 .7c1 .4 1.4.8 1.4 1.6 0 .7-.5 1.4-1.5 1.6v.9h-.9z"/>
    </g>
  </g>
  <g>
    <path class="st1" d="M154.2 124.1c0 4.8-3.9 8.6-8.6 8.6-4.8 0-8.6-3.9-8.6-8.6 0-4.8 3.9-8.6 8.6-8.6 4.8 0 8.6 3.9 8.6 8.6z"/>
    <path class="st1" d="M152.7 124.1c0 3.9-3.2 7.1-7.1 7.1-3.9 0-7.1-3.2-7.1-7.1 0-3.9 3.2-7.1 7.1-7.1 3.9.1 7.1 3.2 7.1 7.1z"/>
    <path class="st13" d="M145.6 131.6c-4.1 0-7.5-3.4-7.5-7.5s3.4-7.5 7.5-7.5 7.5 3.4 7.5 7.5c0 4.2-3.4 7.5-7.5 7.5zm0-14.1c-3.7 0-6.7 3-6.7 6.7s3 6.7 6.7 6.7 6.7-3 6.7-6.7c0-3.8-3-6.7-6.7-6.7z"/>
    <g>
      <path class="st13" d="M145.1 128.2v-1c-.7 0-1.3-.2-1.7-.4l.3-1.2c.4.2 1 .4 1.7.4.6 0 1-.2 1-.6 0-.4-.3-.6-1.1-.9-1.1-.4-1.8-.9-1.8-1.8s.6-1.6 1.7-1.8v-1h1v.9c.7 0 1.1.2 1.5.3l-.3 1.1c-.3-.1-.7-.3-1.4-.3s-.9.3-.9.6.4.5 1.2.9c1.2.4 1.7 1 1.7 1.9 0 .9-.6 1.7-1.8 1.9v1h-1.1z"/>
    </g>
  </g>
  <g>
    <path class="st14" d="M361.9 26.9c-14.6-14.6-38.4-14.6-53 0-12 12-14.2 30.1-6.5 44.3l-2.3 6.5-6 17 17-6 6.5-2.3c14.2 7.7 32.3 5.5 44.3-6.5 14.6-14.6 14.6-38.3 0-53z"/>
    <path class="st14" d="M321.1 52.6c0 2.8-2.3 5.1-5.1 5.1s-5.1-2.3-5.1-5.1 2.3-5.1 5.1-5.1 5.1 2.3 5.1 5.1zM341 52.6c0 2.8-2.3 5.1-5.1 5.1s-5.1-2.3-5.1-5.1 2.3-5.1 5.1-5.1 5.1 2.3 5.1 5.1zM360.9 52.6c0 2.8-2.3 5.1-5.1 5.1s-5.1-2.3-5.1-5.1 2.3-5.1 5.1-5.1 5.1 2.3 5.1 5.1z"/>
  </g>
  <g>
    <path class="st7" d="M128.9 270.4s-1.3 25.2 25.2 25.2c26.6 0 24.3-25.2 24.3-25.2l-2.1-5-47.4 5z"/>
    <path class="st15" d="M127.4 261.3h52.4c2.1 0 3.8 1.7 3.8 3.8v1.4c0 2.1-1.7 3.8-3.8 3.8h-52.4c-2.1 0-3.8-1.7-3.8-3.8v-1.4c0-2.1 1.7-3.8 3.8-3.8zM125.6 233l35.7-4.5s1.3-12.2-5-13.7c-6.4-1.5-8.6-8.9-3.5-14s-2.2-14.8-10-14.5c-7.8.2.9-26.3-8.1-26.9-9-.6-.2 29.1-6.3 28.2-6.1-.9-18.1 3.2-11.1 12 7 8.8 13.8 8 9.8 14.3-4.2 6.4-6.4 7.1-1.5 19.1z"/>
    <path class="st16" d="M147.3 264.1l-7-49.5-2.1-25.2 10.5 74.5z"/>
    <path class="st17" d="M144.9 209.3l9 16.1s9.7-2.7 7.7-12.8 8-10.2 12.3-5.9c4.3 4.3 10.9.2 8.5-6.2-2.3-6.4 2.8-12 2.8-12l-40.3 20.8z"/>
    <path class="st16" d="M151 264.1l-6.1-54.8 25.2-13.1.6 1.3-24.3 12.6 6 53.8z"/>
    <path class="st17" d="M142.5 253.8s-9.6 4.2-10.8-3.7c-1.2-7.9-8.3 3-14 1.2-5.7-1.8-5.5-12.1-5.5-12.1l27.6 3.4 2.7 11.2z"/>
    <path class="st16" d="M145 264.2l-6.3-20.2-21.1-2.6.2-1.5 22 2.8 6.5 21.1z"/>
    <path class="st15" d="M158 245.5s11.5 5.9 13.6-2c2.1-7.8 4.5-9.3 7.7-5.9 3.2 3.4 8.9-6.2 7.4-12.3l-26.6 7.3-2.1 12.9z"/>
    <path class="st16" d="M156.3 264.1l-1.4-.2 4.5-31.8 24-5.8.4 1.3-23.1 5.6z"/>
  </g>
</svg>