<svg xmlns="http://www.w3.org/2000/svg" viewBox="0 0 48 48">
  <linearGradient id="a" gradientUnits="userSpaceOnUse" x1="47.5928" y1="23.421" x2=".9054" y2="23.421">
    <stop offset="0" stop-color="#7475d4"/>
    <stop offset="1" stop-color="#303096"/>
  </linearGradient>
  <path d="M24.2 11c1.5 0 2.7-1.2 2.7-2.7 0-1.5-1.2-2.7-2.7-2.7-1.5 0-2.7 1.2-2.7 2.7.1 1.5 1.3 2.7 2.7 2.7zm0-3.8c.6 0 1.1.5 1.1 1.1 0 .6-.5 1.1-1.1 1.1-.6 0-1.1-.5-1.1-1.1 0-.6.5-1.1 1.1-1.1zm7.2 4.9c.2-.4.6-.5 1-.4.2.1 6.1 3 7.1 8.3.1.4-.2.8-.6.9h-.1c-.4 0-.7-.3-.8-.6-.8-4.6-6.2-7.2-6.2-7.2-.5-.1-.6-.6-.4-1zm-7.2-.5c.4 0 .8.3.8.8v2.9c0 .4-.3.8-.8.8-.4 0-.8-.3-.8-.8v-2.9c.1-.4.4-.8.8-.8zm4.3 16.7h-1.7v-.5c.7-.5 1.3-1.2 1.8-2.2.7-1.3 1.1-2.9 1.1-4.5v-1.3c0-1.2-2.7-2.9-5.4-2.9s-4.8 1.7-5.2 2.3c-.1.1-.1.3-.1.4v1.5c0 1.6.4 3.2 1.1 4.5.5.9 1.1 1.7 1.8 2.2v.5h-2.3c-3.4 0-6.1 2.7-6.1 6.1v6c0 .4.3.8.8.8h4.2c-.4 0-.8-.3-.8-.8v-.8h-2.6v-5.3c0-2.5 2.1-4.6 4.6-4.6H22v.3c0 1.1 1.1 1.9 2.5 1.9S27 31.1 27 30v-.2h1.7c2.5 0 4.6 2.1 4.6 4.6v5.3h-2.6v-3.9c0-.4-.3-.8-.8-.8s-.8.3-.8.8v3.9h-9.9v.8c0 .4-.3.8-.8.8H34c.4 0 .8-.3.8-.8v-6c-.2-3.5-2.9-6.2-6.3-6.2zm-8.1-7.2v-1.2c.4-.4 1.9-1.5 3.8-1.5 2 0 3.5 1.1 3.8 1.4V21c0 1.4-.3 2.7-.9 3.8-.6 1.1-1.3 1.8-2 2H25c-.3.1-.5.1-.8.1-.3 0-.5 0-.8-.1-.1 0-.2-.1-.3-.1-.7-.3-1.3-.9-1.9-2-.4-.9-.8-2.2-.8-3.6zm3.8 9.2c-.6 0-.9-.3-1-.3v-1.5c.3.1.5.1.8.1h.1c.3 0 .6 0 .8-.1h.1v1.4c.2.2-.2.4-.8.4zM9 20.1c.9-5.4 6.8-8.2 7.1-8.3.4-.2.8 0 1 .4.2.4 0 .8-.4 1-.1 0-5.4 2.6-6.2 7.2-.1.4-.4.6-.8.6h-.1c-.4-.1-.6-.5-.6-.9zM5.9 32.2h1.2V32.5c0 .1 0 .1.1.2v.1c0 .1.1.1.1.2 0 0 0 .1.1.1 0 .1.1.1.2.2l.1.1c.1 0 .1.1.2.1 0 0 .1 0 .1.1.1 0 .2.1.2.1s.1 0 .1.1c.1 0 .2 0 .3.1h1c.1 0 .2 0 .3-.1h.1c.1 0 .2-.1.2-.1s.1 0 .1-.1c.1 0 .2-.1.2-.1l.1-.1.2-.2s0-.1.1-.1c0-.1.1-.1.1-.2v-.1c0-.1.1-.1.1-.2v-.1-.2H13c.4 0 .8-.3.8-.8 0-.4-.3-.8-.8-.8h-1.6v-.2c.5-.4 1-.9 1.4-1.7.6-1.1.9-2.3.9-3.6V24c0-.1 0-.3-.1-.4-.4-.7-2.2-1.9-4.3-1.9-2.1 0-4.4 1.3-4.4 2.4v1c0 1.3.3 2.6.9 3.6.4.8.9 1.4 1.4 1.7v.2H5.9c-2.8 0-5 2.2-5 5v4.8c0 .4.3.8.8.8h10.2c.4 0 .8-.3.8-.8s-.3-.8-.8-.8H5.7v-2.9c0-.4-.3-.7-.7-.7-.4 0-.8.3-.8.8v2.9H2.4v-4c0-1.9 1.6-3.5 3.5-3.5zm2.8-.1V31.2H9.9V32.1c-.1.1-.3.2-.6.2-.4 0-.6-.1-.6-.2zm-2.3-6.9v-.9c.3-.3 1.4-1 2.9-1 1.3 0 2.5.7 2.8 1.1v.9c0 1.1-.2 2.1-.7 2.9-.4.8-.9 1.3-1.5 1.5h-.1c-.2.1-.4.1-.6.1-.2 0-.4 0-.6-.1-.1 0-.1 0-.1-.1-.5-.2-1-.7-1.4-1.5-.4-.9-.7-1.9-.7-2.9zm12.7 14.5h-1.5v-3.9c0-.4.3-.8.8-.8.4 0 .8.3.8.8v3.9zm23.5-9h-1.2v-.2c.5-.4 1-.9 1.4-1.7.6-1.1.9-2.3.9-3.6v-1c0-1.1-2.3-2.4-4.4-2.4-2 0-3.8 1.2-4.2 1.9-.1.1-.1.3-.1.4v1.2c0 1.3.3 2.6.9 3.6.4.8.9 1.4 1.4 1.7v.2h-1.6c-.4 0-.8.3-.8.8 0 .4.3.8.8.8h1.6V32.7c0 .1 0 .1.1.2 0 0 0 .1.1.1 0 .1.1.1.1.2 0 0 0 .1.1.1 0 .1.1.1.2.2l.1.1c.1 0 .1.1.2.1 0 0 .1 0 .1.1.1 0 .2.1.2.1s.1 0 .1.1c.1 0 .2 0 .3.1h1c.1 0 .2 0 .3-.1 0 0 .1 0 .1-.1.1 0 .2-.1.2-.1s.1 0 .1-.1c.1 0 .1-.1.2-.1l.1-.1.2-.2s0-.1.1-.1c0-.1.1-.1.1-.2v-.1c0-.1.1-.1.1-.2v-.1-.2h1.2c1.9 0 3.5 1.5 3.5 3.5v4h-1.7V37c0-.4-.3-.8-.8-.8-.4 0-.8.3-.8.8v2.9h-6.1c-.4 0-.8.3-.8.8s.3.8.8.8h10.2c.4 0 .8-.3.8-.8v-4.8c-.1-3-2.3-5.2-5.1-5.2zm-6.2-5.5v-.9c.4-.3 1.5-1.1 2.8-1.1 1.4 0 2.6.7 2.9 1v.9c0 1.1-.2 2.1-.7 2.9-.4.8-.9 1.3-1.5 1.5 0 0-.1 0-.1.1-.2.1-.4.1-.6.1-.2 0-.4 0-.6-.1-.1 0-.1-.1-.2-.1-.5-.2-1-.7-1.4-1.5-.4-.8-.6-1.8-.6-2.8zm2.2 6.9V31.2h1.3V32.1c-.1.1-.3.2-.6.2-.4 0-.6-.1-.7-.2z" fill="url(#a)"/>
</svg>