<svg xmlns="http://www.w3.org/2000/svg" viewBox="0 0 48 48">
  <linearGradient id="a" gradientUnits="userSpaceOnUse" x1="45.2294" y1="24.2065" x2="2.6841" y2="24.2065">
    <stop offset="0" stop-color="#7475d4"/>
    <stop offset="1" stop-color="#303096"/>
  </linearGradient>
  <path d="M44.5 17.2h-5.2v-.9c0-2.6-2.1-4.6-4.6-4.6-2.6 0-4.6 2.1-4.6 4.6v.9h-2.8v-7c0-.4-.3-.8-.8-.8H21v-.8c0-2.6-2.1-4.8-4.8-4.8-2.6 0-4.8 2.1-4.8 4.8v.9H6.1c-.4 0-.8.3-.8.8v25.5c0 .4.3.8.8.8h17.3v3.7c0 .4.3.8.8.8h20.3c.4 0 .8-.3.8-.8V18c-.1-.4-.4-.8-.8-.8zm-13-.9c0-1.7 1.4-3.1 3.1-3.1 1.7 0 3.1 1.4 3.1 3.1v.9h-6.2v-.9zM13 8.6c0-1.8 1.4-3.2 3.2-3.2 1.8 0 3.2 1.4 3.2 3.2v.9H13v-.9zM6.9 11h4.6v1.3c-.3.2-.4.5-.4.9 0 .7.5 1.2 1.2 1.2s1.2-.5 1.2-1.2c0-.4-.2-.7-.4-.9V11h6.4v1.3c-.3.2-.4.5-.4.9 0 .7.5 1.2 1.2 1.2s1.2-.5 1.2-1.2c0-.4-.2-.7-.4-.9V11h4.6v24H6.9V11zm36.8 28.5H24.9v-2.9h1.5c.4 0 .8-.3.8-.8v-17H30v.6c-.2.2-.4.5-.4.9 0 .6.5 1.2 1.2 1.2.6 0 1.2-.5 1.2-1.2 0-.3-.2-.6-.4-.9v-.6h6.2v.6c-.2.2-.4.5-.4.9 0 .6.5 1.2 1.2 1.2.6 0 1.2-.5 1.2-1.2 0-.3-.2-.6-.4-.9v-.6h4.4v20.7zm-25.1-7.2c0 .4-.3.8-.8.8H9.6c-.4 0-.8-.3-.8-.8V19.8c0-.4.3-.8.8-.8.4 0 .8.3.8.8v11.7h7.5c.4 0 .7.3.7.8zm17.5 4h4.1v-5c0-.4.3-.8.8-.8.4 0 .8.3.8.8V37c0 .4-.3.8-.8.8h-4.9c-.4 0-.8-.3-.8-.8.1-.4.4-.7.8-.7zm-.6-27.7c-.1.3 0 .7.3.9.1.1.3.1.5.1s.3 0 .5-.1c1.1-.8 2.6-.8 3.7 0 .3.2.6.2.9 0 .3-.2.4-.5.3-.9-.4-1.3 0-2.7 1.1-3.5.3-.2.4-.5.3-.9-.1-.3-.4-.5-.7-.5-1.4 0-2.6-.9-3-2.2-.3-.2-.6-.5-.9-.5-.3 0-.6.2-.7.5-.4 1.3-1.6 2.2-3 2.2-.3 0-.6.2-.7.5-.1.3 0 .7.3.9 1 .8 1.5 2.2 1.1 3.5zm3-5.2c.5.8 1.3 1.3 2.1 1.6-.5.7-.8 1.6-.8 2.5-.9-.3-1.8-.3-2.7 0 0-.9-.3-1.8-.8-2.5.9-.3 1.6-.8 2.2-1.6zM11.6 41h-.7c-1.1 0-2.1-.7-2.4-1.8l-.2-.7c-.1-.3-.4-.5-.7-.5-.3 0-.6.2-.7.5l-.2.7c-.3 1-1.3 1.7-2.4 1.7h-.8c-.3 0-.6.2-.7.5-.1.3 0 .7.3.9l.6.4c.9.6 1.3 1.8.9 2.8l-.2.7c-.1.3 0 .7.3.9.3.2.6.2.9 0l.6-.4c.9-.6 2.1-.6 3 0l.6.4c.1.1.3.1.5.1s.3 0 .5-.1c.3-.2.4-.5.3-.9l-.2-.7c-.3-1 0-2.2.9-2.8l.6-.4c.3-.2.4-.5.3-.9-.4-.2-.7-.4-1.1-.4zm-2.7 4c-.9-.3-1.9-.3-2.8 0 0-.9-.3-1.9-.8-2.6.9-.3 1.7-.8 2.2-1.6.5.8 1.3 1.4 2.2 1.6-.5.7-.8 1.7-.8 2.6z" fill="url(#a)"/>
</svg>