<?xml version="1.0" encoding="utf-8"?>
<!-- Generator: Adobe Illustrator 23.0.1, SVG Export Plug-In . SVG Version: 6.00 Build 0)  -->
<svg version="1.1" id="Capa_1" xmlns="http://www.w3.org/2000/svg" xmlns:xlink="http://www.w3.org/1999/xlink" x="0px" y="0px"
	 viewBox="0 0 480 480" style="enable-background:new 0 0 480 480;" xml:space="preserve">
<style type="text/css">
	.st0{fill:url(#SVGID_1_);}
	.st1{fill:url(#SVGID_2_);}
	.st2{fill:url(#SVGID_3_);}
	.st3{fill:url(#SVGID_4_);}
	.st4{fill:url(#SVGID_5_);}
	.st5{fill:url(#SVGID_6_);}
	.st6{fill:url(#SVGID_7_);}
	.st7{fill:url(#SVGID_8_);}
	.st8{fill:url(#SVGID_9_);}
	.st9{fill:url(#SVGID_10_);}
	.st10{fill:url(#SVGID_11_);}
</style>
<g>
	<g>
		<linearGradient id="SVGID_1_" gradientUnits="userSpaceOnUse" x1="480.0109" y1="241.653" x2="4.602342e-02" y2="241.653">
			<stop  offset="0" style="stop-color:#7475D4"/>
			<stop  offset="1" style="stop-color:#303096"/>
		</linearGradient>
		<path class="st0" d="M479.8,233.7c-4.4-95.7-85.6-169.7-181.3-165.3c-89.5,4.1-161.2,75.8-165.3,165.3h-24.6l-23.2-37.4
			c-1.5-2.4-4-3.8-6.8-3.8H8c-4.4,0-8,3.6-8,8c0,1.5,0.4,3,1.2,4.2l23.1,37.2L1.2,279.1c-2.3,3.8-1.2,8.7,2.6,11
			c1.3,0.8,2.7,1.2,4.2,1.2h70.6c2.8,0,5.3-1.4,6.8-3.8l23.5-37.9h24.3c4.4,95.7,85.6,169.7,181.3,165.3S484.2,329.4,479.8,233.7z
			 M74.2,275.4H22.4L38,250.2h51.8L74.2,275.4z M38.1,233.7l-15.7-25.2h51.8l15.6,25.2H38.1z M306.9,399.2
			c-84,0.1-153.2-65.7-157.5-149.5h32.7c4.4,68.8,63.8,121,132.5,116.5s121-63.8,116.5-132.5s-63.8-121-132.5-116.5
			c-62.6,4-112.5,53.9-116.5,116.5h-32.7c4.3-83.7,73.3-149.4,157.1-149.5c87-0.1,157.6,70.3,157.7,157.3S393.9,399.1,306.9,399.2z
			 M306.5,233.7h-8.2c4.4-4.5,11.7-4.7,16.2-0.2s4.7,11.7,0.2,16.2s-11.7,4.7-16.2,0.2c-0.1-0.1-0.2-0.2-0.2-0.2h8.2
			c4.4,0,8-3.6,8-8S310.9,233.7,306.5,233.7z M314.7,267.9c14.5-4.4,22.7-19.8,18.3-34.3c-4.4-14.5-19.8-22.7-34.3-18.3
			c-8.8,2.7-15.6,9.5-18.3,18.3h-33.4c4.4-32.9,34.7-56,67.6-51.6s56,34.7,51.6,67.6s-34.7,56-67.6,51.6
			c-26.9-3.6-48-24.7-51.6-51.6h33.4C284.8,264.2,300.2,272.4,314.7,267.9z M314.5,317.4c41.8-4.4,72.1-41.9,67.7-83.7
			c-4.4-41.8-41.9-72.1-83.7-67.7c-35.7,3.8-63.9,32-67.7,67.7h-32.7c4.4-59.9,56.6-104.9,116.5-100.5s104.9,56.6,100.5,116.5
			s-56.6,104.9-116.5,100.5c-53.8-4-96.5-46.7-100.5-100.5h32.7C235.2,291.5,272.7,321.8,314.5,317.4z"/>
	</g>
</g>
<g>
	<g>
		<linearGradient id="SVGID_2_" gradientUnits="userSpaceOnUse" x1="144" y1="8.005" x2="80" y2="8.005">
			<stop  offset="0" style="stop-color:#7475D4"/>
			<stop  offset="1" style="stop-color:#303096"/>
		</linearGradient>
		<rect x="80" y="0" class="st1" width="64" height="16"/>
	</g>
</g>
<g>
	<g>
		<linearGradient id="SVGID_3_" gradientUnits="userSpaceOnUse" x1="208" y1="64.005" x2="144" y2="64.005">
			<stop  offset="0" style="stop-color:#7475D4"/>
			<stop  offset="1" style="stop-color:#303096"/>
		</linearGradient>
		<rect x="144" y="56" class="st2" width="64" height="16"/>
	</g>
</g>
<g>
	<g>
		<linearGradient id="SVGID_4_" gradientUnits="userSpaceOnUse" x1="64" y1="8.005" x2="48" y2="8.005">
			<stop  offset="0" style="stop-color:#7475D4"/>
			<stop  offset="1" style="stop-color:#303096"/>
		</linearGradient>
		<rect x="48" y="0" class="st3" width="16" height="16"/>
	</g>
</g>
<g>
	<g>
		<linearGradient id="SVGID_5_" gradientUnits="userSpaceOnUse" x1="96" y1="160.005" x2="32" y2="160.005">
			<stop  offset="0" style="stop-color:#7475D4"/>
			<stop  offset="1" style="stop-color:#303096"/>
		</linearGradient>
		<rect x="32" y="152" class="st4" width="64" height="16"/>
	</g>
</g>
<g>
	<g>
		<linearGradient id="SVGID_6_" gradientUnits="userSpaceOnUse" x1="16" y1="160.005" x2="0" y2="160.005">
			<stop  offset="0" style="stop-color:#7475D4"/>
			<stop  offset="1" style="stop-color:#303096"/>
		</linearGradient>
		<rect y="152" class="st5" width="16" height="16"/>
	</g>
</g>
<g>
	<g>
		<linearGradient id="SVGID_7_" gradientUnits="userSpaceOnUse" x1="112" y1="336.005" x2="64" y2="336.005">
			<stop  offset="0" style="stop-color:#7475D4"/>
			<stop  offset="1" style="stop-color:#303096"/>
		</linearGradient>
		<rect x="64" y="328" class="st6" width="48" height="16"/>
	</g>
</g>
<g>
	<g>
		<linearGradient id="SVGID_8_" gradientUnits="userSpaceOnUse" x1="48" y1="336.005" x2="32" y2="336.005">
			<stop  offset="0" style="stop-color:#7475D4"/>
			<stop  offset="1" style="stop-color:#303096"/>
		</linearGradient>
		<rect x="32" y="328" class="st7" width="16" height="16"/>
	</g>
</g>
<g>
	<g>
		<linearGradient id="SVGID_9_" gradientUnits="userSpaceOnUse" x1="176" y1="408.005" x2="160" y2="408.005">
			<stop  offset="0" style="stop-color:#7475D4"/>
			<stop  offset="1" style="stop-color:#303096"/>
		</linearGradient>
		<rect x="160" y="400" class="st8" width="16" height="16"/>
	</g>
</g>
<g>
	<g>
		<linearGradient id="SVGID_10_" gradientUnits="userSpaceOnUse" x1="96" y1="472.005" x2="32" y2="472.005">
			<stop  offset="0" style="stop-color:#7475D4"/>
			<stop  offset="1" style="stop-color:#303096"/>
		</linearGradient>
		<rect x="32" y="464" class="st9" width="64" height="16"/>
	</g>
</g>
<g>
	<g>
		<linearGradient id="SVGID_11_" gradientUnits="userSpaceOnUse" x1="16" y1="472.005" x2="0" y2="472.005">
			<stop  offset="0" style="stop-color:#7475D4"/>
			<stop  offset="1" style="stop-color:#303096"/>
		</linearGradient>
		<rect y="464" class="st10" width="16" height="16"/>
	</g>
</g>
</svg>
