<svg xmlns="http://www.w3.org/2000/svg" viewBox="0 0 480 480">
  <linearGradient id="a" gradientUnits="userSpaceOnUse" x1="480" y1="240" x2="0" y2="240">
    <stop offset="0" stop-color="#7475d4"/>
    <stop offset="1" stop-color="#303096"/>
  </linearGradient>
  <path d="M456 240h-8V72c0-22.1-17.9-40-40-40H72c-22.1 0-40 17.9-40 40v120h-8c-13.3 0-24 10.7-24 24v208c0 13.3 10.7 24 24 24h304c4.4 0 8-3.6 8-8 0-22.1-17.9-40-40-40h-24v-48h96v72c0 13.3 10.7 24 24 24h64c13.3 0 24-10.7 24-24V264c0-13.3-10.7-24-24-24zM176 424c0 4.4-3.6 8-8 8H24c-4.4 0-8-3.6-8-8v-8h160v8zm0-24H16V216c0-4.4 3.6-8 8-8h144c4.4 0 8 3.6 8 8v184zm120 16c10.2 0 19.2 6.4 22.6 16H190.5c.9-2.6 1.4-5.3 1.5-8v-8h104zm-104-16v-48h16v48h-16zm32 0v-48h32v48h-32zm144-64H192v-48h176v48zm0-72v8H192v-56c0-3.8-1-7.5-2.7-10.9.1-.1.3-.1.4-.3l79.2-79.2c3.1-3.2 3-8.2-.2-11.3-3.1-3-8-3-11.1 0l-79.2 79.2c-.2.2-.3.5-.4.7-3.1-1.4-6.5-2.2-9.9-2.2H48V72c0-13.3 10.7-24 24-24h336c13.3 0 24 10.7 24 24v168h-40c-13.3 0-24 10.7-24 24zm96 160c0 4.4-3.6 8-8 8h-64c-4.4 0-8-3.6-8-8v-8h80v8zm0-24h-80V264c0-4.4 3.6-8 8-8h64c4.4 0 8 3.6 8 8v136z" fill="url(#a)"/>
  <linearGradient id="b" gradientUnits="userSpaceOnUse" x1="96.0027" y1="312.05" x2="47.9018" y2="312.05">
    <stop offset="0" stop-color="#7475d4"/>
    <stop offset="1" stop-color="#303096"/>
  </linearGradient>
  <path d="M95.6 289.4c-3.1-3.1-8.2-3.1-11.3 0l-33.9 33.9c-3.2 3.1-3.3 8.1-.2 11.3s8.1 3.3 11.3.2l.2-.2 33.9-33.9c1.4-2.5-1.4-7.2 0-11.3z" fill="url(#b)"/>
  <linearGradient id="c" gradientUnits="userSpaceOnUse" x1="145.8378" y1="312.0984" x2="95.9018" y2="312.0984">
    <stop offset="0" stop-color="#7475d4"/>
    <stop offset="1" stop-color="#303096"/>
  </linearGradient>
  <path d="M143.4 289.4c-3.1-3-8-3-11.1 0l-33.9 33.9c-3.2 3.1-3.3 8.1-.2 11.3 3.1 3.2 8.1 3.3 11.3.2l.2-.2 33.9-33.9c3.1-3.2 3-8.3-.2-11.3z" fill="url(#c)"/>
  <linearGradient id="d" gradientUnits="userSpaceOnUse" x1="319.9022" y1="159.6985" x2="224.7016" y2="159.6985">
    <stop offset="0" stop-color="#7475d4"/>
    <stop offset="1" stop-color="#303096"/>
  </linearGradient>
  <path d="M317.5 114.3c-3.1-3-8-3-11.1 0l-79.2 79.2c-3.2 3.1-3.3 8.1-.2 11.3s8.1 3.3 11.3.2l.2-.2 79.2-79.2c3-3.1 2.9-8.2-.2-11.3z" fill="url(#d)"/>
  <g>
    <linearGradient id="e" gradientUnits="userSpaceOnUse" x1="443.2142" y1="328.098" x2="404.5898" y2="328.098">
      <stop offset="0" stop-color="#7475d4"/>
      <stop offset="1" stop-color="#303096"/>
    </linearGradient>
    <path d="M440.8 311c-3.1-3-8-3-11.1 0L407 333.7c-3.2 3.1-3.3 8.1-.2 11.3 3.1 3.2 8.1 3.3 11.3.2l.2-.2 22.6-22.6c3.1-3.2 3.1-8.3-.1-11.4z" fill="url(#e)"/>
  </g>
  <g>
    <linearGradient id="f" gradientUnits="userSpaceOnUse" x1="248.16" y1="312.0001" x2="232.1199" y2="312.0001">
      <stop offset="0" stop-color="#7475d4"/>
      <stop offset="1" stop-color="#303096"/>
    </linearGradient>
    <path d="M240.2 304c-4.5 0-8.1 3.6-8 8s3.6 8 8 8 8-3.6 8-8-3.6-8-8-8z" fill="url(#f)"/>
  </g>
  <g>
    <linearGradient id="g" gradientUnits="userSpaceOnUse" x1="264" y1="72" x2="216" y2="72">
      <stop offset="0" stop-color="#7475d4"/>
      <stop offset="1" stop-color="#303096"/>
    </linearGradient>
    <path d="M256 64h-32c-4.4 0-8 3.6-8 8s3.6 8 8 8h32c4.4 0 8-3.6 8-8s-3.6-8-8-8z" fill="url(#g)"/>
  </g>
</svg>