<svg xmlns="http://www.w3.org/2000/svg" viewBox="0 0 48 48">
  <linearGradient id="a" gradientUnits="userSpaceOnUse" x1="45.1885" y1="24.2335" x2="2.716" y2="24.2335">
    <stop offset="0" stop-color="#7475d4"/>
    <stop offset="1" stop-color="#303096"/>
  </linearGradient>
  <path d="M41.4.9H6.5C4.4.9 2.7 2.6 2.7 4.7v26.6c0 2.1 1.7 3.8 3.8 3.8h7.8V39c-2.2.1-4 1.9-4.1 4.1 0 1 .3 1.9.8 2.6H6.3c-.5 0-.9.4-.9.9s.4.9.9.9h35.3c.5 0 .9-.4.9-.9s-.4-.9-.9-.9h-4.8c.6-.9.9-1.9.8-3-.2-2-2-3.6-4.1-3.7v-3.9h7.8c2.1 0 3.8-1.7 3.8-3.8V4.7c.1-2.1-1.6-3.8-3.7-3.8zM6.5 2.7h34.8c1.1 0 2.1.9 2.1 2.1V28H4.5V4.7c0-1.1.9-2 2-2zM31.8 39h-2.6c-.5 0-.9.4-.9.9s.4.9.9.9h4.1c1.3 0 2.5 1 2.6 2.2.1.7-.1 1.4-.6 2-.5.5-1.2.8-1.9.8H14.5c-.7 0-1.3-.3-1.8-.8s-.7-1.1-.7-1.8c0-1.3 1.2-2.4 2.6-2.4H24c.5 0 .9-.4.9-.9s-.4-.9-.9-.9h-7.9v-3.9h15.7V39zm9.6-5.6H6.5c-1.1 0-2.1-.9-2.1-2.1v-1.6h38.9v1.6c.1 1.2-.8 2.1-1.9 2.1zm-31.1-19c1.4 0 2.6-1.1 2.7-2.5l8.5-2.8c.4 1 1.4 1.7 2.5 1.7s2.1-.7 2.5-1.7l7.7 1.2c.3 1.1 1.4 1.9 2.6 1.9 1.5 0 2.7-1.2 2.7-2.7 0-1.5-1.2-2.7-2.7-2.7-1.1 0-2.1.7-2.5 1.7l-7.7-1.2c-.3-1.1-1.4-1.9-2.6-1.9-1.2 0-2.2.8-2.6 1.9l-8.8 3c-.5-.8-1.4-1.3-2.3-1.3-1.5 0-2.7 1.2-2.7 2.7 0 1.5 1.2 2.7 2.7 2.7zm26.5-5.9c.5 0 1 .4 1 1 0 .5-.4 1-1 1-.5 0-1-.4-1-1 0-.5.5-1 1-1zM24 7.2c.5 0 1 .4 1 1 0 .5-.4 1-1 1-.5 0-1-.4-1-1s.4-1 1-1zm-13.7 3.5c.5 0 1 .4 1 1 0 .5-.4 1-1 1-.5 0-1-.4-1-1 0-.5.5-1 1-1zM6.8 24c0-.5.4-.9.9-.9h1.7v-5.4c0-.5.4-.9.9-.9s.9.4.9.9v5.4h2.7v-6.6c0-.5.4-.9.9-.9s.9.4.9.9v6.6h2.7v-8.5c0-.5.4-.9.9-.9s.9.4.9.9v8.5h2.7v-9.5c0-.5.4-.9.9-.9s.9.4.9.9v9.5h2.7v-8.5c0-.5.4-.9.9-.9s.9.4.9.9v8.5h2.7v-7.3c0-.5.4-.9.9-.9s.9.4.9.9v7.3h2.7v-7.8c0-.5.4-.9.9-.9s.9.4.9.9v7.8h1.7c.5 0 .9.4.9.9s-.4.9-.9.9H7.7c-.5-.1-.9-.5-.9-.9z" fill="url(#a)"/>
</svg>