<svg xmlns="http://www.w3.org/2000/svg" viewBox="0 0 48 48">
  <linearGradient id="a" gradientUnits="userSpaceOnUse" x1="45.7309" y1="24.4496" x2="3.0674" y2="24.4496">
    <stop offset="0" stop-color="#7475d4"/>
    <stop offset="1" stop-color="#303096"/>
  </linearGradient>
  <path d="M41.9 1.3h-35C4.8 1.3 3.1 3 3.1 5.1v26.7c0 2.1 1.7 3.8 3.8 3.8h7.8V39c-2.2.1-4.1 1.9-4.1 4.1 0 1 .3 1.9.8 2.6H6.6c-.5 0-.9.4-.9.9s.4.9.9.9h35.6c.5 0 .9-.4.9-.9s-.4-.9-.9-.9h-4.8c.6-.9.9-1.9.8-3-.2-2.1-2-3.6-4.1-3.8v-3.3h7.8c2.1 0 3.8-1.7 3.8-3.8V5.1c0-2.1-1.7-3.8-3.8-3.8zm-32.1 8c.7.8 1.7 1.4 2.9 1.4s2.2-.5 2.9-1.4c.7.8 1.7 1.4 2.9 1.4s2.2-.5 2.9-1.4c.7.8 1.7 1.4 2.9 1.4s2.2-.5 2.9-1.4c.7.8 1.7 1.4 2.9 1.4s2.2-.5 2.9-1.4c.7.8 1.7 1.4 2.9 1.4s2.2-.5 2.9-1.4c.7.8 1.7 1.4 2.9 1.4.8 0 1.4-.2 2-.6v18.5H4.8V10c.6.4 1.3.6 2 .6 1.2 0 2.3-.5 3-1.3zm-5-4.2C4.8 4 5.7 3 6.9 3h35C43 3.1 44 4 44 5.1v1.7c0 1.1-.9 2-2 2s-2-.9-2-2V5.5c0-.5-.4-.9-.9-.9s-.9.4-.9.9v1.4c0 1.1-.9 2-2 2s-2-.9-2-2V5.5c0-.5-.4-.9-.9-.9s-.9.4-.9.9v1.4c0 1.1-.9 2-2 2s-2-.9-2-2V5.5c0-.5-.4-.9-.9-.9s-.9.4-.9.9v1.4c0 1.1-.9 2-2 2s-2-.9-2-2V5.5c0-.5-.4-.9-.9-.9s-1.1.4-1.1.9v1.4c0 1.1-.9 2-2 2s-2-.9-2-2V5.5c0-.5-.4-.9-.9-.9s-.9.4-.9.9v1.4c0 1.1-.9 2-2 2s-2-.9-2-2V5.5c0-.5-.4-.9-.9-.9s-1 .4-1 .9v1.4c0 1.1-.9 2-2 2s-2-.9-2-2V5.1zM32.3 39h-2.6c-.5 0-.9.4-.9.9s.4.9.9.9h4.1c1.3 0 2.5 1 2.6 2.2.1.7-.1 1.4-.6 2-.5.5-1.2.8-1.9.8h-19c-.7 0-1.3-.3-1.8-.8s-.7-1.1-.7-1.8c0-1.3 1.2-2.4 2.6-2.4h9.4c.5 0 .9-.4.9-.9s-.4-.9-.9-.9h-7.9v-3.3h15.8V39zm9.6-5.1h-35c-1.1 0-2.1-.9-2.1-2.1v-1.6H44v1.6c0 1.2-1 2.1-2.1 2.1zM9.4 27.1h10.9c.2 0 .5-.1.6-.3.2-.2.3-.4.2-.7l-.7-8.7c0-.5-.4-.8-.9-.8h-2.1c0-1.5-1.2-2.6-2.7-2.6S12 15.2 12 16.6H9.9c-.5 0-.8.4-.9.8l-.7 8.7c0 .2.1.5.2.7.5.2.7.3.9.3zm1.5-8.7h1.3v.4c0 .5.4.9.9.9s.9-.4.9-.9v-2.1c0-.5.4-.9.9-.9s.9.4.9.9v2.1c0 .5.4.9.9.9s.9-.4.9-.9v-.4h1.3l.5 6.9h-9l.5-6.9zm8-4.3c.5-.8 1.4-1.3 2.3-1.3 1.5 0 2.7 1.2 2.7 2.6H26c.5 0 .8.4.9.8l.7 8.7c0 .2-.1.5-.2.7-.2.2-.4.3-.6.3h-3.9c-.5 0-.9-.4-.9-.9s.4-.9.9-.9h2.9l-.5-6.9H24v.4c0 .5-.4.9-.9.9s-.9-.4-.9-.9v-2.1c0-.5-.4-.9-.9-.9-.3 0-.6.2-.8.5-.2.4-.8.6-1.2.3-.5-.3-.7-.8-.4-1.3zm6.3-1.2c.5-.8 1.4-1.3 2.3-1.3 1.5 0 2.7 1.2 2.7 2.6h2.1c.5 0 .8.4.9.8l.7 8.7c0 .2-.1.5-.2.7-.2.2-.4.3-.6.3h-4c-.5 0-.9-.4-.9-.9s.4-.9.9-.9h3.1l-.7-6.9h-1.3v.4c0 .5-.4.9-.9.9s-.9-.4-.9-.9v-2.1c0-.5-.4-.9-.9-.9-.3 0-.6.2-.8.5-.2.4-.8.6-1.2.3-.4-.3-.5-.8-.3-1.3zM40 18.2c.5 0 .9.4.9.9s-.4.9-.9.9h-4.1c-.5 0-.9-.4-.9-.9s.4-.9.9-.9H40zm-5.7-2.6c0-.5.4-.9.9-.9h4.1c.5 0 .9.4.9.9s-.4.9-.9.9h-4.1c-.5 0-.9-.4-.9-.9z" fill="url(#a)"/>
</svg>