<svg xmlns="http://www.w3.org/2000/svg" viewBox="0 0 512 512">
  <linearGradient id="a" gradientUnits="userSpaceOnUse" x1="511.996" y1="256" x2=".00500107" y2="256">
    <stop offset="0" stop-color="#7475d4"/>
    <stop offset="1" stop-color="#303096"/>
  </linearGradient>
  <path d="M251.3 276.9c-1.9-1.9-4.4-2.9-7.1-2.9-2.6 0-5.2 1.1-7.1 2.9-1.9 1.9-2.9 4.4-2.9 7.1s1.1 5.2 2.9 7.1c1.9 1.9 4.4 2.9 7.1 2.9s5.2-1.1 7.1-2.9c1.9-1.9 2.9-4.4 2.9-7.1s-1-5.2-2.9-7.1zM474 218h-24.1c-14.2-29.6-44.4-50-79.4-50s-65.2 20.4-79.4 50H38c-21 0-38 17-38 38s17 38 38 38h160.3c5.5 0 10-4.5 10-10s-4.5-10-10-10H38c-9.9 0-18-8.1-18-18s8.1-18 18-18h246.4c-1.2 5.8-1.9 11.8-1.9 18 0 48.5 39.5 88 88 88 34.9 0 65.2-20.4 79.4-50H474c21 0 38-17 38-38s-17-38-38-38zM370.5 324c-37.5 0-68-30.5-68-68s30.5-68 68-68 68 30.5 68 68-30.5 68-68 68zM474 274h-17.3c1.2-5.8 1.9-11.8 1.9-18s-.6-12.2-1.9-18H474c9.9 0 18 8.1 18 18s-8.1 18-18 18zm0 112.1H245.6c-14.2-29.6-44.4-50.1-79.4-50.1-35 0-65.2 20.5-79.4 50.1H38c-21 0-38 17-38 38s17 38 38 38h48.9c14.2 29.5 44.4 49.9 79.3 49.9s65.1-20.4 79.3-49.9H474c21 0 38-17 38-38 0-20.9-17-38-38-38zm-436 56c-9.9 0-18-8.1-18-18s8.1-18 18-18h42c-1.2 5.8-1.8 11.8-1.8 17.9 0 6.2.7 12.3 1.9 18.1H38zM166.2 492c-37.5 0-68-30.5-68-68s30.5-68 68-68 68 30.5 68 68-30.5 68-68 68zM474 442.1H252.3c1.2-5.8 1.9-11.9 1.9-18.1 0-6.1-.6-12.1-1.8-17.9H474c9.9 0 18 8.1 18 18s-8.1 18-18 18zM356.1 52.9c-1.9-1.9-4.4-2.9-7.1-2.9s-5.2 1.1-7.1 2.9c-1.9 1.9-2.9 4.4-2.9 7.1s1.1 5.2 2.9 7.1c1.9 1.9 4.4 2.9 7.1 2.9s5.2-1.1 7.1-2.9c1.9-1.9 2.9-4.4 2.9-7.1s-1.1-5.2-2.9-7.1zM474 50h-88.5c-5.5 0-10 4.5-10 10s4.5 10 10 10H474c9.9 0 18 8.1 18 18s-8.1 18-18 18H252.4c1.2-5.8 1.9-11.8 1.9-18s-.6-12.2-1.9-18H307c5.5 0 10-4.5 10-10s-4.5-10-10-10h-61.4c-14.2-29.6-44.4-50-79.4-50S101 20.4 86.8 50H38C17 50 0 67 0 88s17 38 38 38h48.9c14.2 29.6 44.4 50 79.4 50s65.2-20.4 79.4-50H474c21 0 38-17 38-38s-17.1-38-38-38zM80.1 106H38c-9.9 0-18-8.1-18-18s8.1-18 18-18h42.1c-1.2 5.8-1.9 11.8-1.9 18 0 6.2.7 12.2 1.9 18zm86.1 50c-37.5 0-68-30.5-68-68s30.5-68 68-68 68 30.5 68 68-30.5 68-68 68z" fill="url(#a)"/>
</svg>