<svg xmlns="http://www.w3.org/2000/svg" viewBox="0 0 48 48">
  <linearGradient id="a" gradientUnits="userSpaceOnUse" x1="47.2322" y1="23.5875" x2=".7749" y2="23.5875">
    <stop offset="0" stop-color="#7475d4"/>
    <stop offset="1" stop-color="#303096"/>
  </linearGradient>
  <path d="M33.6 12.6c.4-.1.8.1 1 .6.3 1.1.5 2.2.5 3.4 0 .4-.3.8-.7.8-.4 0-.8-.3-.8-.7-.1-1-.2-2.1-.5-3.1-.1-.5.1-.9.5-1zm-6.5-4.2c5.1 5.1 5.1 13.3 0 18.3-2.5 2.5-5.9 3.8-9.2 3.8-3.3 0-6.6-1.3-9.2-3.8-5.1-5.1-5.1-13.3 0-18.3 5.1-5.1 13.4-5.1 18.4 0zM26 9.5c-2.2-2.2-5.1-3.3-8.1-3.3-2.9 0-5.8 1.1-8.1 3.3-4.4 4.5-4.4 11.7 0 16.1 4.4 4.4 11.7 4.4 16.1 0 4.6-4.4 4.6-11.7.1-16.1zm19.9 35.9c-.9.9-2.1 1.4-3.3 1.4-1.2 0-2.4-.5-3.3-1.4l-9.7-9.7-3.2-3.2c-2.6 1.4-5.5 2.2-8.4 2.2-4.4 0-8.8-1.7-12.2-5C-.9 23-.9 12.1 5.8 5.4c6.7-6.7 17.6-6.7 24.3 0 .7.7 1.3 1.4 1.8 2.1.6.8 1 1.6 1.5 2.5.2.4 0 .9-.4 1-.1.1-.2.1-.3.1-.3 0-.6-.2-.7-.4-.4-.8-.8-1.5-1.3-2.2-.5-.7-1-1.3-1.7-1.9C22.9.5 13 .5 6.9 6.6c-6.1 6.1-6.1 16 0 22.1C12.1 33.9 20 34.6 26 31c.5-.3 1-.7 1.5-1h.1c.5-.4 1-.8 1.4-1.2.9-.9 1.6-1.9 2.3-3 .6-1 1.1-2.2 1.5-3.3.3-.8.5-1.7.6-2.5.1-.4.5-.7.9-.7.4.1.7.5.7.9-.1.9-.3 1.9-.6 2.8-.3 1.1-.8 2.2-1.4 3.2l12.9 12.9c1.8 1.5 1.8 4.5 0 6.3zM30 34.1l4.4-4.4-2.4-2.4c-.1.1-.2.2-.3.4-.2.2-.4.5-.6.7-.4.5-.8.9-1.2 1.3-.4.4-.8.7-1.2 1.1l-1.2.9 2.5 2.4zm2.9 2.8l4.4-4.4-1.8-1.8-4.4 4.4 1.8 1.8zm11.9 3l-6.3-6.3L34 38l6.3 6.3c1.2 1.2 3.2 1.2 4.4 0 1.3-1.2 1.3-3.2.1-4.4zM24.2 14.5c-.3.2-.4.6-.3.9.7 1.2.7 3-.7 4.2l-5.8 4.9-5.8-4.9c-1.3-1.1-1.3-2.6-.9-3.6s1.3-2.1 2.9-2.1h.1c1.3 0 2.4.6 3.2 1.5.1.2.3.3.5.3s.4-.1.5-.3c.2-.3.5-.5.8-.8.3-.2.4-.6.2-1-.2-.3-.6-.4-1-.2-.2.1-.4.3-.6.4-1-.9-2.4-1.5-3.8-1.5h-.1c-1.9 0-3.5 1.2-4.1 3-.7 1.8-.1 3.9 1.3 5.1l6.2 5.3c.1.1.3.2.4.2.2 0 .3-.1.4-.2l6.2-5.3c1.9-1.6 2-4.2 1-5.9.2-.1-.2-.2-.6 0zm-2.7-4.1c.4 0 .7-.3.7-.7v-.6c0-.4-.3-.7-.7-.7-.4 0-.7.3-.7.7v.6c0 .4.3.7.7.7zm1.6 1.9h.6c.4 0 .7-.3.7-.7 0-.4-.3-.7-.7-.7h-.6c-.4 0-.7.3-.7.7 0 .4.3.7.7.7zm-3.8 0h.6c.4 0 .7-.3.7-.7 0-.4-.3-.7-.7-.7h-.6c-.4 0-.7.3-.7.7 0 .4.3.7.7.7zm2.2 2.5c.4 0 .7-.3.7-.7v-.6c0-.4-.3-.7-.7-.7-.4 0-.7.3-.7.7v.6c0 .4.3.7.7.7z" fill="url(#a)"/>
</svg>