<svg version="1.1" id="Capa_1" xmlns="http://www.w3.org/2000/svg" x="0" y="0" viewBox="0 0 512 512" xml:space="preserve">
  <style>
    .st0{fill:#7779d5}
  </style>
  <path class="st0" d="M437 75C388.7 26.6 324.4 0 256 0S123.3 26.6 75 75C26.6 123.3 0 187.6 0 256s26.6 132.7 75 181 112.6 75 181 75 132.7-26.6 181-75 75-112.6 75-181-26.6-132.7-75-181zM256 482C131.4 482 30 380.6 30 256S131.4 30 256 30s226 101.4 226 226-101.4 226-226 226z"/>
  <path class="st0" d="M378.3 173.9c-5.9-5.9-15.4-5.9-21.2 0L224.6 306.3l-69.7-69.7c-5.9-5.9-15.4-5.9-21.2 0s-5.9 15.4 0 21.2l80.3 80.3c2.9 2.9 6.8 4.4 10.6 4.4s7.7-1.5 10.6-4.4L378.3 195c5.9-5.8 5.9-15.3 0-21.1z"/>
</svg>