<?xml version="1.0" encoding="utf-8"?>
<!-- Generator: Adobe Illustrator 23.0.1, SVG Export Plug-In . SVG Version: 6.00 Build 0)  -->
<svg version="1.1" id="Capa_1" xmlns="http://www.w3.org/2000/svg" xmlns:xlink="http://www.w3.org/1999/xlink" x="0px" y="0px"
	 viewBox="0 0 480 480" style="enable-background:new 0 0 480 480;" xml:space="preserve">
<style type="text/css">
	.st0{fill:url(#SVGID_1_);}
	.st1{fill:url(#SVGID_2_);}
	.st2{fill:url(#SVGID_3_);}
	.st3{fill:url(#SVGID_4_);}
	.st4{fill:url(#SVGID_5_);}
	.st5{fill:url(#SVGID_6_);}
	.st6{fill:url(#SVGID_7_);}
</style>
<g>
	<g>
		<linearGradient id="SVGID_1_" gradientUnits="userSpaceOnUse" x1="480" y1="240" x2="-9.094947e-13" y2="240">
			<stop  offset="0" style="stop-color:#7475D4"/>
			<stop  offset="1" style="stop-color:#303096"/>
		</linearGradient>
		<path class="st0" d="M456,240h-8V72c0-22.1-17.9-40-40-40H72c-22.1,0-40,17.9-40,40v120h-8c-13.3,0-24,10.7-24,24v208
			c0,13.3,10.7,24,24,24h304c4.4,0,8-3.6,8-8c0-22.1-17.9-40-40-40h-24v-48h96v72c0,13.3,10.7,24,24,24h64c13.3,0,24-10.7,24-24V264
			C480,250.7,469.3,240,456,240z M176,424c0,4.4-3.6,8-8,8H24c-4.4,0-8-3.6-8-8v-8h160V424z M176,400H16V216c0-4.4,3.6-8,8-8h144
			c4.4,0,8,3.6,8,8V400z M296,416c10.2,0,19.2,6.4,22.6,16H190.5c0.9-2.6,1.4-5.3,1.5-8v-8H296z M192,400v-48h16v48H192z M224,400
			v-48h32v48H224z M368,336H192v-48h176V336z M368,264v8H192v-56c0-3.8-1-7.5-2.7-10.9c0.1-0.1,0.3-0.1,0.4-0.3l79.2-79.2
			c3.1-3.2,3-8.2-0.2-11.3c-3.1-3-8-3-11.1,0l-79.2,79.2c-0.2,0.2-0.3,0.5-0.4,0.7c-3.1-1.4-6.5-2.2-9.9-2.2H48V72
			c0-13.3,10.7-24,24-24h336c13.3,0,24,10.7,24,24v168h-40C378.7,240,368,250.7,368,264z M464,424c0,4.4-3.6,8-8,8h-64
			c-4.4,0-8-3.6-8-8v-8h80V424z M464,400h-80V264c0-4.4,3.6-8,8-8h64c4.4,0,8,3.6,8,8V400z"/>
	</g>
</g>
<g>
	<g>
		<linearGradient id="SVGID_2_" gradientUnits="userSpaceOnUse" x1="96.0027" y1="312.05" x2="47.9018" y2="312.05">
			<stop  offset="0" style="stop-color:#7475D4"/>
			<stop  offset="1" style="stop-color:#303096"/>
		</linearGradient>
		<path class="st1" d="M95.6,289.4c-3.1-3.1-8.2-3.1-11.3,0l-33.9,33.9c-3.2,3.1-3.3,8.1-0.2,11.3s8.1,3.3,11.3,0.2
			c0.1-0.1,0.1-0.1,0.2-0.2l33.9-33.9C97,298.2,94.2,293.5,95.6,289.4z"/>
	</g>
</g>
<g>
	<g>
		<linearGradient id="SVGID_3_" gradientUnits="userSpaceOnUse" x1="145.8378" y1="312.0984" x2="95.9018" y2="312.0984">
			<stop  offset="0" style="stop-color:#7475D4"/>
			<stop  offset="1" style="stop-color:#303096"/>
		</linearGradient>
		<path class="st2" d="M143.4,289.4c-3.1-3-8-3-11.1,0l-33.9,33.9c-3.2,3.1-3.3,8.1-0.2,11.3c3.1,3.2,8.1,3.3,11.3,0.2
			c0.1-0.1,0.1-0.1,0.2-0.2l33.9-33.9C146.7,297.5,146.6,292.4,143.4,289.4z"/>
	</g>
</g>
<g>
	<g>
		<linearGradient id="SVGID_4_" gradientUnits="userSpaceOnUse" x1="319.9022" y1="159.6985" x2="224.7016" y2="159.6985">
			<stop  offset="0" style="stop-color:#7475D4"/>
			<stop  offset="1" style="stop-color:#303096"/>
		</linearGradient>
		<path class="st3" d="M317.5,114.3c-3.1-3-8-3-11.1,0l-79.2,79.2c-3.2,3.1-3.3,8.1-0.2,11.3s8.1,3.3,11.3,0.2
			c0.1-0.1,0.1-0.1,0.2-0.2l79.2-79.2C320.7,122.5,320.6,117.4,317.5,114.3z"/>
	</g>
</g>
<g>
	<g>
		<linearGradient id="SVGID_5_" gradientUnits="userSpaceOnUse" x1="443.2142" y1="328.098" x2="404.5898" y2="328.098">
			<stop  offset="0" style="stop-color:#7475D4"/>
			<stop  offset="1" style="stop-color:#303096"/>
		</linearGradient>
		<path class="st4" d="M440.8,311c-3.1-3-8-3-11.1,0L407,333.7c-3.2,3.1-3.3,8.1-0.2,11.3c3.1,3.2,8.1,3.3,11.3,0.2
			c0.1-0.1,0.1-0.1,0.2-0.2l22.6-22.6C444,319.2,444,314.1,440.8,311z"/>
	</g>
</g>
<g>
	<g>
		<linearGradient id="SVGID_6_" gradientUnits="userSpaceOnUse" x1="248.16" y1="312.0001" x2="232.1199" y2="312.0001">
			<stop  offset="0" style="stop-color:#7475D4"/>
			<stop  offset="1" style="stop-color:#303096"/>
		</linearGradient>
		<path class="st5" d="M240.2,304L240.2,304c-4.5,0-8.1,3.6-8,8s3.6,8,8,8c4.4,0,8-3.6,8-8S244.6,304,240.2,304z"/>
	</g>
</g>
<g>
	<g>
		<linearGradient id="SVGID_7_" gradientUnits="userSpaceOnUse" x1="264" y1="72" x2="216" y2="72">
			<stop  offset="0" style="stop-color:#7475D4"/>
			<stop  offset="1" style="stop-color:#303096"/>
		</linearGradient>
		<path class="st6" d="M256,64h-32c-4.4,0-8,3.6-8,8s3.6,8,8,8h32c4.4,0,8-3.6,8-8S260.4,64,256,64z"/>
	</g>
</g>
</svg>
