<svg xmlns="http://www.w3.org/2000/svg" viewBox="0 0 48 48">
  <linearGradient id="a" gradientUnits="userSpaceOnUse" x1="47.0008" y1="24.9292" x2="1.0726" y2="24.9292">
    <stop offset="0" stop-color="#7475d4"/>
    <stop offset="1" stop-color="#303096"/>
  </linearGradient>
  <path d="M16.6 27.5l2.8-1.6-2.8-1.6c-.3-.2-.4-.6-.2-.9.2-.3.6-.4.9-.2l2.8 1.6v-3.2c0-.4.3-.7.7-.7.4 0 .7.3.7.7v3.2l2.8-1.6c.3-.2.7-.1.9.2.2.3.1.7-.2.9l-2.8 1.6 2.8 1.6c.3.2.4.6.2.9-.2.3-.6.4-.9.2L21.5 27v3.2c0 .4-.3.7-.7.7-.4 0-.7-.3-.7-.7V27l-2.8 1.6c-.3.2-.7.1-.9-.2-.2-.3-.1-.7.2-.9zm-2.2.9c.2-.3.1-.7-.2-.9l-2.8-1.6 2.8-1.6c.3-.2.4-.6.2-.9-.2-.3-.6-.4-.9-.2l-2.8 1.6v-3.2c0-.4-.3-.7-.7-.7s-.7.3-.7.7v3.2l-2.8-1.6c-.3-.2-.7-.1-.9.2-.2.3-.1.7.2.9l2.8 1.6L6 27.5c-.3.2-.4.6-.2.9.2.3.6.4.9.2L9.5 27v3.2c0 .4.3.7.7.7s.7-.3.7-.7V27l2.8 1.6c.1.3.6.2.7-.2zm-1.7-16.8c0 .7.6 1.3 1.3 1.3.7 0 1.3-.6 1.3-1.3s-.6-1.3-1.3-1.3c-.7 0-1.3.6-1.3 1.3zm-8 0c0 .7.6 1.3 1.3 1.3s1.3-.6 1.3-1.3-.6-1.3-1.3-1.3-1.3.6-1.3 1.3zm4 0c0 .7.6 1.3 1.3 1.3.7 0 1.3-.6 1.3-1.3s-.6-1.3-1.3-1.3c-.7 0-1.3.6-1.3 1.3zM47 8.1v29c0 .9-.7 1.6-1.6 1.6h-1.2v2.2c0 1.4-1.1 2.5-2.5 2.5H28.6c-1.4 0-2.5-1.1-2.5-2.5v-2.2H12.8c-.4 0-.7-.3-.7-.7 0-.4.3-.7.7-.7h13.4v-.2c0-.3.3-.6.6-.6s.6.3.6.6v3.7c0 .7.6 1.3 1.3 1.3h12.5v-2.7c0-.3.3-.6.6-.6s.6.3.6.6V42c.4-.2.6-.6.6-1.1V30.7c0-.7-.6-1.3-1.3-1.3H28.6c-.7 0-1.3.6-1.3 1.3v2.7c0 .3-.3.6-.6.6s-.6-.3-.6-.6v-2.7c0-1.1.8-2.1 1.9-2.4v-2.1c0-4 3.2-7.2 7.2-7.2s7.2 3.2 7.2 7.2v2.1c1.1.3 1.9 1.3 1.9 2.4v6.6h1.2c.1 0 .2-.1.2-.2V16.8H29.3c-.4 0-.7-.3-.7-.7 0-.4.3-.7.7-.7h16.4V8.1c0-.1-.1-.2-.2-.2H2.6c-.1 0-.2.1-.2.2v7.3h23.4c.4 0 .7.3.7.7 0 .4-.3.7-.7.7H2.4v20.4c0 .1.1.2.2.2h6.8c.4 0 .7.3.7.7 0 .4-.3.7-.7.7H2.6c-.9 0-1.6-.7-1.6-1.6v-29c0-.9.7-1.6 1.6-1.6h42.8c.9-.1 1.6.6 1.6 1.5zm-8.4 18.1c0-1.9-1.5-3.4-3.4-3.4s-3.4 1.5-3.4 3.4v2h6.8v-2zm2.5 0c0-3.3-2.7-5.9-5.9-5.9s-5.9 2.7-5.9 5.9v2h1.3v-2c0-2.6 2.1-4.7 4.7-4.7s4.7 2.1 4.7 4.7v2h1.3v-2zm-13.9 9.5c.1-.1.2-.3.2-.4s-.1-.3-.2-.4c-.2-.2-.6-.2-.9 0-.1.1-.2.3-.2.4s.1.3.2.4c.1.1.3.2.4.2.2 0 .4-.1.5-.2zm6.4 3.6v-2.4c-.7-.5-1.1-1.3-1.1-2.2 0-1.5 1.2-2.7 2.7-2.7s2.7 1.2 2.7 2.7c0 .9-.4 1.7-1.1 2.2v2.4c0 .9-.7 1.6-1.6 1.6-.9-.1-1.6-.8-1.6-1.6zm.2-4.6c0 .5.3 1 .8 1.3.2.1.3.3.3.6v2.8c0 .2.1.3.3.3s.3-.1.3-.3v-2.8c0-.2.1-.4.3-.6.5-.2.8-.7.8-1.3 0-.8-.6-1.4-1.4-1.4s-1.4.6-1.4 1.4zm8.4 3.2c.1-.1.2-.3.2-.4s-.1-.3-.2-.4c-.2-.2-.6-.2-.9 0-.1.1-.2.3-.2.4s.1.3.2.4c.1.1.3.2.4.2.2 0 .4-.1.5-.2z" fill="url(#a)"/>
</svg>