<?xml version="1.0" encoding="utf-8"?>
<!-- Generator: Adobe Illustrator 24.1.2, SVG Export Plug-In . SVG Version: 6.00 Build 0)  -->
<svg version="1.1" id="Layer_1" xmlns="http://www.w3.org/2000/svg" xmlns:xlink="http://www.w3.org/1999/xlink" x="0px" y="0px"
	 viewBox="0 0 450 300" style="enable-background:new 0 0 450 300;" xml:space="preserve">
<style type="text/css">
	.st0{fill:#E4D8EB;}
	.st1{fill:#F1EEF7;}
	.st2{fill:none;stroke:#E10A17;stroke-width:0.25;stroke-miterlimit:10;}
	.st3{fill:#F5A120;}
	.st4{fill:#FFCE52;}
	.st5{fill:#393768;}
	.st6{fill:#ACAAD5;}
	.st7{fill:#F8BA41;}
	.st8{fill:#EEEEEF;}
	.st9{fill:#656BAF;}
	.st10{fill:#777778;}
	.st11{fill:#F6BBB6;}
	.st12{fill:#DA9594;}
	.st13{fill:#D4D8D8;}
	.st14{fill:#FFFFFF;}
	.st15{fill:#232551;}
</style>
<g>
	<path class="st0" d="M211.4,265.7c0,0-180.2,1.9-168.4,4.5c11.8,2.6,43.8,2,44.6,8.5c0.8,6.5,173.8,22.2,165,13.4
		s139.6-10.1,116.7-17C342.9,267.2,211.4,265.7,211.4,265.7z"/>
	<path class="st1" d="M126.4,172c0,0,13.4-19-18.1-30.8c-31.4-11.8-34.1-35.4-26.1-45.9c21.5-28.2,56.9,8.8,85.1-1.5
		c28.2-10.3,48.2-44.1,91.3-31.7c43.1,12.4,59.2,54.4,88.3,50.8c29.1-3.6,71.2-23.7,87.5,21.4c16.3,45.1-80.8,38.8-112.5,73.1
		c-31.7,34.3-79.3-29.4-125.2-29.7C150.9,177.5,132.4,184.2,126.4,172z"/>
	<path class="st1" d="M74.9,40.4C74,53,86.7,76.7,127.9,64.4c41.2-12.2,47.6,14,67.2,2.3c19.6-11.6,16.9-35.4-18.1-30
		c-25.4,3.9-35.4-22.8-63-23.5C93.6,12.7,76.1,22.5,74.9,40.4z"/>
	<path class="st1" d="M368.2,76.6c-6.3,14.6-34.3,33.8-73.4-3.8c-39.1-37.6-61.5-12-76.7-36.4c-15.3-24.4,1.6-49.5,37.8-23.1
		c26.2,19.1,52.9-5,84.3,10.2C363.3,34.8,377.2,55.9,368.2,76.6z"/>
	<circle class="st1" cx="382.3" cy="88.8" r="9.3"/>
	<path class="st2" d="M207.7,222c0-3,2.3-5.5,5.2-5.7c-0.2,0-0.3,0-0.5,0c-3.2,0-5.7,2.6-5.7,5.7s2.6,5.7,5.7,5.7c0.2,0,0.3,0,0.5,0
		C210,227.5,207.7,225,207.7,222z"/>
	<path class="st3" d="M63.6,215.6c0,0,15.1,2.4,24-3.8c2.6-1.8,6.8-8-4.7-14.6c-8.3-4.7,5-8.7,2.7-17.6c-2.2-8.5-8-7.4-10.4-14.1
		c-3.4-9.3-3.3-24.5-5.7-24.4c-2.5,0.2-1.4,21.4-3.8,26.7c-2,4.4-9.3,9.2-7.8,16c1.6,6.8,8.9,3.8,9.1,10.8
		C67.1,200,51.3,209.9,63.6,215.6z"/>
	<path class="st4" d="M46.7,226.4c0,0,12.6-2.3,17.9-9.7c1.6-2.2,3.1-8.2-7.8-10.2c-7.9-1.4,1.5-8.3-2.8-14.7
		c-4.1-6.1-8.4-3.6-12.2-8.2c-5.3-6.4-9.5-18.5-11.3-17.7c-1.9,0.8,4.9,17.4,4.5,22.1c-0.3,4.1-4.8,9.9-1.7,14.8
		c3.1,4.9,8.1,0.5,10.2,6C45.1,213,35.4,225.3,46.7,226.4z"/>
	<path class="st5" d="M78,226.7c-0.3-0.6-7.9-15.8-6.9-29.1c1-13-1.7-25.3-1.7-25.5c0,0,4.1,12.4,3.2,25.6
		c-1,12.9,6.7,28.2,6.8,28.3L78,226.7z"/>
	<path class="st5" d="M62.8,231.5c-0.1-0.2-11-19.5-16.8-24.5c-6.1-5.3-5.2-16.4-5.2-16.4c0,0.1,0.5,10.4,6.1,15.3
		c5.9,5.2,16.6,24.1,17.1,24.9L62.8,231.5z"/>
	<path class="st5" d="M69.4,226.8l-1.2-0.8c0-0.1,3.4-5.2,6.3-12.1c2.6-6.3,5.4-15.4,3.5-22.9c-1.2-4.6-3.9-8.1-8.3-10.5
		c-11.4-6.2-15.6-15.3-17.2-21.9c-1.7-7.1,0.8-12.6,0.8-12.6c0,0.2-3.8,21.8,17,33.2c4.7,2.6,7.7,6.4,9,11.5
		C83.2,205.6,70,225.9,69.4,226.8z"/>
	<g>
		<path class="st5" d="M42.1,239.1c-3.5,0-6.3-1.1-8.3-3.2c-3.5-3.7-1.7-9.5-1.7-9.5c0,0.1-0.3,5.2,2.8,8.5c1.7,1.8,4.1,2.7,7.2,2.7
			c4.3,0,6.9-2.7,9.6-5.6c4.1-4.3,8.4-8.8,18.7-3.2l-0.7,1.3c-9.3-5.1-12.8-1.4-16.9,2.9C50,236,47.1,239.1,42.1,239.1z"/>
	</g>
	<path class="st6" d="M333.2,215.6c0,0,28.9-5.9,30.2-14c1.2-8.1-9.3-3.9-9.1-12.3c0.2-8.3,16.5-6.1,17.4-12c0.9-5.9-9.1-4.9-6.9-12
		c2.2-7.1,11.1-24.7,6.9-25.2c-4.2-0.5-7.6,16.5-16.5,18.7c-8.8,2.1-14.7,0.7-15.5,6.1c-0.7,5.4,7.7,4.7,6.2,11s-14.1,0.5-17.7,8.3
		c-3.6,7.8,10.2,9.2,8.1,17.4C334.4,209.8,327.6,209.9,333.2,215.6z"/>
	<path class="st3" d="M369.5,207.5c0,0-2.4-5.4,3.4-10.3c5.7-4.9,10.6,3.8,16.5-1.1c5.9-4.8-5.6-15.4,0-19.8c5.6-4.4,15,7,21.3,3.4
		c6.4-3.6,19.4-15.6,20.1-12.5c0.7,3.2-17.2,19.3-15.9,23.9c1.2,4.6,4.7,8.3-0.5,12.4c-5.2,4.2-11.3-2.7-16.2,2
		c-4.9,4.7,2,10.5-1.2,16.2c-3.2,5.6-19.4,5.2-19.4,5.2S381,211.2,369.5,207.5z"/>
	<path class="st5" d="M368.5,222.8c-1.9,0-3.9-0.5-5.7-1.4l0.6-1.3c5.2,2.6,12.7,1.1,16.9-6.5c3.5-6.4,1-10.9-2.1-12.8
		c-2.9-1.7-4.6-4.1-5.1-6.9c-1.2-6.8,4.7-14.2,4.9-14.6c0,0-4.6,8.1-3.5,14.3c0.4,2.4,1.9,4.4,4.4,5.9c5.6,3.3,5.4,9.8,2.7,14.7
		c-1.8,3.2-4.6,5.9-7.7,7.3C372.2,222.4,370.3,222.8,368.5,222.8z"/>
	<path class="st5" d="M358.6,225.3c-0.1-0.1-6.1-7.6-10.5-16.4c-6-12-6.4-20.5-1-25.1c11.9-10.2,13.7-23.9,13.7-24.1
		c0,0-0.4,14.6-12.8,25.2c-11.6,10,11.4,39.2,11.6,39.5L358.6,225.3z"/>
	<path class="st5" d="M360.8,222.7l-0.2-1.5c20.1-2.3,42.4-32.6,42.7-32.9c0,0-4.6,8.7-12.7,16.7
		C379.5,215.8,369.5,221.7,360.8,222.7z"/>
	<path class="st6" d="M73.1,269.7c0,0-29.4-34.4-6.2-48.5c23.2-14.1,27.3,15.4,47.7,11.8c20.3-3.6,49.1-41.4,70.1-36.4
		c20.9,5,34.7,34.4,52.3,34.3c17.7-0.1,31.4-9.3,41.4-3.1c10,6.2,9.3,26.5,27,23.2c17.7-3.3,47.4-48.1,62.8-40.4
		c15.4,7.7-9.3,62.4-9.3,62.4l-136.5-7.3L73.1,269.7z"/>
	<ellipse transform="matrix(0.9231 -0.3847 0.3847 0.9231 -51.1703 31.2882)" class="st4" cx="52.6" cy="143.6" rx="5.6" ry="5.6"/>
	
		<ellipse transform="matrix(0.2298 -0.9732 0.9732 0.2298 115.3383 506.7492)" class="st4" cx="377.8" cy="180.5" rx="5.6" ry="5.6"/>
	<ellipse transform="matrix(0.1597 -0.9872 0.9872 0.1597 -197.1683 221.1)" class="st4" cx="31.3" cy="226.4" rx="6.6" ry="6.6"/>
	<path class="st7" d="M324.7,89.9v137.7c0,3.5-2.9,6.4-6.4,6.4H101.2c-3.5,0-6.4-2.9-6.4-6.4l0-14.6L95,89.9c0-3.5,2.9-6.4,6.4-6.4
		h217C321.8,83.5,324.7,86.4,324.7,89.9z"/>
	<rect x="99" y="88.6" class="st8" width="221.3" height="124.3"/>
	<circle class="st3" cx="236.4" cy="104.1" r="8.8"/>
	<circle class="st3" cx="271.7" cy="104.1" r="8.8"/>
	<circle class="st3" cx="307" cy="104.1" r="8.8"/>
	<circle class="st3" cx="183.4" cy="104.1" r="8.8"/>
	<circle class="st3" cx="148" cy="104.1" r="8.8"/>
	<circle class="st3" cx="112.6" cy="104.1" r="8.8"/>
	<path class="st4" d="M332.5,100l-7.8,4.1H95l-8.2-3.6l6.6-13.8c0.9-1.9,2.9-3.2,5-3.2h222.7c2.1,0,4.1,1.2,5,3.2L332.5,100z"/>
	<circle class="st4" cx="201.1" cy="104.1" r="8.8"/>
	<circle class="st4" cx="218.7" cy="104.1" r="8.8"/>
	<circle class="st4" cx="254.1" cy="104.1" r="8.8"/>
	<circle class="st4" cx="289.4" cy="104.1" r="8.8"/>
	<circle class="st4" cx="324.7" cy="104.1" r="8.8"/>
	<circle class="st4" cx="165.7" cy="104.1" r="8.8"/>
	<circle class="st4" cx="130.3" cy="104.1" r="8.8"/>
	<circle class="st4" cx="94.9" cy="104.1" r="8.8"/>
	<path class="st3" d="M324.7,213v14.6c0,3.5-2.9,6.4-6.4,6.4H101.2c-3.5,0-6.4-2.9-6.4-6.4l0-14.6H324.7z"/>
	<path class="st5" d="M149.5,140.1h123.7c2.8,0,5,2.2,5,5v29.6c0,2.8-2.2,5-5,5H149.5c-2.8,0-5-2.2-5-5v-29.6
		C144.5,142.3,146.7,140.1,149.5,140.1z"/>
	<path class="st6" d="M153.9,144.9h115.1c2.6,0,4.7,1.7,4.7,3.8v22.4c0,2.1-2.1,3.8-4.7,3.8H153.9c-2.6,0-4.7-1.7-4.7-3.8v-22.4
		C149.2,146.6,151.3,144.9,153.9,144.9z"/>
	<path class="st9" d="M171.9,262.7h77.4c0.6,0,1.1,0.5,1.1,1.1v3.7c0,0.6-0.5,1.1-1.1,1.1h-77.4c-0.6,0-1.1-0.5-1.1-1.1v-3.7
		C170.8,263.2,171.3,262.7,171.9,262.7z"/>
	<polygon class="st4" points="232.4,233 210.6,233 188.7,233 178.9,262.7 210.6,262.7 242.3,262.7 	"/>
	<g>
		<path class="st5" d="M339.6,226.9L339.6,226.9c-0.4-0.2-0.5-0.6-0.4-1c1.6-3.6,8.7-21,4.4-28.1c-1.1-1.8-2.9-2.8-5.4-2.9
			c-13.9-0.7-22.8,25.8-24.3,30.5c-0.1,0.4-0.5,0.6-0.9,0.5l0,0c-0.4-0.1-0.6-0.5-0.5-0.9c0.7-2.2,2.9-9,6.5-15.6
			c5.9-10.9,12.4-16.3,19.3-15.9c3,0.2,5.2,1.4,6.6,3.6c4.7,7.8-2.7,25.7-4.3,29.5C340.4,226.9,340,227.1,339.6,226.9z"/>
	</g>
	<polygon class="st5" points="301.6,272.5 343.3,272.5 349.6,223.5 294.7,223.5 	"/>
	<polygon class="st5" points="297.1,272.5 338.8,272.5 345.2,223.5 290.2,223.5 	"/>
	<polygon class="st5" points="345.1,223.5 346.6,228.6 349.6,223.5 343.3,272.5 337.3,272.5 	"/>
	<g>
		<path class="st5" d="M336.4,227.7L336.4,227.7c-0.4,0-0.7-0.3-0.7-0.7c-0.1-5-1.2-34.5-17.2-35.2c-3.3-0.1-6,0.9-8.1,3.2
			c-7.1,7.6-5.9,26.1-5.6,29.9c0,0.4-0.3,0.7-0.7,0.8l0,0c-0.4,0-0.8-0.3-0.8-0.7c-0.2-1.8-0.5-6.4-0.2-11.7
			c0.5-9.1,2.6-15.6,6.1-19.4c2.4-2.6,5.5-3.8,9.2-3.7c7.9,0.4,13.6,7,16.5,19.2c1.8,7.5,2.1,15.1,2.1,17.4
			C337.2,227.4,336.8,227.8,336.4,227.7z"/>
	</g>
	<path class="st10" d="M112.8,261c0,0-0.1,3.7,3.4,5.1c3.4,1.4,6,1.7,6,2.8c0,1.1-12.7,1.9-16.4,0.9c-0.9-0.2,2-8.5,2-8.5L112.8,261
		z"/>
	<path class="st10" d="M93.8,261.3c0,0-0.7,3.2,1.8,4.3c2.4,1,5.4,1.9,5.3,2.7c-0.1,0.7-2.7,1.6-4.2,1.3c-1.5-0.3-4.2-1.1-6.3-0.8
		c-2.1,0.3-5.8,0.2-6.3-0.4s4.3-8.6,4.3-8.6L93.8,261.3z"/>
	<path class="st5" d="M88.4,257.2c0,0-1-0.7,0-3.3c1-2.6,11.2-22,12-24c0.9-2,3.1-22.3,2.9-22.8c-0.2-0.6-0.4-3.4-0.4-3.4l8.6,7.4
		v15.2c0,0-2.2,5.9-3.1,7.7c-1,2.3-9.6,24.1-13.1,24.6C91.8,259.1,88.4,257.2,88.4,257.2z"/>
	<path class="st5" d="M107.1,258.6c0,0-0.6-0.8-0.3-1.9c0.3-1.1,6.5-21,6-22.7c-0.4-1.7-5.6-22.7-6.7-23.8c-1.1-1.1-3.7-3.7-3.3-7.3
		c0.4-3.6,1.6-8.3,1.6-8.3l15.3,3.7c0,0-1.6,7.3-1.4,7.8c0.2,0.6,3.9,24.1,3.4,26.7c-0.5,2.6-5.8,25.1-7.7,25.1c0,0-5.7,1.2-5.9,1.2
		C108.1,259.1,107.1,258.6,107.1,258.6z"/>
	<path class="st4" d="M104.3,191.3c0,0-2,4-1.3,5c0.7,1,17.3,3.6,17.8,2.4c0.4-1.3-1.1-7.4-1.1-7.4H104.3z"/>
	<path class="st11" d="M120.8,156.5c0,0-1.3-0.2-1.9,0.6c-0.6,0.8-0.9,1.4-0.9,1.4l-1.7-0.9l-4.4-2.2l2.9-4.2l4.8,1.1l0.6,2.4
		L120.8,156.5z"/>
	<path class="st12" d="M120.8,156.5c0,0-1.3-0.2-1.9,0.6c-0.6,0.8-0.9,1.4-0.9,1.4l-1.7-0.9c0.5-0.3,1.2-0.8,1.5-1.2
		c0.5-0.7,0.4-2,0.4-2s1.1,0.1,2.1,0.2L120.8,156.5z"/>
	<path class="st4" d="M110.3,157.1c0,0,0.6-2.7,1.2-2.6c0.6,0.1,7.2,3,7.2,3.8c0,0.8-2.6,3.2-2.6,3.2L110.3,157.1z"/>
	<path class="st13" d="M118.8,192.3c-2,0.1-3.9,0.2-5.7,0.1c-2,0-3.8-0.1-5.1-0.2c-1.6-0.1-2.7-0.2-2.7-0.2s-3.2-1.7-3.4-6.6
		c-0.2-4.9,2.2-28.6,8.7-28.6c2.6,0,8.4,5.7,9.7,12.3C121.8,175.7,125.6,191.9,118.8,192.3z"/>
	<path class="st1" d="M106.8,262.2c0,0,6.7,0,6.8-0.3c0.1-0.4,0.5-3.8,0.5-3.8s-7,0.3-7.1,0.6C107.1,258.9,106.8,262.2,106.8,262.2z
		"/>
	<path class="st1" d="M87.6,261c0,0,5.8,1.5,6.1,1.2c0.3-0.3,2-3.1,1.6-3.6c-0.4-0.6-6.6-1.8-6.9-1.3C88,257.7,87.6,261,87.6,261z"
		/>
	<path class="st3" d="M159.2,167.9l-29.2-4.2c-1-0.1-1.8,0.7-1.5,1.7l1.5,6.1c0.2,0.7-0.3,1.5-1,1.7l-8.3,1.9
		c-0.7,0.2-1.2,0.9-1,1.6l1.6,7.5c0.2,0.8,0.9,1.2,1.7,1l8.6-2.1c0.7-0.2,1.5,0.3,1.7,1l1.4,5.5c0.2,1,1.5,1.4,2.2,0.7l23.2-20
		C160.8,169.5,160.4,168,159.2,167.9z"/>
	<path class="st11" d="M128.9,187.4c0,0,1.3,0,1.6-0.7c0.3-0.7,0.8-2.5,1.5-2.4c0.7,0.1,0.4,2.1,0.9,2.4c0.4,0.3,2.6-0.6,3.2-1.1
		c0.6-0.5,2.2-1.9,2.7-1.8c0.5,0.1-0.9,2.2-0.8,2.5c0.1,0.4,1,3.3,0.7,4c-0.3,0.7-2,2.8-2.8,3c-0.8,0.1-6.2,0-6.2,0L128.9,187.4z"/>
	<path class="st13" d="M113.1,192.5c-2,0-3.8-0.1-5.1-0.2c-0.7-0.7-1.3-1.6-1.7-2.7c-1.5-4.2-0.9-22.6-0.9-22.6s2.8,2,2.9,2.3
		c0.1,0.2,5.6,17.4,6,18.2C114.4,188,113.7,190.6,113.1,192.5z"/>
	<path class="st4" d="M126.7,187.6c0,0,1.6-1.6,3.1-0.7c1.5,1,1.6,6.8,0.5,7.4c-1.1,0.6-4.1,0-4.1,0
		C126.1,194.3,126.7,187.6,126.7,187.6z"/>
	<path class="st1" d="M127.8,194.6c-0.4,1-13.9,2.9-16.4,1.5c-2-1.2-6-25.8-6.1-29.1c-0.1-3.2,1.8-5.2,4.1-5.5c2.3-0.3,4.8,2,5.1,8
		c0.1,2,0.3,4.6,0.5,7.3c0,0,0,0,0,0c0,0,0,0.1,0,0.1c0,0.1,0,0.2,0,0.3c0,0.1,0,0.2,0,0.2c0.6,5,1.4,9.9,2.2,10.3
		c0.2,0.1,0.5,0.1,1,0.1l0.3,0c2.5-0.3,7.3-1.8,8.5-0.6C127.2,187.2,129.3,190.9,127.8,194.6z"/>
	<path class="st11" d="M125.5,144.7c0,0-0.7,4.5-0.9,5.8c-0.2,1.3,1,2.3,0.7,2.8c-0.2,0.4-1.4,0.2-1.5,0.6c-0.1,0.3-1.3,3.1-1.6,3.2
		c-0.3,0.1-3.8-1.8-3.9-2.4c-0.1-0.6,0-2.2,0-2.2s-3.4,0.9-3.9-0.5c-0.5-1.3,0.1-7,0.1-7S126,141.9,125.5,144.7z"/>
	<path class="st12" d="M119,149c0,0,0.5-0.6,1-0.3c0.5,0.3,4.3,0.7,5.1-1.2s-0.4-2.5-0.8-2.4c-0.3,0-7.2,1.1-7.2,1.1
		C117.2,146.3,119,149,119,149z"/>
	<path class="st5" d="M118.9,149.9c0,0-0.3-1.6-1.6-1.5c-1.4,0-1.9,3.4-0.3,3.6c0,0-2,1.7-3.6,1.5c-1.5-0.2-4.9-7-2.8-9.7
		c0.9-1.2,1.9-1.1,1.9-1.1s-0.1-3.3,3.4-4.3c3.5-1,9.1,0.8,9.9,2.5c0.7,1.8,0,1.9,1.2,3.6c1.1,1.6-1.9,4.1-1.9,4.1l-0.1-2.3
		c0,0-2.5,3.1-5,1.9C119,147.8,118.9,149.9,118.9,149.9z"/>
	<path class="st12" d="M117,149c0,0,1.2,0.1,0.7,1.3c-0.4,1.2-0.9,0.6-0.9,0.6S118.2,150.4,117,149z"/>
	<path class="st13" d="M118.4,187.8l-4.1,0.4c0,0,1.1-0.7,1.2-4.4c0.1-2.7-0.2-5.3-0.3-6.5c0.6,5,1.4,9.9,2.2,10.3
		C117.6,187.8,117.9,187.8,118.4,187.8z"/>
	
		<ellipse transform="matrix(0.2328 -0.9725 0.9725 0.2328 176.3687 349.8288)" class="st5" cx="309.9" cy="63.1" rx="20.2" ry="20.2"/>
	<circle class="st6" cx="309.9" cy="63.1" r="18"/>
	<path class="st5" d="M302.1,55.3c0,0.8-0.6,1.4-1.4,1.4c-0.8,0-1.4-0.6-1.4-1.4c0-0.8,0.6-1.4,1.4-1.4
		C301.5,53.9,302.1,54.5,302.1,55.3z"/>
	<path class="st5" d="M304.9,70.3c0,0.8-0.6,1.4-1.4,1.4c-0.8,0-1.4-0.6-1.4-1.4c0-0.8,0.6-1.4,1.4-1.4
		C304.3,68.9,304.9,69.5,304.9,70.3z"/>
	<circle class="st5" cx="317.5" cy="70.3" r="1.4"/>
	<g>
		<path class="st5" d="M314.9,68.8h-9.3c-1.1,0-2-0.7-2.4-1.8l-2.6-8.4c-0.2-0.5,0.1-1.1,0.6-1.2c0.5-0.2,1,0.1,1.2,0.6l2.6,8.4
			c0.1,0.3,0.3,0.4,0.6,0.4h9.3c0.2,0,0.5-0.1,0.6-0.3l3.8-6.4c0.1-0.2,0.1-0.4,0-0.5c-0.1-0.2-0.3-0.4-0.6-0.4h-14.1
			c-0.5,0-0.9-0.4-0.9-1c0-0.5,0.4-1,0.9-1h14.1c0.9,0,1.8,0.5,2.2,1.4c0.4,0.8,0.4,1.8-0.1,2.6l-3.8,6.4
			C316.6,68.4,315.8,68.8,314.9,68.8z"/>
	</g>
	<polygon class="st5" points="71.8,71.7 90.4,98.9 127.2,86.3 122.9,51.6 	"/>
	<polygon class="st4" points="65.9,69.6 68.6,73.8 125.4,52.2 124.6,47.2 	"/>
	<polygon class="st6" points="121.8,45.8 121.7,45.9 96.4,54.8 96,55 95.8,55.1 95.1,55.3 95,55.4 93.7,55.8 69,64.5 68.8,64.6 
		71.2,60.6 71.4,60.6 89.9,54 92.6,53.1 93.1,52.9 94.3,52.5 95.4,52.1 97.8,51.2 117.9,44.1 118.1,44 	"/>
	<g>
		<path class="st6" d="M95.3,82.8l-1-2.8c1.4-0.5,2.3-1.4,2.9-2.9c2.2-5.1-1-15.1-2.5-18.5l-2.6-6.8l2.7-1.1l2.6,6.8
			c0.2,0.5,5.6,13.4,2.4,20.8C99,80.5,97.5,82,95.3,82.8z"/>
	</g>
	<g>
		<path class="st6" d="M94.9,55.3h-2.4l0.9-1.7c0-0.1,0-0.1-0.1-0.2C89.1,36.9,93.8,31,98.4,29c2.6-1.1,4-0.4,4.7,0.3
			c1.2,1.3,2.1,4.1-2.1,14.5c-2,4.9-4.3,9.5-4.7,10.4c0,0.1-0.1,0.3-0.2,0.4l-0.4,0.6L94.9,55.3z M100.9,31.4c-0.2,0-0.6,0-1.3,0.4
			c-4.6,2-6,8.1-4.2,17.7c0.9-1.9,1.9-4.2,2.9-6.6c4-9.8,2.7-11.3,2.7-11.4C101,31.4,101,31.4,100.9,31.4z"/>
	</g>
	<g>
		<path class="st6" d="M96.6,55.8l-3.8-1c-0.2-0.1-5.3-1.3-10.5-3.3c-10.1-3.7-11.5-6.4-11.7-8.1c-0.2-1.8,1-3.3,3.6-4.4
			c8-3.7,18.9,11.7,20.2,13.5L96.6,55.8z M76.9,41.4c-0.5,0-1,0.1-1.4,0.3c-1.5,0.7-1.9,1.3-1.9,1.5c0.2,1.8,7.1,5.1,15.8,7.6
			C85.9,46.7,80.7,41.4,76.9,41.4z"/>
	</g>
	<path class="st7" d="M295.8,104.1h-12.6l-1.6-11.8c-0.8-0.2-7.8-1.5-9-1.5c-1.2,0-7.1,1.5-7.9,1.6c-0.3,0.1-1.5,5.3-2.8,11.7h-12.3
		c1.9-8.9,4-18.9,4.4-20.2c0-0.1,0.1-0.3,0.1-0.5h39.2C293.9,86.9,294.9,96,295.8,104.1z"/>
	<path class="st5" d="M288.2,72.7c0,0-4.9,2-10.5,3.2c-2.8,0.6-5.9,0.8-9,0.1c-0.1,0-0.2,0-0.2,0c-9.4-2-13.2-2.2-13.2-2.2
		c0.1-0.3,0.9-3.5,0.9-5.2c0-1.6-1.4-18.8,0-26.5c0.2-0.6,8.7-3.2,11.6-3.5c0,0,0,0,0,0c0.2,0,0.3,0,0.4,0c0.9,0,4.1-0.1,7.6-0.1
		c5.5,0,12,0,12.3,0.6c0.5,0.9,0.5,14.8-1.3,20.1C285,64.2,283.8,70.3,288.2,72.7z"/>
	<path class="st5" d="M268.4,76c-9.4-2-13.2-2.2-13.2-2.2c0-0.1,0.2-0.8,0.4-1.6c0.3-1.1,0.5-2.6,0.5-3.6c0-0.3-0.1-1.3-0.1-2.8
		c-0.3-5.5-1-17.6,0.1-23.8c0.2-0.6,8.7-3.2,11.6-3.5c-0.1,0.1-3.1,1.2-0.7,4.9C269.3,47.2,273.7,68.4,268.4,76z"/>
	<path class="st5" d="M288.2,72.7c0,0-4.9,2-10.5,3.2c-3.8-4.4-4.2-24.8-1.3-31.9c2-4.7-0.7-5.6-0.7-5.6c5.5,0,12,0,12.3,0.6
		c0.5,0.9,0.5,14.8-1.3,20.1C285,64.2,283.8,70.3,288.2,72.7z"/>
	<path class="st14" d="M271.2,61.5l-0.6-9.5c0-0.4,0.3-0.7,0.6-0.7l7.9-0.7c0.4,0,0.8,0.3,0.8,0.7v7.5c0,0.3-0.2,0.6-0.5,0.7
		l-7.3,2.8C271.7,62.3,271.2,62,271.2,61.5z"/>
	<path class="st15" d="M270.6,65.1l-0.4,2.2c0,0-11.1,4.7-14.6,4.8c0.3-1.1,0.5-2.6,0.5-3.6c0-0.3-0.1-1.3-0.1-2.8
		c2.5-0.4,5.7-0.7,6.2-0.7C262.8,65.1,270.6,65.1,270.6,65.1z"/>
	<path class="st11" d="M267.9,60.9c0,0,2.9-4.6,3.2-4.6l-0.1,3.1c0,0,0.1,1.5,1.9,1.4c1.8,0,7.6-6.1,7.9-5.6c0.2,0.5-1.2,2-1,2.6
		c0.2,0.5,0.6,1.8,0.6,3c0,1.2-2.7,5.5-3.6,5.6c-0.9,0.2-9.2,1.3-9.6,0.7C266.9,66.4,267.9,60.9,267.9,60.9z"/>
	<path class="st5" d="M262.5,68c0,0-16.7,2.7-17.4,0.3c-0.7-2.4,3.4-15.2,4.9-19.9c1.4-4.7,6.1-6.3,6.1-6.3l-0.3,10.4c0,0,0,0,0,0
		l-0.2,8.5l7.6,0.4C265.2,63.2,262.5,68,262.5,68z"/>
	<path class="st4" d="M267.9,60.9l-4.6,0.3c0,0-2.2,5.2-0.7,6.7l4.9-0.7C267.5,67.3,267.7,66.8,267.9,60.9z"/>
	<path class="st5" d="M323.5,51.2c0,0-1.9-0.2-3.9-1c0,0,0,0,0,0c-2.1-0.8-10.8-4.2-13.9-4.2c-1.6,0-6.1,1-10.1,2
		c-3.9,1-7.4,1.9-7.4,1.9L288,39c0,0,17.5-2.7,19.7-2.6c4.8,0.3,21.8,8.6,22.3,9.3C330.5,46.3,323.5,51.2,323.5,51.2z"/>
	<path class="st6" d="M301.1,113c-3.8,9-12.8,6.7-12.8,6.7l-5-32.7c-0.9-0.2-9-1.5-10.3-1.5c-1.3,0-8.1,1.5-9,1.6
		c-0.8,0.2-8.1,33.6-8.1,33.6c-12,1.3-12.6-7.7-12.6-7.7s7.7-32,8.5-34.4c0.7-2.3,3.1-6.3,7.8-5.6c3.8,0.5,10.8,2.3,13.4,2.9
		c0.6,0.2,1,0.3,1,0.3s0.1,0,0.4-0.1c0,0,0,0,0,0c2.3-0.7,13.2-3.8,14.9-3.8c2.3,0,6.1,2.1,7,4.8C297.4,79.6,301.1,113,301.1,113z"
		/>
	<path class="st5" d="M256,120.6c-1.2,0.1-2.3,0.2-3.3,0.1c-5.9-0.3-8.1-3.6-8.9-5.8c-0.4-1.1-0.5-2-0.5-2s1.6-0.3,3.7,0.2
		c2,0.4,4.4,1.3,6.4,3.6C254.4,117.7,255.3,119,256,120.6z"/>
	<path class="st5" d="M301.1,113c-0.3,0.8-0.7,1.5-1.1,2.1c-2.8,4.3-7,4.9-9.5,4.9c-1.3,0-2.1-0.3-2.1-0.3s0.4-1.4,1.4-3
		c1.1-1.8,2.9-3.7,5.7-4.3C297,112,298.9,112.1,301.1,113z"/>
	<path class="st11" d="M253,123.4c0.3,0.7,0.4,1.4,0.4,2.1c-0.1,2.1-1.5,3.8-4.6,3.5c-4.1-0.5-18.6-10-18-13.4c0.4-2,3-2.3,8.1-0.8
		c2,0.6,3.6,0.5,4.9,0.1c1.5-0.4,2.6-1.2,3.2-1.8c2,0.4,4.4,1.3,6.4,3.6c-0.2,0.7-0.7,2.3-0.8,4.1
		C252.7,121.7,252.7,122.6,253,123.4z"/>
	<path class="st5" d="M253.4,125.5c-0.1,2.1-1.5,3.8-4.6,3.5c-4.1-0.5-18.4-9.6-18-13.4c0.3-2,3-2.3,8.1-0.8c0,0,5.5,2.6,7.5,6.1
		C248.3,124.5,251.5,121.8,253.4,125.5z"/>
	<path class="st11" d="M294.5,128.9c-3.1,0.4-4.6-1.4-4.6-3.5c0-0.7,0.1-1.4,0.4-2.1c0.4-1.1,0.4-2.3,0.3-3.5
		c-0.2-1.4-0.5-2.7-0.7-3.3c1.1-1.8,2.9-3.7,5.7-4.3c0.3,0.4,1.9,2.2,4.6,2.7c1.2,0.3,2.7,0.2,4.4-0.3c5.1-1.5,7.7-1.2,8.1,0.8
		C313.1,118.9,298.6,128.5,294.5,128.9z"/>
	<path class="st5" d="M289.8,125.5c0.1,2.1,1.5,3.8,4.6,3.5c4.1-0.5,18.4-9.6,18-13.4c-0.3-2-3-2.3-8.1-0.8c0,0-5.5,2.6-7.5,6.1
		C294.9,124.5,291.8,121.8,289.8,125.5z"/>
	<path class="st6" d="M274.5,80.8c-0.1,0.5-0.5,0.9-0.8,1.1c-0.3,0.2-0.6,0-0.6-0.3v-5.7c0.6,0.2,1,0.3,1,0.3s0.1,0,0.4-0.1
		C274.5,76.2,274.7,79.8,274.5,80.8z"/>
	<path class="st11" d="M267.5,35l0.4,7.5c0,0,1.3,2,4.1,2s3.7-2.1,3.7-2.1V35H267.5z"/>
	<path class="st12" d="M268.4,37.4c0,0,0.8,4.5,3.4,4.6c2.6,0.2,3.5-5.6,3.5-5.6L268.4,37.4z"/>
	<path class="st11" d="M264.3,25.6c0,0.2,1.5,8.6,3.6,11.2c2,2.5,3.2,2.9,4,2.9c0.7,0,3-1.3,4-2.6c1-1.3,2.9-10.3,2.7-11.5
		c-0.2-1.2-5-8-5.2-8C273.2,17.6,264.2,22.6,264.3,25.6z"/>
	<path class="st12" d="M266.1,23.8c0,0,1-1.4,1.9,0c0.9,1.4,1.9,6.3,5.2,6.1c3.3-0.1,4.8-0.4,4.8-0.4l-0.9-6l-9.7-4
		C267.5,19.4,265.7,23,266.1,23.8z"/>
	<path class="st5" d="M266.5,23c0,0,0.9-1.3,2-0.4c1.1,0.9,1.3,4.9,4.5,5.5c3.2,0.6,5,1.4,5,1.4h0.9l0.6-1c0,0,1.5-5.7,1.2-6.7
		c-0.3-1-2.6-6.7-3.4-7.3c-0.8-0.6-10.1-1.8-10.9-1c-0.8,0.8-2.5,4.7-2.5,4.7s-2.4,1-2.5,1.8c-0.1,0.8,1.9,9.2,2.4,9.5
		c0.5,0.2,1.2-0.1,1.2-0.1l-0.3-4.3C264.8,25.1,266.4,23.8,266.5,23z"/>
	<path class="st11" d="M327.1,52c0,0,0.3,2.8-0.5,4.5c-0.8,1.7-1.6,3.6-0.6,3.5c0.9-0.1,2.6-3.2,3-2.7c0.4,0.5,2.9,3.5,3,5.7
		s-0.3,5.7,0.4,5.4c0.7-0.3,0.8-2.5,1.3-2.8c0.5-0.3,0.2-0.8,0.9-1.5c0.7-0.7,4.8-3.4,4.6-4.9c-0.2-1.4-3.2-6.7-4.1-7.2
		c-1-0.6-2.7-2-2.7-2L327.1,52z"/>
	<path class="st4" d="M327.2,53.5l6.2-2.8l-3.4-5.1c0,0-4.8-0.5-6.5,5.5L327.2,53.5z"/>
	<path class="st11" d="M265.5,29.7c0,0-1.8-1.6-2.6-1c-0.8,0.6,1.5,4.9,3.4,3.5C268.2,30.8,265.5,29.7,265.5,29.7z"/>
	<path class="st11" d="M277.7,29.9c0,0,1.5-1.7,2.4-1.4s-0.9,5.9-3.1,4.3C274.7,31.3,277.7,29.9,277.7,29.9z"/>
	<path class="st15" d="M255.9,52.5l-0.2,8.5h-4.2c0,0,2.1-0.5,3-2.7C255.5,56.2,255.9,52.6,255.9,52.5z"/>
	<path class="st15" d="M319.6,50.2c-2.1-0.8-10.8-4.2-13.9-4.2c-1.6,0-6.1,1-10.1,2c0,0,8.6-2.7,9.4-3.6c0.8-0.9,1.1-3,1.7-2.4
		c0.6,0.5,0.5,2.9,1.1,3.1C308.2,45.3,318.9,49.9,319.6,50.2z"/>
</g>
</svg>
