<svg xmlns="http://www.w3.org/2000/svg" viewBox="0 0 48 48">
  <linearGradient id="a" gradientUnits="userSpaceOnUse" x1="45.1478" y1="23.921" x2="3.5981" y2="23.921">
    <stop offset="0" stop-color="#7475d4"/>
    <stop offset="1" stop-color="#303096"/>
  </linearGradient>
  <path d="M25.2 34.5c.9-.6 1.2-1.7.9-2.8-.3-1-1.3-1.7-2.4-1.7h-1.3c-.4 0-.8-.3-.9-.6l-.4-1.3c-.3-1-1.3-1.7-2.4-1.7-1.1 0-2 .7-2.4 1.7l-.3 1.3c-.1.4-.5.6-.9.6h-1.3c-1.1 0-2 .7-2.4 1.7-.3 1 0 2.1.9 2.8l1.1.8c.3.2.5.7.3 1l-.4 1.3c-.3 1 0 2.1.9 2.8.4.3.9.5 1.5.5.5 0 1-.2 1.5-.5l1.1-.8c.3-.2.8-.2 1.1 0l1.1.8c.9.6 2 .6 2.9 0 .9-.6 1.2-1.7.9-2.8l-.4-1.3c-.1-.4 0-.8.3-1l1-.8zm-2-.4c-.9.6-1.2 1.7-.9 2.8l.4 1.3c.2.6-.2.9-.3 1-.1.1-.6.4-1.1 0l-1.1-.8c-.9-.6-2-.6-2.9 0l-1.1.8c-.5.4-1 .1-1.1 0-.1-.1-.5-.4-.3-1l.4-1.3c.3-1 0-2.1-.9-2.8l-1.1-.8c-.5-.4-.4-.9-.3-1 0-.2.3-.6.9-.6h1.3c1.1 0 2-.7 2.4-1.7l.4-1.3c.1-.7.7-.7.8-.7.2 0 .7 0 .9.6l.4 1.3c.3 1 1.3 1.7 2.4 1.7h1.3c.6 0 .8.5.9.6 0 .2.2.7-.3 1l-1.1.9zm9.1-7.6c-.5.4-.7 1-.5 1.6l.5 1.7c.4 1.3 0 2.6-1.1 3.3-.5.4-1.1.6-1.8.6-.6 0-1.2-.2-1.8-.6l-.5-.4c-.3-.3-.4-.7-.2-1.1.3-.3.7-.4 1.1-.2l.5.4c.6.5 1.3.3 1.7 0 .4-.3.8-.9.5-1.6l-.5-1.7c-.4-1.2 0-2.6 1.1-3.3l1.4-1c.6-.5.7-1.1.5-1.6-.2-.5-.6-1-1.4-1h-1.7c-1.3 0-2.4-.8-2.8-2.1l-.5-1.7c-.2-.7-.9-1-1.4-1-.5 0-1.1.3-1.4 1l-.5 1.7c-.4 1.2-1.5 2.1-2.8 2.1H19c-.8 0-1.2.5-1.4 1-.2.5-.1 1.2.5 1.6l.1.1c.3.3.4.7.2 1.1-.3.3-.7.4-1.1.2l-.1-.1c-1.1-.8-1.5-2.1-1.1-3.3.4-1.3 1.5-2.1 2.8-2.1h1.7c.6 0 1.2-.4 1.4-1l.5-1.7c.4-1.3 1.5-2.1 2.8-2.1 1.3 0 2.4.8 2.8 2.1l.5 1.7c.2.6.7 1 1.4 1h2c1.3 0 2.4.8 2.8 2.1.4 1.3 0 2.6-1.1 3.3l-1.4 1zm11.5-13.1l-1.6 1.2c-.6.5-.9 1.3-.7 2l.6 1.9c.5 1.4 0 2.9-1.2 3.8-.6.4-1.3.7-2 .7s-1.4-.2-2-.7l-1.6-1.2c-.3-.3-.4-.7-.2-1.1.3-.3.7-.4 1.1-.2l1.6 1.2c.8.6 1.6.4 2.1 0s1-1.1.7-2l-.6-1.9c-.5-1.4 0-2.9 1.2-3.8l1.6-1.2c.8-.6.9-1.4.7-2-.2-.6-.8-1.2-1.7-1.2h-2c-1.5 0-2.7-.9-3.2-2.3L36 4.7c-.3-.9-1.1-1.2-1.7-1.2-.6 0-1.4.3-1.7 1.2L32 6.6c-.5 1.4-1.7 2.3-3.2 2.3h-2c-1 0-1.5.6-1.7 1.2-.2.6-.1 1.5.7 2l1.6 1.2c.3.3.4.7.2 1.1-.3.3-.7.4-1.1.2l-1.6-1.2c-1.2-.9-1.7-2.3-1.2-3.8.5-1.4 1.7-2.3 3.2-2.3h2c.8 0 1.5-.5 1.7-1.2l.4-1.9c.5-1.4 1.7-2.3 3.2-2.3 1.5 0 2.7.9 3.2 2.3l.6 1.9c.2.7.9 1.2 1.7 1.2h2c1.5 0 2.7.9 3.2 2.3.5 1.5.1 3-1.1 3.8zm-6 32.3h-5.9c.5-.7.8-1.5.8-2.3v-7.6c0-.4-.3-.8-.8-.8-.4 0-.8.3-.8.8v7.6c0 1.3-1 2.3-2.3 2.3H8.6c-1.3 0-2.3-1-2.3-2.3V4.5c0-1.3 1-2.3 2.3-2.3H11v.3c0 1.1.9 2 2 2h11.5c1.1 0 2-.9 2-2v-.4h2.3c.4 0 .8.1 1.2.3.4.2.8.1 1.1-.3.2-.4.1-.8-.3-1.1-.6-.4-1.3-.6-2-.6H8.6C6.5.4 4.7 2.1 4.7 4.3v38.9c0 .9.3 1.7.8 2.3H4.4c-.4 0-.8.3-.8.8 0 .4.3.8.8.8h33.5c.4 0 .8-.3.8-.8-.1-.2-.5-.6-.9-.6zM24.9 2.1v.3c0 .3-.2.5-.5.5H13c-.3 0-.5-.2-.5-.5v-.3h12.4zM10 8.5c0-.4.3-.8.8-.8h10.1c.4 0 .8.3.8.8 0 .4-.3.8-.8.8H10.8c-.5 0-.8-.3-.8-.8zm0 3.7c0-.4.3-.8.8-.8h10.1c.4 0 .8.3.8.8 0 .4-.3.8-.8.8H10.8c-.5 0-.8-.3-.8-.8zm0 3.8c0-.4.3-.8.8-.8h10.1c.4 0 .8.3.8.8 0 .4-.3.8-.8.8H10.8c-.5-.1-.8-.4-.8-.8zm0 3.7c0-.4.3-.8.8-.8h4.5c.4 0 .8.3.8.8 0 .4-.3.8-.8.8h-4.5c-.5 0-.8-.4-.8-.8zm0 3.7c0-.4.3-.8.8-.8H14c.4 0 .8.3.8.8 0 .4-.3.8-.8.8h-3.3c-.4 0-.7-.4-.7-.8zm0 3.7c0-.4.3-.8.8-.8h2.6c.4 0 .8.3.8.8 0 .4-.3.8-.8.8h-2.6c-.5 0-.8-.4-.8-.8z" fill="url(#a)"/>
</svg>