<svg version="1.1" id="Layer_1" xmlns="http://www.w3.org/2000/svg" x="0" y="0" viewBox="0 0 450 300" xml:space="preserve">
  <style>
    .st1{fill:#f1eef7}.st3{fill:#8182bd}.st4{fill:#ffce52}.st5{fill:#f5a120}.st8{fill:#393768}.st9{fill:#acaad5}.st10{fill:#383c8f}.st11{fill:#5d61a8}.st12{fill:#2b3087}.st13{fill:#2a3070}.st15{fill:#fbded0}.st16{fill:#e7b9a5}.st19{fill:#e7911d}.st21{fill:#dedeee}.st22{fill:#5456a1}.st23{fill:silver}
  </style>
  <path d="M215.1 254.5s-77.9 1.7-74.7 5.5c3.3 3.8-61.8 5.8-76.9 11.6s76.2 16.4 84.9 17.8c8.7 1.4-2.2 6.9 12.7 8.7 14.9 1.8 117.4-1.1 125-4.3 7.6-3.3-4-6.9 2.9-7.2 6.9-.4 68.5-2.7 79.4-7 10.9-4.3-37-8.3-42.1-8.8-5.1-.5 7.1-3.9 10.8-5.5s-122-10.8-122-10.8z" fill="#e4d8eb"/>
  <path class="st1" d="M110.4 145.8S76.3 134.7 63.5 120c-12.7-14.6-1-33.1 13.5-36.4 14.5-3.3-1.8-49.6 24.3-58.5 26.1-8.9 35.6 14.3 50.7 20.3 15.1 6.1 20.2-32.9 44.3-34.1 24.1-1.2 33.3 62.8 42 67.2 8.7 4.6-127.9 67.3-127.9 67.3zM272.1 70.5s27.9-29.4 56.6-34.8c28.7-5.4 29.5 29.3 41.3 33.2 11.8 3.9 28.1 19.9 21 46.1-7.1 26.2-72.5 19.7-72.5 19.7l-46.4-64.2z"/>
  <circle transform="rotate(-80.833 152.81757086 25.1182865)" class="st1" cx="152.8" cy="25.1" r="10.6"/>
  <circle class="st1" cx="65.8" cy="68.9" r="6.7"/>
  <circle transform="rotate(-80.846 258.68657116 26.1567121)" class="st1" cx="258.7" cy="26.2" r="13.4"/>
  <circle transform="rotate(-22.5 378.0040489 157.49242906)" cx="378" cy="157.5" fill="#f8f0f3" r="6.6"/>
  <path class="st3" d="M133.8 263.8h51.6v2.2h-51.6z"/>
  <path class="st4" d="M272.1 262.3h-82.3l17-50.9H255z"/>
  <path class="st4" d="M208.8 222.1c-2 6.9-15.9 37.9 2.1 40.2h-21.1l17-50.9h9.8s-5.8 3.8-7.8 10.7zM253.1 222.1c2 6.9 15.9 37.9-2.1 40.2h21.1l-17-50.9h-9.8s5.8 3.8 7.8 10.7z"/>
  <path class="st5" d="M361.7 76.8v125.7c0 6.1-5 11.1-11.1 11.1H112.4c-6.1 0-11.1-5-11.1-11.1V76.8c0-6.1 5-11.1 11.1-11.1h238.2c6.1 0 11.1 4.9 11.1 11.1z"/>
  <path class="st5" d="M361.7 187.6v14.8c0 6.1-5 11.1-11.1 11.1H112.4c-6.1 0-11.1-5-11.1-11.1v-14.8h260.4z"/>
  <path class="st5" d="M361.7 187.6v12.6c0 6.1-5 11.1-11.1 11.1H112.4c-6.1 0-11.1-5-11.1-11.1v-12.6h260.4z"/>
  <path d="M186.5 262.3h89.1c1.4 0 2.5 1.2 2.5 2.6 0 1.5-1.1 2.6-2.5 2.6h-89.1c-1.4 0-2.5-1.2-2.5-2.6 0-1.4 1.1-2.6 2.5-2.6z" fill="#656baf"/>
  <path fill="#eeeeef" d="M109.3 75.3h244.3v112.3H109.3z"/>
  <path class="st1" d="M330 98.8v88.8H131.8V98.8c0-4.4 3.6-8 8-8H322c4.4.1 8 3.6 8 8z"/>
  <path class="st8" d="M330 98.8v4H131.8v-4c0-4.4 3.6-8 8-8H322c4.4.1 8 3.6 8 8z"/>
  <path class="st1" d="M146 96.8c0 1.5-1.2 2.7-2.7 2.7-1.5 0-2.7-1.2-2.7-2.7 0-1.5 1.2-2.7 2.7-2.7 1.5 0 2.7 1.2 2.7 2.7zM157.5 96.8c0 1.5-1.2 2.7-2.7 2.7-1.5 0-2.7-1.2-2.7-2.7 0-1.5 1.2-2.7 2.7-2.7 1.4 0 2.7 1.2 2.7 2.7zM168.9 96.8c0 1.5-1.2 2.7-2.7 2.7-1.5 0-2.7-1.2-2.7-2.7 0-1.5 1.2-2.7 2.7-2.7 1.5 0 2.7 1.2 2.7 2.7z"/>
  <path class="st4" d="M190.5 136.3h-36.2c-3.2 0-5.8-2.6-5.8-5.8v-9.6c0-3.2 2.6-5.8 5.8-5.8h36.2c3.2 0 5.8 2.6 5.8 5.8v9.6c0 3.3-2.6 5.8-5.8 5.8z"/>
  <path class="st9" d="M190.5 164.1h-36.2c-3.2 0-5.8-2.6-5.8-5.8v-9.6c0-3.2 2.6-5.8 5.8-5.8h36.2c3.2 0 5.8 2.6 5.8 5.8v9.6c0 3.2-2.6 5.8-5.8 5.8z"/>
  <path class="st3" d="M192.9 178.7h-41c-1.9 0-3.4-1.5-3.4-3.4v-1.8c0-1.9 1.5-3.4 3.4-3.4h41c1.9 0 3.4 1.5 3.4 3.4v1.8c0 1.9-1.6 3.4-3.4 3.4z"/>
  <path class="st9" d="M252 178.7h-41c-1.9 0-3.4-1.5-3.4-3.4v-1.8c0-1.9 1.5-3.4 3.4-3.4h41c1.9 0 3.4 1.5 3.4 3.4v1.8c0 1.9-1.5 3.4-3.4 3.4zM312.4 178.7h-41c-1.9 0-3.4-1.5-3.4-3.4v-1.8c0-1.9 1.5-3.4 3.4-3.4h41c1.9 0 3.4 1.5 3.4 3.4v1.8c0 1.9-1.6 3.4-3.4 3.4z"/>
  <path class="st4" d="M309.6 153.7h-35.5c-3.4 0-6.2-2.8-6.2-6.2V144c0-3.4 2.8-6.2 6.2-6.2h35.5c3.4 0 6.2 2.8 6.2 6.2v3.5c0 3.5-2.8 6.2-6.2 6.2zM312.9 111.6h-68.7c-1.6 0-2.9-1.3-2.9-2.9 0-1.6 1.3-2.9 2.9-2.9h68.7c1.6 0 2.9 1.3 2.9 2.9 0 1.6-1.3 2.9-2.9 2.9z"/>
  <path class="st3" d="M247.8 121.9h-39.7c-.5 0-.8-.4-.8-.8 0-.5.4-.8.8-.8h39.7c.5 0 .8.4.8.8 0 .5-.3.8-.8.8zM247.8 126.8h-39.7c-.5 0-.8-.4-.8-.8 0-.5.4-.8.8-.8h39.7c.5 0 .8.4.8.8 0 .5-.3.8-.8.8zM247.8 131.2h-39.7c-.5 0-.8-.4-.8-.8 0-.5.4-.8.8-.8h39.7c.5 0 .8.4.8.8s-.3.8-.8.8z"/>
  <path class="st8" d="M247.8 147.5h-39.7c-.5 0-.8-.4-.8-.8 0-.5.4-.8.8-.8h39.7c.5 0 .8.4.8.8s-.3.8-.8.8zM247.8 151.8h-39.7c-.5 0-.8-.4-.8-.8 0-.5.4-.8.8-.8h39.7c.5 0 .8.4.8.8 0 .5-.3.8-.8.8z"/>
  <path class="st9" d="M317.4 163.8h-4.9c-.5 0-.8-.4-.8-.8 0-.5.4-.8.8-.8h4.9c.5 0 .8.4.8.8s-.3.8-.8.8zm-13 0h-4.9c-.5 0-.8-.4-.8-.8 0-.5.4-.8.8-.8h4.9c.5 0 .8.4.8.8s-.4.8-.8.8zm-13.1 0h-4.9c-.5 0-.8-.4-.8-.8 0-.5.4-.8.8-.8h4.9c.5 0 .8.4.8.8s-.3.8-.8.8zm-13 0h-4.9c-.5 0-.8-.4-.8-.8 0-.5.4-.8.8-.8h4.9c.5 0 .8.4.8.8s-.4.8-.8.8zm-13.1 0h-4.9c-.5 0-.8-.4-.8-.8 0-.5.4-.8.8-.8h4.9c.5 0 .8.4.8.8s-.3.8-.8.8zm-13 0h-4.9c-.5 0-.8-.4-.8-.8 0-.5.4-.8.8-.8h4.9c.5 0 .8.4.8.8s-.4.8-.8.8zm-13.1 0h-4.9c-.5 0-.8-.4-.8-.8 0-.5.4-.8.8-.8h4.9c.5 0 .8.4.8.8s-.3.8-.8.8zm-13 0h-4.9c-.5 0-.8-.4-.8-.8 0-.5.4-.8.8-.8h4.9c.5 0 .8.4.8.8s-.4.8-.8.8zm-13.1 0h-4.9c-.5 0-.8-.4-.8-.8 0-.5.4-.8.8-.8h4.9c.5 0 .8.4.8.8.1.4-.3.8-.8.8zM296.5 130.5v4c0 .7.6 1.2 1.2 1.2.7 0 1.2-.6 1.2-1.2v-4c0-.7-.6-1.2-1.2-1.2s-1.2.5-1.2 1.2zM346.6 130.5v4c0 .7.6 1.2 1.2 1.2.7 0 1.2-.6 1.2-1.2v-4c0-.7-.6-1.2-1.2-1.2s-1.2.5-1.2 1.2zM296.2 65.7h2.7v55.4h-2.7zM346.2 65.7h2.7v55.4h-2.7z"/>
  <path class="st10" d="M285.3 121.1h75v8.7h-75z"/>
  <path class="st11" d="M298.5 130.9H297c-1.7 0-3-1.4-3-3v-5.4c0-1.7 1.4-3 3-3h1.6c1.7 0 3 1.4 3 3v5.4c0 1.7-1.4 3-3.1 3zM348.5 130.9H347c-1.7 0-3-1.4-3-3v-5.4c0-1.7 1.4-3 3-3h1.6c1.7 0 3 1.4 3 3v5.4c0 1.7-1.4 3-3.1 3z"/>
  <path class="st12" d="M312.4 115s-2.5 4.4-3.5 5c-1 .5-.7 1.5 1.7 1.4 2.5-.2 7.8-.3 7.9-.6.1-.3-1-5.7-1-5.7h-5.1zM330.4 115.6s.5 3.2 2 4c1.5.8.8 1.7.8 1.7l-8.8-.5s.7-4.7 2-7c1.4-2.2 4 1.8 4 1.8z"/>
  <path class="st8" d="M311.6 116.4s1.6-.4 2.9.7c1.3 1.1 4.4.8 4.4.8s-1.5-29.1-1.2-31.4c.3-2.3 2.7-12.3 2.8-13 .1-.7.9-.8 1.1-2.3.2-1.4.3-6.7.3-6.7l-14.6-1s1.5 19.9 1.7 23.7c.3 3.8 2.6 29.2 2.6 29.2z"/>
  <path class="st8" d="M330.6 116.6s-2.3-1.6-3.1-1l-.6.3c-1 .4-2.5.8-2.5.8s.6-25.4.6-26.9-4.5-16.4-4.5-16.4l-.2-3.8-.5-7.5 11.6 1.4s1 21.8 1 25.1c.1 3.3-1.8 28-1.8 28z"/>
  <path class="st13" d="M324.4 116.7s.6-25.4.6-26.9-4.5-16.4-4.5-16.4l-.2-3.8 1.4-.7.7 1.6s1.9 11.7 3.3 14.4c1.4 2.7 0 29.7 0 29.7s-.2 1 1.2 1.3c-1 .4-2.5.8-2.5.8z"/>
  <path d="M332.4 63s-15.2 8.2-26.6-.5l-.5-36.7s1.2-1.1 2.7-1.3c.3 0 1.3-.1 2.6-.1 3 0 7.9 0 11.8.1 3.1.1 5.6.3 6.1.6 1.4.8 3.9 37.9 3.9 37.9z" fill="#e28491"/>
  <path class="st4" d="M332.4 63s-5.7 3.1-12.8 3.5c-2.6.1-5.4-.1-8.2-1-1.9-.6-3.8-1.6-5.6-3l-.4-27.6-.1-9.2s1.2-1.1 2.7-1.3c.3 0 1.3-.1 2.6-.1L316 27s1.4.9 3 .2c.7-.3 2.1-1.6 3.4-2.8 3.1.1 5.6.3 6.1.6.3.2.7 2.3 1.1 5.5 1.3 10.6 2.8 32.5 2.8 32.5z"/>
  <path class="st4" d="M332.4 63s-5.7 3.1-12.8 3.5c-.4-.4-.7-.8-.7-1.1 0-.6 3.9-1.9 3.9-1.9l-.5-.4s-.1-1.3 1.3-1.1c1.4.2 4.1-4 5.6-6.7 1.5-2.6.5-12.6.5-12.6-1.9-3.3-1.9-12.5-1.9-12.5s.8.2 1.9.3c1.2 10.6 2.7 32.5 2.7 32.5zM311.5 65.5c-1.9-.6-3.8-1.6-5.6-3l-.4-27.6c.7-2.4 1.2-4 1.2-4s1.4 6.2.7 9.1c-.8 2.9.9 24.2 4.1 25.5z"/>
  <path class="st15" d="M306.4 39.8s-.9 1.8-2 4.1c-.4.7-.7 1.5-1.1 2.2l-5-6.4c.1 0 .5-.9 1.2-2.2 1.9-3.9 5.5-11.7 6-11.9.6-.1 2.2 9.3.9 14.2z"/>
  <path class="st10" d="M372.3 114.4l-3.1 2.8c-.5.4-1.1.3-1.5-.2-.4-.5-.3-1.3.2-1.7l3.1-2.8c.5-.5.6-1.3.2-2l-.7-1.1c-.1-.1-.2-.1-.3-.1l-12 4.2c-.9.3-1.9 0-2.5-.8l-52.4-66.6-5-6.4-11-13.9-2.8-3.6c-.4-.5-.3-1.3.1-1.7.2-.2.5-.3.7-.3.3 0 .6.1.8.4l2.7 3.4 4.8 6.1 5.9 7.5 5 6.3 52.9 67.2c.1.1.2.1.3.1l12-4.2c1-.4 2.1.1 2.7 1l.7 1.1c.9 1.8.6 4.1-.8 5.3z"/>
  <path class="st9" d="M352.7 124.1l14-11.4s3.3 1.9 4.3 6.2l-14 11.7s-3.9-1-4.3-6.5z"/>
  <path class="st15" d="M314.8 18.8l-.4 5.7s.9 1.7 3.1 1.7 3.1-1.3 3.1-1.3l-.5-6h-5.3z"/>
  <path class="st16" d="M315.2 19.6s.5 2.1 1.9 2.2c1.4.1 2.8-2.5 2.8-2.5l-1.6-2-3.1 2.3z"/>
  <path class="st15" d="M325.5 62.9s-4.1-.8-3.9-.2c.2.6 1 1.4 1.2 1.5.2.1.4-.5.4-.5s-2 1.2-2.3 1.3c-.3.1-3.6.4-3.6.7 0 .3 2.2 4.1 2.9 4.5.7.5 3.8 0 4.3 0s3.3-3.6 3.6-3.8c.3-.1 11.7-11.8 11.9-13.3.3-1.5-7.3-23.5-8.1-25-.8-1.5-2-3.2-3.4-3.1-1.4.2-.9 7.8.1 10.6s4.7 13.2 4.4 13.9-7.5 13.4-7.5 13.4z"/>
  <path class="st4" d="M310.7 24.4s-.2-3 .3-3.5 4.8-.3 5.1.4c.4.7.4 5.7 0 5.9-.4.1-5.4-2.8-5.4-2.8zM324.5 24.7s.2-3-.3-3.5-4.8-.3-5.1.4c-.4.7-.4 5.7 0 5.9.5 0 5.4-2.8 5.4-2.8z"/>
  <path class="st15" d="M298.2 39.8c-.5-.7-4.9-7.8-4.9-7.8l.2-1.8c.1-.9.2-1.8.2-2.2 0-.8-.7-5.8-.9-6.2-.2-.4-1.2-2.4-1.9-2.4s-1.7 2.5-1.9 3.3c-.1.3-.2.8-.3 1.4-.2 1-.5 2.2-.5 2.2s-.3-2.3-.9-1c-.1.2-.1.4-.1.7-.1 1.7 1 4.6 1 4.6s6.4 18 7.6 20.5c1.2 2.6 2.4 2.8 3.4 2.4.5-.2 2.3-3.7 4-7.1l-5-6.6zM312.4 9.3s-.3 5.9.7 7.8c1 1.8 2.9 3.6 4.1 3.6s3.5-1.6 4.2-3.3c.7-1.7.2-8.8.2-8.8l-2.8-4.2h-6.5l.1 4.9z"/>
  <path class="st16" d="M313.2 7.7s2 2.8 5.2 2.2c3.2-.6-.4-4.5-.4-4.5l-5.1-.3.3 2.6z"/>
  <path class="st8" d="M313.7 7s1.6 3.1 4.7 2.9c2.5-.2 2.8-.6 2.8-.6l.7 2.8 1.1-.3s.8-5.2.3-7.4-3.6-4-7.8-3.6c-4.2.4-3.9 2.6-3.9 2.6s-.8.2-1.1.6c-.3.5 1.4 8.1 1.4 8.1l.6-.3.3-3.8c-.1.1.5-.2.9-1z"/>
  <path class="st15" d="M312.3 11.8s-.4-.5-.7-.4c-.3.1-.2 2.8.8 3 1.1.1-.1-2.6-.1-2.6zM321.8 12.1s.3-.7.9-.5c.6.3-.4 3-.9 3-.5-.1 0-2.5 0-2.5z"/>
  <path class="st16" d="M311.8 11.8s.4.4.3.9c0 0-.1-.6-.3-.9zM322.7 12.1s-.6.2-.6.9c0 0 .2-.6.6-.9z"/>
  <path class="st4" d="M311.5 21.2s2.5.6 4.1.8c0 .1-2.5-.9-4.1-.8zM320 22.1l4.1-.4c0-.1-1.9-.4-4.1.4z"/>
  <path class="st15" d="M353.8 235.2s-.8-5.3-.4-5.7c0 0 12.1 9.3 12 9.7-.1.4-5.6.3-6.8.2-1.2-.1-3.3 1.3-3.3 1.3l-1.5-5.5z"/>
  <path class="st8" d="M305.2 270.5s-1.8 4.3-3.4 5.6c-1.6 1.3-1.8 2.8-1.8 2.8s2.3 1.4 9.4 0c1.8-.3.7-1.4 2-1.7 1.3-.3 1.5-.7 1.5-.7l-2.7-7-5 1zM350 270.5s1.8 4.3 3.4 5.6c1.6 1.3 1.8 2.8 1.8 2.8s-2.3 1.4-9.4 0c-1.8-.3-.7-1.4-2-1.7-1.3-.3-1.5-.7-1.5-.7l2.7-7 5 1z"/>
  <path class="st10" d="M351.6 270.1c-4.2 2.7-9.1.4-9.1.4s.3-14.5 0-15-7.3 3.1-10.9 4.1c-3.7 1-6.1-.8-6.1-.8-8.6 2.2-15.8-4.6-16-4.4-.2.2 2.7 16.2 2.7 16.2-3.1 3.1-8.2.8-8.2.8s-8.2-25.3-9.1-28.6c-.9-3.3.7-6.4 3.5-6.1 2.8.3 15.7 8.3 15.7 8.3l20.1-1.4 1.3-.1-.4 2.4-.1.7s17.9-4.3 18.4-3.8c.4.6-1.8 27.3-1.8 27.3z"/>
  <path class="st12" d="M334.9 245.9s-5.3 2.1-9.3 2.2c-4 .1-11.7-3.1-11.7-3.1l20.1-1.4c.4.6.9 2.3.9 2.3z"/>
  <path class="st12" d="M327.4 245.5s.1 3.5 0 3.8c-.1.3-1.8 1.2-1.8 1.2v-5l.9-.6.9.6z"/>
  <path class="st12" d="M342.7 249.6l-.2 5.9c-.3-.5-7.3 3.1-10.9 4.1-3.7 1-6.1-.8-6.1-.8-8.6 2.2-15.8-4.6-16-4.4 0 0-1.4-5.7-1.7-6.8-.3-1.1 4.4 6.9 6.5 8.7 2 1.8 9.1 2.1 10.2 1.4 1.1-.7 1.5.1 2.6.3 1.1.2 1.8 1.2 6.6-.5 4.6-1.6 9-6.9 9-7.9z"/>
  <path class="st15" d="M304.8 184s-.8-5.5-.3-5.9c.5-.4 8 7.9 8 7.9v3.4s-1.5-.7-1.9-.6c-.5.2-2.1 1.2-2.1 1.2l-4.1-4.3.4-1.7z"/>
  <path class="st8" d="M399.8 262.2l-1.5 1.5-1.5 1.5c-25.3-20.1-43.5-35.7-56.7-47.7-3.9-3.6-7.4-6.9-10.5-9.9-23.4-22.6-23.7-28.6-23.7-28.6l4-4 4.2-4.2c24.1 9.4 85.7 91.4 85.7 91.4z"/>
  <path class="st11" d="M295.6 153.1s13.8 2.9 15.4 17l-6.8 4.7c-.1 0-14.2-1.4-8.6-21.7z"/>
  <path class="st10" d="M306.7 181.2s1.9-7.5 9.7-9.2l-4.8-3.4s-5.8 2.1-8.3 8.1l3.4 4.5z"/>
  <path class="st15" d="M331.5 216.1l-1.6 3.6 5.1 2.9 1.6-3.7-1.6-2z"/>
  <path class="st9" d="M316 223.6s-15.1-12.2-17.3-14.1c-2.2-1.9-2.8-2.9-2.5-5.9.3-3 6.5-17.1 6.5-17.1 1.1.3 2.2 1.4 3.2 2.4 1.1 1.3 1.9 2.5 1.9 2.5s-4 11.7-3.8 12.4c.1.7 15.4 9.7 16.3 11 .9 1.3-4.3 8.8-4.3 8.8z"/>
  <path class="st9" d="M340.1 231.7c-1.6 5.7-4.2 14.2-4.2 14.2l-12.1-.5-9.8-.4s-3.1-3.6-2.4-9.5c.6-5.9 7.1-21.9 7.1-21.9 2.8.6 22.4 12.2 22.6 13.1 0 .3-.5 2.3-1.2 5z"/>
  <path class="st16" d="M331.7 216.3s-.1 2.6 1 3.4c1.2.8 3.9-.8 3.9-.8s-.3-1.5-.5-1.6c-.1-.1-4.4-1-4.4-1z"/>
  <path class="st9" d="M340.1 231.7c-1.6 5.7-4.2 14.2-4.2 14.2l-12.1-.5c.3-.1 8.3-2.6 10.4-3.6 2.2-1 5.8-12.1 5.8-12.1l.1 2zM304 203.8l-1.2 1.9 3.4-13.3c-1-.9-1.5-3.4-1.5-3.4l1.2-.2c1.1 1.3 1.9 2.5 1.9 2.5s-4 11.8-3.8 12.5z"/>
  <path class="st10" d="M302.7 186.4s1.3-2.7 2-2.4c.8.3 4.5 4.6 4.8 5.3.2.7-1.7 2.1-1.7 2.1s-2.8-1-5.1-5z"/>
  <path class="st9" d="M354 242.8s-12.3 9.2-13.5 9.2c-1.2-.1-2.8-1.6-3.2-2.8-.4-1.2 0-8.1 0-8.1s2.6-14.1 3.9-14.4c0 0 .6.9.8 3 .1.9.3 3.2.4 5.4.2 3.1.5 6.3.5 6.3l8.3-4.7 2.8 6.1z"/>
  <path class="st10" d="M351.3 236.7s0 3.4 2.7 6.1l2.5-1.7s-2-2.8-2.7-6l-2.5 1.6z"/>
  <path d="M327.5 218.5s1.2-2.4 2.4-1.9 6.9 4 7 4.3c.2.6-.8 3-.9 3-.2 0-5.2-1.1-8.5-5.4z" fill="#ecccd3"/>
  <path class="st15" d="M331.7 207.2s-.8 6.2-.5 7.8 1.4 2.8 2.4 3.3c.9.5 3 .7 4.2.3 1.2-.4 4.7-6.7 4.7-6.7l-.2-5.4-4.9-5.1c-.1 0-4.8 2.5-5.7 5.8z"/>
  <path class="st16" d="M333 206s2.6-.2 3.2-.6c0 0 1.1 4.3 5.3 3.7l-2-5.9-4-1.1-2.5 3.9z"/>
  <path d="M337 204.3s-.8 2.3 1.2 3.7c2 1.4 3.3 1.2 3.3 1.2l.3 3.9 1.1.3s2.6-4.7 3.1-6.3c.5-1.6 0-2.2 0-2.2s1.6-.3 1.3-.8c-.4-.5-4.9-4.7-6.1-4.6-1.2.1-1.7.5-1.7.5s1.2-3.2.4-2.9c-.7.2-3.3 2.1-3.7 2.7 0 0-3-1.2-3.8-.2-.7 1-1.5 8.9-1.5 8.9l.5.1 1.5-2.5c.1-.1 2.9-.6 4.1-1.8z" fill="#181730"/>
  <path class="st15" d="M331.6 208.5s-.6-1.1-1.4-.2c-.8.8.2 3.5 1.1 3.3.9-.2.9-1.8.9-1.8l-.6-1.3zM341.8 213.1s.6-.5 1 0c.5.5-.7 2.7-2.4 2.3-1.7-.4-.4-2.1-.4-2.1l1.8-.2z"/>
  <path class="st16" d="M330.5 208.5s.6 0 .6.8c0 .9-.3.7-.3.7s.4-1-.3-1.5zM342.7 213.5s-.9 0-1.1.6c0 0 .8-.5 1.1-.6z"/>
  <path class="st9" d="M343 241.4l-2.3 1c.1-.1 1.7-1.8 1.8-7.3.2 3.2.5 6.3.5 6.3z"/>
  <path class="st5" d="M155.7 268.7s-.1 0-.3.1c-1.1.2-5.4 1.1-12.5 1.6-3.1.2-6.8.4-10.9.4-11.6 0-21.6-1.7-23.4-2-.2 0-.3-.1-.3-.1s4.5-19.1 23.3-19.4h.4c19.1 0 23.7 19.4 23.7 19.4z"/>
  <path class="st19" d="M155.7 268.7s-.1 0-.3.1c-1.1.2-5.4 1.1-12.5 1.6 1.4-.1 8.6-8.5 5.4-12.7-3.1-4.1-12.2-8.1-13-6.3-.8 1.8-3.1 1.2-3.1 1.2s-.5-2.4-.8-3.4h.4c19.3.1 23.9 19.5 23.9 19.5z"/>
  <path class="st19" d="M155.7 269.8s-8.3 2-23.7 2c-12.8 0-23.7-2-23.7-2s.1-.4.3-1c1.8.3 11.9 2 23.4 2 13.7 0 21.8-1.6 23.4-2 .2.6.3 1 .3 1zM131.6 252.7h.7c1 0 1.9-.6 2.2-1.5l.4-1c.6-1.6-.6-3.2-2.2-3.2h-1.4c-1.7 0-2.8 1.7-2.2 3.2l.4 1c.3.9 1.2 1.5 2.1 1.5z"/>
  <path class="st12" d="M84 266.9s1.5 5.7 3.7 6.6c2.1.9 2 2.1 2 2.1s-10.2 1.8-12 1.5c-1.8-.3-2.5-1.4-2.3-1.9.2-.4 2.4-8.9 2.4-8.9l6.2.6zM114.7 243.2s1 4.2 3.5 4.1c2.5 0 5.2-1.4 6.1-.6.9.8 1 1.8 1 1.8s-12.2 9.4-12.8 9.2c-.5-.1-2.2-12.3-2.2-12.3l4.4-2.2z"/>
  <path d="M65.8 169.2s-1.4.3-2.7 3.8c-1.2 3.5-4.6 23.4-4.5 24.6.1 1.2 7.9 11.7 7.9 11.7l-.7-40.1z" fill="#d2d2e1"/>
  <path class="st15" d="M85.3 167.9c-.9-.3-1.7 1.1-2.2 2.1-.2.5-.4.9-.4.9l-5.7-2.8.8-2.8 1-2.1 3.4-.8s.9.9 1.8 1.7l1.2 1.2c.2 0 .1 2.6.1 2.6z"/>
  <path class="st16" d="M85.3 167.9c-.9-.3-1.7 1.1-2.2 2.1-.6-.1-1.1-.3-1.2-.3-.2-.2-.4-1.4.5-1.9s.5-3.4.5-3.4l1.1-.2 1.2 1.2c.2-.1.1 2.5.1 2.5z"/>
  <path class="st3" d="M90 162.8c-.3 0-.4-.2-.5-.6-.1-.3-.1-.7 0-1.1.1-.8.4-1.7.8-1.6.2 0 .4.2.4.6.1.3.1.7 0 1.1 0 .7-.3 1.6-.7 1.6zm.3-3c-.1.1-.3.5-.4 1.2-.1.7 0 1.2.1 1.3.1-.1.3-.5.4-1.2.1-.7 0-1.1-.1-1.3z"/>
  <path class="st15" d="M89.3 160.7v.4c-.1 1.6-.5 3.3-1.1 4.5-1.5 2.5-2.3 3-2.3 3s-3-3.6-2.9-4.3c.1-.7-1.8-4.1-1.8-4.1l2.6-5.4s5.3.9 5.5 2.8c.1 0 .1 1.4 0 3.1z"/>
  <path class="st16" d="M89.3 160.7v.4l-3.6-1h-.1l.1-.1c.1-.1.2-.1.3-.2l.2.1 3.1.8zM87.1 159.6s1.5.1 2-.3.4-1.1.4-1.2c0-.1-.6-.7-.7-.6-.1.1-1.4.7-1.4.7 0 .1-.3 1.4-.3 1.4z"/>
  <path class="st8" d="M91.1 155.8l-1.8 4.2-.1-1.4c-.5.5-1.2 1-2.1 1-.3 0-.6 0-.8.1-.1 0-.2.1-.2.1-.1.1-.2.1-.3.2l-.1.1c-.5.5-.6 1.1-.6 1.1s0-.6-.1-1.3v-.2c0-.1-.1-.2-.1-.3 0-.1 0-.1-.1-.2-.2-.4-.5-.7-1-.7-1.4-.2-.8 3.5 0 3.7 0 0-1.9 2.5-2.6 2.7-.7.2-3.8.4-3.8.4s-.7-5.6-1.1-6.1c-.4-.5-1.2-.6-1.2-1.1 0-.5.9-3.8 1.9-4.1 0 0 1.3-4.1 1.5-4.3.2-.1.4 1.6.4 1.6s3.7-2.2 7.4-.2 4.8 4.7 4.8 4.7z"/>
  <path class="st12" d="M85.3 267.1c-.1.8-.1 1.2-.1 1.2-3.4 2.2-9.4-.3-9.4-.3s2.7-28.5 1.6-30.9c-1.1-2.4-8-19.5-8-19.5-3.5-2.1-3.6-9.6-3.6-9.6l.5-3.4 1.9-7.3 5.6 8 5.7 7.4.4.5s7.7 22 7.8 24c0 1.6-1.9 24.4-2.4 29.9z"/>
  <path class="st13" d="M86 237.6c.4-1.5-3.5-12.3-4.4-14.5-.9-2.2-3.4-4.3-6.8-4.7-3.4-.5-4.1-4.5-4.1-4.5s5-1.8 5.4-1.8c.1 0 1.6.2 3.5.4l.4.5s7.7 22 7.8 24c.1 1.8-1.9 24.6-2.3 30-.2-.4.2-27.8.5-29.4z"/>
  <path class="st10" d="M116.7 244.9c-3.2 3.7-7.4 4.7-7.4 4.7s-6.8-20.8-7.9-22.6c-1.1-1.8-19.6-10.1-19.6-10.1s-7.4 1.3-10.1-1.5c-2.7-2.7-1.8-11.7-1.8-11.7l9.6-1.2 7.5-1 .7 4.8s1 .6 2.5 1.7c5.1 3.3 16 10.4 16.9 11.3 1.3 1.2 9.6 25.6 9.6 25.6z"/>
  <path class="st12" d="M90.2 208s-3.8-1.1-5.4-.9c-1.5.2-9 .8-9 .8l.9-4.1s1.2-.5 2.7-1.2l7.5-1 .7 4.8c.1 0 1 .6 2.6 1.6z"/>
  <path class="st15" d="M116.5 167.9s1.3-3.2 1.5-3.5c.2-.3 1.5-.9 1.8-.8.3.1 4.5-4.3 4.8-4.4.3 0-.9 3.1-1.1 3.6-.2.4 1.2 5.2 1.1 5.7-.1.5-3.1 4.1-3.1 4.1l-3.7 1-1.3-5.7z"/>
  <path class="st21" d="M90.5 202.9s-3.8 1.9-8.9 3.5c-3.7 1.2-8 2.2-11.9 2.1-.8-3.3-1.1-9.3-1.1-9.3-.5 2.2-.3 6.6-.1 9.3-1.2-.1-2.4-.3-3.4-.7 0 0-2.8-26-.6-35.6.6-2.8 1.6-3.2 2.7-3.5 1.1-.3 18.5-2.5 20-2 .7.2 1.4 1.9 1.9 4.3.7 3.3.9 8-.1 12.4-1.9 7.7 1.5 19.5 1.5 19.5z"/>
  <path class="st21" d="M81.6 206.4s3.4-3.8 3.1-5.8c-.4-1.9-.7-6.6 1-8.2 1.6-1.6.3-8.8-1.4-14-1.6-5.2.5-8.3.5-8.3l4.2 1c.7 3.3.9 8-.1 12.4-1.8 7.7 1.6 19.4 1.6 19.4s-3.9 1.9-8.9 3.5z"/>
  <path class="st21" d="M115.8 166.6s3.3 4 2.2 7.1c0 0-14 8.4-15.4 9.1-1.4.7-17-5.2-17-5.2s-3.1-9 1.4-11c0 0 14.4 6.6 15 6.8.7.3 13.8-6.8 13.8-6.8z"/>
  <path class="st3" d="M86.3 159.7l-1.7-.5c.1.1.1.3.2.5l.9.3 4.8 1.4.1-.4-4.3-1.3z"/>
  <path class="st16" d="M83.2 159.3s.9-.3 1 .5c.1.8-.3 1.1-.3 1.1s.9-1.2-.7-1.6z"/>
  <path class="st3" d="M167.1 293.3c-.5.8-.9 1.3-.9 1.3v-.9c0-3.3.4-14.7 6.8-16.8 6.5-2.2-2.9 12-5.9 16.4z"/>
  <path class="st22" d="M166.4 293.4c-.1.6-.1 1-.1 1.1l-.6-.9c-2.2-3.7-9.8-16.9-3.8-16.6 6.2.2 4.9 12.6 4.5 16.4z"/>
  <path class="st10" d="M166.4 293.4c-.1.6-.1 1-.1 1.1l-.6-.9-2.9-12.5 3.6 12.3z"/>
  <path class="st10" d="M172.3 280.3l-5.1 13c-.5.8-.9 1.3-.9 1.3v-.9l6-13.4z"/>
  <path class="st23" d="M166.2 293.8s-2.9 0-1.8.7c1.1.8 4.7.4 3.8-.1-1.2-.5-2-.6-2-.6z"/>
  <path class="st3" d="M232.8 283.7c-.4.6-.7 1-.7 1v-.7c0-2.6.3-11.7 5.5-13.4 5.1-1.8-2.4 9.6-4.8 13.1z"/>
  <path class="st22" d="M232.2 283.8c0 .5-.1.8-.1.9 0 0-.2-.3-.5-.7-1.8-2.9-7.9-13.5-3-13.3 4.9.2 3.9 10 3.6 13.1z"/>
  <path class="st10" d="M232.2 283.8c0 .5-.1.8-.1.9 0 0-.2-.3-.5-.7l-2.3-10 2.9 9.8z"/>
  <path class="st10" d="M236.9 273.3l-4.1 10.4c-.4.6-.7 1-.7 1v-.7l4.8-10.7z"/>
  <path class="st23" d="M232.1 284.2s-2.3 0-1.4.6c.9.6 3.8.3 3-.1-1-.5-1.6-.5-1.6-.5z"/>
  <path class="st3" d="M174.2 258.1c-.4.5-.6.9-.6.9v-.6c0-2.3.3-10.1 4.7-11.6 4.5-1.5-2 8.3-4.1 11.3z"/>
  <path class="st22" d="M173.7 258.3c0 .4-.1.7-.1.8 0 0-.2-.2-.4-.6-1.5-2.5-6.8-11.6-2.6-11.5 4.3.1 3.4 8.6 3.1 11.3z"/>
  <path class="st10" d="M173.7 258.3c0 .4-.1.7-.1.8 0 0-.2-.2-.4-.6l-2-8.6 2.5 8.4zM177.8 249.2l-3.5 9c-.4.5-.6.9-.6.9v-.6l4.1-9.3z"/>
  <path class="st23" d="M173.6 258.5s-2 0-1.2.5 3.3.2 2.6-.1c-.9-.3-1.4-.4-1.4-.4z"/>
</svg>