<svg version="1.1" id="Layer_1" xmlns="http://www.w3.org/2000/svg" xmlns:xlink="http://www.w3.org/1999/xlink" x="0" y="0" viewBox="0 0 450 300" xml:space="preserve">
  <style>
    .st0{fill:#f1eef7}.st1{fill:#afccd3}.st2{fill:#393768}.st3{fill:#acaad5}.st4{fill:#f59f17}.st5{fill:#494c9a}.st7{fill:#ffce52}.st10{fill:#9696c9}.st12{fill:#f8b7b0}.st13{fill:#035954}
  </style>
  <path class="st0" d="M208 15c-11 4.1-9.8 8.6 1.9 6 11.7-2.6 36.4-5 24.4 1s-36.2 16.2-62.5 12.6c-26.3-3.6-34.4-6.3-49.3-3.7-39.2 6.8-40.2-14.2-.8-22.4C160.3.4 236.8 4.3 208 15zM285.4 18.8c-22.6.9-40.5 4.7-38.5 22.8s-18.5 11.6-43.7 15.7-35.9 19-17 29.9c18.8 10.9-31.5 10.4-53.6 9.7-22.1-.7-67.9 3.5-44 10.2s101.5 14.3 148.1-1.2c46.6-15.6 60.8-28.5 88.4-23.7 27.5 4.7 59.1 11.5 71.6 4.4 12.5-7.2 7.5-20.3-31.8-19.5s-63.7-15-46.1-25.9c17.6-10.9-2.3-23.6-33.4-22.4z"/>
  <ellipse class="st1" cx="320.3" cy="214.7" rx="51" ry="2.9"/>
  <path class="st2" d="M371.4 74.6V207c0 4.3-3.5 7.8-7.8 7.8H277c-4.3 0-7.8-3.5-7.8-7.8V74.6c0-4.3 3.5-7.8 7.8-7.8h86.6c4.3 0 7.8 3.5 7.8 7.8z"/>
  <path class="st0" d="M278.6 74.6h83.5c.9 0 1.6.7 1.6 1.6v129.3c0 .9-.7 1.6-1.6 1.6h-83.5c-.9 0-1.6-.7-1.6-1.6V76.1c0-.8.7-1.5 1.6-1.5z"/>
  <path transform="rotate(-90 320.32385 142.58385)" class="st3" d="M311.7 106.1h17.2v73h-17.2z"/>
  <path transform="rotate(-90 295.3537 120.6457)" class="st3" d="M283.8 109.1h23v23h-23z"/>
  <path transform="rotate(-90 320.3239 120.6457)" class="st3" d="M308.8 109.1h23v23h-23z"/>
  <path transform="rotate(-90 345.294 120.6457)" class="st3" d="M333.8 109.1h23v23h-23z"/>
  <path transform="rotate(-90 295.35365 95.80785)" class="st4" d="M283.8 84.3h23v23h-23z"/>
  <path transform="rotate(-90 320.32385 95.80785)" class="st5" d="M308.8 84.3h23v23h-23z"/>
  <path transform="rotate(-90 345.29405 95.80785)" class="st5" d="M333.8 84.3h23v23h-23z"/>
  <path class="st3" d="M325.9 189.3h30.9v5.3h-30.9zM325.9 180.5h30.9v5.3h-30.9z"/>
  <g>
    <path class="st0" d="M59.8 257.4c0 1.6 50.3 2.9 112.3 2.9s112.3-1.3 112.3-2.9c0-1.6-50.3-2.9-112.3-2.9s-112.3 1.3-112.3 2.9z"/>
    <path d="M284.9 253.4c-.9 2.3-3.1 4-5.8 4H66.3c-2.6 0-4.9-1.7-5.8-4-.4-1.1.4-2.2 1.5-2.2h221.3c1.2 0 2 1.1 1.6 2.2z" fill="#576270"/>
    <path class="st2" d="M285.3 119.7v119.6c0 6.5-5.3 11.8-11.8 11.8H71.9c-2.3 0-4.4-.6-6.2-1.7-2.5-1.5-4.3-3.9-5.2-6.8-.3-1-.5-2.2-.5-3.3V119.7c0-6.5 5.3-11.8 11.8-11.8h201.6c6.6 0 11.9 5.3 11.9 11.8z"/>
    <path class="st0" d="M71.9 237V122.1c0-1.3 1.1-2.4 2.4-2.4h196.8c1.3 0 2.4 1.1 2.4 2.4V237c0 1.3-1.1 2.4-2.4 2.4H74.3c-1.3 0-2.4-1.1-2.4-2.4z"/>
    <path class="st5" d="M82.8 134h58.8v58.8H82.8z"/>
    <path class="st4" d="M143.8 134h28.3v28.3h-28.3z"/>
    <path class="st3" d="M174.3 134h28.3v28.3h-28.3z"/>
    <path class="st7" d="M207.9 134h54.6v6.8h-54.6z"/>
    <path class="st3" d="M207.9 144h54.6v6.8h-54.6zM207.9 154h54.6v6.8h-54.6zM207.9 163.9h29.7v6.8h-29.7zM143.8 164.5h28.3v28.3h-28.3zM174.3 164.5h28.3v28.3h-28.3z"/>
    <path class="st5" d="M82.8 216.8h179.8V229H82.8z"/>
    <path d="M192.9 251.2v1c0 1.2-.9 2.1-2.1 2.1h-36.2c-1.2 0-2.1-.9-2.1-2.1v-1h40.4z" fill="#ddd"/>
  </g>
  <g>
    <ellipse class="st1" cx="366.1" cy="276.8" rx="27.7" ry="1.6"/>
    <path class="st2" d="M392.6 186.5v85c0 2.8-2.2 5-5 5h-43c-2.8 0-5-2.2-5-5v-85c0-2.8 2.2-5 5-5h43c.5 0 1.1.1 1.5.2 2 .7 3.5 2.6 3.5 4.8z"/>
    <path class="st0" d="M345.6 186.5h41c.6 0 1 .4 1 1v78.6c0 .6-.4 1-1 1h-41c-.6 0-1-.4-1-1v-78.6c0-.5.4-1 1-1z"/>
    <path class="st4" d="M348.4 188.7h24.7v24.7h-24.7z"/>
    <path class="st5" d="M360.8 240.3c-6.8 0-12.4-5.5-12.4-12.4 0-6.8 5.5-12.4 12.4-12.4 6.8 0 12.4 5.5 12.4 12.4 0 6.8-5.6 12.4-12.4 12.4z"/>
    <path d="M366.1 274.2c-1.4 0-2.5-1.1-2.5-2.5s1.1-2.5 2.5-2.5 2.5 1.1 2.5 2.5-1.1 2.5-2.5 2.5z" fill="#2a3b4f"/>
    <path class="st5" d="M348.4 242.3H359v20.3h-10.6zM360.7 242.3h10.6v20.3h-10.6z"/>
    <path class="st10" d="M373.1 242.3h10.6v20.3h-10.6z"/>
    <path class="st7" d="M375.1 188.7h8.7v8.7h-8.7z"/>
  </g>
  <g>
    <path transform="rotate(-90 367.0006 76.8304)" class="st4" d="M348 57.9h38v38h-38z"/>
    <path fill="#fff" d="M363.6 67.8v18l9-9z"/>
  </g>
  <path transform="rotate(-45 259.14274081 171.37817676)" class="st7" d="M247.7 160h22.8v22.8h-22.8z"/>
  <g>
    <path class="st0" d="M278.7 285.6c0 .9 9.5 1.7 21.3 1.7s21.3-.8 21.3-1.7-9.5-1.7-21.3-1.7c-11.7 0-21.3.7-21.3 1.7z"/>
    <path class="st12" d="M270.1 175.6c.1.4.5.9.5.9s-1.8.8-2.7.9c-.9.1-1.2-.4-2.2-.6-1-.2-1.3-.2-1.4-1.6-.1-1.1 1-1.5 1.8-1.3.8.2 1.8 1.4 2.4 1.3.6-.1 1.6-.4 1.6-.4s-.1.4 0 .8zM293.5 163.1c-1.7.7-3.1 0-3.6-.4s.6-1.1.9-1.6c.1-.2.1-.6 0-1-.1-.5-.4-1.2-.7-1.9l3.4-1.5s.3 1.8.5 2.5c0 .1.1.2.1.3.2.4.7.5 1.5.8 1 .5-.4 2.2-2.1 2.8z"/>
    <path class="st12" d="M294 155.1c0 2.5-.1 3.6-.9 4.7-.9 1.1-1.8 1.6-2.5 1.7-1 .1-2.5-1.5-2.9-2.5-.3-1-.9-3.8-.8-6.5 0-1.4 1.4-3.1 2.9-3.2 1.4-.1 4.2-.2 4.2 5.8z"/>
    <path class="st12" d="M286.6 156.4c.3.9.9 1.5 1.3 1.3.5-.1.6-1 .3-1.8-.3-.9-.9-1.5-1.3-1.3-.4.1-.5.9-.3 1.8zM293.2 155.1c-.3.9-.1 1.7.3 1.8.5.1 1-.4 1.3-1.3.3-.9.1-1.7-.3-1.8s-1 .4-1.3 1.3z"/>
    <path class="st10" d="M298 232.7c2.5-.3 4.6-1.1 4.6.4 0 1.3-.1 1.2-4.4 1.5-2.5.2-4.5.1-4.6-.4 0-.5 1.9-1.2 4.4-1.5z"/>
    <path class="st4" d="M300.2 160.9c3.1 2.8 8.1 9.4 8.8 13 .2.8-.3 1.6-1.1 1.8l-11 3c-.3.1-.5-.1-.6-.3l-.4-.8c-.1-.3 0-.6.3-.8l8.3-4.4c-2.4-4.5-4.1-5.4-4.1-5.4.3 5.6 5.2 18.1 5.6 19.6.4 1.8.7 3.3.1 3.5-2 .4-6.8.7-11.1 1.4-3 .5-3.1-.6-2.6-5.6.6-7.5-1.4-10.6-2.9-13.2-1.3-2.2-1.1-4.4-1.1-4.4l-4.8 6.3c-.4.5-1.1.9-1.8 1l-12 1.3c-.5.1-1-.3-.9-.8v-.4c0-.4.3-.7.6-.8l11.3-3s3.2-5.1 4.7-7.2c.6-.9 1.8-3.5 4.2-3.9 7.3-1.5 8.3-1.9 10.5.1z"/>
    <path class="st2" d="M292 189.5s.1 1.2.2 3.1v.5c.5 5.7 1.3 16.4 1.7 18.9.5 3.3 4 14.7 6 20.6.1.3.4.5.7.5h1.2c.4 0 .7-.4.7-.8-.3-4-2.9-16.9-3.5-19.7-.5-2.6-.9-12 .5-16.3.2-.7 1.3-.7 1.4.1 1 3.5 3.1 11 4.4 14.3 1.5 3.8 18.4-.9 21.4-1.8.2-.1.3-.2.3-.4l.1-.9c0-.3-.2-.5-.5-.5-2.9.2-16.6 1.3-17.2-1.4-.6-2.4-1.8-9.4-2.5-13.7 0-.2-.1-.4-.1-.6l-.5-3s-.1-.6-.6-.6h-.5c-.7 0-2.2 0-6.6.5-2.5.3-4.1.4-5.1.6-.2 0-.3 0-.4.1-.9.1-1.1.3-1.1.5z"/>
    <path class="st10" d="M325 211.2c.6-2.4 1.4-4.3 2-4.2.5.1 1.1.5-.1 4.6-.7 2.4-1.4 4.3-2 4.2-.5-.1-.5-2.2.1-4.6z"/>
    <path class="st4" d="M301.7 173.9l1.7-.9 2.1 3.4-2.7.7c-.4-1.1-.8-2.2-1.1-3.2z"/>
    <path class="st2" d="M287.7 157.1c1 2.5.4 7.1 1.2 11.1.9 4 7.3 10.5 12.8 5.9 6.4-5.3-1.8-11.2-3.3-14.9-1.7-4.2-1.6-7.5-3.8-9.8-2.1-2.2-5.3-1.3-6.6-.2-2.7 2.4-1.1 5.8-.3 7.9z"/>
    <path class="st4" d="M289.4 234.7c.3 0 .5.3.5.6l-.1 1H310.3l-.1-1c0-.3.2-.6.5-.6s.5.2.6.4c-.1-.6-.5-1-1.1-1h-20.3c-.6 0-1 .4-1.1 1 0-.2.3-.4.6-.4z"/>
    <path class="st4" d="M311.3 235.2s-.1 0 0 0c-.1-.3-.3-.5-.6-.5s-.5.3-.5.6l.1 1 2.1 17.3h-24.8l2.1-17.3.1-1c0-.3-.2-.6-.5-.6s-.5.2-.6.4v.1l-4.4 35.6c0 .1-.1.2-.1.3v.1l-1.7 14.1c0 .3.2.6.5.6h.1c.3 0 .5-.2.6-.5l1.7-13.8h29.2l1.7 13.8c0 .3.3.5.6.5h.1c.3 0 .5-.3.5-.6l-6.2-50.1zm-25.8 35.3l1.9-15.8h25.1l1.9 15.8h-28.9z"/>
    <path class="st13" d="M293.3 190c0-.4-.1-.7-.2-1 .1 0 .3 0 .4-.1.1.3.2.7.2 1.1 0 1.3-.6 2.4-1.5 3.1v-.5c.7-.7 1.1-1.6 1.1-2.6zM305.3 187.8h.4c-.1.3-.1.6-.1.9 0 1.1.5 2.1 1.2 2.7 0 .2.1.4.1.6-1.1-.7-1.8-2-1.8-3.3.1-.3.1-.6.2-.9z"/>
  </g>
  <g>
    <path class="st7" d="M160 113.2l-9-9-14.7-14.7-6.8-6.8v43.1l9.7-9.8 4.8 11.6 6.9-2.9-4.8-11.5zM129.5 125.8z"/>
  </g>
  <g>
    <ellipse class="st1" cx="337.4" cy="297" rx="11" ry="1.1"/>
    <path d="M342.5 277.2c.2-1.9.8-5.3 3-7.7 6.2-6.8 14.1-2 15-5.1.4-1.5-2.1-4.1-5-4.9-7.2-2.2-7.3 3.2-9.3 1.6-2.4-2 7.7-11.7 3.4-20.5-2.2-4.5-8.6-7.5-11.8-5.8-2.6 1.4-3.1 5.8-3.2 6.7-.4 4.4 3.5 9.4 1.7 12.1-3.4 5.1-2.7-7.6-11.8-5.4-4.8 1.1-5.2 4.3-4.7 5.5.9 2 4.3.1 8.6 2.8 3 1.9 4.7 5.4 4 6.3-.8 1.1-4.6-2.2-8.4-.6-2.2.9-3.7 3.4-3.3 4.5.3.8 1.6.6 3.8 1 1.3.2 7.1 1.3 8.4 4.7.2.6.7 2.2-.7 4.9h10.3z" fill="#009894"/>
    <defs>
      <path id="SVGID_1_" d="M342.5 277.2c.2-1.9.8-5.3 3-7.7 6.2-6.8 14.1-2 15-5.1.4-1.5-2.1-4.1-5-4.9-7.2-2.2-7.3 3.2-9.3 1.6-2.4-2 7.7-11.7 3.4-20.5-2.2-4.5-8.6-7.5-11.8-5.8-2.6 1.4-3.1 5.8-3.2 6.7-.4 4.4 3.5 9.4 1.7 12.1-3.4 5.1-2.7-7.6-11.8-5.4-4.8 1.1-5.2 4.3-4.7 5.5.9 2 4.3.1 8.6 2.8 3 1.9 4.7 5.4 4 6.3-.8 1.1-4.6-2.2-8.4-.6-2.2.9-3.7 3.4-3.3 4.5.3.8 1.6.6 3.8 1 1.3.2 7.1 1.3 8.4 4.7.2.6.7 2.2-.7 4.9h10.3z"/>
    </defs>
    <use xlink:href="#SVGID_1_" overflow="visible" fill="#f59f17"/>
    <clipPath id="SVGID_2_">
      <use xlink:href="#SVGID_1_" overflow="visible"/>
    </clipPath>
    <path d="M357.4 317.6c.5-4.4 1.9-12.2 7-17.8 14.5-15.8 32.7-4.6 34.7-11.9 1-3.5-5-9.5-11.6-11.4-16.8-5-16.9 7.3-21.5 3.6-5.6-4.5 17.8-27.3 7.8-47.5-5.1-10.4-19.8-17.4-27.5-13.4-6.1 3.3-7.2 13.4-7.4 15.5-.9 10.3 8.2 21.7 3.9 28-7.9 11.8-6.3-17.5-27.5-12.5-11 2.6-12.1 10-10.8 12.7 2.2 4.6 9.9.3 19.9 6.6 7 4.4 11 12.4 9.3 14.6-1.9 2.6-10.7-5.1-19.4-1.5-5 2.1-8.6 8-7.5 10.5.8 1.8 3.6 1.3 8.8 2.3 2.9.5 16.5 3.1 19.5 10.9.6 1.4 1.6 5.2-1.6 11.3h23.9z" clip-path="url(#SVGID_2_)" fill="#f59f17"/>
    <path class="st10" d="M350.9 283.5c0 7.5-6.2 13.6-13.7 13.5-7.4-.1-13.2-6.5-13.2-13.9v-7.7c0-1.8 1.4-3.2 3.2-3.2h20.5c1.8 0 3.2 1.4 3.2 3.2v8.1z"/>
  </g>
  <g>
    <path class="st2" d="M233 72c-1.2 0-2.2-1-2.2-2.2 0-11.2 4.4-21.8 12.3-29.7 7.9-7.9 18.5-12.3 29.7-12.3 1.2 0 2.2 1 2.2 2.2 0 1.2-1 2.2-2.2 2.2-10.1 0-19.5 3.9-26.6 11-7.1 7.1-11 16.6-11 26.6 0 1.2-1 2.2-2.2 2.2z"/>
    <path class="st2" d="M233 72c-1.2 0-2.2-1-2.2-2.2 0-11.2 4.4-21.8 12.3-29.7 7.9-7.9 18.5-12.3 29.7-12.3 1.2 0 2.2 1 2.2 2.2 0 1.2-1 2.2-2.2 2.2-10.1 0-19.5 3.9-26.6 11-7.1 7.1-11 16.6-11 26.6 0 1.2-1 2.2-2.2 2.2z"/>
    <path class="st2" d="M244.9 72c-1.2 0-2.2-1-2.2-2.2 0-8 3.1-15.6 8.8-21.3 5.7-5.7 13.2-8.8 21.3-8.8 1.2 0 2.2 1 2.2 2.2 0 1.2-1 2.2-2.2 2.2-6.9 0-13.3 2.7-18.2 7.5-4.9 4.9-7.5 11.3-7.5 18.2 0 1.2-1 2.2-2.2 2.2z"/>
    <path class="st2" d="M256.9 72c-1.2 0-2.2-1-2.2-2.2 0-4.8 1.9-9.4 5.3-12.8 3.4-3.4 8-5.3 12.8-5.3 1.2 0 2.2 1 2.2 2.2s-1 2.2-2.2 2.2c-3.7 0-7.1 1.4-9.7 4-2.6 2.6-4 6.1-4 9.7 0 1.2-1 2.2-2.2 2.2z"/>
    <path class="st2" d="M244.9 72c-1.2 0-2.2-1-2.2-2.2 0-8 3.1-15.6 8.8-21.3 5.7-5.7 13.2-8.8 21.3-8.8 1.2 0 2.2 1 2.2 2.2 0 1.2-1 2.2-2.2 2.2-6.9 0-13.3 2.7-18.2 7.5-4.9 4.9-7.5 11.3-7.5 18.2 0 1.2-1 2.2-2.2 2.2z"/>
  </g>
</svg>