<svg version="1.1" id="Layer_1" xmlns="http://www.w3.org/2000/svg" xmlns:xlink="http://www.w3.org/1999/xlink" x="0" y="0" viewBox="0 0 450 300" xml:space="preserve">
  <style>
    .st0{fill:#f1eef7}.st2{fill:#acaad5}.st3{fill:#494c9a}.st4{fill:#fff}.st6{fill:#000446}.st7{fill:#ffc6bb}.st8{fill:#8182bd}.st11{fill:#424242}.st12{fill:none;stroke:#424242;stroke-width:.75;stroke-linecap:round;stroke-miterlimit:10}.st13{fill:#94a7cb}.st14{fill:#fca700}.st15{fill:#393768}.st16{fill:#c27c0c}.st17{fill:#99b7b8}.st18{fill:#ffd267}.st22{fill:#faf7ff}.st23{fill:#000445}.st25{fill:#ffce52}.st28{fill:#5456a1}.st29{fill:#383c8f}
  </style>
  <path class="st0" d="M87.1 298.2c-27.7-15.2-49.3-42.1-55.4-73-6-30.9 4.8-65.2 29.2-85.2 15.9-13 36-19.4 54.8-27.8 18.8-8.4 37.6-20.2 45.8-39 5.7-12.9 5.6-27.9 11.7-40.6 10-20.8 35.9-26.6 58.7-22.8 32.7 5.5 42.5 32.6 70.7 42.5s59.4.6 77.1 20c21.6 23.6 2.4 40.8-.5 75.2-.5 5.6-.2 11.3 1.8 16.5 3.4 8.9 11.9 14.7 19.2 20.9 15.7 13.3 27.8 31.2 31.7 51.4 3.8 20.1-9.9 50.4-24.1 62H87.1z"/>
  <ellipse cx="224.9" cy="251.4" rx="94.8" ry="9.4" fill="#d8cbf5"/>
  <path class="st2" d="M261.6 253.9h-70.5l10.6-88.5H251z"/>
  <path class="st3" d="M262.2 250.2h-71.7c-1.7 0-3 1.3-3 3v.8h77.7v-.8c0-1.7-1.3-3-3-3zM323.4 204.3H129.3c-6.6 0-11.9-5.3-11.9-11.9V72c0-6.6 5.3-11.9 11.9-11.9h194.1c6.6 0 11.9 5.3 11.9 11.9v120.5c0 6.5-5.3 11.8-11.9 11.8z"/>
  <path class="st4" d="M127.3 70h198.1v106.1H127.3z"/>
  <path class="st2" d="M117.4 186v6.5c0 6.6 5.3 11.9 11.9 11.9h194.1c6.6 0 11.9-5.3 11.9-11.9V186H117.4zM140.6 35.3h83.7V123h-83.7z"/>
  <path class="st0" d="M140.6 127.5h83.7v48.6h-83.7z"/>
  <path class="st4" d="M148.9 42.2h67v5.1h-67zM152 49.3h60.8V52H152zM171.6 60.6h44.3v1.7h-44.3zM171.6 78.1h44.3v1.7h-44.3zM171.6 66.5h44.3v1.7h-44.3zM171.6 72.3h44.3V74h-44.3zM148.9 95.6h67v1.7h-67zM148.9 83.9h67v1.7h-67zM148.9 89.7h67v1.7h-67zM148.9 107.2h67v1.7h-67zM148.9 101.4h67v1.7h-67zM148.9 113h67v1.7h-67zM148.9 145.5h40.9v1.7h-40.9zM148.9 139.7h40.9v1.7h-40.9zM148.9 151.3h40.9v1.7h-40.9zM148.9 161.5h67.7v7.2h-67.7zM148.9 60.7h19v19h-19z"/>
  <circle transform="rotate(-80.74 205.22379795 146.29834496)" class="st4" cx="205.2" cy="146.3" r="11.4"/>
  <g>
    <defs>
      <path id="SVGID_1_" d="M325.4 176.1H127.3V70H244l-.2-31.9h35.8L280 70h45.4z"/>
    </defs>
    <clipPath id="SVGID_2_">
      <use xlink:href="#SVGID_1_" overflow="visible"/>
    </clipPath>
    <g clip-path="url(#SVGID_2_)">
      <path class="st6" d="M247.8 61.8s-11-25.8 15.8-17.3c22.3 7.1 12 26.2 8.1 27.2l-23.9-9.9"/>
      <path class="st7" d="M302.1 198.3s-1 3.8-2 9.5c-.2 1 6.3 2.3 9.3.3 1.4-1.2 1.9-5.9 1.9-7.3.1-2.2-.6-7.8-.6-7.8s-2.4-3.4-6-1.5c0 0-6.3 4.1-6.5 5.9-.3 2-2 4.5-1.3 4.9 1.2.5 4-1.1 5.2-4zM181.3 97.1s-3.6-6-4.9-7c-2-1.5-9.3-5.7-10.1-5.1-.3.2-.5 1-.2 1.4.2.4 5.1 4.5 5.1 4.5s-2.3.5-2.8 1.6c-.4.8.5 5.6 1.1 6.6.7 1.1 6.5 2.1 6.5 2.1l1.4.4c0-.1 2-.5 3.9-4.5z"/>
      <path class="st7" d="M316.1 140.9c-1.4-8.9-13-44.3-19.1-48.1-6.3-3.8-20.2-4-30.5-4.9-10.1-1-26 1.1-30.8 3.3-6.5 2.9-25.9 25.5-29.2 25.8-3.8.3-14.2-11.2-25.1-19.8l-5.3 4s24.8 34.3 31.1 34c3.4-.2 18.4-9.8 25.6-14.3-1.4 20.9-4.5 61.5-4.5 61.5 36.6 8.7 69.8 0 69.8 0-1.1-30.2-1.5-53.8-1.5-53.8s3.3 11.8 4.2 16.5c1.3 7 2.8 47.4 2.8 47.4l7.2.6c2.9-11.5 6-47.5 5.3-52.2z"/>
      <path class="st2" d="M316.1 140.9c-1.4-8.9-13-44.3-19.1-48.1-6.3-3.8-20.2-4-30.5-4.9-10.1-1-26 1.1-30.8 3.3-6.5 2.9-25.9 25.5-29.2 25.8-1.7.1-4.8-2.2-8.7-5.5l-7.3 8.3c6.6 8 13.7 15.5 16.7 15.4 3.4-.2 18.4-9.8 25.6-14.3-1.4 20.9-4.5 61.5-4.5 61.5 36.6 8.7 69.8 0 69.8 0-1.1-30.2-1.5-53.8-1.5-53.8s3.3 11.8 4.2 16.5c.6 3.1 1.2 12.7 1.7 22.4l12 .8c1.2-12.4 2-24.8 1.6-27.4z"/>
      <path class="st8" d="M188.7 120.6l3.3 3 8.6-11.1-2.3-2.7zM301.5 165.9l-.4 4.5 14.1.1.7-3.5z"/>
      <path d="M269.2 88.1l-.6-15.4h-11.9l-.1 15.2 2.4 6.7c1 2.9 5 3.2 6.5.5l3.7-7z" fill="#ffaca4"/>
      <path class="st7" d="M247.8 61.8s2.9 19.4 6.5 19.8c10.6 1.2 17.7-12.4 17.7-12.4s2.1-.5 3.1-4c.8-2.8-1.1-4.7-2.6-2 0 0-.7.2-1.4-.5 0 0 .5-4-.2-6.4-.7-2.4-17.4 7.4-22.6-.5.1 0-.8 2-.5 6z"/>
      <path d="M259.1 69.4c-.3-.2-.8-.4-1.4-.6-.1-.1-.3-.1-.5-.2l-.2-.1c-.1 0 0 0 0 0 .1-.2.1-.3.2-.5.6-1.4 1.1-2.7 1.2-3.4-.5.6-1.2 1.7-1.8 3.2l-.3.6c-.1.2-.1.3-.2.5-.2.2.2.2.3.2.2 0 .3.1.5.1h.3c.2 0 .3.1.5.1.5.1 1 .1 1.4.1z" fill="#a85e59"/>
      <path class="st4" d="M262.7 65.4c0 1 .8 1.7 1.7 1.7 1 0 1.7-.8 1.7-1.7 0-1-.8-1.7-1.7-1.7-.9 0-1.7.7-1.7 1.7z"/>
      <path class="st11" d="M264.6 66.3c.5 0 1-.4 1-1 0-.5-.4-1-1-1-.5 0-1 .4-1 1s.5 1 1 1z"/>
      <path class="st4" d="M250.8 65.4c0 1 .8 1.7 1.7 1.7 1 0 1.7-.8 1.7-1.7 0-1-.8-1.7-1.7-1.7-.9 0-1.7.7-1.7 1.7z"/>
      <circle class="st11" cx="252.7" cy="65.5" r="1"/>
      <path class="st12" d="M266.4 63.2s-1.4-1-3.3-.2M250.7 63.2s1.4-1 3.3-.2"/>
      <path class="st6" d="M249.5 70.7s12.8.3 19.7-.4c.5-.6 1.3-3.9 1.6-4.3.3-.4 1.4-.2 1.6 0 .2.2-.7 7.1-1.9 11.9-1.2 4.9-17.6 7.1-18.4 3.8-1.4-5.2-2.6-11-2.6-11z"/>
      <path class="st4" d="M255.3 71.8h4.7s-.4 1.9-2.3 1.9c-2-.1-2.4-1.9-2.4-1.9z"/>
    </g>
  </g>
  <g>
    <path class="st13" d="M197.1 289.1c-2.6.8-5.9 3.7-5.9 3.7.4 3.9 2.2 5.3 2.2 5.3s22.8-11.4 22.3-11.6l-18.6 2.6z"/>
    <path class="st7" d="M106 170.3l1.4-14.8 9.1 2 .1 12.6-.6 1.6c-1.4 4-6.9 4.4-8.9.7l-1.1-2.1z"/>
    <path class="st2" d="M130 211.7s25.8 5.7 35.3 13.7c8 6.6 27.3 51.5 31.8 63.7l-5.9 3.7s-21.7-41.7-35.5-53c-15.4-12.6-41.7-18.4-62.9-21.8l37.2-6.3z"/>
    <path class="st13" d="M150.7 291.7c-2.7-.5-7 .6-7 .6-1.4 3.7-.5 5.8-.5 5.8s25.5.3 25.1-.1l-17.6-6.3z"/>
    <path class="st2" d="M92.8 218s.5 7.4 5.5 11c11.4 8.1 44.4 1.3 49.7 8.5 3.9 5.2-4.3 54.8-4.3 54.8l7.4-.4s18.5-54.4 13.3-65.7c-4.4-9.5-34.4-14.5-34.4-14.5L92.8 218z"/>
    <path class="st14" d="M125 177.2l4.9 34.5c-21.1 4.9-37.1 6.3-37.1 6.3-1.3-16.3 1.7-31.7 3.3-41.6 1.6-9.4 9.5-15.5 18.7-13.4.3.1.5.1.7.2 5.9 1.6 9.2 8 9.5 14z"/>
    <path class="st7" d="M123.4 143.8c.1 3 .5 7.5-.9 11.2-.8 2.4-5.8 4.4-6.7 4.6-1.9.5-3.5-6.5-3.2-11.2.5-4.8 10.8-4.6 10.8-4.6z"/>
    <path class="st14" d="M116.6 197.3l33.8 4.4 2.1-3.1-31.6-11.3z"/>
    <path class="st14" d="M122.4 199.4l25.8-23.6-3.3-2.7-27.7 16.8z"/>
    <path class="st6" d="M124.6 134.5c-4.8-6.3-9.4 1.9-10.2 2-4.5.4-9.9 1.6-10.6 4.9-2.1 9.1 1.1 17.3 8.4 17.4 4.8.1 5.4-2 5.7-4.9 0 0-1.2.7-2.1-2.2-.7-2.3 1.2-3.1 1.9-1.6 0 0 .6.1 1.2-.4 0 0-.3-2.1 1.6-3.1 4.8-2.8 6.4-9.2 4.1-12.1z"/>
    <path class="st15" d="M82.8 297.6h-1.5L92.7 245c.4-1.9 1.3-3.6 2.7-5l4.1-4.1 1 1-4.1 4.1c-1.2 1.2-2 2.6-2.3 4.2l-11.3 52.4zM153 297.6l-11.3-52.3c-.3-1.6-1.1-3.1-2.3-4.2l-4.1-4.1 1-1 4.1 4.1c1.4 1.4 2.3 3.1 2.7 5l11.4 52.6H153z"/>
    <path class="st16" d="M115.6 168c.4 2.6 1.5 7.4 3 12.8.3 1.2.7 2.4 1 3.5.4 1.2.7 2.3 1 3.3.4.1.8.2 1.1.4l.9.3c.6.2 1.1.3 1.6.5 1 .3 1.9.5 2.6.7-.7-.3-1.5-.7-2.5-1.1-.9-.4-2-.8-3.1-1.3 0 0-.1-.3-.1-.5-.1-.3-.1-.5-.2-.8-.1-.5-.3-1.1-.4-1.6-.3-1.1-.6-2.3-.9-3.5-1.5-5.6-3-10.2-4-12.7zM101.9 169.6c1.1 4.5 3.5 12.7 6.4 22.1.6 1.7 1.1 3.5 1.6 5 2 .3 4 .5 5.8.8 1.7.2 3.4.4 4.9.6 3 .4 5.6.6 7.5.8-1.9-.4-4.4-.9-7.4-1.4-1.5-.3-3.1-.5-4.9-.8-1.6-.3-3.4-.5-5.2-.8-.4-1.4-.9-2.9-1.4-4.5-2.8-9.5-5.6-17.6-7.3-21.8z"/>
    <path class="st7" d="M147.6 169.3s2.3-1.5 4.1-4.5c.5-.5 3.5 2.5 3.4 4.7-.2 1.2-2.1 3.5-2.9 4-1.1.8-4.1 2.3-4.1 2.3s-3.1-.2-3.3-2.7c0 0 .1-4.8 1-5.5 1-.8 1.7-2.6 2.2-2.4.8.4.8 2.5-.4 4.1zM152.5 198.6s4.8-.9 7 .9 2.7 3.7 2.7 3.7h-9.8l-2.1-1.5c.1 0-.7-1.7 2.2-3.1z"/>
    <path class="st15" d="M95.8 232.5l-9.9-64c-.4-2.7-3-4.6-5.7-4.2l11.3 73.1v.1h52.7c0-2.8-2.2-5-5-5H95.8z"/>
  </g>
  <path class="st7" d="M347.1 170.3l-1.4-14.8-9.1 2-.1 12.6.6 1.6c1.4 4 6.9 4.4 8.9.7l1.1-2.1z"/>
  <g>
    <path class="st17" d="M337.5 168c-1.1 2.4-2.7 7.1-4.1 12.5-.3 1.2-.6 2.4-.9 3.5-.1.6-.3 1.1-.4 1.6-.1.3-.1.5-.2.8l-.1.4v.1h-.1c-.1.1-.3.1-.4.2-.3.1-.6.2-.9.4-.6.2-1.1.5-1.6.7-1 .4-1.8.8-2.4 1.2.7-.1 1.6-.3 2.7-.6.5-.1 1.1-.3 1.6-.4l.9-.3c.2 0 .3-.1.5-.1.2-.1.5-.2.7-.2.3-1.1.7-2.2 1-3.4.3-1.1.7-2.3 1-3.5 1.4-5.5 2.4-10.3 2.7-12.9z"/>
  </g>
  <g>
    <path class="st17" d="M351.2 169.6c-1.8 4.3-4.6 12.3-7.6 21.7-.5 1.5-.9 3-1.4 4.4-1.8.3-3.5.6-5 .8-1.7.3-3.4.6-4.9.9-3 .6-5.5 1.1-7.4 1.5 1.9-.1 4.5-.3 7.5-.7 1.5-.2 3.2-.4 4.9-.6 1.9-.2 3.8-.5 5.9-.8.5-1.6 1.1-3.4 1.7-5.1 3-9.4 5.3-17.6 6.3-22.1z"/>
  </g>
  <path class="st0" d="M170.4 200.2h26v2.9h-26z"/>
  <path class="st18" d="M248.4 200.2h26v2.9h-26z"/>
  <path class="st18" d="M243.1 197.4h26v2.9h-26z"/>
  <path class="st0" d="M201 196h5v7.1h-5zM217.5 191.6h9.5v11.6h-9.5z"/>
  <g>
    <path class="st0" d="M225.5 201.2l-.3-.7 2.8-1.2c1.5-.6 2.5-2.3 2.5-4.1v-.9c0-.5-.4-1-.8-1h-4.9v-.7h4.9c.8 0 1.5.8 1.5 1.7v.9c0 2.1-1.2 4.1-2.9 4.8l-2.8 1.2z"/>
  </g>
  <g>
    <path class="st13" d="M308.4 292.3s-4.3-1-7-.6l-15.1 5.3c-.5.2-.4.9.2.9l18.7.1 1.4-2.4.7 2.4h1.5l-.4-5.7z"/>
    <path class="st7" d="M360.3 218s-.5 7.4-5.5 11c-11.4 8.1-40.2-.7-46.5 5.6-4.6 4.7.1 57.7.1 57.7l-7.4-.4s-15-56.6-10.6-65.6c4.3-8.8 36.8-12.8 36.8-12.8l33.1 4.5z"/>
    <path d="M327.2 213.5s-32.4 4-36.8 12.8c-2.7 5.5 2 29.4 6 46.7l10.6-.8c-.9-15.5-1.4-34.8 1.3-37.5 6.3-6.4 35 2.4 46.5-5.6 5.1-3.6 5.5-11 5.5-11l-33.1-4.6z" fill="#d0ced6"/>
    <path class="st13" d="M289.7 292.3s-4.3-1-7-.6l-15.1 5.3c-.5.2-.4.9.2.9l18.7.1 1.4-2.4.7 2.4h1.5l-.4-5.7z"/>
    <path class="st7" d="M360.3 218s-.5 7.4-5.5 11c-11.4 8.1-43.5.7-48.8 7.9-3.9 5.2-16.2 55.4-16.2 55.4l-7.4-.4s3.7-52.7 9.4-65.9c4.1-9.6 35.5-12.5 35.5-12.5l33 4.5z"/>
    <path fill="#08283d" d="M341.8 193.3l-24.5 6-2.1-3.2 22.5-11z"/>
    <path d="M315.2 196.1s-4.8-.9-7 .9-2.7 3.7-2.7 3.7h9.8l2.1-1.5c-.1.1.7-1.7-2.2-3.1z" fill="#e9a29a"/>
    <path class="st3" d="M329.5 184.2l-2.3 29.3c21.1 4.9 33.1 4.6 33.1 4.6 1.3-16.3-1.7-31.7-3.3-41.6-1.6-9.4-6.5-15.3-15.7-13.2-.3.1-.5 0-.7.2-4 2.8-17.9 14.9-11.1 20.7z"/>
    <path class="st7" d="M329.7 143.8c-.1 3-.2 7.2 1.3 10.8 1.9 4.3 5.6 3.9 6.5 4.1 1.9.5 3.2-5.6 2.9-10.4-.4-4.7-10.7-4.5-10.7-4.5z"/>
    <path class="st15" d="M370.3 297.6h1.5L360.4 245c-.4-1.9-1.3-3.6-2.7-5l-4.1-4.1-1 1 4.1 4.1c1.2 1.2 2 2.6 2.3 4.2l11.3 52.4zM300.2 297.6l11.3-52.3c.3-1.6 1.1-3.1 2.3-4.2l4.1-4.1-1-1-4.1 4.1c-1.4 1.4-2.3 3.1-2.7 5l-11.4 52.6h1.5z"/>
    <path class="st22" d="M290.3 200.7h24.8c1.3 0 2.3 1 2.3 2.3v.1h-27.2v-2.4z"/>
    <path class="st22" d="M290.3 203.2l-11.8-21c-.5-.9.2-2.1 1.2-2.1l13 23.1h-2.4z"/>
    <path class="st6" d="M329.7 143.8c-1.7-4.2 2.5-12.6 12.8-11.4 10.3 1.2 6.1 8.3 9.6 11.4 3.5 3 6 2.2 8.1 5.9 3.4 6-3.6 8.4 3.6 13 4.4 2.8 1.1 8.1 4.3 12.1 4.8 6.2-4.1 15-12.6 10.2-4.7-2.6-3.4-6.9-5.4-13-2.1-6.1-8.2-.9-8.2-11 0-5.6-5.4-2.7-6.1-7.7 0 0 1.1.1 1.6-1.8.6-2.4-1.2-3.1-1.9-1.6 0 .1-4-1.6-5.8-6.1z"/>
    <path class="st3" d="M337.3 197.3l-26.3 2-2.1-3.2 25.4-9.6z"/>
    <path class="st7" d="M308.9 196.1s-4.8-.9-7 .9-2.7 3.7-2.7 3.7h9.8l2.1-1.5c-.1.1.7-1.7-2.2-3.1z"/>
    <path class="st23" d="M351.2 173.8c-2 3.1-5.4 9.2-9 16.4-.6 1.2-1.2 2.4-1.7 3.5-.3.6-.5 1.1-.8 1.7-.1.3-.3.5-.4.8l-.2.4v.1c-1.1.1-2.1.2-3 .3-1.1.1-2.1.3-3 .4-1.9.2-3.4.5-4.7.7h4.7c.9 0 1.9-.1 3-.1.5 0 1.1 0 1.7-.1.7 0 1.4-.1 2.1-.1.6-1.1 1.2-2.3 1.8-3.5.6-1.1 1.2-2.3 1.8-3.5 3.6-7.2 6.4-13.5 7.7-17zM339.1 168.7c-1 2.2-2.4 6.4-3.8 11.3-.3 1.1-.6 2.3-.9 3.3-.1.5-.2 1.1-.4 1.6-.1.3-.1.5-.2.7l-.1.4v.1l-.1.1-.4.2c-.2.1-.5.2-.7.3-.5.2-.9.4-1.3.6-.8.4-1.5.8-2.1 1.1.6-.1 1.4-.3 2.3-.6.4-.1.9-.3 1.4-.4.2-.1.5-.2.8-.2l.4-.1c.2-.1.4-.1.6-.2.3-1 .6-2.1 1-3.2.3-1 .6-2.2.9-3.3 1.5-5 2.4-9.3 2.6-11.7z"/>
    <path class="st22" d="M327.2 213.5s-31.4 2.9-35.5 12.5c-3.4 8-6.1 30.3-7.7 46.8l10.3 1.7c3.9-15 9.3-34.4 11.7-37.6 5.3-7.2 37.4.2 48.8-7.9 5.1-3.6 5.5-11 5.5-11l-33.1-4.5z"/>
    <path class="st15" d="M357.3 232.5l9.9-64c.4-2.7 3-4.6 5.7-4.2l-11.3 73.1v.1h-52.7c0-2.8 2.2-5 5-5h43.4z"/>
  </g>
  <g>
    <path d="M95.2 65.3c-1.2 0-2.3-.4-3.2-1.3-.8-.8-1.3-2-1.3-3.2 0-1.2.5-2.3 1.3-3.2.8-.8 2-1.3 3.2-1.3 1.2 0 2.3.5 3.2 1.3 1.8 1.8 1.8 4.6 0 6.4-.9.8-2 1.3-3.2 1.3z" fill="#f6ae16"/>
    <path class="st18" d="M103.3 54.9c-2.2-2.2-5-3.3-8.1-3.3-3 0-5.9 1.2-8.1 3.3l-4-4c3.2-3.2 7.5-5 12.1-5s8.9 1.8 12.1 5l-4 4z"/>
    <path class="st18" d="M109.9 48.3c-3.9-3.9-9.2-6.1-14.7-6.1-5.6 0-10.8 2.2-14.7 6.1l-4-4c5-5 11.7-7.8 18.7-7.8 7.1 0 13.7 2.8 18.7 7.8l-4 4z"/>
    <path class="st18" d="M116.6 41.6c-5.7-5.7-13.3-8.9-21.4-8.9-8.1 0-15.7 3.1-21.4 8.9l-4-4c6.8-6.8 15.8-10.5 25.4-10.5 9.6 0 18.6 3.7 25.4 10.5l-4 4z"/>
  </g>
  <g>
    <path class="st25" d="M322.8 17.2c-7.9-7.9-20.8-7.9-28.7 0-6.5 6.5-7.7 16.3-3.5 24l-1.2 3.5-3.2 9.2 9.2-3.2 3.5-1.2c7.7 4.2 17.5 3 24-3.5 7.9-8 7.9-20.9-.1-28.8z"/>
    <path class="st25" d="M300.7 31.1c0 1.5-1.2 2.8-2.8 2.8-1.5 0-2.8-1.2-2.8-2.8s1.2-2.8 2.8-2.8c1.6.1 2.8 1.3 2.8 2.8zM311.5 31.1c0 1.5-1.2 2.8-2.8 2.8-1.5 0-2.8-1.2-2.8-2.8s1.2-2.8 2.8-2.8c1.6.1 2.8 1.3 2.8 2.8zM322.3 31.1c0 1.5-1.2 2.8-2.8 2.8-1.5 0-2.8-1.2-2.8-2.8s1.2-2.8 2.8-2.8c1.5.1 2.8 1.3 2.8 2.8z"/>
  </g>
  <g>
    <path class="st18" d="M404.6 92l-9.9 2.3v-3.9c0-2.6-2.1-4.6-4.6-4.6h-32.9c-2.6 0-4.6 2.1-4.6 4.6v23.2c0 2.6 2.1 4.6 4.6 4.6h32.9c2.6 0 4.6-2.1 4.6-4.6v-3.9l9.9 2.3c1.4.3 2.7-.7 2.7-2.1V94.1c0-1.4-1.3-2.5-2.7-2.1z"/>
    <path class="st4" d="M381.3 107.5H366c-1.6 0-2.9-1.3-2.9-2.9v-5.4c0-1.6 1.3-2.9 2.9-2.9h15.3c1.6 0 2.9 1.3 2.9 2.9v5.4c0 1.6-1.3 2.9-2.9 2.9z"/>
  </g>
  <g>
    <path d="M78.1 123.5c-4.6 0-8.4-3.8-8.4-8.4V99.5c0-4.6 3.8-8.4 8.4-8.4 4.6 0 8.4 3.8 8.4 8.4v15.6c0 4.7-3.8 8.4-8.4 8.4z" fill="#9ec2c4"/>
    <path class="st3" d="M78.1 123.5c-4.6 0-8.4-3.8-8.4-8.4V99.5c0-4.6 3.8-8.4 8.4-8.4 4.6 0 8.4 3.8 8.4 8.4v15.6c0 4.7-3.8 8.4-8.4 8.4z"/>
    <path d="M92.8 115.2c0-.9-.7-1.6-1.6-1.6-.9 0-1.6.7-1.6 1.6 0 6.4-5.2 11.5-11.5 11.5-6.4 0-11.5-5.2-11.5-11.5 0-.9-.7-1.6-1.6-1.6-.9 0-1.6.7-1.6 1.6 0 7.6 5.8 13.8 13.1 14.6V140H72c-2.1 0-3.9 1.7-3.9 3.9H88c0-2.1-1.7-3.9-3.9-3.9h-4.5v-10.2c7.5-.8 13.2-7.1 13.2-14.6z" fill="#bcbcbc"/>
  </g>
  <g>
    <path class="st15" d="M324.9 297.3h-2.3v-65.5c0-4.8-1.9-9.3-5.3-12.8L303 204.8l1.6-1.6 14.3 14.3c3.8 3.8 6 8.9 6 14.4v65.4zM137.5 297.3h2.3v-65.5c0-4.8 1.9-9.3 5.3-12.8l14.3-14.3-1.6-1.6-14.3 14.3c-3.8 3.8-6 8.9-6 14.4v65.5z"/>
    <path class="st15" d="M322.7 207.5h-183c-1.2 0-2.2-1-2.2-2.2 0-1.2 1-2.2 2.2-2.2h183c1.2 0 2.2 1 2.2 2.2 0 1.2-1 2.2-2.2 2.2z"/>
  </g>
  <path class="st8" d="M371.5 296.4c-1.2 1.7-1.9 2.7-1.9 2.7v-1.9c0-7.2.9-31.9 14.9-36.6 13.9-4.7-6.5 26.2-13 35.8z"/>
  <path class="st28" d="M369.9 296.8c-.1 1.2-.2 2.1-.2 2.4 0 0-.5-.7-1.2-2-4.8-8-21.4-36.7-8.2-36.2s10.4 27.4 9.6 35.8z"/>
  <path class="st29" d="M369.9 296.8c-.1 1.2-.2 2.1-.2 2.4 0 0-.5-.7-1.2-2l-6.3-27.2 7.7 26.8z"/>
  <path class="st29" d="M382.7 268.1l-11.2 28.3c-1.2 1.7-1.9 2.7-1.9 2.7v-1.9l13.1-29.1z"/>
  <g>
    <path class="st8" d="M87.7 292.4c-2 2.9-3.2 4.7-3.2 4.7s-.1-1.2-.1-3.3c0-12.2 1.6-54.4 25.4-62.4 23.7-8-11 44.8-22.1 61z"/>
    <path class="st28" d="M84.8 293.1c-.2 2.1-.4 3.5-.4 4 0 0-.8-1.3-2.1-3.4-8.2-13.6-36.5-62.7-14-61.7 22.8.9 18 46.7 16.5 61.1z"/>
    <path class="st29" d="M84.8 293.1c-.2 2.1-.4 3.5-.4 4 0 0-.8-1.3-2.1-3.4l-10.8-46.4 13.3 45.8z"/>
    <path class="st29" d="M106.8 244.2l-19.1 48.2c-2 2.9-3.2 4.7-3.2 4.7s-.1-1.2-.1-3.3l22.4-49.6z"/>
  </g>
</svg>