<svg xmlns="http://www.w3.org/2000/svg" viewBox="0 0 496 496">
  <linearGradient id="a" gradientUnits="userSpaceOnUse" x1="492.332" y1="248" x2="3.668" y2="248">
    <stop offset="0" stop-color="#7475d4"/>
    <stop offset="1" stop-color="#303096"/>
  </linearGradient>
  <path d="M451.1 140.9l-14.8 6.2 12.1 28.9h-52.7v16H455l20 48-20 48H333c-21.4-19.8-49.9-32-81.3-32s-59.9 12.2-81.3 32H35.7v16h120.2c-15.1 20.1-24.2 45-24.2 72 0 66.2 53.8 120 120 120s120-53.8 120-120c0-27-9.1-51.9-24.2-72h100.9l-12 28.9 14.8 6.2 41.3-99.1-41.4-99.1zM355.7 376c0 57.3-46.7 104-104 104s-104-46.7-104-104 46.7-104 104-104 104 46.7 104 104zm-288-123.3l141-76.4 17.7 17.7-32.9 4.1c-12.5 1.6-21.9 12.2-21.9 24.8 0 13.8 11.2 25 25 25 4.9 0 9.9-.3 14.8-.8l70.6-7.8 10.2-41-33.8-47.3 43.3-6.2 15.8 55.1h46c13.2 0 24-10.8 24-24s-10.8-24-24-24h-9.4l-7.1-35.6-31.4-37.6c-7.8-9.4-19.4-14.8-31.6-14.8-1.9 0-3.8.2-5.7.4l-33.6-16.8-68.6 13.7c-11.9 2.4-20.6 12.9-20.6 25.1 0 14.1 11.5 25.6 25.6 25.6h4.4l-2.3 1.2-142.9 90.5c-7.9 5-12.6 13.6-12.6 23v2.3c0 15 12.2 27.2 27.2 27.2 4.4-.1 8.9-1.2 12.8-3.4zM275 201.6l-5.8 23-59.5 6.6c-4.3.5-8.7.7-13.1.7-5 0-9-4-9-9 0-4.5 3.4-8.4 7.9-8.9l65.3-8.2-37.5-37.5 20.1-10.9 31.6 44.2zM181.3 96c-5.3 0-9.6-4.3-9.6-9.6 0-4.5 3.2-8.5 7.7-9.4l63.2-12.6 15.9 7.9-32.3 17.6-38.3 6c-.5.1-1 .1-1.5.1h-5.1zM43.7 228.8v-2.3c0-3.8 1.9-7.4 5.2-9.4L191.5 127l80.6-43.9c3.7-2 7.9-3.1 12.1-3.1 7.5 0 14.5 3.3 19.3 9.1l28.8 34.5 8.9 44.4h22.6c4.4 0 8 3.6 8 8s-3.6 8-8 8h-34l-16.3-56.9-64.3 9.2-189 102.4c-1.6.9-3.5 1.3-5.3 1.3-6.2 0-11.2-5-11.2-11.2zM355.7 96c26.5 0 48-21.5 48-48s-21.5-48-48-48-48 21.5-48 48 21.5 48 48 48zm0-80c17.6 0 32 14.4 32 32s-14.4 32-32 32-32-14.4-32-32 14.3-32 32-32zM3.7 288h16v16h-16v-16zm0-168h16v16h-16v-16zm32 0h80v16h-80v-16zm-16-32h16v16h-16V88zm32 0h88v16h-88V88zm-16-32h16v16h-16V56zm32 0h80v16h-80V56zm184 232c-48.5 0-88 39.5-88 88v8h24v-16h-7.5c.8-7.3 2.7-14.3 5.6-20.8l6.5 3.8 8-13.9-6.4-3.7c4.3-5.8 9.4-10.9 15.2-15.2l3.7 6.4 13.9-8-3.8-6.5c6.5-2.9 13.5-4.8 20.8-5.6v7.5h16v-7.5c7.3.8 14.3 2.7 20.8 5.6l-3.8 6.5 13.9 8 3.7-6.4c5.8 4.3 10.9 9.4 15.2 15.2l-6.4 3.7 8 13.9 6.5-3.8c2.9 6.5 4.8 13.5 5.6 20.8h-7.5v16h24v-8c0-48.5-39.5-88-88-88zm6.5 132.7l-13-9.3 40-56 13 9.3-40 56zM243.7 440h16v16h-16v-16zm32 0h16v16h-16v-16zm-64 0h16v16h-16v-16z" fill="url(#a)"/>
</svg>