<svg xmlns="http://www.w3.org/2000/svg" viewBox="0 0 512 512">
  <linearGradient id="a" gradientUnits="userSpaceOnUse" x1="0" y1="255.9995" x2="512" y2="255.9995">
    <stop offset="0" stop-color="#7373b5"/>
    <stop offset="1" stop-color="#323491"/>
  </linearGradient>
  <path d="M451.7 237.3c-17.4-8.7-50.1-8.8-51.5-8.8-4.1 0-7.5 3.4-7.5 7.5s3.4 7.5 7.5 7.5c8.4 0 32.9 1.3 44.8 7.2 1.1.5 2.2.8 3.3.8 2.8 0 5.4-1.5 6.7-4.1 1.9-3.8.4-8.3-3.3-10.1zM489.1 344l-31-8.9c-1.3-.4-2.3-1.6-2.3-3v-10.3c2.5-1.7 4.9-3.7 7.2-5.9 10.9-10.6 16.9-24.7 16.9-39.9v-14.3l3-6c3.3-6.6 5-13.9 5-21.3v-38.6c0-4.1-3.4-7.5-7.5-7.5h-72.2c-26.2 0-47.6 21.4-47.6 47.6v.4c0 6.1 1.4 12.2 4.2 17.7l3.8 7.7V274c0 19.4 9.6 36.8 24.1 47.3v10.8c0 1.7 0 2.4-6.2 4.1l-15.1 4.3-43.7-15.9c.2-2.1-.5-4.2-2-5.7l-14-14.7v-24.6c1.5-1.2 2.9-2.5 4.3-3.8 17.6-16.5 27.7-39.8 27.7-64v-19.7c5.3-11.6 8-23.8 8-36.5v-80c0-4.1-3.4-7.5-7.5-7.5H232c-39.5 0-71.7 32.1-71.7 71.7v16c0 12.6 2.7 24.9 8 36.5v16.9c0 28 12.5 53.3 32.1 69.9v25.2l-14 14.7c-1.5 1.6-2.2 3.7-2 5.7l-46.1 16.8c-3.3 1.2-6.5 2.9-9.3 4.9l-7.2-3.6c21.6-9.4 28.4-22.6 28.7-23.2 1.1-2.1 1.1-4.6 0-6.7-5.4-10.8-6.1-30.6-6.6-46.6-.2-5.3-.3-10.3-.7-14.8-2.6-36-29.9-63.1-63.6-63.1S18.5 215.5 16 251.5c-.3 4.5-.5 9.5-.7 14.8-.5 15.9-1.2 35.7-6.6 46.6-1.1 2.1-1.1 4.6 0 6.7.3.7 7.1 13.8 28.8 23.2l-20.1 10.1C6.7 358.2 0 369 0 381v55.4c0 4.1 3.4 7.5 7.5 7.5s7.5-3.4 7.5-7.5V381c0-6.3 3.5-12 9.2-14.8l25.1-12.5L58 362c6.1 5.8 13.9 8.7 21.7 8.7 7.8 0 15.6-2.9 21.7-8.7l8.7-8.3 8.2 4.1c-3.8 6.2-6 13.4-6 20.9v57.7c0 4.1 3.4 7.5 7.5 7.5s7.5-3.4 7.5-7.5v-57.7c0-10.3 6.5-19.6 16.2-23.1l48.7-17.7 20.3 30.4c2.6 3.9 6.7 6.4 11.4 6.8.5.1 1 .1 1.5.1 4.1 0 8-1.6 11-4.5l12.4-12.4v78.1c0 4.1 3.4 7.5 7.5 7.5s7.5-3.4 7.5-7.5v-78.1l12.4 12.4c2.9 2.9 6.9 4.5 11 4.5.5 0 1 0 1.5-.1 4.6-.5 8.8-3 11.4-6.8l20.3-30.4 48.7 17.7c9.7 3.5 16.2 12.8 16.2 23.1v57.7c0 4.1 3.4 7.5 7.5 7.5s7.5-3.4 7.5-7.5v-57.7c0-10.4-4.1-20.2-11.1-27.4l1.9-.5c1.9-.5 4.4-1.3 7-2.5l19.1 19.1v69.1c0 4.1 3.4 7.5 7.5 7.5s7.5-3.4 7.5-7.5v-69.1l19-19c1 .5 2.1.9 3.2 1.3l31 8.9c7.1 2 12 8.6 12 15.9v62c0 4.1 3.4 7.5 7.5 7.5s7.5-3.4 7.5-7.5v-62c-.4-14.1-9.8-26.6-23.3-30.5zm-441-13.2c-14-5-21.1-11.8-24.1-15.5 2-5.4 3.4-11.5 4.3-18 4.1 9.9 11.1 18.4 19.8 24.4v9.1zm43 20.3c-6.4 6.1-16.4 6.1-22.8 0l-7-6.6c1.2-2.2 1.8-4.7 1.8-7.3v-8c5.2 1.6 10.8 2.5 16.6 2.5 5.8 0 11.3-.9 16.6-2.5v8c0 2.6.6 5.1 1.8 7.3l-7 6.6zm-11.4-34.4c-22.4 0-40.6-18.2-40.6-40.6 0-4.1-3.4-7.5-7.5-7.5-.4 0-.8 0-1.2.1 0-.6 0-1.3.1-1.9.2-5.2.3-10 .6-14.2 1-13.5 6.3-25.9 15.2-35 8.9-9.2 20.8-14.2 33.5-14.2s24.6 5 33.5 14.2c8.8 9.1 14.2 21.5 15.2 35 .3 4.2.5 9 .6 14.2v1.3c-8.2-12.6-20.8-21.8-37-27.1-15-4.8-28-4.5-28.5-4.5-2 .1-3.8.9-5.2 2.3l-13.5 14c-2.9 3-2.8 7.7.2 10.6s7.7 2.8 10.6-.2L67 251.5c9.7.5 40.9 4.1 53 30.8-3.3 19.7-20.2 34.4-40.3 34.4zm31.5 14.1v-8.9c8.7-6 15.7-14.5 19.8-24.4.9 6.5 2.2 12.6 4.3 17.9-3 3.6-10.1 10.4-24.1 15.4zm72.2-121.7v-18.6c0-1.1-.3-2.2-.7-3.3-4.8-10-7.3-20.6-7.3-31.5v-16c0-31.2 25.4-56.7 56.7-56.7h104.8v72.7c0 10.9-2.4 21.5-7.3 31.5-.5 1-.7 2.1-.7 3.3v21.4c0 20.3-8.2 39.1-23 53-1.9 1.7-3.8 3.4-5.8 4.9l-.1.1c-13.9 10.5-30.9 15.7-48.7 14.5-38.1-2.4-67.9-35.5-67.9-75.3zm42.2 151c-.1.1-.2.2-.4.1-.2 0-.3-.2-.4-.2l-23.3-35 7.5-7.9 35.4 24.2-18.8 18.8zm30.5-29l-40.6-27.8v-14c10.5 5.7 22.3 9.2 34.8 10 2 .1 3.9.2 5.9.2 14.3 0 28.1-3.4 40.5-9.9v13.7l-40.6 27.8zm31.3 28.9c0 .1-.1.2-.4.2-.2 0-.4-.1-.4-.1l-18.8-18.8 35.4-24.2 7.5 7.9-23.3 35zm136.9-6.3l-17-17c.3-1.3.5-2.8.5-4.5V329c4.7 1.5 9.7 2.5 14.9 2.6h1.7c5.7 0 11.2-.9 16.5-2.5v3c0 1.5.2 3 .5 4.4l-17.1 17.2zm28.3-48.5c-7.9 7.7-18.5 11.8-29.5 11.4-21.7-.7-39.4-19.8-39.4-42.6v-14c0-1.2-.3-2.3-.8-3.4l-4.6-9.3c-1.7-3.4-2.6-7.2-2.6-11v-.3c0-18 14.6-32.6 32.6-32.6H473v31.1c0 5-1.2 10.1-3.4 14.6l-3.8 7.6c-.5 1-.8 2.2-.8 3.4v16c-.1 11-4.5 21.4-12.4 29.1zm19.8 75.6c-4.1 0-7.5 3.4-7.5 7.5v48.1c0 4.1 3.4 7.5 7.5 7.5s7.5-3.4 7.5-7.5v-48.1c0-4.1-3.3-7.5-7.5-7.5zm-432.8 9.9c-4.1 0-7.5 3.4-7.5 7.5v38.2c0 4.1 3.4 7.5 7.5 7.5s7.5-3.4 7.5-7.5v-38.2c0-4.1-3.4-7.5-7.5-7.5zm277.9-232.2c-28.4-28.4-87.7-22.9-111.9-19.3-7.6 1.1-13.2 7.6-13.2 15.3v17.3c0 4.1 3.4 7.5 7.5 7.5s7.5-3.4 7.5-7.5v-17.3c0-.3.2-.5.4-.5 9.7-1.5 28.9-3.7 48.7-2.4 23.4 1.6 40.3 7.4 50.3 17.4 2.9 2.9 7.7 2.9 10.6 0 3.1-2.8 3.1-7.6.1-10.5zM167.9 396.9c-4.1 0-7.5 3.4-7.5 7.5v32.1c0 4.1 3.4 7.5 7.5 7.5s7.5-3.4 7.5-7.5v-32.1c0-4.2-3.4-7.5-7.5-7.5zm176.4 0c-4.1 0-7.5 3.4-7.5 7.5v32.1c0 4.1 3.4 7.5 7.5 7.5s7.5-3.4 7.5-7.5v-32.1c0-4.2-3.4-7.5-7.5-7.5z" fill="url(#a)"/>
</svg>