<svg xmlns="http://www.w3.org/2000/svg" viewBox="0 0 48 48">
  <linearGradient id="a" gradientUnits="userSpaceOnUse" x1="46.0451" y1="23.674" x2="1.1719" y2="23.674">
    <stop offset="0" stop-color="#7475d4"/>
    <stop offset="1" stop-color="#303096"/>
  </linearGradient>
  <path d="M39.9 33.5h-1.5c-.4 0-.8-.3-.8-.8 0-.4.3-.8.8-.8h1.5c.4 0 .8.3.8.8 0 .4-.4.8-.8.8zm4.2-1.6h-1.2c-.4 0-.8.3-.8.8 0 .4.3.8.8.8h1.2c.4 0 .8-.3.8-.8 0-.4-.4-.8-.8-.8zm-5.9-5.4c0-.4-.3-.8-.8-.8h-2.9c-.4 0-.8.3-.8.8 0 .4.3.8.8.8h2.9c.4-.1.8-.4.8-.8zm6.2-.8h-1.2c-.4 0-.8.3-.8.8 0 .4.3.8.8.8h1.2c.4 0 .8-.3.8-.8s-.4-.8-.8-.8zm.3-6.2H31.9c-.4 0-.8.3-.8.8 0 .4.3.8.8.8H44.7c.4 0 .8-.3.8-.8s-.4-.8-.8-.8zm.3-6.3h-5c-.4 0-.8.3-.8.8 0 .4.3.8.8.8h5c.4 0 .8-.3.8-.8 0-.4-.4-.8-.8-.8zm-8.4 1.6c.4 0 .8-.3.8-.8 0-.4-.3-.8-.8-.8h-1.7c-.4 0-.8.3-.8.8 0 .4.3.8.8.8h1.7zm9.4-7c0 .4-.3.8-.8.8H30.5l-2 4.7h3c.4 0 .8.3.8.8 0 .4-.3.8-.8.8H27.9l-2 4.7h.1c.4 0 .8.3.8.8 0 .4-.3.8-.8.8h-.7l-2 4.7h5.4c.4 0 .8.3.8.8 0 .4-.3.8-.8.8H22.6l-2 4.7h14.7c.4 0 .8.3.8.8 0 .4-.3.8-.8.8H20.1l-2 4.7h7.7c.4 0 .8.3.8.8 0 .4-.3.8-.8.8h-8.4l-2 4.7h28c.4 0 .8.3.8.8 0 .4-.3.8-.8.8H1.9c-.4 0-.8-.3-.8-.8 0-.4.3-.8.8-.8h2.8l-1-5.3v-.1-.3-.1l12-28.7-.2-.1c-.2-.1-.3-.2-.4-.4-.1-.2-.1-.4 0-.6l1.5-3.5c.1-.2.2-.3.4-.4.2-.1.4-.1.6 0l.3-.3 1-2.3c.5-1.1 1.7-1.6 2.8-1.2l3.9 1.6c.5.2.9.6 1.2 1.2.2.5.2 1.1 0 1.7l-1 2.3.2.1c.4.2.6.6.4 1l-1.5 3.5c-.1.2-.2.3-.4.4-.1 0-.2.1-.3.1-.1 0-.2 0-.3-.1l-.2-.1-12 28.7v.1c-.1.1-.1.2-.2.2l-3.1 2.1H14l7.6-18.2 7.8-18.6c0-.1 0-.1.1-.2L31 3.5c.2-.4.6-.6 1-.4.4.2.6.6.4 1L31.2 7h14.1c.4 0 .7.4.7.8zm-36.7 34l-3.8-1.6.7 3.7 3.1-2.1zM23.6 7.4l.7.3.9-2.3c.1-.2.1-.3 0-.5s-.2-.3-.3-.3L21.1 3c-.3-.1-.7 0-.8.3l-1 2.3 4.3 1.8zm-6.7 1.3l.2.1 6.4 2.7.2.1.9-2-6.8-2.9-.9 2zM5.5 38.5l5 2.1 11.7-28-5-2.1-11.7 28zm38-.4h-1.2c-.4 0-.8.3-.8.8 0 .4.3.8.8.8h1.2c.4 0 .8-.3.8-.8 0-.4-.4-.8-.8-.8zm-7.4 0c-.4 0-.8.3-.8.8 0 .4.3.8.8.8h2.1c.4 0 .8-.3.8-.8 0-.4-.3-.8-.8-.8h-2.1zm-6.1 0c-.4 0-.8.3-.8.8 0 .4.3.8.8.8h2c.4 0 .8-.3.8-.8 0-.4-.3-.8-.8-.8h-2z" fill="url(#a)"/>
</svg>