<svg xmlns="http://www.w3.org/2000/svg" viewBox="0 0 512 512">
  <linearGradient id="a" gradientUnits="userSpaceOnUse" x1="0" y1="255.8496" x2="512" y2="255.8496">
    <stop offset="0" stop-color="#7373b5"/>
    <stop offset="1" stop-color="#323491"/>
  </linearGradient>
  <path d="M7.5 373.8c4.1 0 7.5-3.4 7.5-7.5V147.9h443.1v82.4c0 4.1 3.4 7.5 7.5 7.5s7.5-3.4 7.5-7.5V82.1c0-25.1-20.5-45.6-45.6-45.6h-19.7v-9.3c0-10-8.2-18.2-18.2-18.2h-13.9c-10 0-18.2 8.2-18.2 18.2v9.3h-49.7v-9.3c0-10-8.2-18.2-18.2-18.2h-13.9c-10 0-18.2 8.2-18.2 18.2v9.3h-49.7v-9.3c0-10-8.2-18.2-18.2-18.2h-13.9c-10 0-18.2 8.2-18.2 18.2v9.3h-49.7v-9.3c0-10-8.2-18.2-18.2-18.2H75.4c-10 0-18.2 8.2-18.2 18.2v9.3H45.6C20.5 36.5 0 57 0 82.1v284.2c0 4.2 3.4 7.5 7.5 7.5zm365-346.6c0-1.8 1.4-3.2 3.2-3.2h13.9c1.8 0 3.2 1.4 3.2 3.2v36.4c0 1.8-1.4 3.2-3.2 3.2h-13.9c-1.8 0-3.2-1.4-3.2-3.2V27.2zm-100.1 0c0-1.8 1.4-3.2 3.2-3.2h13.9c1.8 0 3.2 1.4 3.2 3.2v36.4c0 1.8-1.4 3.2-3.2 3.2h-13.9c-1.8 0-3.2-1.4-3.2-3.2V27.2zm-100.1 0c0-1.8 1.4-3.2 3.2-3.2h13.9c1.8 0 3.2 1.4 3.2 3.2v36.4c0 1.8-1.4 3.2-3.2 3.2h-13.9c-1.8 0-3.2-1.4-3.2-3.2V27.2zm-100.1 0c0-1.8 1.4-3.2 3.2-3.2h13.9c1.8 0 3.2 1.4 3.2 3.2v36.4c0 1.8-1.4 3.2-3.2 3.2H75.4c-1.8 0-3.2-1.4-3.2-3.2V27.2zM45.6 51.5h11.6v12.1c0 10 8.2 18.2 18.2 18.2h13.9c10 0 18.2-8.2 18.2-18.2V51.5h49.7v12.1c0 10 8.2 18.2 18.2 18.2h13.9c10 0 18.2-8.2 18.2-18.2V51.5h49.7v12.1c0 10 8.2 18.2 18.2 18.2h13.9c10 0 18.2-8.2 18.2-18.2V51.5h49.7v12.1c0 10 8.2 18.2 18.2 18.2h13.9c10 0 18.2-8.2 18.2-18.2V51.5h19.7c16.9 0 30.6 13.7 30.6 30.6v50.8H15V82.1c0-16.9 13.7-30.6 30.6-30.6zm39.3 392.1H19.5c-2.5 0-4.5-2-4.5-4.5v-38.6c0-4.1-3.4-7.5-7.5-7.5S0 396.4 0 400.5v38.6c0 10.8 8.8 19.5 19.5 19.5h65.4c4.1 0 7.5-3.4 7.5-7.5 0-4.2-3.3-7.5-7.5-7.5zm-.2-273.8H58.6c-4.1 0-7.5 3.4-7.5 7.5s3.4 7.5 7.5 7.5h26.1c4.1 0 7.5-3.4 7.5-7.5 0-4.2-3.4-7.5-7.5-7.5zm54 15h26.1c4.1 0 7.5-3.4 7.5-7.5s-3.4-7.5-7.5-7.5h-26.1c-4.1 0-7.5 3.4-7.5 7.5s3.4 7.5 7.5 7.5zm80.1 0h26.1c4.1 0 7.5-3.4 7.5-7.5s-3.4-7.5-7.5-7.5h-26.1c-4.1 0-7.5 3.4-7.5 7.5s3.4 7.5 7.5 7.5zm80.1 0H325c4.1 0 7.5-3.4 7.5-7.5s-3.4-7.5-7.5-7.5h-26.1c-4.1 0-7.5 3.4-7.5 7.5s3.4 7.5 7.5 7.5zm106.2-15H379c-4.1 0-7.5 3.4-7.5 7.5s3.4 7.5 7.5 7.5h26.1c4.1 0 7.5-3.4 7.5-7.5 0-4.2-3.3-7.5-7.5-7.5zM84.7 207.5H58.6c-4.1 0-7.5 3.4-7.5 7.5s3.4 7.5 7.5 7.5h26.1c4.1 0 7.5-3.4 7.5-7.5s-3.4-7.5-7.5-7.5zm54 15h26.1c4.1 0 7.5-3.4 7.5-7.5s-3.4-7.5-7.5-7.5h-26.1c-4.1 0-7.5 3.4-7.5 7.5s3.4 7.5 7.5 7.5zm80.1 0h26.1c4.1 0 7.5-3.4 7.5-7.5s-3.4-7.5-7.5-7.5h-26.1c-4.1 0-7.5 3.4-7.5 7.5s3.4 7.5 7.5 7.5zm80.1 0H325c4.1 0 7.5-3.4 7.5-7.5s-3.4-7.5-7.5-7.5h-26.1c-4.1 0-7.5 3.4-7.5 7.5s3.4 7.5 7.5 7.5zm106.2-15H379c-4.1 0-7.5 3.4-7.5 7.5s3.4 7.5 7.5 7.5h26.1c4.1 0 7.5-3.4 7.5-7.5s-3.3-7.5-7.5-7.5zM138.9 369.7l38.6 38.6c5.6 5.6 13 8.6 20.9 8.6s15.3-3.1 20.9-8.6l105.6-105.6c11.5-11.5 11.5-30.3 0-41.8s-30.3-11.5-41.8 0l-84.7 84.7-17.7-17.7c-11.5-11.5-30.2-11.5-41.8 0-11.5 11.6-11.5 30.3 0 41.8zm10.6-31.1c2.8-2.8 6.6-4.2 10.3-4.2s7.4 1.4 10.3 4.2l23 23c2.9 2.9 7.7 2.9 10.6 0l90-90c5.7-5.7 14.9-5.7 20.6 0 5.7 5.7 5.7 14.9 0 20.6L208.6 397.7c-2.7 2.7-6.4 4.3-10.3 4.3s-7.5-1.5-10.3-4.3l-38.6-38.6c-5.6-5.7-5.6-14.9.1-20.5zm323.6-14.2v-59.8c0-4.1-3.4-7.5-7.5-7.5s-7.5 3.4-7.5 7.5v50.3c-13.7-7.1-29.2-11.1-45.6-11.1-54.9 0-99.5 44.6-99.5 99.5 0 14.4 3.1 28 8.6 40.4H119.1c-4.1 0-7.5 3.4-7.5 7.5s3.4 7.5 7.5 7.5h210.8c17.9 26.6 48.2 44.1 82.6 44.1 54.9 0 99.5-44.6 99.5-99.5 0-32.2-15.2-60.7-38.9-78.9zm-60.6 163.3c-46.6 0-84.5-37.9-84.5-84.5s37.9-84.5 84.5-84.5 84.5 37.9 84.5 84.5-37.9 84.5-84.5 84.5zm0-158.2c-40.6 0-73.7 33.1-73.7 73.7s33 73.7 73.7 73.7 73.7-33 73.7-73.7c0-40.6-33.1-73.7-73.7-73.7zm6.7 132c.5-1 .8-2.1.8-3.3V449c0-4.1-3.4-7.5-7.5-7.5s-7.5 3.4-7.5 7.5v9.1c0 1.2.3 2.3.8 3.3-27-3.1-48.5-24.6-51.6-51.6 1 .5 2.1.8 3.3.8h9.1c4.1 0 7.5-3.4 7.5-7.5s-3.4-7.5-7.5-7.5h-9.1c-1.2 0-2.3.3-3.3.8 3.1-27 24.6-48.5 51.6-51.6-.5 1-.8 2.1-.8 3.3v9.1c0 4.1 3.4 7.5 7.5 7.5s7.5-3.4 7.5-7.5v-9.1c0-1.2-.3-2.3-.8-3.3 27 3.1 48.5 24.6 51.6 51.6-1-.5-2.1-.8-3.3-.8h-9.1c-4.1 0-7.5 3.4-7.5 7.5s3.4 7.5 7.5 7.5h9.1c1.2 0 2.3-.3 3.3-.8-3.1 27.1-24.6 48.6-51.6 51.7zm9.8-65.8h-9V388c0-4.1-3.4-7.5-7.5-7.5s-7.5 3.4-7.5 7.5v15.2c0 4.1 3.4 7.5 7.5 7.5H429c4.1 0 7.5-3.4 7.5-7.5s-3.3-7.5-7.5-7.5z" fill="url(#a)"/>
</svg>