<svg xmlns="http://www.w3.org/2000/svg" viewBox="0 0 512 512">
  <linearGradient id="a" gradientUnits="userSpaceOnUse" x1="512" y1="256" x2="0" y2="256">
    <stop offset="0" stop-color="#7373b5"/>
    <stop offset="1" stop-color="#323491"/>
  </linearGradient>
  <path d="M437 75C388.7 26.6 324.4 0 256 0S123.3 26.6 75 75C26.6 123.3 0 187.6 0 256s26.6 132.7 75 181c48.4 48.4 112.6 75 181 75s132.7-26.6 181-75c48.4-48.4 75-112.6 75-181s-26.6-132.7-75-181zM256 492C125.9 492 20 386.1 20 256S125.9 20 256 20s236 105.9 236 236-105.9 236-236 236zm72.6-429.1c2.2-5.1 8.1-7.4 13.1-5.2C407.3 86.1 454.6 144.9 468 215c1 5.4-2.5 10.7-7.9 11.7-.6.1-1.3.2-1.9.2-4.7 0-8.9-3.3-9.8-8.1-12.2-63.5-55.1-116.9-114.6-142.7-5.1-2.2-7.4-8.1-5.2-13.2zm-38.3-10.3c1.2-5.4 6.5-8.8 11.9-7.7l.3.1c5.4 1.2 8.8 6.5 7.6 11.9-1 4.7-5.2 7.8-9.8 7.8-.7 0-1.5-.1-2.2-.2h-.1c-5.4-1.2-8.9-6.5-7.7-11.9zM185.8 450c-1.6 3.8-5.3 6.1-9.2 6.1-1.3 0-2.6-.2-3.9-.8-32.5-13.6-61.5-35.2-83.9-62.6C66.2 365.1 50.6 332 43.9 297c-1-5.4 2.5-10.7 7.9-11.7s10.7 2.5 11.7 7.9c12.4 64.5 56.1 118.2 116.9 143.6 5.1 2.2 7.5 8.1 5.4 13.2zm35.9 9.4c-1 4.7-5.2 7.9-9.8 7.9-.7 0-1.4-.1-2.1-.2l-.7-.2c-5.4-1.2-8.8-6.5-7.6-11.9 1.2-5.4 6.5-8.8 11.9-7.6l.6.1c5.5 1.2 8.9 6.5 7.7 11.9zM467 302.2c-9 41.2-29.8 78.7-60.1 108.3-30.4 29.7-68.4 49.6-109.9 57.6-.6.1-1.3.2-1.9.2-4.7 0-8.9-3.3-9.8-8.1-1-5.4 2.5-10.7 7.9-11.7 77-14.8 137.5-73.9 154.2-150.5 1.2-5.4 6.5-8.8 11.9-7.6 5.5 1.1 8.9 6.4 7.7 11.8zM45 209.8c9-41.2 29.8-78.7 60.1-108.3 30.4-29.7 68.4-49.6 109.9-57.6 5.4-1 10.7 2.5 11.7 7.9s-2.5 10.7-7.9 11.7C141.8 78.3 81.3 137.4 64.6 214c-1 4.7-5.2 7.9-9.8 7.9-.7 0-1.4-.1-2.1-.2-5.5-1.2-8.9-6.5-7.7-11.9zm221 13.7v-85.2c0-5.5-4.5-10-10-10s-10 4.5-10 10v85.2c-10.7 3.3-19.2 11.8-22.5 22.5h-37.2c-5.5 0-10 4.5-10 10s4.5 10 10 10h37.2c4.3 13.9 17.2 24 32.5 24 18.7 0 34-15.3 34-34 0-15.3-10.1-28.2-24-32.5zM256 270c-7.7 0-14-6.3-14-14s6.3-14 14-14 14 6.3 14 14-6.3 14-14 14zm-9.8-197.6V50c0-5.5 4.5-10 10-10s10 4.5 10 10v22.4c0 5.5-4.5 10-10 10-5.6 0-10-4.5-10-10zm19.6 360.1V462c0 5.5-4.5 10-10 10s-10-4.5-10-10v-29.5c0-5.5 4.5-10 10-10 5.6 0 10 4.4 10 10zM472 256.2c0 5.5-4.5 10-10 10h-27c-5.5 0-10-4.5-10-10s4.5-10 10-10h27c5.5 0 10 4.4 10 10zm-422 9.6c-5.5 0-10-4.5-10-10s4.5-10 10-10h29c5.5 0 10 4.5 10 10s-4.5 10-10 10H50z" fill="url(#a)"/>
</svg>