<?xml version="1.0" encoding="utf-8"?>
<!-- Generator: Adobe Illustrator 23.0.1, SVG Export Plug-In . SVG Version: 6.00 Build 0)  -->
<svg version="1.1" id="Capa_1" xmlns="http://www.w3.org/2000/svg" xmlns:xlink="http://www.w3.org/1999/xlink" x="0px" y="0px"
	 viewBox="0 0 512 512" style="enable-background:new 0 0 512 512;" xml:space="preserve">
<style type="text/css">
	.st0{fill:url(#SVGID_1_);}
</style>
<linearGradient id="SVGID_1_" gradientUnits="userSpaceOnUse" x1="512" y1="256" x2="-9.094947e-13" y2="256">
	<stop  offset="0" style="stop-color:#7373B5"/>
	<stop  offset="1" style="stop-color:#323491"/>
</linearGradient>
<path class="st0" d="M437,75C388.7,26.6,324.4,0,256,0S123.3,26.6,75,75C26.6,123.3,0,187.6,0,256s26.6,132.7,75,181
	c48.4,48.4,112.6,75,181,75s132.7-26.6,181-75c48.4-48.4,75-112.6,75-181S485.4,123.3,437,75z M256,492C125.9,492,20,386.1,20,256
	S125.9,20,256,20s236,105.9,236,236S386.1,492,256,492z M328.6,62.9c2.2-5.1,8.1-7.4,13.1-5.2c65.6,28.4,112.9,87.2,126.3,157.3
	c1,5.4-2.5,10.7-7.9,11.7c-0.6,0.1-1.3,0.2-1.9,0.2c-4.7,0-8.9-3.3-9.8-8.1c-12.2-63.5-55.1-116.9-114.6-142.7
	C328.7,73.9,326.4,68,328.6,62.9z M290.3,52.6c1.2-5.4,6.5-8.8,11.9-7.7l0.3,0.1c5.4,1.2,8.8,6.5,7.6,11.9c-1,4.7-5.2,7.8-9.8,7.8
	c-0.7,0-1.5-0.1-2.2-0.2l-0.1,0C292.6,63.3,289.1,58,290.3,52.6z M185.8,450c-1.6,3.8-5.3,6.1-9.2,6.1c-1.3,0-2.6-0.2-3.9-0.8
	c-32.5-13.6-61.5-35.2-83.9-62.6C66.2,365.1,50.6,332,43.9,297c-1-5.4,2.5-10.7,7.9-11.7c5.4-1,10.7,2.5,11.7,7.9
	c12.4,64.5,56.1,118.2,116.9,143.6C185.5,439,187.9,444.9,185.8,450z M221.7,459.4c-1,4.7-5.2,7.9-9.8,7.9c-0.7,0-1.4-0.1-2.1-0.2
	l-0.7-0.2c-5.4-1.2-8.8-6.5-7.6-11.9c1.2-5.4,6.5-8.8,11.9-7.6l0.6,0.1C219.5,448.7,222.9,454,221.7,459.4z M467,302.2
	c-9,41.2-29.8,78.7-60.1,108.3c-30.4,29.7-68.4,49.6-109.9,57.6c-0.6,0.1-1.3,0.2-1.9,0.2c-4.7,0-8.9-3.3-9.8-8.1
	c-1-5.4,2.5-10.7,7.9-11.7c77-14.8,137.5-73.9,154.2-150.5c1.2-5.4,6.5-8.8,11.9-7.6C464.8,291.5,468.2,296.8,467,302.2z M45,209.8
	c9-41.2,29.8-78.7,60.1-108.3c30.4-29.7,68.4-49.6,109.9-57.6c5.4-1,10.7,2.5,11.7,7.9c1,5.4-2.5,10.7-7.9,11.7
	c-77,14.8-137.5,73.9-154.2,150.5c-1,4.7-5.2,7.9-9.8,7.9c-0.7,0-1.4-0.1-2.1-0.2C47.2,220.5,43.8,215.2,45,209.8z M266,223.5v-85.2
	c0-5.5-4.5-10-10-10c-5.5,0-10,4.5-10,10v85.2c-10.7,3.3-19.2,11.8-22.5,22.5h-37.2c-5.5,0-10,4.5-10,10s4.5,10,10,10h37.2
	c4.3,13.9,17.2,24,32.5,24c18.7,0,34-15.3,34-34C290,240.7,279.9,227.8,266,223.5z M256,270c-7.7,0-14-6.3-14-14c0-7.7,6.3-14,14-14
	c7.7,0,14,6.3,14,14C270,263.7,263.7,270,256,270z M246.2,72.4V50c0-5.5,4.5-10,10-10c5.5,0,10,4.5,10,10v22.4c0,5.5-4.5,10-10,10
	C250.6,82.4,246.2,77.9,246.2,72.4z M265.8,432.5V462c0,5.5-4.5,10-10,10c-5.5,0-10-4.5-10-10v-29.5c0-5.5,4.5-10,10-10
	C261.4,422.5,265.8,426.9,265.8,432.5z M472,256.2c0,5.5-4.5,10-10,10h-27c-5.5,0-10-4.5-10-10c0-5.5,4.5-10,10-10h27
	C467.5,246.2,472,250.6,472,256.2z M50,265.8c-5.5,0-10-4.5-10-10c0-5.5,4.5-10,10-10h29c5.5,0,10,4.5,10,10c0,5.5-4.5,10-10,10H50z
	"/>
</svg>
