<svg xmlns="http://www.w3.org/2000/svg" viewBox="0 0 48 48">
  <linearGradient id="a" gradientUnits="userSpaceOnUse" x1="45.0315" y1="24.1085" x2="4.8883" y2="24.1085">
    <stop offset="0" stop-color="#7475d4"/>
    <stop offset="1" stop-color="#303096"/>
  </linearGradient>
  <path d="M30.9 10c0 .4-.3.8-.8.8H10.9c-.4 0-.8-.3-.8-.8 0-.4.3-.8.8-.8h19.2c.4 0 .8.4.8.8zm-.8 3.2H10.9c-.4 0-.8.3-.8.8 0 .4.3.8.8.8h19.2c.4 0 .8-.3.8-.8s-.4-.8-.8-.8zm0 3.9H10.9c-.4 0-.8.3-.8.8 0 .4.3.8.8.8h19.2c.4 0 .8-.3.8-.8 0-.4-.4-.8-.8-.8zm0 3.9H10.9c-.4 0-.8.3-.8.8 0 .4.3.8.8.8h19.2c.4 0 .8-.3.8-.8 0-.4-.4-.8-.8-.8zm0 4H10.9c-.4 0-.8.3-.8.8 0 .4.3.8.8.8h19.2c.4 0 .8-.3.8-.8s-.4-.8-.8-.8zm0 3.9H10.9c-.4 0-.8.3-.8.8 0 .4.3.8.8.8h19.2c.4 0 .8-.3.8-.8 0-.4-.4-.8-.8-.8zm14.7-10l-.4.9c.2.1.3.2.4.4.1.2.1.4 0 .6l-1.1 2.5c-.1.3-.4.5-.7.5-.1 0-.2 0-.3-.1l-9.3 20.7c-.1.1-.1.2-.3.3l-1.7 1.1h6c.4 0 .6-.3.6-.6v-7.6c0-.4.3-.8.8-.8.4 0 .8.3.8.8V46c0 .8-.6 1.4-1.4 1.4H9.7c-.8 0-1.4-.6-1.4-1.4v-1.3c0-.4-.3-.7-.6-.7H6.3c-.8 0-1.4-.6-1.4-1.4V6.4c0-.1 0-.2.1-.3V6c.1-.1.1-.2.2-.2L12.8 1c.1-.1.3-.1.4-.1h21.5c.8 0 1.4.6 1.4 1.4v1.3c0 .4.3.6.6.6h1.4c.8 0 1.4.6 1.4 1.4v5.6c0 .4-.3.8-.8.8-.4 0-.8-.3-.8-.8V6.4c0-.4-.3-.6-.6-.6h-.6c-.4 0-.6.3-.6.6v9.9c0 .4-.3.8-.8.8-.4 0-.8-.3-.8-.8V3c0-.4-.3-.6-.6-.6H14.6c-.3 0-.6.3-.6.6v2.7c0 .8-.6 1.4-1.4 1.4H7.1c-.4 0-.6.3-.6.6v34.1c0 .4.3.6.6.6h17c.4 0 .8.3.8.8 0 .4-.3.8-.8.8H10.5c-.4 0-.6.3-.6.6v.5c0 .4.3.6.6.6H27c.4 0 .7-.4.6-.7l-.5-3v-.1-.3-.1L36.6 21c-.2-.1-.3-.2-.4-.4-.1-.2-.1-.4 0-.6l1.1-2.5c.1-.3.3-.4.6-.4.2 0 .5-.1.6-.4l.2-.5c.6-1.2 2-1.8 3.2-1.2l1.7.8c1.2.4 1.8 1.9 1.2 3.1zM11.5 3.6l-1.3.8c-.5.3-.3 1.2.3 1.2h1.3c.4 0 .6-.3.6-.6v-.8c.1-.5-.5-.8-.9-.6zm29.2 19.2l-2.1-1c-.3-.1-.7 0-.8.3L29.2 41c-.1.3 0 .7.3.8l2.1 1c.3.1.7 0 .8-.3L41 23.7c.1-.4 0-.7-.3-.9zM28.9 43.3l.2 1.1c.1.5.6.7 1 .4l.9-.6-2.1-.9zM43 20.9l-2.3-1-2.3-1-.5 1.1 4.6 2.1.5-1.2zm-2.9-4.1l-.1.3c-.1.3 0 .7.3.8l2.1 1c.3.1.7 0 .8-.3l.1-.3c.2-.4 0-1-.4-1.2l-1.7-.7c-.3-.2-.9 0-1.1.4z" fill="url(#a)"/>
</svg>