<svg xmlns="http://www.w3.org/2000/svg" viewBox="0 0 48 48">
  <linearGradient id="a" gradientUnits="userSpaceOnUse" x1="46.856" y1="23.9835" x2=".712" y2="23.9835">
    <stop offset="0" stop-color="#7475d4"/>
    <stop offset=".3674" stop-color="#5b5cbd"/>
    <stop offset="1" stop-color="#303096"/>
  </linearGradient>
  <path d="M31.3 30.3c.1-.3.2-.6.3-1 0-.7-.2-1.4-.7-2-.5-.6-1.3-.9-2-.9v-.1c0-.7-.2-1.4-.7-2-.3-.3-.7-.6-1.1-.7l6-5.3c.6-.5 1-1.3.9-2.1 0-.8-.4-1.6-1.1-2.1-1-.8-2.6-.8-3.6.2L21.6 21c-.1-.7-.5-1.4-1-2-1.2-1.2-3.3-1.2-4.6 0l-5.8 5.2C8.9 25.4 8 27 7.9 28.7l-.5 4.9L1 39.3c-.3.3-.3.7-.1 1.1.1.2.4.3.6.3.2 0 .4-.1.5-.2l6.7-5.9c.1-.1.2-.3.2-.5l.5-5.1c.1-1.4.8-2.6 1.8-3.5l5.8-5.2c.8-.7 1.9-.7 2.6-.1.4.4.6.8.6 1.4 0 .5-.2 1-.6 1.3L13.7 28c-.3.2-.3.7-.1 1 .1.1 1.8 2.7-.3 4.8-.3.3-.3.8 0 1.1.1.1.3.2.5.2s.4-.1.5-.2c2.1-2.1 1.6-4.6.8-6.1l5.4-4.8 9.9-8.7c.5-.4 1.2-.5 1.7-.1.3.2.5.6.5 1s-.1.7-.4 1l-7.9 7-2.5 2.2-.2.2-.2.2c-.8 1-.8 2.5.1 3.5.5.6 1.3.9 2 .9-.1.7.1 1.5.7 2.1.4.4.8.7 1.3.8-.1.3-.2.6-.3 1 0 .7.2 1.4.7 2 .3.3.7.6 1.1.7l-2.6 2.3c-1.3 1.2-2.8 2.1-4.4 2.9-1.9.9-3.7 2-5.2 3.4-.3.3-.3.7-.1 1.1.1.2.4.3.6.3.2 0 .4-.1.5-.2 1.5-1.3 3.1-2.3 4.9-3.1 1.7-.8 3.4-1.8 4.8-3.1l4.4-3.9 2.4-2.2c1.1-1 1.2-2.8.2-3.9-.3-.7-.7-1-1.2-1.1zm-8.6-1.2c-.5-.5-.4-1.3.1-1.8l2.5-2.2c.2-.2.5-.3.8-.3.3 0 .7.1.9.4.5.5.4 1.3-.1 1.8l-2.5 2.2c-.4.5-1.2.4-1.7-.1zm2.8 1.2l2.5-2.2c.2-.2.5-.3.8-.3.3 0 .7.1.9.4.5.5.4 1.3-.1 1.8l-.9.8-1.6 1.4c-.5.5-1.3.4-1.8-.1-.4-.5-.3-1.3.2-1.8zm5.9 3.6L28.9 36c-.5.5-1.3.4-1.8-.1s-.4-1.3.1-1.8l.9-.8 1.6-1.4c.2-.2.5-.3.8-.3.3 0 .7.1.9.4.2.3.3.6.3.9.1.4-.1.7-.3 1zm4.3-18.2c0-2.2-1.8-4-4-4-1.8 0-3.3 1.1-3.8 2.8-.1.4-.5.6-.9.5-.4-.1-.6-.5-.5-.9.7-2.3 2.8-3.9 5.3-3.9 3 0 5.5 2.5 5.5 5.5 0 2.3-1.4 4.4-3.6 5.2h-.3c-.3 0-.6-.2-.7-.5-.1-.4.1-.8.4-1 1.5-.5 2.6-2 2.6-3.7zM32.5 25c4.8-.4 8.5-4.4 8.5-9.3 0-5.1-4.2-9.3-9.3-9.3-5.1 0-9.3 4.2-9.3 9.3v.8c0 .4-.3.8-.7.8-.4 0-.8-.3-.8-.7v-.9c0-6 4.9-10.8 10.8-10.8 6 0 10.8 4.9 10.8 10.8 0 5.6-4.2 10.3-9.8 10.8h-.1c-.4 0-.7-.3-.7-.7-.1-.4.2-.8.6-.8zm14.4-9.3c0 7.2-5.1 13.5-12.2 14.9h-.1c-.3 0-.7-.2-.7-.6-.1-.4.2-.8.6-.9 6.4-1.3 11-6.9 11-13.4C45.4 8.1 39.2 2 31.6 2 24 2 17.9 8.2 17.9 15.7v.3c0 .4-.3.8-.7.8-.4 0-.8-.3-.8-.7v-.3C16.4 7.4 23.2.6 31.6.6 40 .5 46.9 7.3 46.9 15.7z" fill="url(#a)"/>
</svg>