<svg xmlns="http://www.w3.org/2000/svg" viewBox="0 0 48 48">
  <linearGradient id="a" gradientUnits="userSpaceOnUse" x1="46.5602" y1="23.6866" x2="1.438" y2="23.6866">
    <stop offset="0" stop-color="#7475d4"/>
    <stop offset="1" stop-color="#303096"/>
  </linearGradient>
  <path d="M43.9 3.2H4.1c-1.4 0-2.6 1.2-2.6 2.6v25.8c0 1.4 1.2 2.6 2.6 2.6h11.1v3.9h-3.7c-2.9 0-5.3 2.4-5.3 5.3 0 .4.3.8.8.8h34.2c.4 0 .8-.3.8-.8 0-2.9-2.4-5.3-5.3-5.3H33v-3.9h11.1c1.4 0 2.6-1.2 2.6-2.6V5.8c-.1-1.5-1.3-2.6-2.8-2.6zm-3.6 39.5H7.7c.4-1.7 1.9-3 3.7-3h25.2c1.8 0 3.3 1.3 3.7 3zm-9-4.6H16.7v-3.9h14.7v3.9zM45 31.6c0 .6-.5 1.1-1.1 1.1H4.1c-.6 0-1.1-.5-1.1-1.1V5.8c0-.6.5-1.1 1.1-1.1H44c.6 0 1.1.5 1.1 1.1v25.8zM42.7 6.3H5.3c-.4 0-.8.3-.8.8v23.2c0 .4.3.8.8.8h37.4c.4 0 .8-.3.8-.8V7.1c0-.5-.4-.8-.8-.8zm-.8 23.2H6.1V7.8H42v21.7zm-14.8-15c0-.4.3-.8.8-.8h7.9c.4 0 .8.3.8.8 0 .4-.3.8-.8.8h-7.9c-.5 0-.8-.4-.8-.8zm0 4.2c0-.4.3-.8.8-.8h7.9c.4 0 .8.3.8.8 0 .4-.3.8-.8.8h-7.9c-.5 0-.8-.4-.8-.8zm0 4.2c0-.4.3-.8.8-.8h7.9c.4 0 .8.3.8.8 0 .4-.3.8-.8.8h-7.9c-.5 0-.8-.4-.8-.8zm-16-5.4h2.3v7.4c0 .4.3.8.8.8h5.3c.4 0 .8-.3.8-.8v-7.4h2.3c.3 0 .6-.2.7-.5.1-.3.1-.6-.2-.8l-5.7-5.7c-.2-.1-.3-.2-.5-.2s-.4.1-.5.2l-5.7 5.7c-.2.2-.3.6-.2.8 0 .3.2.5.6.5zm5.7-5.3l3.8 3.8h-1.2c-.4 0-.8.3-.8.8v7.4h-3.7v-7.4c0-.4-.3-.8-.8-.8h-1.2l3.9-3.8z" fill="url(#a)"/>
</svg>