<svg xmlns="http://www.w3.org/2000/svg" viewBox="0 0 48 48">
  <linearGradient id="a" gradientUnits="userSpaceOnUse" x1="47.4522" y1="23.5616" x2="1.0461" y2="23.5616">
    <stop offset="0" stop-color="#7475d4"/>
    <stop offset="1" stop-color="#303096"/>
  </linearGradient>
  <path d="M25.8 8l-.3 1.1c-.1.3-.4.6-.8.6h-.2c-.4-.1-.7-.5-.6-1l.3-1.1c.1-.4.5-.7 1-.6.5.1.7.5.6 1zm-4.2 7.5c0-.4-.3-.8-.8-.8-.4 0-.8.3-.8.8v5.9c0 .4.3.8.8.8.4 0 .8-.3.8-.8v-5.9zm-.8 20.2c-.4 0-.8.3-.8.8v3.4c0 .4.3.8.8.8.4 0 .8-.3.8-.8v-3.4c0-.4-.3-.8-.8-.8zM28.3 9l-1.7 3c-.2.4-.1.9.3 1.1.1.1.3.1.4.1.3 0 .5-.1.7-.4l1.7-3c.2-.4.1-.9-.3-1.1-.4-.2-.8-.1-1.1.3zm3.7 8.9c.1 0 .3 0 .4-.1l3-1.7c.4-.2.5-.7.3-1.1-.2-.4-.7-.5-1.1-.3l-3 1.7c-.4.2-.5.7-.3 1.1.2.2.5.4.7.4zm.6 15.6c-.4 0-.8.3-.8.8v7.2c0 .4.3.8.8.8.4 0 .8-.3.8-.8v-7.2c0-.4-.4-.8-.8-.8zm10.5 0c-.4 0-.8.3-.8.8v7.2c0 .4.3.8.8.8.4 0 .8-.3.8-.8v-7.2c0-.4-.4-.8-.8-.8zM32.2 13.4l.8-.8c.3-.3.3-.8 0-1.1-.3-.3-.8-.3-1.1 0l-.8.8c-.3.3-.3.8 0 1.1.2.2.4.2.6.2.1 0 .3-.1.5-.2zm15.3 21.3v7.2c0 .4-.3.8-.8.8-.4 0-.8-.3-.8-.8v-7.2c0-2.3-1.8-4.2-4.2-4.4-2.4 1.3-5.4 1.3-7.8 0-2.3.1-4.2 2-4.2 4.4v7.2c0 .4-.3.8-.8.8-.4 0-.8-.3-.8-.8-2.4 1-4.8 1.5-7.4 1.5C9.9 43.4 1 34.5 1 23.6S9.9 3.8 20.8 3.8c9.2 0 17.3 6.4 19.4 15.4 1.4.8 2.4 2.4 2.4 4.2 0 2.7-2.2 4.8-4.8 4.8-2.7 0-4.8-2.2-4.8-4.8 0-2.7 2.2-4.8 4.8-4.8.2 0 .4 0 .6.1C36.2 10.8 29 5.3 20.8 5.3c-10.1 0-18.2 8.2-18.2 18.2s8.2 18.2 18.2 18.2c2.6 0 5.1-.5 7.4-1.6v-5.5c0-3.3 2.7-5.9 5.9-5.9.1 0 .3 0 .4.1 2 1.2 4.6 1.2 6.6 0 .1-.1.3-.1.4-.1 3.3.1 6 2.7 6 6zm-6.4-11.4c0-1.8-1.5-3.3-3.3-3.3-1.8 0-3.3 1.5-3.3 3.3 0 1.8 1.5 3.3 3.3 3.3 1.9 0 3.3-1.5 3.3-3.3zM21.6 7.2c0-.4-.3-.8-.8-.8-.4 0-.8.3-.8.8v3.4c0 .4.3.8.8.8.4 0 .8-.3.8-.8V7.2zm3.9 30.9c-.1-.4-.5-.7-1-.6-.4.1-.7.5-.6 1l.3 1.1c.1.3.4.6.8.6h.2c.4-.1.7-.5.6-1l-.3-1.1zM5 28.6h.2l1.1-.3c.4-.1.7-.5.6-1-.1-.4-.5-.7-1-.6l-1.1.3c-.4.1-.7.5-.6 1 .2.3.5.6.8.6zm4.3-10.8c.1.1.3.1.4.1.3 0 .5-.1.7-.4.2-.4.1-.9-.3-1.1l-3-1.7c-.4-.2-.9-.1-1.1.3-.2.4-.1.9.3 1.1l3 1.7zm9.4 5.8c0-.4-.3-.8-.8-.8h-3.6c-.4 0-.8.3-.8.8 0 .4.3.8.8.8h3.6c.5-.1.8-.4.8-.8zm-15 0c0 .4.3.8.8.8h3.4c.4 0 .8-.3.8-.8 0-.4-.3-.8-.8-.8H4.5c-.4 0-.8.3-.8.8zm5.6 12.3c.2 0 .4-.1.6-.2l.8-.8c.3-.3.3-.8 0-1.1-.3-.3-.8-.3-1.1 0l-.8.8c-.3.3-.3.8 0 1.1.1.1.3.2.5.2zm1.3-23.7l-.8-.8c-.3-.3-.8-.3-1.1 0-.3.3-.3.8 0 1.1l.8.8c.2.2.4.2.6.2.2 0 .4-.1.6-.2.2-.3.2-.7-.1-1.1zM6.7 32.5c.1 0 .3 0 .4-.1l3-1.7c.4-.2.5-.7.3-1.1-.2-.4-.7-.5-1.1-.3l-3 1.7c-.4.2-.5.7-.3 1.1.1.3.4.4.7.4zm5.6 5.9c.1.1.3.1.4.1.3 0 .5-.1.7-.4l1.7-3c.2-.4.1-.9-.3-1.1-.4-.2-.9-.1-1.1.3l-1.7 3c-.2.4-.1.9.3 1.1zm-8-19.3c-.1.4.1.8.6 1l1.1.3h.2c.3 0 .7-.2.8-.6.1-.4-.1-.8-.6-1l-1.1-.3c-.5 0-.9.2-1 .6zm11.9 19l-.3 1.1c-.1.4.1.8.6 1h.2c.3 0 .7-.2.8-.6l.3-1.1c.1-.4-.1-.8-.6-1-.5-.1-.9.1-1 .6zm-2.5-25.3c.1.3.4.4.7.4.1 0 .3 0 .4-.1.4-.2.5-.7.3-1.1l-1.7-3c-.2-.4-.7-.5-1.1-.3-.4.2-.5.7-.3 1.1l1.7 3zm3.2-3.2h.2c.4-.1.7-.5.6-1l-.3-1.1c-.1-.4-.5-.7-1-.6-.4.1-.7.5-.6 1l.3 1.1c.1.4.5.6.8.6z" fill="url(#a)"/>
</svg>