<svg xmlns="http://www.w3.org/2000/svg" viewBox="0 0 48 48">
  <linearGradient id="a" gradientUnits="userSpaceOnUse" x1="47.4522" y1="23.8272" x2="1.3209" y2="23.8272">
    <stop offset="0" stop-color="#7475d4"/>
    <stop offset="1" stop-color="#303096"/>
  </linearGradient>
  <path d="M6 9.5c.5 0 .9.4.9.9s-.4.9-.9.9-.9-.4-.9-.9.4-.9.9-.9zm2.5.9c0 .5.4.9.9.9s.9-.4.9-.9-.4-.9-.9-.9-.9.4-.9.9zm3.4 0c0 .5.4.9.9.9s.9-.4.9-.9-.4-.9-.9-.9-.9.4-.9.9zm7.2-.7c-.4 0-.8.3-.8.8 0 .4.3.8.8.8h2.6c.4 0 .8-.3.8-.8 0-.4-.3-.8-.8-.8h-2.6zm26.4 12.9c-.4 0-.8.3-.8.8v10.8l-39.6.1c-.4 0-.7.3-.7.8 0 .4.3.7.8.7l39.7-.3v2c0 .9-.8 1.7-1.7 1.7H4.5c-.9 0-1.7-.8-1.7-1.7v-24h36.6c.4 0 .8-.3.8-.8 0-.4-.3-.8-.8-.8H2.8v-2c0-.9.8-1.7 1.7-1.7h38.6c.9 0 1.7.8 1.7 1.7v2.8c0 .4.3.8.8.8.4 0 .8-.3.8-.8V9.9c0-1.8-1.4-3.2-3.2-3.2H4.5c-1.8 0-3.2 1.4-3.2 3.2v27.5c0 1.8 1.4 3.2 3.2 3.2h38.6c1.8 0 3.2-1.4 3.2-3.2V23.3c0-.4-.4-.7-.8-.7zM25.6 9.7c-.4 0-.8.3-.8.8 0 .4.3.8.8.8h5.2c.4 0 .8-.3.8-.8 0-.4-.3-.8-.8-.8h-5.2zm21.8 6.7c0-.1 0-.1 0 0 0-.1-.1-.2-.1-.3 0 0 0-.1-.1-.1l-.1-.1s-.1 0-.1-.1h-.1-.4l-2.5.5c-.4.1-.7.5-.6.9.1.4.4.6.7.6H44.4l-4.7 4.8-1.8-4.6c-.1-.3-.3-.4-.6-.5-.3 0-.5.1-.7.3l-5.8 9H29l-2.7-5.3c-.1-.2-.3-.4-.6-.4-.2 0-.5.1-.7.3l-7.2 8.3H14l-3.2-2.8c-.3-.3-.7-.3-1 0L5.2 31c-.3.3-.3.8-.1 1.1.1.2.4.3.6.3.2 0 .4-.1.5-.2l4.1-3.7 2.9 2.6c.1.1.3.2.5.2h4.4c.2 0 .4-.1.6-.3l6.7-7.7 2.4 4.7c.1.3.4.4.7.4h2.7c.3 0 .5-.1.6-.3l5.3-8.1 1.7 4.2c.1.2.3.4.5.5.2.1.5 0 .7-.2l5.6-5.7v.1c-.1.4.2.8.6.9.4.1.8-.2.9-.6l.4-2.4c0-.3 0-.3-.1-.4zM37.2 29.8h3.9c.4 0 .8-.3.8-.8 0-.4-.3-.8-.8-.8h-3.9c-.4 0-.8.3-.8.8.1.5.4.8.8.8zm0 2.9h3.9c.4 0 .8-.3.8-.8 0-.4-.3-.8-.8-.8h-3.9c-.4 0-.8.3-.8.8.1.5.4.8.8.8zM16.8 16.3c0-.4-.3-.8-.8-.8-.4 0-.8.3-.8.8v.7c0 .4.3.8.8.8.4 0 .8-.3.8-.8v-.7zm-.7 7c-.4 0-.8.3-.8.8v.8c0 .4.3.8.8.8.4 0 .8-.3.8-.8v-.8c-.1-.4-.4-.8-.8-.8zm8.7-6.8v2.2c0 .4.3.8.8.8s.8-.3.8-.8v-2.2c0-.4-.3-.8-.8-.8s-.8.4-.8.8zM9.5 22.9v1.7c0 .4.3.8.8.8.4 0 .8-.3.8-.8v-1.7c0-.4-.3-.8-.8-.8-.4.1-.8.4-.8.8z" fill="url(#a)"/>
</svg>