<?xml version="1.0" encoding="utf-8"?>
<!-- Generator: Adobe Illustrator 23.0.1, SVG Export Plug-In . SVG Version: 6.00 Build 0)  -->
<svg version="1.1" id="Layer_1" xmlns="http://www.w3.org/2000/svg" xmlns:xlink="http://www.w3.org/1999/xlink" x="0px" y="0px"
	 viewBox="0 0 512 512" style="enable-background:new 0 0 512 512;" xml:space="preserve">
<style type="text/css">
	.st0{fill:url(#SVGID_1_);}
	.st1{fill:url(#SVGID_2_);}
	.st2{fill:url(#SVGID_3_);}
	.st3{fill:url(#SVGID_4_);}
</style>
<linearGradient id="SVGID_1_" gradientUnits="userSpaceOnUse" x1="0" y1="256.3418" x2="512" y2="256.3418">
	<stop  offset="0" style="stop-color:#7373B5"/>
	<stop  offset="1" style="stop-color:#323491"/>
</linearGradient>
<path class="st0" d="M364.2,26c-38.2,0-74.4,14.5-102,40.9c-3.5,3.4-8.8,3.4-12.4,0C222.2,40.5,186,26,147.8,26
	C66.3,26,0,92.3,0,173.8c0,57.7,35.4,123.1,105.2,194.4c54.5,55.6,114.4,98.5,137.6,114.4c4,2.8,8.6,4.1,13.2,4.1
	c4.6,0,9.2-1.4,13.2-4.1c23.2-15.9,83.1-58.8,137.6-114.4C476.6,296.9,512,231.5,512,173.8C512,92.3,445.7,26,364.2,26z M147.8,41
	c34.3,0,66.9,13,91.7,36.7c9.3,8.9,23.8,8.9,33.1,0C297.3,54,329.9,41,364.2,41C437.4,41,497,100.6,497,173.8
	c0,41.5-20.6,84.4-49.8,124.3c-0.2-2.3-0.4-4.6-0.7-6.9c-1.4-11.8-11.5-20.6-23.4-20.6H418c-3.8-14-9.3-27.5-16.7-40.1l3.6-3.6
	c8.4-8.4,9.3-21.8,1.9-31.2c-9.5-12-20.3-22.9-32.4-32.4c-9.3-7.3-22.7-6.5-31.2,1.9l-3.6,3.6c-12.6-7.3-26.1-12.9-40.1-16.7V147
	c0-11.9-8.9-22-20.6-23.4c-15.2-1.8-30.7-1.8-45.9,0c-11.8,1.4-20.6,11.5-20.6,23.4v5.1c-14,3.8-27.5,9.3-40.1,16.7l-3.6-3.6
	c-8.4-8.4-21.8-9.3-31.2-1.9c-12,9.5-22.9,20.4-32.4,32.4c-7.3,9.3-6.5,22.7,1.9,31.2l3.6,3.6c-7.3,12.6-12.9,26.1-16.7,40.1h-5.1
	c-11.9,0-22,8.9-23.4,20.6c-0.3,2.3-0.5,4.6-0.7,6.9C35.6,258.2,15,215.3,15,173.8C15,100.6,74.6,41,147.8,41z M260.8,470.2
	c-2.9,2-6.7,2-9.6,0c-24.7-16.9-110.9-78.4-172.1-153.5c0-0.9,0-1.7,0-2.6c0-7,0.4-14.1,1.3-21.1c0.5-4.2,4.2-7.4,8.5-7.4h11
	c3.5,0,6.5-2.4,7.3-5.8c3.8-16.4,10.3-32.1,19.3-46.5c1.9-3,1.4-6.8-1.1-9.3l-7.8-7.8c-3.1-3.1-3.4-7.9-0.8-11.3
	c8.7-11.1,18.8-21.1,29.9-29.9c3.4-2.6,8.2-2.3,11.3,0.7l7.8,7.8c2.5,2.5,6.3,2.9,9.3,1.1c14.4-9,30-15.5,46.5-19.3
	c3.4-0.8,5.8-3.8,5.8-7.3v-11c0-4.3,3.2-8,7.4-8.5c14-1.7,28.3-1.7,42.3,0c4.2,0.5,7.4,4.2,7.4,8.5v11c0,3.5,2.4,6.5,5.8,7.3
	c16.4,3.8,32.1,10.3,46.5,19.3c3,1.9,6.8,1.4,9.3-1.1l7.8-7.8c3.1-3.1,7.9-3.4,11.3-0.7c11.1,8.7,21.1,18.8,29.9,29.9
	c2.6,3.4,2.3,8.2-0.8,11.3l-7.8,7.8c-2.5,2.5-2.9,6.3-1.1,9.3c9,14.4,15.5,30,19.3,46.5c0.8,3.4,3.8,5.8,7.3,5.8h11
	c4.3,0,8,3.2,8.5,7.4c0.8,7,1.3,14.1,1.3,21.1c0,0.9,0,1.7,0,2.6C371.7,391.8,285.5,453.3,260.8,470.2z"/>
<linearGradient id="SVGID_2_" gradientUnits="userSpaceOnUse" x1="176.3555" y1="314.0645" x2="335.6445" y2="314.0645">
	<stop  offset="0" style="stop-color:#7373B5"/>
	<stop  offset="1" style="stop-color:#323491"/>
</linearGradient>
<path class="st1" d="M256,234.4c-43.9,0-79.6,35.7-79.6,79.6c0,43.9,35.7,79.6,79.6,79.6s79.6-35.7,79.6-79.6
	C335.6,270.1,299.9,234.4,256,234.4z M256,378.7c-35.6,0-64.6-29-64.6-64.6c0-35.6,29-64.6,64.6-64.6s64.6,29,64.6,64.6
	C320.6,349.7,291.6,378.7,256,378.7z"/>
<linearGradient id="SVGID_3_" gradientUnits="userSpaceOnUse" x1="144.3562" y1="292.6917" x2="324.8888" y2="292.6917">
	<stop  offset="0" style="stop-color:#7373B5"/>
	<stop  offset="1" style="stop-color:#323491"/>
</linearGradient>
<path class="st2" d="M159.6,307c1.7-23.1,11.6-44.9,28-61.3c16.4-16.4,38.2-26.4,61.3-28c22.9-1.6,45.6,4.9,64.1,18.4
	c3.3,2.4,8,1.7,10.5-1.6c2.4-3.3,1.7-8-1.6-10.5c-21.3-15.6-47.6-23.1-74-21.2c-26.7,1.9-51.9,13.4-70.8,32.4s-30.5,44.1-32.4,70.8
	c-1.9,26.4,5.7,52.7,21.2,74c1.5,2,3.7,3.1,6.1,3.1c1.5,0,3.1-0.5,4.4-1.4c3.3-2.4,4.1-7.1,1.6-10.5
	C164.5,352.6,158,329.8,159.6,307z"/>
<linearGradient id="SVGID_4_" gradientUnits="userSpaceOnUse" x1="187.1112" y1="335.4383" x2="367.6438" y2="335.4383">
	<stop  offset="0" style="stop-color:#7373B5"/>
	<stop  offset="1" style="stop-color:#323491"/>
</linearGradient>
<path class="st3" d="M335.6,246.6c-3.3,2.4-4.1,7.1-1.6,10.5c13.5,18.4,20,41.2,18.4,64.1c-1.7,23.1-11.6,44.9-28,61.3
	c-16.4,16.4-38.2,26.4-61.3,28c-22.9,1.6-45.6-4.9-64.1-18.4c-3.3-2.4-8-1.7-10.5,1.6c-2.4,3.3-1.7,8,1.6,10.5
	c19.1,14,42.3,21.5,66,21.5c2.7,0,5.3-0.1,8-0.3c26.7-1.9,51.9-13.4,70.8-32.4c19-19,30.5-44.1,32.4-70.8c1.9-26.4-5.7-52.7-21.2-74
	C343.7,244.9,339,244.2,335.6,246.6z"/>
</svg>
