<?xml version="1.0" encoding="utf-8"?>
<!-- Generator: Adobe Illustrator 23.0.1, SVG Export Plug-In . SVG Version: 6.00 Build 0)  -->
<svg version="1.1" id="Capa_1" xmlns="http://www.w3.org/2000/svg" xmlns:xlink="http://www.w3.org/1999/xlink" x="0px" y="0px"
	 viewBox="0 0 512 512" style="enable-background:new 0 0 512 512;" xml:space="preserve">
<style type="text/css">
	.st0{fill:url(#SVGID_1_);}
</style>
<linearGradient id="SVGID_1_" gradientUnits="userSpaceOnUse" x1="511.996" y1="256" x2="5.001068e-03" y2="256">
	<stop  offset="0" style="stop-color:#7475D4"/>
	<stop  offset="1" style="stop-color:#303096"/>
</linearGradient>
<path class="st0" d="M251.3,276.9c-1.9-1.9-4.4-2.9-7.1-2.9c-2.6,0-5.2,1.1-7.1,2.9c-1.9,1.9-2.9,4.4-2.9,7.1s1.1,5.2,2.9,7.1
	c1.9,1.9,4.4,2.9,7.1,2.9s5.2-1.1,7.1-2.9c1.9-1.9,2.9-4.4,2.9-7.1S253.2,278.8,251.3,276.9z M474,218h-24.1
	c-14.2-29.6-44.4-50-79.4-50s-65.2,20.4-79.4,50H38c-21,0-38,17-38,38c0,21,17,38,38,38h160.3c5.5,0,10-4.5,10-10s-4.5-10-10-10H38
	c-9.9,0-18-8.1-18-18c0-9.9,8.1-18,18-18h246.4c-1.2,5.8-1.9,11.8-1.9,18c0,48.5,39.5,88,88,88c34.9,0,65.2-20.4,79.4-50H474
	c21,0,38-17,38-38C512,235,495,218,474,218z M370.5,324c-37.5,0-68-30.5-68-68s30.5-68,68-68s68,30.5,68,68S408,324,370.5,324z
	 M474,274h-17.3c1.2-5.8,1.9-11.8,1.9-18s-0.6-12.2-1.9-18H474c9.9,0,18,8.1,18,18C492,265.9,483.9,274,474,274z M474,386.1H245.6
	c-14.2-29.6-44.4-50.1-79.4-50.1c-35,0-65.2,20.5-79.4,50.1H38c-21,0-38,17-38,38c0,21,17,38,38,38h48.9
	c14.2,29.5,44.4,49.9,79.3,49.9c34.9,0,65.1-20.4,79.3-49.9H474c21,0,38-17,38-38C512,403.2,495,386.1,474,386.1z M38,442.1
	c-9.9,0-18-8.1-18-18s8.1-18,18-18h42c-1.2,5.8-1.8,11.8-1.8,17.9c0,6.2,0.7,12.3,1.9,18.1H38z M166.2,492c-37.5,0-68-30.5-68-68
	s30.5-68,68-68s68,30.5,68,68C234.2,461.5,203.7,492,166.2,492z M474,442.1H252.3c1.2-5.8,1.9-11.9,1.9-18.1
	c0-6.1-0.6-12.1-1.8-17.9H474c9.9,0,18,8.1,18,18C492,434,483.9,442.1,474,442.1z M356.1,52.9c-1.9-1.9-4.4-2.9-7.1-2.9
	s-5.2,1.1-7.1,2.9c-1.9,1.9-2.9,4.4-2.9,7.1s1.1,5.2,2.9,7.1c1.9,1.9,4.4,2.9,7.1,2.9s5.2-1.1,7.1-2.9c1.9-1.9,2.9-4.4,2.9-7.1
	S357.9,54.8,356.1,52.9z M474,50h-88.5c-5.5,0-10,4.5-10,10c0,5.5,4.5,10,10,10H474c9.9,0,18,8.1,18,18s-8.1,18-18,18H252.4
	c1.2-5.8,1.9-11.8,1.9-18s-0.6-12.2-1.9-18H307c5.5,0,10-4.5,10-10s-4.5-10-10-10h-61.4c-14.2-29.6-44.4-50-79.4-50
	s-65.2,20.4-79.4,50H38c-21,0-38,17-38,38c0,21,17,38,38,38h48.9c14.2,29.6,44.4,50,79.4,50s65.2-20.4,79.4-50H474c21,0,38-17,38-38
	S494.9,50,474,50z M80.1,106H38c-9.9,0-18-8.1-18-18s8.1-18,18-18h42.1c-1.2,5.8-1.9,11.8-1.9,18C78.2,94.2,78.9,100.2,80.1,106z
	 M166.2,156c-37.5,0-68-30.5-68-68c0-37.5,30.5-68,68-68c37.5,0,68,30.5,68,68S203.7,156,166.2,156z"/>
</svg>
