<?xml version="1.0" encoding="utf-8"?>
<!-- Generator: Adobe Illustrator 23.0.1, SVG Export Plug-In . SVG Version: 6.00 Build 0)  -->
<svg version="1.1" id="Layer_1" xmlns="http://www.w3.org/2000/svg" xmlns:xlink="http://www.w3.org/1999/xlink" x="0px" y="0px"
	 viewBox="0 0 496 496" style="enable-background:new 0 0 496 496;" xml:space="preserve">
<style type="text/css">
	.st0{fill:url(#SVGID_1_);}
</style>
<linearGradient id="SVGID_1_" gradientUnits="userSpaceOnUse" x1="492.332" y1="248" x2="3.668" y2="248">
	<stop  offset="0" style="stop-color:#7475D4"/>
	<stop  offset="1" style="stop-color:#303096"/>
</linearGradient>
<path class="st0" d="M451.1,140.9l-14.8,6.2l12.1,28.9h-52.7v16H455l20,48l-20,48H333c-21.4-19.8-49.9-32-81.3-32
	s-59.9,12.2-81.3,32H35.7v16h120.2c-15.1,20.1-24.2,45-24.2,72c0,66.2,53.8,120,120,120s120-53.8,120-120c0-27-9.1-51.9-24.2-72
	h100.9l-12,28.9l14.8,6.2l41.3-99.1L451.1,140.9z M355.7,376c0,57.3-46.7,104-104,104s-104-46.7-104-104s46.7-104,104-104
	S355.7,318.7,355.7,376z M67.7,252.7l141-76.4l17.7,17.7l-32.9,4.1c-12.5,1.6-21.9,12.2-21.9,24.8c0,13.8,11.2,25,25,25
	c4.9,0,9.9-0.3,14.8-0.8l70.6-7.8l10.2-41l-33.8-47.3l43.3-6.2l15.8,55.1h46c13.2,0,24-10.8,24-24s-10.8-24-24-24h-9.4l-7.1-35.6
	l-31.4-37.6c-7.8-9.4-19.4-14.8-31.6-14.8c-1.9,0-3.8,0.2-5.7,0.4l-33.6-16.8l-68.6,13.7c-11.9,2.4-20.6,12.9-20.6,25.1
	c0,14.1,11.5,25.6,25.6,25.6h4.4l-2.3,1.2L40.3,203.6c-7.9,5-12.6,13.6-12.6,23v2.3c0,15,12.2,27.2,27.2,27.2
	C59.3,256,63.8,254.9,67.7,252.7z M275,201.6l-5.8,23l-59.5,6.6c-4.3,0.5-8.7,0.7-13.1,0.7c-5,0-9-4-9-9c0-4.5,3.4-8.4,7.9-8.9
	l65.3-8.2l-37.5-37.5l20.1-10.9L275,201.6z M181.3,96c-5.3,0-9.6-4.3-9.6-9.6c0-4.5,3.2-8.5,7.7-9.4l63.2-12.6l15.9,7.9l-32.3,17.6
	l-38.3,6c-0.5,0.1-1,0.1-1.5,0.1H181.3z M43.7,228.8v-2.3c0-3.8,1.9-7.4,5.2-9.4L191.5,127l80.6-43.9c3.7-2,7.9-3.1,12.1-3.1
	c7.5,0,14.5,3.3,19.3,9.1l28.8,34.5l8.9,44.4h22.6c4.4,0,8,3.6,8,8s-3.6,8-8,8h-34l-16.3-56.9l-64.3,9.2l-189,102.4
	c-1.6,0.9-3.5,1.3-5.3,1.3C48.7,240,43.7,235,43.7,228.8z M355.7,96c26.5,0,48-21.5,48-48s-21.5-48-48-48s-48,21.5-48,48
	S329.2,96,355.7,96z M355.7,16c17.6,0,32,14.4,32,32s-14.4,32-32,32s-32-14.4-32-32S338,16,355.7,16z M3.7,288h16v16h-16V288z
	 M3.7,120h16v16h-16V120z M35.7,120h80v16h-80V120z M19.7,88h16v16h-16V88z M51.7,88h88v16h-88V88z M35.7,56h16v16h-16V56z M67.7,56
	h80v16h-80V56z M251.7,288c-48.5,0-88,39.5-88,88v8h8h8h8v-16h-7.5c0.8-7.3,2.7-14.3,5.6-20.8l6.5,3.8l8-13.9l-6.4-3.7
	c4.3-5.8,9.4-10.9,15.2-15.2l3.7,6.4l13.9-8l-3.8-6.5c6.5-2.9,13.5-4.8,20.8-5.6v7.5h16v-7.5c7.3,0.8,14.3,2.7,20.8,5.6l-3.8,6.5
	l13.9,8l3.7-6.4c5.8,4.3,10.9,9.4,15.2,15.2l-6.4,3.7l8,13.9l6.5-3.8c2.9,6.5,4.8,13.5,5.6,20.8h-7.5v16h8h8h8v-8
	C339.7,327.5,300.2,288,251.7,288z M258.2,420.7l-13-9.3l40-56l13,9.3L258.2,420.7z M243.7,440h16v16h-16V440z M275.7,440h16v16h-16
	V440z M211.7,440h16v16h-16V440z"/>
</svg>
