<?xml version="1.0" encoding="utf-8"?>
<!-- Generator: Adobe Illustrator 23.0.1, SVG Export Plug-In . SVG Version: 6.00 Build 0)  -->
<svg version="1.1" id="Layer_1" xmlns="http://www.w3.org/2000/svg" xmlns:xlink="http://www.w3.org/1999/xlink" x="0px" y="0px"
	 viewBox="0 0 512 512" style="enable-background:new 0 0 512 512;" xml:space="preserve">
<style type="text/css">
	.st0{fill:url(#SVGID_1_);}
</style>
<linearGradient id="SVGID_1_" gradientUnits="userSpaceOnUse" x1="0" y1="255.8496" x2="512" y2="255.8496">
	<stop  offset="0" style="stop-color:#7373B5"/>
	<stop  offset="1" style="stop-color:#323491"/>
</linearGradient>
<path class="st0" d="M7.5,373.8c4.1,0,7.5-3.4,7.5-7.5V147.9h443.1v82.4c0,4.1,3.4,7.5,7.5,7.5c4.1,0,7.5-3.4,7.5-7.5V82.1
	c0-25.1-20.5-45.6-45.6-45.6h-19.7v-9.3c0-10-8.2-18.2-18.2-18.2h-13.9c-10,0-18.2,8.2-18.2,18.2v9.3h-49.7v-9.3
	c0-10-8.2-18.2-18.2-18.2h-13.9c-10,0-18.2,8.2-18.2,18.2v9.3h-49.7v-9.3c0-10-8.2-18.2-18.2-18.2h-13.9c-10,0-18.2,8.2-18.2,18.2
	v9.3h-49.7v-9.3c0-10-8.2-18.2-18.2-18.2H75.4c-10,0-18.2,8.2-18.2,18.2v9.3H45.6C20.5,36.5,0,57,0,82.1v284.2
	C0,370.5,3.4,373.8,7.5,373.8z M372.5,27.2c0-1.8,1.4-3.2,3.2-3.2h13.9c1.8,0,3.2,1.4,3.2,3.2v36.4c0,1.8-1.4,3.2-3.2,3.2h-13.9
	c-1.8,0-3.2-1.4-3.2-3.2V27.2z M272.4,27.2c0-1.8,1.4-3.2,3.2-3.2h13.9c1.8,0,3.2,1.4,3.2,3.2v36.4c0,1.8-1.4,3.2-3.2,3.2h-13.9
	c-1.8,0-3.2-1.4-3.2-3.2V27.2z M172.3,27.2c0-1.8,1.4-3.2,3.2-3.2h13.9c1.8,0,3.2,1.4,3.2,3.2v36.4c0,1.8-1.4,3.2-3.2,3.2h-13.9
	c-1.8,0-3.2-1.4-3.2-3.2V27.2z M72.2,27.2c0-1.8,1.4-3.2,3.2-3.2h13.9c1.8,0,3.2,1.4,3.2,3.2v36.4c0,1.8-1.4,3.2-3.2,3.2H75.4
	c-1.8,0-3.2-1.4-3.2-3.2V27.2z M45.6,51.5h11.6v12.1c0,10,8.2,18.2,18.2,18.2h13.9c10,0,18.2-8.2,18.2-18.2V51.5h49.7v12.1
	c0,10,8.2,18.2,18.2,18.2h13.9c10,0,18.2-8.2,18.2-18.2V51.5h49.7v12.1c0,10,8.2,18.2,18.2,18.2h13.9c10,0,18.2-8.2,18.2-18.2V51.5
	h49.7v12.1c0,10,8.2,18.2,18.2,18.2h13.9c10,0,18.2-8.2,18.2-18.2V51.5h19.7c16.9,0,30.6,13.7,30.6,30.6v50.8H15V82.1
	C15,65.2,28.7,51.5,45.6,51.5z M84.9,443.6H19.5c-2.5,0-4.5-2-4.5-4.5v-38.6c0-4.1-3.4-7.5-7.5-7.5S0,396.4,0,400.5v38.6
	c0,10.8,8.8,19.5,19.5,19.5h65.4c4.1,0,7.5-3.4,7.5-7.5C92.4,446.9,89.1,443.6,84.9,443.6z M84.7,169.8H58.6c-4.1,0-7.5,3.4-7.5,7.5
	c0,4.1,3.4,7.5,7.5,7.5h26.1c4.1,0,7.5-3.4,7.5-7.5C92.2,173.1,88.8,169.8,84.7,169.8z M138.7,184.8h26.1c4.1,0,7.5-3.4,7.5-7.5
	c0-4.1-3.4-7.5-7.5-7.5h-26.1c-4.1,0-7.5,3.4-7.5,7.5C131.2,181.4,134.6,184.8,138.7,184.8z M218.8,184.8h26.1
	c4.1,0,7.5-3.4,7.5-7.5c0-4.1-3.4-7.5-7.5-7.5h-26.1c-4.1,0-7.5,3.4-7.5,7.5C211.3,181.4,214.7,184.8,218.8,184.8z M298.9,184.8H325
	c4.1,0,7.5-3.4,7.5-7.5c0-4.1-3.4-7.5-7.5-7.5h-26.1c-4.1,0-7.5,3.4-7.5,7.5C291.4,181.4,294.8,184.8,298.9,184.8z M405.1,169.8
	h-26.1c-4.1,0-7.5,3.4-7.5,7.5c0,4.1,3.4,7.5,7.5,7.5h26.1c4.1,0,7.5-3.4,7.5-7.5C412.6,173.1,409.3,169.8,405.1,169.8z M84.7,207.5
	H58.6c-4.1,0-7.5,3.4-7.5,7.5s3.4,7.5,7.5,7.5h26.1c4.1,0,7.5-3.4,7.5-7.5S88.8,207.5,84.7,207.5z M138.7,222.5h26.1
	c4.1,0,7.5-3.4,7.5-7.5s-3.4-7.5-7.5-7.5h-26.1c-4.1,0-7.5,3.4-7.5,7.5S134.6,222.5,138.7,222.5z M218.8,222.5h26.1
	c4.1,0,7.5-3.4,7.5-7.5s-3.4-7.5-7.5-7.5h-26.1c-4.1,0-7.5,3.4-7.5,7.5S214.7,222.5,218.8,222.5z M298.9,222.5H325
	c4.1,0,7.5-3.4,7.5-7.5s-3.4-7.5-7.5-7.5h-26.1c-4.1,0-7.5,3.4-7.5,7.5S294.8,222.5,298.9,222.5z M405.1,207.5h-26.1
	c-4.1,0-7.5,3.4-7.5,7.5s3.4,7.5,7.5,7.5h26.1c4.1,0,7.5-3.4,7.5-7.5S409.3,207.5,405.1,207.5z M138.9,369.7l38.6,38.6
	c5.6,5.6,13,8.6,20.9,8.6s15.3-3.1,20.9-8.6l105.6-105.6c11.5-11.5,11.5-30.3,0-41.8s-30.3-11.5-41.8,0l-84.7,84.7l-17.7-17.7
	c-11.5-11.5-30.2-11.5-41.8,0C127.4,339.5,127.4,358.2,138.9,369.7z M149.5,338.6c2.8-2.8,6.6-4.2,10.3-4.2s7.4,1.4,10.3,4.2l23,23
	c2.9,2.9,7.7,2.9,10.6,0l90-90c5.7-5.7,14.9-5.7,20.6,0c5.7,5.7,5.7,14.9,0,20.6L208.6,397.7c-2.7,2.7-6.4,4.3-10.3,4.3
	s-7.5-1.5-10.3-4.3l-38.6-38.6C143.8,353.4,143.8,344.2,149.5,338.6z M473.1,324.4v-59.8c0-4.1-3.4-7.5-7.5-7.5
	c-4.1,0-7.5,3.4-7.5,7.5v50.3c-13.7-7.1-29.2-11.1-45.6-11.1c-54.9,0-99.5,44.6-99.5,99.5c0,14.4,3.1,28,8.6,40.4H119.1
	c-4.1,0-7.5,3.4-7.5,7.5c0,4.1,3.4,7.5,7.5,7.5h210.8c17.9,26.6,48.2,44.1,82.6,44.1c54.9,0,99.5-44.6,99.5-99.5
	C512,371.1,496.8,342.6,473.1,324.4z M412.5,487.7c-46.6,0-84.5-37.9-84.5-84.5s37.9-84.5,84.5-84.5s84.5,37.9,84.5,84.5
	S459.1,487.7,412.5,487.7z M412.5,329.5c-40.6,0-73.7,33.1-73.7,73.7c0,40.6,33,73.7,73.7,73.7s73.7-33,73.7-73.7
	C486.2,362.6,453.1,329.5,412.5,329.5z M419.2,461.5c0.5-1,0.8-2.1,0.8-3.3V449c0-4.1-3.4-7.5-7.5-7.5s-7.5,3.4-7.5,7.5v9.1
	c0,1.2,0.3,2.3,0.8,3.3c-27-3.1-48.5-24.6-51.6-51.6c1,0.5,2.1,0.8,3.3,0.8h9.1c4.1,0,7.5-3.4,7.5-7.5s-3.4-7.5-7.5-7.5h-9.1
	c-1.2,0-2.3,0.3-3.3,0.8c3.1-27,24.6-48.5,51.6-51.6c-0.5,1-0.8,2.1-0.8,3.3v9.1c0,4.1,3.4,7.5,7.5,7.5s7.5-3.4,7.5-7.5v-9.1
	c0-1.2-0.3-2.3-0.8-3.3c27,3.1,48.5,24.6,51.6,51.6c-1-0.5-2.1-0.8-3.3-0.8h-9.1c-4.1,0-7.5,3.4-7.5,7.5s3.4,7.5,7.5,7.5h9.1
	c1.2,0,2.3-0.3,3.3-0.8C467.7,436.9,446.2,458.4,419.2,461.5z M429,395.7h-9V388c0-4.1-3.4-7.5-7.5-7.5c-4.1,0-7.5,3.4-7.5,7.5v15.2
	c0,4.1,3.4,7.5,7.5,7.5H429c4.1,0,7.5-3.4,7.5-7.5S433.2,395.7,429,395.7z"/>
</svg>
